  0
SECTION
  2
HEADER
  9
$ACADVER
  1
AC1018
  9
$ACADMAINTVER
 70
     0
  9
$DWGCODEPAGE
  3
ANSI_1252
  9
$INSBASE
 10
0.0
 20
0.0
 30
0.0
  9
$EXTMIN
 10
1.000000000000000E+20
 20
1.000000000000000E+20
 30
1.000000000000000E+20
  9
$EXTMAX
 10
-1.000000000000000E+20
 20
-1.000000000000000E+20
 30
-1.000000000000000E+20
  9
$LIMMIN
 10
0.0
 20
0.0
  9
$LIMMAX
 10
12.0
 20
9.0
  9
$ORTHOMODE
 70
     0
  9
$REGENMODE
 70
     1
  9
$FILLMODE
 70
     1
  9
$QTEXTMODE
 70
     0
  9
$MIRRTEXT
 70
     1
  9
$LTSCALE
 40
1.0
  9
$ATTMODE
 70
     1
  9
$TEXTSIZE
 40
0.2
  9
$TRACEWID
 40
0.05
  9
$TEXTSTYLE
  7
Standard
  9
$CLAYER
  8
0
  9
$CELTYPE
  6
ByLayer
  9
$CECOLOR
 62
   256
  9
$CELTSCALE
 40
1.0
  9
$DISPSILH
 70
     0
  9
$DIMSCALE
 40
1.0
  9
$DIMASZ
 40
0.18
  9
$DIMEXO
 40
0.0625
  9
$DIMDLI
 40
0.38
  9
$DIMRND
 40
0.0
  9
$DIMDLE
 40
0.0
  9
$DIMEXE
 40
0.18
  9
$DIMTP
 40
0.0
  9
$DIMTM
 40
0.0
  9
$DIMTXT
 40
0.18
  9
$DIMCEN
 40
0.09
  9
$DIMTSZ
 40
0.0
  9
$DIMTOL
 70
     0
  9
$DIMLIM
 70
     0
  9
$DIMTIH
 70
     1
  9
$DIMTOH
 70
     1
  9
$DIMSE1
 70
     0
  9
$DIMSE2
 70
     0
  9
$DIMTAD
 70
     0
  9
$DIMZIN
 70
     0
  9
$DIMBLK
  1

  9
$DIMASO
 70
     1
  9
$DIMSHO
 70
     1
  9
$DIMPOST
  1

  9
$DIMAPOST
  1

  9
$DIMALT
 70
     0
  9
$DIMALTD
 70
     2
  9
$DIMALTF
 40
25.4
  9
$DIMLFAC
 40
1.0
  9
$DIMTOFL
 70
     0
  9
$DIMTVP
 40
0.0
  9
$DIMTIX
 70
     0
  9
$DIMSOXD
 70
     0
  9
$DIMSAH
 70
     0
  9
$DIMBLK1
  1

  9
$DIMBLK2
  1

  9
$DIMSTYLE
  2
Standard
  9
$DIMCLRD
 70
     0
  9
$DIMCLRE
 70
     0
  9
$DIMCLRT
 70
     0
  9
$DIMTFAC
 40
1.0
  9
$DIMGAP
 40
0.09
  9
$DIMJUST
 70
     0
  9
$DIMSD1
 70
     0
  9
$DIMSD2
 70
     0
  9
$DIMTOLJ
 70
     1
  9
$DIMTZIN
 70
     0
  9
$DIMALTZ
 70
     0
  9
$DIMALTTZ
 70
     0
  9
$DIMUPT
 70
     0
  9
$DIMDEC
 70
     4
  9
$DIMTDEC
 70
     4
  9
$DIMALTU
 70
     2
  9
$DIMALTTD
 70
     2
  9
$DIMTXSTY
  7
Standard
  9
$DIMAUNIT
 70
     0
  9
$DIMADEC
 70
     0
  9
$DIMALTRND
 40
0.0
  9
$DIMAZIN
 70
     0
  9
$DIMDSEP
 70
    46
  9
$DIMATFIT
 70
     3
  9
$DIMFRAC
 70
     0
  9
$DIMLDRBLK
  1

  9
$DIMLUNIT
 70
     2
  9
$DIMLWD
 70
    -2
  9
$DIMLWE
 70
    -2
  9
$DIMTMOVE
 70
     0
  9
$LUNITS
 70
     2
  9
$LUPREC
 70
     4
  9
$SKETCHINC
 40
0.1
  9
$FILLETRAD
 40
0.5
  9
$AUNITS
 70
     0
  9
$AUPREC
 70
     0
  9
$MENU
  1
.
  9
$ELEVATION
 40
0.0
  9
$PELEVATION
 40
0.0
  9
$THICKNESS
 40
0.0
  9
$LIMCHECK
 70
     0
  9
$CHAMFERA
 40
0.5
  9
$CHAMFERB
 40
0.5
  9
$CHAMFERC
 40
1.0
  9
$CHAMFERD
 40
0.0
  9
$SKPOLY
 70
     0
  9
$TDCREATE
 40
2457940.512661817
  9
$TDUCREATE
 40
2457940.429328484
  9
$TDUPDATE
 40
2457940.512661921
  9
$TDUUPDATE
 40
2457940.429328588
  9
$TDINDWG
 40
0.0000000116
  9
$TDUSRTIMER
 40
0.0000000116
  9
$USRTIMER
 70
     1
  9
$ANGBASE
 50
0.0
  9
$ANGDIR
 70
     0
  9
$PDMODE
 70
     0
  9
$PDSIZE
 40
0.0
  9
$PLINEWID
 40
0.0
  9
$SPLFRAME
 70
     0
  9
$SPLINETYPE
 70
     6
  9
$SPLINESEGS
 70
     8
  9
$HANDSEED
  5
1B0
  9
$SURFTAB1
 70
     6
  9
$SURFTAB2
 70
     6
  9
$SURFTYPE
 70
     6
  9
$SURFU
 70
     6
  9
$SURFV
 70
     6
  9
$UCSBASE
  2

  9
$UCSNAME
  2

  9
$UCSORG
 10
0.0
 20
0.0
 30
0.0
  9
$UCSXDIR
 10
1.0
 20
0.0
 30
0.0
  9
$UCSYDIR
 10
0.0
 20
1.0
 30
0.0
  9
$UCSORTHOREF
  2

  9
$UCSORTHOVIEW
 70
     0
  9
$UCSORGTOP
 10
0.0
 20
0.0
 30
0.0
  9
$UCSORGBOTTOM
 10
0.0
 20
0.0
 30
0.0
  9
$UCSORGLEFT
 10
0.0
 20
0.0
 30
0.0
  9
$UCSORGRIGHT
 10
0.0
 20
0.0
 30
0.0
  9
$UCSORGFRONT
 10
0.0
 20
0.0
 30
0.0
  9
$UCSORGBACK
 10
0.0
 20
0.0
 30
0.0
  9
$PUCSBASE
  2

  9
$PUCSNAME
  2

  9
$PUCSORG
 10
0.0
 20
0.0
 30
0.0
  9
$PUCSXDIR
 10
1.0
 20
0.0
 30
0.0
  9
$PUCSYDIR
 10
0.0
 20
1.0
 30
0.0
  9
$PUCSORTHOREF
  2

  9
$PUCSORTHOVIEW
 70
     0
  9
$PUCSORGTOP
 10
0.0
 20
0.0
 30
0.0
  9
$PUCSORGBOTTOM
 10
0.0
 20
0.0
 30
0.0
  9
$PUCSORGLEFT
 10
0.0
 20
0.0
 30
0.0
  9
$PUCSORGRIGHT
 10
0.0
 20
0.0
 30
0.0
  9
$PUCSORGFRONT
 10
0.0
 20
0.0
 30
0.0
  9
$PUCSORGBACK
 10
0.0
 20
0.0
 30
0.0
  9
$USERI1
 70
     0
  9
$USERI2
 70
     0
  9
$USERI3
 70
     0
  9
$USERI4
 70
     0
  9
$USERI5
 70
     0
  9
$USERR1
 40
0.0
  9
$USERR2
 40
0.0
  9
$USERR3
 40
0.0
  9
$USERR4
 40
0.0
  9
$USERR5
 40
0.0
  9
$WORLDVIEW
 70
     1
  9
$SHADEDGE
 70
     3
  9
$SHADEDIF
 70
    70
  9
$TILEMODE
 70
     1
  9
$MAXACTVP
 70
    64
  9
$PINSBASE
 10
0.0
 20
0.0
 30
0.0
  9
$PLIMCHECK
 70
     0
  9
$PEXTMIN
 10
1.000000000000000E+20
 20
1.000000000000000E+20
 30
1.000000000000000E+20
  9
$PEXTMAX
 10
-1.000000000000000E+20
 20
-1.000000000000000E+20
 30
-1.000000000000000E+20
  9
$PLIMMIN
 10
0.0
 20
0.0
  9
$PLIMMAX
 10
12.0
 20
9.0
  9
$UNITMODE
 70
     0
  9
$VISRETAIN
 70
     1
  9
$PLINEGEN
 70
     0
  9
$PSLTSCALE
 70
     1
  9
$TREEDEPTH
 70
  3020
  9
$CMLSTYLE
  2
Standard
  9
$CMLJUST
 70
     0
  9
$CMLSCALE
 40
1.0
  9
$PROXYGRAPHICS
 70
     1
  9
$MEASUREMENT
 70
     0
  9
$CELWEIGHT
370
    -1
  9
$ENDCAPS
280
     0
  9
$JOINSTYLE
280
     0
  9
$LWDISPLAY
290
     1
  9
$INSUNITS
 70
     1
  9
$HYPERLINKBASE
  1

  9
$STYLESHEET
  1

  9
$XEDIT
290
     1
  9
$CEPSNTYPE
380
     0
  9
$PSTYLEMODE
290
     1
  9
$FINGERPRINTGUID
  2
{A31B52F4-BF54-4E88-8D24-F2F2F844CF09}
  9
$VERSIONGUID
  2
{FAEB1C32-E019-11D5-929B-00C0DF256EC4}
  9
$EXTNAMES
290
     1
  9
$PSVPSCALE
 40
0.0
  9
$OLESTARTUP
290
     0
  9
$SORTENTS
280
   127
  9
$INDEXCTL
280
     0
  9
$HIDETEXT
280
     1
  9
$XCLIPFRAME
290
     0
  9
$HALOGAP
280
     0
  9
$OBSCOLOR
 70
   257
  9
$OBSLTYPE
280
     0
  9
$INTERSECTIONDISPLAY
280
     0
  9
$INTERSECTIONCOLOR
 70
   257
  9
$DIMASSOC
280
     2
  9
$PROJECTNAME
  1

  0
ENDSEC
  0
SECTION
  2
CLASSES
  0
CLASS
  1
ACDBDICTIONARYWDFLT
  2
AcDbDictionaryWithDefault
  3
ObjectDBX Classes
 90
        0
 91
        4
280
     0
281
     0
  0
CLASS
  1
VISUALSTYLE
  2
AcDbVisualStyle
  3
ObjectDBX Classes
 90
     4095
 91
        4
280
     0
281
     0
  0
CLASS
  1
MATERIAL
  2
AcDbMaterial
  3
ObjectDBX Classes
 90
     1153
 91
        4
280
     0
281
     0
  0
CLASS
  1
SUN
  2
AcDbSun
  3
SCENEOE
 90
     1024
 91
        4
280
     0
281
     0
  0
ENDSEC
  0
SECTION
  2
TABLES
  0
TABLE
  2
VPORT
  5
8
330
0
100
AcDbSymbolTable
 70
     1
  0
VPORT
  5
29
330
8
100
AcDbSymbolTableRecord
100
AcDbViewportTableRecord
  2
*Active
 70
     0
 10
0.0
 20
0.0
 11
1.0
 21
1.0
 12
0.0
 22
0.0
 13
0.0
 23
0.0
 14
0.5
 24
0.5
 15
0.5
 25
0.5
 16
0.0
 26
0.0
 36
1.0
 17
575.7333331894
 27
481.1888887685917
 37
0.0
 40
962.3777775371834
 41
1.196480938416422
 42
50.0
 43
0.0
 44
0.0
 50
0.0
 51
0.0
 71
     0
 72
   100
 73
     1
 74
     3
 75
     0
 76
     0
 77
     0
 78
     0
281
     0
 65
     1
110
0.0
120
0.0
130
0.0
111
1.0
121
0.0
131
0.0
112
0.0
122
1.0
132
0.0
 79
     0
146
0.0
  0
ENDTAB
  0
TABLE
  2
LTYPE
  5
5
330
0
100
AcDbSymbolTable
 70
     1
  0
LTYPE
  5
14
330
5
100
AcDbSymbolTableRecord
100
AcDbLinetypeTableRecord
  2
ByBlock
 70
     0
  3

 72
    65
 73
     0
 40
0.0
  0
LTYPE
  5
15
330
5
100
AcDbSymbolTableRecord
100
AcDbLinetypeTableRecord
  2
ByLayer
 70
     0
  3

 72
    65
 73
     0
 40
0.0
  0
LTYPE
  5
16
330
5
100
AcDbSymbolTableRecord
100
AcDbLinetypeTableRecord
  2
Continuous
 70
     0
  3
Solid line
 72
    65
 73
     0
 40
0.0
  0
ENDTAB
  0
TABLE
  2
LAYER
  5
2
330
0
100
AcDbSymbolTable
 70
     4
  0
LAYER
  5
10
330
2
100
AcDbSymbolTableRecord
100
AcDbLayerTableRecord
  2
0
 70
     0
 62
     7
  6
Continuous
370
    -3
390
F
  0
LAYER
  5
40
330
2
100
AcDbSymbolTableRecord
100
AcDbLayerTableRecord
  2
incisione
 70
     0
 62
     7
  6
Continuous
370
    -3
390
F
  0
LAYER
  5
F2
330
2
100
AcDbSymbolTableRecord
100
AcDbLayerTableRecord
  2
int cut
 70
     0
 62
     7
  6
Continuous
370
    -3
390
F
  0
LAYER
  5
153
330
2
100
AcDbSymbolTableRecord
100
AcDbLayerTableRecord
  2
cut
 70
     0
 62
     7
  6
Continuous
370
    -3
390
F
  0
ENDTAB
  0
TABLE
  2
STYLE
  5
3
330
0
100
AcDbSymbolTable
 70
     1
  0
STYLE
  5
11
330
3
100
AcDbSymbolTableRecord
100
AcDbTextStyleTableRecord
  2
Standard
 70
     0
 40
0.0
 41
1.0
 50
0.0
 71
     0
 42
0.2
  3
txt
  4

  0
ENDTAB
  0
TABLE
  2
VIEW
  5
6
330
0
100
AcDbSymbolTable
 70
     0
  0
ENDTAB
  0
TABLE
  2
UCS
  5
7
330
0
100
AcDbSymbolTable
 70
     0
  0
ENDTAB
  0
TABLE
  2
APPID
  5
9
330
0
100
AcDbSymbolTable
 70
     1
  0
APPID
  5
12
330
9
100
AcDbSymbolTableRecord
100
AcDbRegAppTableRecord
  2
ACAD
 70
     0
  0
ENDTAB
  0
TABLE
  2
DIMSTYLE
  5
A
330
0
100
AcDbSymbolTable
 70
     1
100
AcDbDimStyleTable
  0
DIMSTYLE
105
27
330
A
100
AcDbSymbolTableRecord
100
AcDbDimStyleTableRecord
  2
Standard
 70
     0
178
     0
340
11
  0
ENDTAB
  0
TABLE
  2
BLOCK_RECORD
  5
1
330
0
100
AcDbSymbolTable
 70
    27
  0
BLOCK_RECORD
  5
1F
330
1
100
AcDbSymbolTableRecord
100
AcDbBlockTableRecord
  2
*Model_Space
340
22
  0
BLOCK_RECORD
  5
1B
330
1
100
AcDbSymbolTableRecord
100
AcDbBlockTableRecord
  2
*Paper_Space
340
1E
  0
BLOCK_RECORD
  5
23
330
1
100
AcDbSymbolTableRecord
100
AcDbBlockTableRecord
  2
*Paper_Space0
340
26
  0
BLOCK_RECORD
  5
41
330
1
100
AcDbSymbolTableRecord
100
AcDbBlockTableRecord
  2
block 2
340
0
102
{BLKREFS
331
42
102
}
  0
BLOCK_RECORD
  5
45
330
1
100
AcDbSymbolTableRecord
100
AcDbBlockTableRecord
  2
block 3
340
0
102
{BLKREFS
331
46
102
}
  0
BLOCK_RECORD
  5
49
330
1
100
AcDbSymbolTableRecord
100
AcDbBlockTableRecord
  2
block 4
340
0
102
{BLKREFS
331
4A
102
}
  0
BLOCK_RECORD
  5
4D
330
1
100
AcDbSymbolTableRecord
100
AcDbBlockTableRecord
  2
block 5
340
0
102
{BLKREFS
331
4E
102
}
  0
BLOCK_RECORD
  5
54
330
1
100
AcDbSymbolTableRecord
100
AcDbBlockTableRecord
  2
block 6
340
0
102
{BLKREFS
331
55
102
}
  0
BLOCK_RECORD
  5
58
330
1
100
AcDbSymbolTableRecord
100
AcDbBlockTableRecord
  2
block 7
340
0
102
{BLKREFS
331
59
102
}
  0
BLOCK_RECORD
  5
5F
330
1
100
AcDbSymbolTableRecord
100
AcDbBlockTableRecord
  2
block 8
340
0
102
{BLKREFS
331
60
102
}
  0
BLOCK_RECORD
  5
63
330
1
100
AcDbSymbolTableRecord
100
AcDbBlockTableRecord
  2
block 9
340
0
102
{BLKREFS
331
64
102
}
  0
BLOCK_RECORD
  5
6A
330
1
100
AcDbSymbolTableRecord
100
AcDbBlockTableRecord
  2
block 10
340
0
102
{BLKREFS
331
6B
102
}
  0
BLOCK_RECORD
  5
6E
330
1
100
AcDbSymbolTableRecord
100
AcDbBlockTableRecord
  2
block 11
340
0
102
{BLKREFS
331
6F
102
}
  0
BLOCK_RECORD
  5
75
330
1
100
AcDbSymbolTableRecord
100
AcDbBlockTableRecord
  2
block 12
340
0
102
{BLKREFS
331
76
102
}
  0
BLOCK_RECORD
  5
82
330
1
100
AcDbSymbolTableRecord
100
AcDbBlockTableRecord
  2
block 13
340
0
102
{BLKREFS
331
83
102
}
  0
BLOCK_RECORD
  5
91
330
1
100
AcDbSymbolTableRecord
100
AcDbBlockTableRecord
  2
block 14
340
0
102
{BLKREFS
331
92
102
}
  0
BLOCK_RECORD
  5
97
330
1
100
AcDbSymbolTableRecord
100
AcDbBlockTableRecord
  2
block 15
340
0
102
{BLKREFS
331
98
102
}
  0
BLOCK_RECORD
  5
AF
330
1
100
AcDbSymbolTableRecord
100
AcDbBlockTableRecord
  2
block 16
340
0
102
{BLKREFS
331
B0
102
}
  0
BLOCK_RECORD
  5
B5
330
1
100
AcDbSymbolTableRecord
100
AcDbBlockTableRecord
  2
block 17
340
0
102
{BLKREFS
331
B6
102
}
  0
BLOCK_RECORD
  5
BB
330
1
100
AcDbSymbolTableRecord
100
AcDbBlockTableRecord
  2
block 18
340
0
102
{BLKREFS
331
BC
102
}
  0
BLOCK_RECORD
  5
C1
330
1
100
AcDbSymbolTableRecord
100
AcDbBlockTableRecord
  2
block 19
340
0
102
{BLKREFS
331
C2
102
}
  0
BLOCK_RECORD
  5
C7
330
1
100
AcDbSymbolTableRecord
100
AcDbBlockTableRecord
  2
block 20
340
0
102
{BLKREFS
331
C8
102
}
  0
BLOCK_RECORD
  5
CE
330
1
100
AcDbSymbolTableRecord
100
AcDbBlockTableRecord
  2
block 21
340
0
102
{BLKREFS
331
CF
102
}
  0
BLOCK_RECORD
  5
D5
330
1
100
AcDbSymbolTableRecord
100
AcDbBlockTableRecord
  2
block 22
340
0
102
{BLKREFS
331
D6
102
}
  0
BLOCK_RECORD
  5
DB
330
1
100
AcDbSymbolTableRecord
100
AcDbBlockTableRecord
  2
block 23
340
0
102
{BLKREFS
331
DC
102
}
  0
BLOCK_RECORD
  5
E1
330
1
100
AcDbSymbolTableRecord
100
AcDbBlockTableRecord
  2
block 24
340
0
102
{BLKREFS
331
E2
102
}
  0
BLOCK_RECORD
  5
E8
330
1
100
AcDbSymbolTableRecord
100
AcDbBlockTableRecord
  2
block 25
340
0
102
{BLKREFS
331
E9
102
}
  0
BLOCK_RECORD
  5
126
330
1
100
AcDbSymbolTableRecord
100
AcDbBlockTableRecord
  2
block 26
340
0
102
{BLKREFS
331
127
102
}
  0
BLOCK_RECORD
  5
132
330
1
100
AcDbSymbolTableRecord
100
AcDbBlockTableRecord
  2
block 27
340
0
102
{BLKREFS
331
133
102
}
  0
ENDTAB
  0
ENDSEC
  0
SECTION
  2
BLOCKS
  0
BLOCK
  5
20
330
1F
100
AcDbEntity
  8
0
100
AcDbBlockBegin
  2
*Model_Space
 70
     0
 10
0.0
 20
0.0
 30
0.0
  3
*Model_Space
  1

  0
ENDBLK
  5
21
330
1F
100
AcDbEntity
  8
0
100
AcDbBlockEnd
  0
BLOCK
  5
1C
330
1B
100
AcDbEntity
 67
     1
  8
0
100
AcDbBlockBegin
  2
*Paper_Space
 70
     0
 10
0.0
 20
0.0
 30
0.0
  3
*Paper_Space
  1

  0
ENDBLK
  5
1D
330
1B
100
AcDbEntity
 67
     1
  8
0
100
AcDbBlockEnd
  0
BLOCK
  5
24
330
23
100
AcDbEntity
  8
0
100
AcDbBlockBegin
  2
*Paper_Space0
 70
     0
 10
0.0
 20
0.0
 30
0.0
  3
*Paper_Space0
  1

  0
ENDBLK
  5
25
330
23
100
AcDbEntity
  8
0
100
AcDbBlockEnd
  0
BLOCK
  5
43
330
41
100
AcDbEntity
  8
0
100
AcDbBlockBegin
  2
block 2
 70
     0
 10
0.0
 20
0.0
 30
0.0
  3
block 2
  1

  0
ENDBLK
  5
44
330
41
100
AcDbEntity
  8
0
100
AcDbBlockEnd
  0
BLOCK
  5
47
330
45
100
AcDbEntity
  8
0
100
AcDbBlockBegin
  2
block 3
 70
     0
 10
0.0
 20
0.0
 30
0.0
  3
block 3
  1

  0
ENDBLK
  5
48
330
45
100
AcDbEntity
  8
0
100
AcDbBlockEnd
  0
BLOCK
  5
4B
330
49
100
AcDbEntity
  8
0
100
AcDbBlockBegin
  2
block 4
 70
     0
 10
0.0
 20
0.0
 30
0.0
  3
block 4
  1

  0
INSERT
  5
4E
330
49
100
AcDbEntity
  8
incisione
100
AcDbBlockReference
  2
block 5
 10
0.0
 20
0.0
 30
0.0
  0
HATCH
  5
53
330
49
100
AcDbEntity
  8
incisione
 62
     7
100
AcDbHatch
 10
0.0
 20
0.0
 30
0.0
210
0.0
220
0.0
230
1.0
  2
SOLID
 70
     1
 71
     0
 91
        2
 92
        1
 93
        1
 72
     4
 94
        3
 73
     0
 74
     1
 95
       23
 96
       19
 40
0.0
 40
0.0
 40
0.0
 40
0.0
 40
1.0
 40
1.0
 40
1.0
 40
2.0
 40
2.0
 40
2.0
 40
3.0
 40
3.0
 40
3.0
 40
4.0
 40
4.0
 40
4.0
 40
5.0
 40
5.0
 40
5.0
 40
6.0
 40
6.0
 40
6.0
 40
6.0
 10
50.87055984920728
 20
923.6762746409078
 10
50.11207901443596
 20
923.6762746409078
 10
49.48061454383645
 20
923.1224109461128
 10
49.3606606254094
 20
922.3992208082186
 10
49.34655726576698
 20
922.318088809541
 10
49.33949482002222
 20
922.2334255879925
 10
49.33949482002222
 20
922.1487623664409
 10
49.33949482002222
 20
922.0640776130441
 10
49.34655726576698
 20
921.9794143914925
 10
49.3606606254094
 20
921.8982823928148
 10
49.48061454383645
 20
921.1750922549238
 10
50.11207901443596
 20
920.6212285601292
 10
50.87055984920728
 20
920.6212285601292
 10
51.71017268265623
 20
920.6212285601292
 10
52.39809365552027
 20
921.3056183101183
 10
52.39809365552027
 20
922.1487623664409
 10
52.39809365552027
 20
922.9918848909149
 10
51.71017268265623
 20
923.6762746409078
 10
50.87055984920728
 20
923.6762746409078
 97
        0
 92
        1
 93
        1
 72
     4
 94
        3
 73
     0
 74
     1
 95
       17
 96
       13
 40
0.0
 40
0.0
 40
0.0
 40
0.0
 40
1.0
 40
1.0
 40
1.0
 40
2.0
 40
2.0
 40
2.0
 40
3.0
 40
3.0
 40
3.0
 40
4.0
 40
4.0
 40
4.0
 40
4.0
 10
50.87055984920728
 20
921.1186357526583
 10
50.30259279477028
 20
921.1186357526583
 10
49.84045476727079
 20
921.5807737801565
 10
49.84045476727079
 20
922.1487623664409
 10
49.84045476727079
 20
922.7167294208766
 10
50.30259279477028
 20
923.1788674483787
 10
50.87055984920728
 20
923.1788674483787
 10
51.4349956807719
 20
923.1788674483787
 10
51.8971337082717
 20
922.7167294208766
 10
51.8971337082717
 20
922.1487623664409
 10
51.8971337082717
 20
921.5807737801565
 10
51.4349956807719
 20
921.1186357526583
 10
50.87055984920728
 20
921.1186357526583
 97
        0
 75
     2
 76
     1
 98
        0
  0
ENDBLK
  5
4C
330
49
100
AcDbEntity
  8
0
100
AcDbBlockEnd
  0
BLOCK
  5
4F
330
4D
100
AcDbEntity
  8
0
100
AcDbBlockBegin
  2
block 5
 70
     0
 10
0.0
 20
0.0
 30
0.0
  3
block 5
  1

  0
SPLINE
  5
51
330
4D
100
AcDbEntity
  8
incisione
370
     0
100
AcDbSpline
210
0.0
220
0.0
230
1.0
 70
    11
 71
     3
 72
    23
 73
    19
 74
     0
 42
0.0000000001
 43
0.0000000001
 12
1.0
 22
0.0
 32
0.0
 13
1.0
 23
0.0
 33
0.0
 40
0.0
 40
0.0
 40
0.0
 40
0.0
 40
1.0
 40
1.0
 40
1.0
 40
2.0
 40
2.0
 40
2.0
 40
3.0
 40
3.0
 40
3.0
 40
4.0
 40
4.0
 40
4.0
 40
5.0
 40
5.0
 40
5.0
 40
6.0
 40
6.0
 40
6.0
 40
6.0
 10
50.87055984920728
 20
923.6762746409078
 30
0.0
 10
50.11207901443596
 20
923.6762746409078
 30
0.0
 10
49.48061454383645
 20
923.1224109461128
 30
0.0
 10
49.3606606254094
 20
922.3992208082186
 30
0.0
 10
49.34655726576698
 20
922.318088809541
 30
0.0
 10
49.33949482002222
 20
922.2334255879925
 30
0.0
 10
49.33949482002222
 20
922.1487623664409
 30
0.0
 10
49.33949482002222
 20
922.0640776130441
 30
0.0
 10
49.34655726576698
 20
921.9794143914925
 30
0.0
 10
49.3606606254094
 20
921.8982823928148
 30
0.0
 10
49.48061454383645
 20
921.1750922549238
 30
0.0
 10
50.11207901443596
 20
920.6212285601292
 30
0.0
 10
50.87055984920728
 20
920.6212285601292
 30
0.0
 10
51.71017268265623
 20
920.6212285601292
 30
0.0
 10
52.39809365552027
 20
921.3056183101183
 30
0.0
 10
52.39809365552027
 20
922.1487623664409
 30
0.0
 10
52.39809365552027
 20
922.9918848909149
 30
0.0
 10
51.71017268265623
 20
923.6762746409078
 30
0.0
 10
50.87055984920728
 20
923.6762746409078
 30
0.0
  0
SPLINE
  5
52
330
4D
100
AcDbEntity
  8
incisione
370
     0
100
AcDbSpline
210
0.0
220
0.0
230
1.0
 70
    11
 71
     3
 72
    17
 73
    13
 74
     0
 42
0.0000000001
 43
0.0000000001
 12
1.0
 22
0.0
 32
0.0
 13
1.0
 23
0.0
 33
0.0
 40
0.0
 40
0.0
 40
0.0
 40
0.0
 40
1.0
 40
1.0
 40
1.0
 40
2.0
 40
2.0
 40
2.0
 40
3.0
 40
3.0
 40
3.0
 40
4.0
 40
4.0
 40
4.0
 40
4.0
 10
50.87055984920728
 20
921.1186357526583
 30
0.0
 10
50.30259279477028
 20
921.1186357526583
 30
0.0
 10
49.84045476727079
 20
921.5807737801565
 30
0.0
 10
49.84045476727079
 20
922.1487623664409
 30
0.0
 10
49.84045476727079
 20
922.7167294208766
 30
0.0
 10
50.30259279477028
 20
923.1788674483787
 30
0.0
 10
50.87055984920728
 20
923.1788674483787
 30
0.0
 10
51.4349956807719
 20
923.1788674483787
 30
0.0
 10
51.8971337082717
 20
922.7167294208766
 30
0.0
 10
51.8971337082717
 20
922.1487623664409
 30
0.0
 10
51.8971337082717
 20
921.5807737801565
 30
0.0
 10
51.4349956807719
 20
921.1186357526583
 30
0.0
 10
50.87055984920728
 20
921.1186357526583
 30
0.0
  0
ENDBLK
  5
50
330
4D
100
AcDbEntity
  8
0
100
AcDbBlockEnd
  0
BLOCK
  5
56
330
54
100
AcDbEntity
  8
0
100
AcDbBlockBegin
  2
block 6
 70
     0
 10
0.0
 20
0.0
 30
0.0
  3
block 6
  1

  0
INSERT
  5
59
330
54
100
AcDbEntity
  8
incisione
100
AcDbBlockReference
  2
block 7
 10
0.0
 20
0.0
 30
0.0
  0
HATCH
  5
5E
330
54
100
AcDbEntity
  8
incisione
 62
     7
100
AcDbHatch
 10
0.0
 20
0.0
 30
0.0
210
0.0
220
0.0
230
1.0
  2
SOLID
 70
     1
 71
     0
 91
        2
 92
        1
 93
        1
 72
     4
 94
        3
 73
     0
 74
     1
 95
       23
 96
       19
 40
0.0
 40
0.0
 40
0.0
 40
0.0
 40
1.0
 40
1.0
 40
1.0
 40
2.0
 40
2.0
 40
2.0
 40
3.0
 40
3.0
 40
3.0
 40
4.0
 40
4.0
 40
4.0
 40
5.0
 40
5.0
 40
5.0
 40
6.0
 40
6.0
 40
6.0
 40
6.0
 10
48.99024826520502
 20
916.8465020324817
 10
48.23178896228016
 20
916.8465020324817
 10
47.60030295983387
 20
916.2926383376871
 10
47.48390179612599
 20
915.5659169769178
 10
47.46977690463646
 20
915.4847849782402
 10
47.4627144588917
 20
915.4036314477183
 10
47.4627144588917
 20
915.3189682261664
 10
47.4627144588917
 20
915.2343050046184
 10
47.46977690463646
 20
915.1496417830664
 10
47.48390179612599
 20
915.0685097843888
 10
47.60383418270625
 20
914.3452981146496
 10
48.23178896228016
 20
913.7879247288284
 10
48.99024826520502
 20
913.7879247288284
 10
49.83339232152603
 20
913.7879247288284
 10
50.52131329439008
 20
914.4758457016925
 10
50.52131329439008
 20
915.3189682261664
 10
50.52131329439008
 20
916.1621122824884
 10
49.83339232152603
 20
916.8465020324817
 10
48.99024826520502
 20
916.8465020324817
 97
        0
 92
        1
 93
        1
 72
     4
 94
        3
 73
     0
 74
     1
 95
       17
 96
       13
 40
0.0
 40
0.0
 40
0.0
 40
0.0
 40
1.0
 40
1.0
 40
1.0
 40
2.0
 40
2.0
 40
2.0
 40
3.0
 40
3.0
 40
3.0
 40
4.0
 40
4.0
 40
4.0
 40
4.0
 10
48.99024826520502
 20
914.2888631442322
 10
48.42228121076769
 20
914.2888631442322
 10
47.96367440614059
 20
914.7510011717301
 10
47.96367440614059
 20
915.3189682261664
 10
47.96367440614059
 20
915.88342558958
 10
48.42228121076769
 20
916.3455636170779
 10
48.99024826520502
 20
916.3455636170779
 10
49.5582153196417
 20
916.3455636170779
 10
50.02035334714118
 20
915.88342558958
 10
50.02035334714118
 20
915.3189682261664
 10
50.02035334714118
 20
914.7510011717301
 10
49.5582153196417
 20
914.2888631442322
 10
48.99024826520502
 20
914.2888631442322
 97
        0
 75
     2
 76
     1
 98
        0
  0
ENDBLK
  5
57
330
54
100
AcDbEntity
  8
0
100
AcDbBlockEnd
  0
BLOCK
  5
5A
330
58
100
AcDbEntity
  8
0
100
AcDbBlockBegin
  2
block 7
 70
     0
 10
0.0
 20
0.0
 30
0.0
  3
block 7
  1

  0
SPLINE
  5
5C
330
58
100
AcDbEntity
  8
incisione
370
     0
100
AcDbSpline
210
0.0
220
0.0
230
1.0
 70
    11
 71
     3
 72
    23
 73
    19
 74
     0
 42
0.0000000001
 43
0.0000000001
 12
1.0
 22
0.0
 32
0.0
 13
1.0
 23
0.0
 33
0.0
 40
0.0
 40
0.0
 40
0.0
 40
0.0
 40
1.0
 40
1.0
 40
1.0
 40
2.0
 40
2.0
 40
2.0
 40
3.0
 40
3.0
 40
3.0
 40
4.0
 40
4.0
 40
4.0
 40
5.0
 40
5.0
 40
5.0
 40
6.0
 40
6.0
 40
6.0
 40
6.0
 10
48.99024826520502
 20
916.8465020324817
 30
0.0
 10
48.23178896228016
 20
916.8465020324817
 30
0.0
 10
47.60030295983387
 20
916.2926383376871
 30
0.0
 10
47.48390179612599
 20
915.5659169769178
 30
0.0
 10
47.46977690463646
 20
915.4847849782402
 30
0.0
 10
47.4627144588917
 20
915.4036314477183
 30
0.0
 10
47.4627144588917
 20
915.3189682261664
 30
0.0
 10
47.4627144588917
 20
915.2343050046184
 30
0.0
 10
47.46977690463646
 20
915.1496417830664
 30
0.0
 10
47.48390179612599
 20
915.0685097843888
 30
0.0
 10
47.60383418270625
 20
914.3452981146496
 30
0.0
 10
48.23178896228016
 20
913.7879247288284
 30
0.0
 10
48.99024826520502
 20
913.7879247288284
 30
0.0
 10
49.83339232152603
 20
913.7879247288284
 30
0.0
 10
50.52131329439008
 20
914.4758457016925
 30
0.0
 10
50.52131329439008
 20
915.3189682261664
 30
0.0
 10
50.52131329439008
 20
916.1621122824884
 30
0.0
 10
49.83339232152603
 20
916.8465020324817
 30
0.0
 10
48.99024826520502
 20
916.8465020324817
 30
0.0
  0
SPLINE
  5
5D
330
58
100
AcDbEntity
  8
incisione
370
     0
100
AcDbSpline
210
0.0
220
0.0
230
1.0
 70
    11
 71
     3
 72
    17
 73
    13
 74
     0
 42
0.0000000001
 43
0.0000000001
 12
1.0
 22
0.0
 32
0.0
 13
1.0
 23
0.0
 33
0.0
 40
0.0
 40
0.0
 40
0.0
 40
0.0
 40
1.0
 40
1.0
 40
1.0
 40
2.0
 40
2.0
 40
2.0
 40
3.0
 40
3.0
 40
3.0
 40
4.0
 40
4.0
 40
4.0
 40
4.0
 10
48.99024826520502
 20
914.2888631442322
 30
0.0
 10
48.42228121076769
 20
914.2888631442322
 30
0.0
 10
47.96367440614059
 20
914.7510011717301
 30
0.0
 10
47.96367440614059
 20
915.3189682261664
 30
0.0
 10
47.96367440614059
 20
915.88342558958
 30
0.0
 10
48.42228121076769
 20
916.3455636170779
 30
0.0
 10
48.99024826520502
 20
916.3455636170779
 30
0.0
 10
49.5582153196417
 20
916.3455636170779
 30
0.0
 10
50.02035334714118
 20
915.88342558958
 30
0.0
 10
50.02035334714118
 20
915.3189682261664
 30
0.0
 10
50.02035334714118
 20
914.7510011717301
 30
0.0
 10
49.5582153196417
 20
914.2888631442322
 30
0.0
 10
48.99024826520502
 20
914.2888631442322
 30
0.0
  0
ENDBLK
  5
5B
330
58
100
AcDbEntity
  8
0
100
AcDbBlockEnd
  0
BLOCK
  5
61
330
5F
100
AcDbEntity
  8
0
100
AcDbBlockBegin
  2
block 8
 70
     0
 10
0.0
 20
0.0
 30
0.0
  3
block 8
  1

  0
INSERT
  5
64
330
5F
100
AcDbEntity
  8
incisione
100
AcDbBlockReference
  2
block 9
 10
0.0
 20
0.0
 30
0.0
  0
HATCH
  5
69
330
5F
100
AcDbEntity
  8
incisione
 62
     7
100
AcDbHatch
 10
0.0
 20
0.0
 30
0.0
210
0.0
220
0.0
230
1.0
  2
SOLID
 70
     1
 71
     0
 91
        2
 92
        1
 93
        1
 72
     4
 94
        3
 73
     0
 74
     1
 95
       23
 96
       19
 40
0.0
 40
0.0
 40
0.0
 40
0.0
 40
1.0
 40
1.0
 40
1.0
 40
2.0
 40
2.0
 40
2.0
 40
3.0
 40
3.0
 40
3.0
 40
4.0
 40
4.0
 40
4.0
 40
5.0
 40
5.0
 40
5.0
 40
6.0
 40
6.0
 40
6.0
 40
6.0
 10
65.06633417834063
 20
911.9958075892499
 10
64.31138456644169
 20
911.9958075892499
 10
63.67992009584218
 20
911.4419438944553
 10
63.55996617741513
 20
910.7187537565603
 10
63.54586281777271
 20
910.6376217578827
 10
63.53880037202795
 20
910.5529370044866
 10
63.53880037202795
 20
910.4682737829346
 10
63.53880037202795
 20
910.3836105613865
 10
63.54586281777271
 20
910.2989473398346
 10
63.55996617741513
 20
910.217815341157
 10
63.67992009584218
 20
909.4910939803916
 10
64.31138456644169
 20
908.9372302855967
 10
65.06633417834063
 20
908.9372302855967
 10
65.90947823466196
 20
908.9372302855967
 10
66.597399207526
 20
909.6251512584607
 10
66.597399207526
 20
910.4682737829346
 10
66.597399207526
 20
911.3114178392566
 10
65.90947823466196
 20
911.9958075892499
 10
65.06633417834063
 20
911.9958075892499
 97
        0
 92
        1
 93
        1
 72
     4
 94
        3
 73
     0
 74
     1
 95
       17
 96
       13
 40
0.0
 40
0.0
 40
0.0
 40
0.0
 40
1.0
 40
1.0
 40
1.0
 40
2.0
 40
2.0
 40
2.0
 40
3.0
 40
3.0
 40
3.0
 40
4.0
 40
4.0
 40
4.0
 40
4.0
 10
65.06633417834063
 20
909.4381687010004
 10
64.501898346776
 20
909.4381687010004
 10
64.03976031927652
 20
909.9003067284983
 10
64.03976031927652
 20
910.4682737829346
 10
64.03976031927652
 20
911.0327311463483
 10
64.501898346776
 20
911.4948691738462
 10
65.06633417834063
 20
911.4948691738462
 10
65.63430123277763
 20
911.4948691738462
 10
66.09643926027744
 20
911.0327311463483
 10
66.09643926027744
 20
910.4682737829346
 10
66.09643926027744
 20
909.9003067284983
 10
65.63430123277763
 20
909.4381687010004
 10
65.06633417834063
 20
909.4381687010004
 97
        0
 75
     2
 76
     1
 98
        0
  0
ENDBLK
  5
62
330
5F
100
AcDbEntity
  8
0
100
AcDbBlockEnd
  0
BLOCK
  5
65
330
63
100
AcDbEntity
  8
0
100
AcDbBlockBegin
  2
block 9
 70
     0
 10
0.0
 20
0.0
 30
0.0
  3
block 9
  1

  0
SPLINE
  5
67
330
63
100
AcDbEntity
  8
incisione
370
     0
100
AcDbSpline
210
0.0
220
0.0
230
1.0
 70
    11
 71
     3
 72
    23
 73
    19
 74
     0
 42
0.0000000001
 43
0.0000000001
 12
1.0
 22
0.0
 32
0.0
 13
1.0
 23
0.0
 33
0.0
 40
0.0
 40
0.0
 40
0.0
 40
0.0
 40
1.0
 40
1.0
 40
1.0
 40
2.0
 40
2.0
 40
2.0
 40
3.0
 40
3.0
 40
3.0
 40
4.0
 40
4.0
 40
4.0
 40
5.0
 40
5.0
 40
5.0
 40
6.0
 40
6.0
 40
6.0
 40
6.0
 10
65.06633417834063
 20
911.9958075892499
 30
0.0
 10
64.31138456644169
 20
911.9958075892499
 30
0.0
 10
63.67992009584218
 20
911.4419438944553
 30
0.0
 10
63.55996617741513
 20
910.7187537565603
 30
0.0
 10
63.54586281777271
 20
910.6376217578827
 30
0.0
 10
63.53880037202795
 20
910.5529370044866
 30
0.0
 10
63.53880037202795
 20
910.4682737829346
 30
0.0
 10
63.53880037202795
 20
910.3836105613865
 30
0.0
 10
63.54586281777271
 20
910.2989473398346
 30
0.0
 10
63.55996617741513
 20
910.217815341157
 30
0.0
 10
63.67992009584218
 20
909.4910939803916
 30
0.0
 10
64.31138456644169
 20
908.9372302855967
 30
0.0
 10
65.06633417834063
 20
908.9372302855967
 30
0.0
 10
65.90947823466196
 20
908.9372302855967
 30
0.0
 10
66.597399207526
 20
909.6251512584607
 30
0.0
 10
66.597399207526
 20
910.4682737829346
 30
0.0
 10
66.597399207526
 20
911.3114178392566
 30
0.0
 10
65.90947823466196
 20
911.9958075892499
 30
0.0
 10
65.06633417834063
 20
911.9958075892499
 30
0.0
  0
SPLINE
  5
68
330
63
100
AcDbEntity
  8
incisione
370
     0
100
AcDbSpline
210
0.0
220
0.0
230
1.0
 70
    11
 71
     3
 72
    17
 73
    13
 74
     0
 42
0.0000000001
 43
0.0000000001
 12
1.0
 22
0.0
 32
0.0
 13
1.0
 23
0.0
 33
0.0
 40
0.0
 40
0.0
 40
0.0
 40
0.0
 40
1.0
 40
1.0
 40
1.0
 40
2.0
 40
2.0
 40
2.0
 40
3.0
 40
3.0
 40
3.0
 40
4.0
 40
4.0
 40
4.0
 40
4.0
 10
65.06633417834063
 20
909.4381687010004
 30
0.0
 10
64.501898346776
 20
909.4381687010004
 30
0.0
 10
64.03976031927652
 20
909.9003067284983
 30
0.0
 10
64.03976031927652
 20
910.4682737829346
 30
0.0
 10
64.03976031927652
 20
911.0327311463483
 30
0.0
 10
64.501898346776
 20
911.4948691738462
 30
0.0
 10
65.06633417834063
 20
911.4948691738462
 30
0.0
 10
65.63430123277763
 20
911.4948691738462
 30
0.0
 10
66.09643926027744
 20
911.0327311463483
 30
0.0
 10
66.09643926027744
 20
910.4682737829346
 30
0.0
 10
66.09643926027744
 20
909.9003067284983
 30
0.0
 10
65.63430123277763
 20
909.4381687010004
 30
0.0
 10
65.06633417834063
 20
909.4381687010004
 30
0.0
  0
ENDBLK
  5
66
330
63
100
AcDbEntity
  8
0
100
AcDbBlockEnd
  0
BLOCK
  5
6C
330
6A
100
AcDbEntity
  8
0
100
AcDbBlockBegin
  2
block 10
 70
     0
 10
0.0
 20
0.0
 30
0.0
  3
block 10
  1

  0
INSERT
  5
6F
330
6A
100
AcDbEntity
  8
incisione
100
AcDbBlockReference
  2
block 11
 10
0.0
 20
0.0
 30
0.0
  0
HATCH
  5
74
330
6A
100
AcDbEntity
  8
incisione
 62
     7
100
AcDbHatch
 10
0.0
 20
0.0
 30
0.0
210
0.0
220
0.0
230
1.0
  2
SOLID
 70
     1
 71
     0
 91
        2
 92
        1
 93
        1
 72
     4
 94
        3
 73
     0
 74
     1
 95
       23
 96
       19
 40
0.0
 40
0.0
 40
0.0
 40
0.0
 40
1.0
 40
1.0
 40
1.0
 40
2.0
 40
2.0
 40
2.0
 40
3.0
 40
3.0
 40
3.0
 40
4.0
 40
4.0
 40
4.0
 40
5.0
 40
5.0
 40
5.0
 40
6.0
 40
6.0
 40
6.0
 40
6.0
 10
55.18855640303229
 20
903.2927858425634
 10
54.43360679113336
 20
903.2927858425634
 10
53.80214232053384
 20
902.7389221477691
 10
53.6821884021068
 20
902.0157320098741
 10
53.66808504246438
 20
901.934578479352
 10
53.66102259671962
 20
901.8499152578004
 10
53.66102259671962
 20
901.7652520362519
 10
53.66102259671962
 20
901.6805888147003
 10
53.66808504246438
 20
901.595925593152
 10
53.6821884021068
 20
901.5147720626259
 10
53.80214232053384
 20
900.7915819247316
 10
54.43360679113336
 20
900.2377182299367
 10
55.18855640303229
 20
900.2377182299367
 10
56.03170045935362
 20
900.2377182299367
 10
56.71962143221766
 20
900.9221079799297
 10
56.71962143221766
 20
901.7652520362519
 10
56.71962143221766
 20
902.6083960925704
 10
56.03170045935362
 20
903.2927858425634
 10
55.18855640303229
 20
903.2927858425634
 97
        0
 92
        1
 93
        1
 72
     4
 94
        3
 73
     0
 74
     1
 95
       17
 96
       13
 40
0.0
 40
0.0
 40
0.0
 40
0.0
 40
1.0
 40
1.0
 40
1.0
 40
2.0
 40
2.0
 40
2.0
 40
3.0
 40
3.0
 40
3.0
 40
4.0
 40
4.0
 40
4.0
 40
4.0
 10
55.18855640303229
 20
900.7351469543139
 10
54.62412057146767
 20
900.7351469543139
 10
54.16198254396819
 20
901.1972849818121
 10
54.16198254396819
 20
901.7652520362519
 10
54.16198254396819
 20
902.333219090688
 10
54.62412057146767
 20
902.7953571181862
 10
55.18855640303229
 20
902.7953571181862
 10
55.75652345746929
 20
902.7953571181862
 10
56.2186614849691
 20
902.333219090688
 10
56.2186614849691
 20
901.7652520362519
 10
56.2186614849691
 20
901.1972849818121
 10
55.75652345746929
 20
900.7351469543139
 10
55.18855640303229
 20
900.7351469543139
 97
        0
 75
     2
 76
     1
 98
        0
  0
ENDBLK
  5
6D
330
6A
100
AcDbEntity
  8
0
100
AcDbBlockEnd
  0
BLOCK
  5
70
330
6E
100
AcDbEntity
  8
0
100
AcDbBlockBegin
  2
block 11
 70
     0
 10
0.0
 20
0.0
 30
0.0
  3
block 11
  1

  0
SPLINE
  5
72
330
6E
100
AcDbEntity
  8
incisione
370
     0
100
AcDbSpline
210
0.0
220
0.0
230
1.0
 70
    11
 71
     3
 72
    23
 73
    19
 74
     0
 42
0.0000000001
 43
0.0000000001
 12
1.0
 22
0.0
 32
0.0
 13
1.0
 23
0.0
 33
0.0
 40
0.0
 40
0.0
 40
0.0
 40
0.0
 40
1.0
 40
1.0
 40
1.0
 40
2.0
 40
2.0
 40
2.0
 40
3.0
 40
3.0
 40
3.0
 40
4.0
 40
4.0
 40
4.0
 40
5.0
 40
5.0
 40
5.0
 40
6.0
 40
6.0
 40
6.0
 40
6.0
 10
55.18855640303229
 20
903.2927858425634
 30
0.0
 10
54.43360679113336
 20
903.2927858425634
 30
0.0
 10
53.80214232053384
 20
902.7389221477691
 30
0.0
 10
53.6821884021068
 20
902.0157320098741
 30
0.0
 10
53.66808504246438
 20
901.934578479352
 30
0.0
 10
53.66102259671962
 20
901.8499152578004
 30
0.0
 10
53.66102259671962
 20
901.7652520362519
 30
0.0
 10
53.66102259671962
 20
901.6805888147003
 30
0.0
 10
53.66808504246438
 20
901.595925593152
 30
0.0
 10
53.6821884021068
 20
901.5147720626259
 30
0.0
 10
53.80214232053384
 20
900.7915819247316
 30
0.0
 10
54.43360679113336
 20
900.2377182299367
 30
0.0
 10
55.18855640303229
 20
900.2377182299367
 30
0.0
 10
56.03170045935362
 20
900.2377182299367
 30
0.0
 10
56.71962143221766
 20
900.9221079799297
 30
0.0
 10
56.71962143221766
 20
901.7652520362519
 30
0.0
 10
56.71962143221766
 20
902.6083960925704
 30
0.0
 10
56.03170045935362
 20
903.2927858425634
 30
0.0
 10
55.18855640303229
 20
903.2927858425634
 30
0.0
  0
SPLINE
  5
73
330
6E
100
AcDbEntity
  8
incisione
370
     0
100
AcDbSpline
210
0.0
220
0.0
230
1.0
 70
    11
 71
     3
 72
    17
 73
    13
 74
     0
 42
0.0000000001
 43
0.0000000001
 12
1.0
 22
0.0
 32
0.0
 13
1.0
 23
0.0
 33
0.0
 40
0.0
 40
0.0
 40
0.0
 40
0.0
 40
1.0
 40
1.0
 40
1.0
 40
2.0
 40
2.0
 40
2.0
 40
3.0
 40
3.0
 40
3.0
 40
4.0
 40
4.0
 40
4.0
 40
4.0
 10
55.18855640303229
 20
900.7351469543139
 30
0.0
 10
54.62412057146767
 20
900.7351469543139
 30
0.0
 10
54.16198254396819
 20
901.1972849818121
 30
0.0
 10
54.16198254396819
 20
901.7652520362519
 30
0.0
 10
54.16198254396819
 20
902.333219090688
 30
0.0
 10
54.62412057146767
 20
902.7953571181862
 30
0.0
 10
55.18855640303229
 20
902.7953571181862
 30
0.0
 10
55.75652345746929
 20
902.7953571181862
 30
0.0
 10
56.2186614849691
 20
902.333219090688
 30
0.0
 10
56.2186614849691
 20
901.7652520362519
 30
0.0
 10
56.2186614849691
 20
901.1972849818121
 30
0.0
 10
55.75652345746929
 20
900.7351469543139
 30
0.0
 10
55.18855640303229
 20
900.7351469543139
 30
0.0
  0
ENDBLK
  5
71
330
6E
100
AcDbEntity
  8
0
100
AcDbBlockEnd
  0
BLOCK
  5
77
330
75
100
AcDbEntity
  8
0
100
AcDbBlockBegin
  2
block 12
 70
     0
 10
0.0
 20
0.0
 30
0.0
  3
block 12
  1

  0
POLYLINE
  5
79
330
75
100
AcDbEntity
  8
incisione
 62
     7
370
    35
100
AcDb2dPolyline
 66
     1
 10
0.0
 20
0.0
 30
0.0
  0
VERTEX
  5
7A
330
79
100
AcDbEntity
  8
incisione
 62
     7
370
    35
100
AcDbVertex
100
AcDb2dVertex
 10
53.91150257034374
 20
901.515310358797
 30
0.0
  0
VERTEX
  5
7B
330
79
100
AcDbEntity
  8
incisione
 62
     7
370
    35
100
AcDbVertex
100
AcDb2dVertex
 10
44.8250632279973
 20
901.515310358797
 30
0.0
  0
VERTEX
  5
7C
330
79
100
AcDbEntity
  8
incisione
 62
     7
370
    35
100
AcDbVertex
100
AcDb2dVertex
 10
42.26484051813388
 20
903.651269559652
 30
0.0
  0
VERTEX
  5
7D
330
79
100
AcDbEntity
  8
incisione
 62
     7
370
    35
100
AcDbVertex
100
AcDb2dVertex
 10
42.58523439826212
 20
904.0350531967088
 30
0.0
  0
VERTEX
  5
7E
330
79
100
AcDbEntity
  8
incisione
 62
     7
370
    35
100
AcDbVertex
100
AcDb2dVertex
 10
45.00627525052143
 20
902.0151937137068
 30
0.0
  0
VERTEX
  5
7F
330
79
100
AcDbEntity
  8
incisione
 62
     7
370
    35
100
AcDbVertex
100
AcDb2dVertex
 10
53.91150257034374
 20
902.0151937137068
 30
0.0
  0
VERTEX
  5
80
330
79
100
AcDbEntity
  8
incisione
 62
     7
370
    35
100
AcDbVertex
100
AcDb2dVertex
 10
53.91150257034374
 20
901.515310358797
 30
0.0
  0
SEQEND
  5
81
330
79
100
AcDbEntity
  8
incisione
 62
     7
370
    35
  0
ENDBLK
  5
78
330
75
100
AcDbEntity
  8
0
100
AcDbBlockEnd
  0
BLOCK
  5
84
330
82
100
AcDbEntity
  8
0
100
AcDbBlockBegin
  2
block 13
 70
     0
 10
0.0
 20
0.0
 30
0.0
  3
block 13
  1

  0
POLYLINE
  5
86
330
82
100
AcDbEntity
  8
incisione
 62
     7
370
    35
100
AcDb2dPolyline
 66
     1
 10
0.0
 20
0.0
 30
0.0
  0
VERTEX
  5
87
330
86
100
AcDbEntity
  8
incisione
 62
     7
370
    35
100
AcDbVertex
100
AcDb2dVertex
 10
45.02856071194197
 20
921.8982823928148
 30
0.0
  0
VERTEX
  5
88
330
86
100
AcDbEntity
  8
incisione
 62
     7
370
    35
100
AcDbVertex
100
AcDb2dVertex
 10
49.58997479364635
 20
921.8982823928148
 30
0.0
  0
VERTEX
  5
89
330
86
100
AcDbEntity
  8
incisione
 62
     7
370
    35
100
AcDbVertex
100
AcDb2dVertex
 10
49.58997479364635
 20
922.3992208082186
 30
0.0
  0
VERTEX
  5
8A
330
86
100
AcDbEntity
  8
incisione
 62
     7
370
    35
100
AcDbVertex
100
AcDb2dVertex
 10
44.82394357196459
 20
922.3992208082186
 30
0.0
  0
VERTEX
  5
8B
330
86
100
AcDbEntity
  8
incisione
 62
     7
370
    35
100
AcDbVertex
100
AcDb2dVertex
 10
37.49323254813537
 20
915.0685097843888
 30
0.0
  0
VERTEX
  5
8C
330
86
100
AcDbEntity
  8
incisione
 62
     7
370
    35
100
AcDbVertex
100
AcDb2dVertex
 10
23.94655727211666
 20
915.0685097843888
 30
0.0
  0
VERTEX
  5
8D
330
86
100
AcDbEntity
  8
incisione
 62
     7
370
    35
100
AcDbVertex
100
AcDb2dVertex
 10
23.94655727211666
 20
914.5675498371405
 30
0.0
  0
VERTEX
  5
8E
330
86
100
AcDbEntity
  8
incisione
 62
     7
370
    35
100
AcDbVertex
100
AcDb2dVertex
 10
37.69782815626597
 20
914.5675498371405
 30
0.0
  0
VERTEX
  5
8F
330
86
100
AcDbEntity
  8
incisione
 62
     7
370
    35
100
AcDbVertex
100
AcDb2dVertex
 10
45.02856071194197
 20
921.8982823928148
 30
0.0
  0
SEQEND
  5
90
330
86
100
AcDbEntity
  8
incisione
 62
     7
370
    35
  0
INSERT
  5
92
330
82
100
AcDbEntity
  8
incisione
100
AcDbBlockReference
  2
block 14
 10
0.0
 20
0.0
 30
0.0
  0
INSERT
  5
98
330
82
100
AcDbEntity
  8
incisione
100
AcDbBlockReference
  2
block 15
 10
0.0
 20
0.0
 30
0.0
  0
POLYLINE
  5
9D
330
82
100
AcDbEntity
  8
incisione
 62
     7
370
    35
100
AcDb2dPolyline
 66
     1
 10
0.0
 20
0.0
 30
0.0
  0
VERTEX
  5
9E
330
9D
100
AcDbEntity
  8
incisione
 62
     7
370
    35
100
AcDbVertex
100
AcDb2dVertex
 10
43.20117440733122
 20
915.0685097843888
 30
0.0
  0
VERTEX
  5
9F
330
9D
100
AcDbEntity
  8
incisione
 62
     7
370
    35
100
AcDbVertex
100
AcDb2dVertex
 10
47.71319443251615
 20
915.0685097843888
 30
0.0
  0
VERTEX
  5
A0
330
9D
100
AcDbEntity
  8
incisione
 62
     7
370
    35
100
AcDbVertex
100
AcDb2dVertex
 10
47.71319443251615
 20
915.5659169769178
 30
0.0
  0
VERTEX
  5
A1
330
9D
100
AcDbEntity
  8
incisione
 62
     7
370
    35
100
AcDbVertex
100
AcDb2dVertex
 10
42.9930260444821
 20
915.5659169769178
 30
0.0
  0
VERTEX
  5
A2
330
9D
100
AcDbEntity
  8
incisione
 62
     7
370
    35
100
AcDbVertex
100
AcDb2dVertex
 10
40.25899826738783
 20
912.8354204226979
 30
0.0
  0
VERTEX
  5
A3
330
9D
100
AcDbEntity
  8
incisione
 62
     7
370
    35
100
AcDbVertex
100
AcDb2dVertex
 10
23.94655727211666
 20
912.8354204226979
 30
0.0
  0
VERTEX
  5
A4
330
9D
100
AcDbEntity
  8
incisione
 62
     7
370
    35
100
AcDbVertex
100
AcDb2dVertex
 10
23.94655727211666
 20
912.3344820072945
 30
0.0
  0
VERTEX
  5
A5
330
9D
100
AcDbEntity
  8
incisione
 62
     7
370
    35
100
AcDbVertex
100
AcDb2dVertex
 10
40.46714663023695
 20
912.3344820072945
 30
0.0
  0
VERTEX
  5
A6
330
9D
100
AcDbEntity
  8
incisione
 62
     7
370
    35
100
AcDbVertex
100
AcDb2dVertex
 10
43.20117440733122
 20
915.0685097843888
 30
0.0
  0
SEQEND
  5
A7
330
9D
100
AcDbEntity
  8
incisione
 62
     7
370
    35
  0
POLYLINE
  5
A8
330
82
100
AcDbEntity
  8
incisione
 62
     7
370
    35
100
AcDb2dPolyline
 66
     1
 10
0.0
 20
0.0
 30
0.0
  0
VERTEX
  5
A9
330
A8
100
AcDbEntity
  8
incisione
 62
     7
370
    35
100
AcDbVertex
100
AcDb2dVertex
 10
23.94744007783476
 20
910.2171047902153
 30
0.0
  0
VERTEX
  5
AA
330
A8
100
AcDbEntity
  8
incisione
 62
     7
370
    35
100
AcDbVertex
100
AcDb2dVertex
 10
63.78928034565207
 20
910.2171047902153
 30
0.0
  0
VERTEX
  5
AB
330
A8
100
AcDbEntity
  8
incisione
 62
     7
370
    35
100
AcDbVertex
100
AcDb2dVertex
 10
63.78928034565207
 20
910.7169881451251
 30
0.0
  0
VERTEX
  5
AC
330
A8
100
AcDbEntity
  8
incisione
 62
     7
370
    35
100
AcDbVertex
100
AcDb2dVertex
 10
23.94744007783476
 20
910.7169881451251
 30
0.0
  0
VERTEX
  5
AD
330
A8
100
AcDbEntity
  8
incisione
 62
     7
370
    35
100
AcDbVertex
100
AcDb2dVertex
 10
23.94744007783476
 20
910.2171047902153
 30
0.0
  0
SEQEND
  5
AE
330
A8
100
AcDbEntity
  8
incisione
 62
     7
370
    35
  0
INSERT
  5
B0
330
82
100
AcDbEntity
  8
incisione
100
AcDbBlockReference
  2
block 16
 10
0.0
 20
0.0
 30
0.0
  0
INSERT
  5
B6
330
82
100
AcDbEntity
  8
incisione
100
AcDbBlockReference
  2
block 17
 10
0.0
 20
0.0
 30
0.0
  0
INSERT
  5
BC
330
82
100
AcDbEntity
  8
incisione
100
AcDbBlockReference
  2
block 18
 10
0.0
 20
0.0
 30
0.0
  0
INSERT
  5
C2
330
82
100
AcDbEntity
  8
incisione
100
AcDbBlockReference
  2
block 19
 10
0.0
 20
0.0
 30
0.0
  0
INSERT
  5
C8
330
82
100
AcDbEntity
  8
incisione
100
AcDbBlockReference
  2
block 20
 10
0.0
 20
0.0
 30
0.0
  0
INSERT
  5
CF
330
82
100
AcDbEntity
  8
incisione
100
AcDbBlockReference
  2
block 21
 10
0.0
 20
0.0
 30
0.0
  0
INSERT
  5
D6
330
82
100
AcDbEntity
  8
incisione
100
AcDbBlockReference
  2
block 22
 10
0.0
 20
0.0
 30
0.0
  0
INSERT
  5
DC
330
82
100
AcDbEntity
  8
incisione
100
AcDbBlockReference
  2
block 23
 10
0.0
 20
0.0
 30
0.0
  0
INSERT
  5
E2
330
82
100
AcDbEntity
  8
incisione
100
AcDbBlockReference
  2
block 24
 10
0.0
 20
0.0
 30
0.0
  0
INSERT
  5
E9
330
82
100
AcDbEntity
  8
incisione
100
AcDbBlockReference
  2
block 25
 10
0.0
 20
0.0
 30
0.0
  0
ENDBLK
  5
85
330
82
100
AcDbEntity
  8
0
100
AcDbBlockEnd
  0
BLOCK
  5
93
330
91
100
AcDbEntity
  8
0
100
AcDbBlockBegin
  2
block 14
 70
     0
 10
0.0
 20
0.0
 30
0.0
  3
block 14
  1

  0
SPLINE
  5
95
330
91
100
AcDbEntity
  8
incisione
 62
     7
370
    35
100
AcDbSpline
210
0.0
220
0.0
230
1.0
 70
    11
 71
     3
 72
    35
 73
    31
 74
     0
 42
0.0000000001
 43
0.0000000001
 12
1.0
 22
0.0
 32
0.0
 13
1.0
 23
0.0
 33
0.0
 40
0.0
 40
0.0
 40
0.0
 40
0.0
 40
1.0
 40
1.0
 40
1.0
 40
2.0
 40
2.0
 40
2.0
 40
3.0
 40
3.0
 40
3.0
 40
4.0
 40
4.0
 40
4.0
 40
5.0
 40
5.0
 40
5.0
 40
6.0
 40
6.0
 40
6.0
 40
7.0
 40
7.0
 40
7.0
 40
8.0
 40
8.0
 40
8.0
 40
9.0
 40
9.0
 40
9.0
 40
10.0
 40
10.0
 40
10.0
 40
10.0
 10
35.61998340987756
 20
922.8225584478148
 30
0.0
 10
34.77683935355623
 20
922.8225584478148
 30
0.0
 10
34.08891838069218
 20
922.1381686978254
 30
0.0
 10
34.08891838069218
 20
921.2950246415031
 30
0.0
 10
34.08891838069218
 20
920.896384030167
 30
0.0
 10
34.24061024127709
 20
920.5365653385772
 30
0.0
 10
34.48755899202915
 20
920.2649195595653
 30
0.0
 10
34.48755899202915
 20
920.2649195595653
 30
0.0
 10
32.02517699394683
 20
917.8025375614831
 30
0.0
 10
32.02517699394683
 20
917.8025375614831
 30
0.0
 10
32.02517699394683
 20
917.8025375614831
 30
0.0
 10
23.94655727211666
 20
917.8025375614831
 30
0.0
 10
23.94655727211666
 20
917.8025375614831
 30
0.0
 10
23.94655727211666
 20
917.8025375614831
 30
0.0
 10
23.94655727211666
 20
917.3015776142348
 30
0.0
 10
23.94655727211666
 20
917.3015776142348
 30
0.0
 10
23.94655727211666
 20
917.3015776142348
 30
0.0
 10
32.22977260207711
 20
917.3015776142348
 30
0.0
 10
32.22977260207711
 20
917.3015776142348
 30
0.0
 10
32.22977260207711
 20
917.3015776142348
 30
0.0
 10
34.88266838049375
 20
919.9544733926514
 30
0.0
 10
34.88266838049375
 20
919.9544733926514
 30
0.0
 10
35.10492010298592
 20
919.8345194742244
 30
0.0
 10
35.35540007661037
 20
919.7639811441654
 30
0.0
 10
35.61998340987756
 20
919.7639811441654
 30
0.0
 10
36.45959624332651
 20
919.7639811441654
 30
0.0
 10
37.14749568434377
 20
920.4518805851811
 30
0.0
 10
37.14749568434377
 20
921.2950246415031
 30
0.0
 10
37.14749568434377
 20
922.1381686978254
 30
0.0
 10
36.45959624332651
 20
922.8225584478148
 30
0.0
 10
35.61998340987756
 20
922.8225584478148
 30
0.0
  0
SPLINE
  5
96
330
91
100
AcDbEntity
  8
incisione
 62
     7
370
    35
100
AcDbSpline
210
0.0
220
0.0
230
1.0
 70
    11
 71
     3
 72
    17
 73
    13
 74
     0
 42
0.0000000001
 43
0.0000000001
 12
1.0
 22
0.0
 32
0.0
 13
1.0
 23
0.0
 33
0.0
 40
0.0
 40
0.0
 40
0.0
 40
0.0
 40
1.0
 40
1.0
 40
1.0
 40
2.0
 40
2.0
 40
2.0
 40
3.0
 40
3.0
 40
3.0
 40
4.0
 40
4.0
 40
4.0
 40
4.0
 10
35.61998340987756
 20
920.2649195595653
 30
0.0
 10
35.05199482359377
 20
920.2649195595653
 30
0.0
 10
34.58985679609429
 20
920.7270575870671
 30
0.0
 10
34.58985679609429
 20
921.2950246415031
 30
0.0
 10
34.58985679609429
 20
921.8594820049133
 30
0.0
 10
35.05199482359377
 20
922.3216200324149
 30
0.0
 10
35.61998340987756
 20
922.3216200324149
 30
0.0
 10
36.18441924144218
 20
922.3216200324149
 30
0.0
 10
36.64655726894198
 20
921.8594820049133
 30
0.0
 10
36.64655726894198
 20
921.2950246415031
 30
0.0
 10
36.64655726894198
 20
920.7270575870671
 30
0.0
 10
36.18441924144218
 20
920.2649195595653
 30
0.0
 10
35.61998340987756
 20
920.2649195595653
 30
0.0
  0
ENDBLK
  5
94
330
91
100
AcDbEntity
  8
0
100
AcDbBlockEnd
  0
BLOCK
  5
99
330
97
100
AcDbEntity
  8
0
100
AcDbBlockBegin
  2
block 15
 70
     0
 10
0.0
 20
0.0
 30
0.0
  3
block 15
  1

  0
SPLINE
  5
9B
330
97
100
AcDbEntity
  8
incisione
 62
     7
370
    35
100
AcDbSpline
210
0.0
220
0.0
230
1.0
 70
    11
 71
     3
 72
    50
 73
    46
 74
     0
 42
0.0000000001
 43
0.0000000001
 12
1.0
 22
0.0
 32
0.0
 13
1.0
 23
0.0
 33
0.0
 40
0.0
 40
0.0
 40
0.0
 40
0.0
 40
1.0
 40
1.0
 40
1.0
 40
2.0
 40
2.0
 40
2.0
 40
3.0
 40
3.0
 40
3.0
 40
4.0
 40
4.0
 40
4.0
 40
5.0
 40
5.0
 40
5.0
 40
6.0
 40
6.0
 40
6.0
 40
7.0
 40
7.0
 40
7.0
 40
8.0
 40
8.0
 40
8.0
 40
9.0
 40
9.0
 40
9.0
 40
10.0
 40
10.0
 40
10.0
 40
11.0
 40
11.0
 40
11.0
 40
12.0
 40
12.0
 40
12.0
 40
13.0
 40
13.0
 40
13.0
 40
14.0
 40
14.0
 40
14.0
 40
15.0
 40
15.0
 40
15.0
 40
15.0
 10
31.05854779632608
 20
921.2914934186288
 30
0.0
 10
30.91744960435831
 20
921.2914934186288
 30
0.0
 10
30.78339232628853
 20
921.2738588361134
 30
0.0
 10
30.65639749396351
 20
921.2350584482117
 30
0.0
 10
30.65639749396351
 20
921.2350584482117
 30
0.0
 10
30.65639749396351
 20
921.2350584482117
 30
0.0
 10
30.65286627109112
 20
921.2350584482117
 30
0.0
 10
30.65286627109112
 20
921.2350584482117
 30
0.0
 10
29.8732196309323
 20
922.9601469487576
 30
0.0
 10
29.8732196309323
 20
922.9601469487576
 30
0.0
 10
29.8732196309323
 20
922.9601469487576
 30
0.0
 10
27.97174224154222
 20
922.9601469487576
 30
0.0
 10
27.97174224154222
 20
922.9601469487576
 30
0.0
 10
27.97174224154222
 20
922.9601469487576
 30
0.0
 10
27.01219702151301
 20
920.8434802826201
 30
0.0
 10
27.01219702151301
 20
920.8434802826201
 30
0.0
 10
27.01219702151301
 20
920.8434802826201
 30
0.0
 10
23.94655727211666
 20
920.8434802826201
 30
0.0
 10
23.94655727211666
 20
920.8434802826201
 30
0.0
 10
23.94655727211666
 20
920.8434802826201
 30
0.0
 10
23.94655727211666
 20
920.346051558243
 30
0.0
 10
23.94655727211666
 20
920.346051558243
 30
0.0
 10
23.94655727211666
 20
920.346051558243
 30
0.0
 10
27.33674654807033
 20
920.346051558243
 30
0.0
 10
27.33674654807033
 20
920.346051558243
 30
0.0
 10
27.33674654807033
 20
920.346051558243
 30
0.0
 10
28.29278207707394
 20
922.4627182243804
 30
0.0
 10
28.29278207707394
 20
922.4627182243804
 30
0.0
 10
28.29278207707394
 20
922.4627182243804
 30
0.0
 10
29.54867010437499
 20
922.4627182243804
 30
0.0
 10
29.54867010437499
 20
922.4627182243804
 30
0.0
 10
29.54867010437499
 20
922.4627182243804
 30
0.0
 10
30.1977906893364
 20
921.0269100853616
 30
0.0
 10
30.1977906893364
 20
921.0269100853616
 30
0.0
 10
29.79561885512705
 20
920.7482233924529
 30
0.0
 10
29.53103552185986
 20
920.282554142081
 30
0.0
 10
29.53103552185986
 20
919.7604499212915
 30
0.0
 10
29.53103552185986
 20
918.9173058649689
 30
0.0
 10
30.21542527185153
 20
918.2329161149797
 30
0.0
 10
31.05854779632608
 20
918.2329161149797
 30
0.0
 10
31.90169185264741
 20
918.2329161149797
 30
0.0
 10
32.58961282551145
 20
918.9173058649689
 30
0.0
 10
32.58961282551145
 20
919.7604499212915
 30
0.0
 10
32.58961282551145
 20
920.6035939776135
 30
0.0
 10
31.90169185264741
 20
921.2914934186288
 30
0.0
 10
31.05854779632608
 20
921.2914934186288
 30
0.0
  0
SPLINE
  5
9C
330
97
100
AcDbEntity
  8
incisione
 62
     7
370
    35
100
AcDbSpline
210
0.0
220
0.0
230
1.0
 70
    11
 71
     3
 72
    17
 73
    13
 74
     0
 42
0.0000000001
 43
0.0000000001
 12
1.0
 22
0.0
 32
0.0
 13
1.0
 23
0.0
 33
0.0
 40
0.0
 40
0.0
 40
0.0
 40
0.0
 40
1.0
 40
1.0
 40
1.0
 40
2.0
 40
2.0
 40
2.0
 40
3.0
 40
3.0
 40
3.0
 40
4.0
 40
4.0
 40
4.0
 40
4.0
 10
31.05854779632608
 20
918.7338545303793
 30
0.0
 10
30.49058074188908
 20
918.7338545303793
 30
0.0
 10
30.03197393726197
 20
919.1959925578814
 30
0.0
 10
30.03197393726197
 20
919.7604499212915
 30
0.0
 10
30.03197393726197
 20
920.3284169757272
 30
0.0
 10
30.49058074188908
 20
920.7905550032292
 30
0.0
 10
31.05854779632608
 20
920.7905550032292
 30
0.0
 10
31.62653638260986
 20
920.7905550032292
 30
0.0
 10
32.08867441010934
 20
920.3284169757272
 30
0.0
 10
32.08867441010934
 20
919.7604499212915
 30
0.0
 10
32.08867441010934
 20
919.1959925578814
 30
0.0
 10
31.62653638260986
 20
918.7338545303793
 30
0.0
 10
31.05854779632608
 20
918.7338545303793
 30
0.0
  0
ENDBLK
  5
9A
330
97
100
AcDbEntity
  8
0
100
AcDbBlockEnd
  0
BLOCK
  5
B1
330
AF
100
AcDbEntity
  8
0
100
AcDbBlockBegin
  2
block 16
 70
     0
 10
0.0
 20
0.0
 30
0.0
  3
block 16
  1

  0
SPLINE
  5
B3
330
AF
100
AcDbEntity
  8
incisione
 62
     7
370
    35
100
AcDbSpline
210
0.0
220
0.0
230
1.0
 70
    11
 71
     3
 72
    38
 73
    34
 74
     0
 42
0.0000000001
 43
0.0000000001
 12
1.0
 22
0.0
 32
0.0
 13
1.0
 23
0.0
 33
0.0
 40
0.0
 40
0.0
 40
0.0
 40
0.0
 40
1.0
 40
1.0
 40
1.0
 40
2.0
 40
2.0
 40
2.0
 40
3.0
 40
3.0
 40
3.0
 40
4.0
 40
4.0
 40
4.0
 40
5.0
 40
5.0
 40
5.0
 40
6.0
 40
6.0
 40
6.0
 40
7.0
 40
7.0
 40
7.0
 40
8.0
 40
8.0
 40
8.0
 40
9.0
 40
9.0
 40
9.0
 40
10.0
 40
10.0
 40
10.0
 40
11.0
 40
11.0
 40
11.0
 40
11.0
 10
172.7446883723412
 20
771.6678528445993
 30
0.0
 10
172.7446883723412
 20
771.6678528445993
 30
0.0
 10
172.7446883723412
 20
775.9999742899155
 30
0.0
 10
172.7446883723412
 20
775.9999742899155
 30
0.0
 10
173.4679000420822
 20
776.1199282083393
 30
0.0
 10
174.0217422050297
 20
776.7478614560667
 30
0.0
 10
174.0217422050297
 20
777.506342290841
 30
0.0
 10
174.0217422050297
 20
778.3494648153152
 30
0.0
 10
173.3373739868848
 20
779.0373857881787
 30
0.0
 10
172.4942299305635
 20
779.0373857881787
 30
0.0
 10
171.6510858742422
 20
779.0373857881787
 30
0.0
 10
170.9631649013785
 20
778.3494648153152
 30
0.0
 10
170.9631649013785
 20
777.506342290841
 30
0.0
 10
170.9631649013785
 20
776.7478614560667
 30
0.0
 10
171.5205598190448
 20
776.1199282083393
 30
0.0
 10
172.2437499569391
 20
775.9999742899155
 30
0.0
 10
172.2437499569391
 20
775.9999742899155
 30
0.0
 10
172.2437499569391
 20
771.4597260135973
 30
0.0
 10
172.2437499569391
 20
771.4597260135973
 30
0.0
 10
172.2437499569391
 20
771.4597260135973
 30
0.0
 10
179.5744825126151
 20
764.1289934579194
 30
0.0
 10
179.5744825126151
 20
764.1289934579194
 30
0.0
 10
179.5744825126151
 20
764.1289934579194
 30
0.0
 10
179.5744825126151
 20
755.4365653798523
 30
0.0
 10
179.5744825126151
 20
755.4365653798523
 30
0.0
 10
179.5744825126151
 20
755.4365653798523
 30
0.0
 10
180.0754209280172
 20
755.4365653798523
 30
0.0
 10
180.0754209280172
 20
755.4365653798523
 30
0.0
 10
180.0754209280172
 20
755.4365653798523
 30
0.0
 10
180.0754209280172
 20
764.3371418207695
 30
0.0
 10
180.0754209280172
 20
764.3371418207695
 30
0.0
 10
180.0754209280172
 20
764.3371418207695
 30
0.0
 10
172.7446883723412
 20
771.6678528445993
 30
0.0
 10
172.7446883723412
 20
771.6678528445993
 30
0.0
  0
SPLINE
  5
B4
330
AF
100
AcDbEntity
  8
incisione
 62
     7
370
    35
100
AcDbSpline
210
0.0
220
0.0
230
1.0
 70
    11
 71
     3
 72
    17
 73
    13
 74
     0
 42
0.0000000001
 43
0.0000000001
 12
1.0
 22
0.0
 32
0.0
 13
1.0
 23
0.0
 33
0.0
 40
0.0
 40
0.0
 40
0.0
 40
0.0
 40
1.0
 40
1.0
 40
1.0
 40
2.0
 40
2.0
 40
2.0
 40
3.0
 40
3.0
 40
3.0
 40
4.0
 40
4.0
 40
4.0
 40
4.0
 10
171.4641033167802
 20
777.506342290841
 30
0.0
 10
171.4641033167802
 20
778.074309345277
 30
0.0
 10
171.9262628761265
 20
778.5364473727752
 30
0.0
 10
172.4942299305635
 20
778.5364473727752
 30
0.0
 10
173.0621969850005
 20
778.5364473727752
 30
0.0
 10
173.5208037896279
 20
778.074309345277
 30
0.0
 10
173.5208037896279
 20
777.506342290841
 30
0.0
 10
173.5208037896279
 20
776.9383537045569
 30
0.0
 10
173.0621969850005
 20
776.4797468999292
 30
0.0
 10
172.4942299305635
 20
776.4797468999292
 30
0.0
 10
171.9262628761265
 20
776.4797468999292
 30
0.0
 10
171.4641033167802
 20
776.9383537045569
 30
0.0
 10
171.4641033167802
 20
777.506342290841
 30
0.0
  0
ENDBLK
  5
B2
330
AF
100
AcDbEntity
  8
0
100
AcDbBlockEnd
  0
BLOCK
  5
B7
330
B5
100
AcDbEntity
  8
0
100
AcDbBlockBegin
  2
block 17
 70
     0
 10
0.0
 20
0.0
 30
0.0
  3
block 17
  1

  0
SPLINE
  5
B9
330
B5
100
AcDbEntity
  8
incisione
 62
     7
370
    35
100
AcDbSpline
210
0.0
220
0.0
230
1.0
 70
    11
 71
     3
 72
    47
 73
    43
 74
     0
 42
0.0000000001
 43
0.0000000001
 12
1.0
 22
0.0
 32
0.0
 13
1.0
 23
0.0
 33
0.0
 40
0.0
 40
0.0
 40
0.0
 40
0.0
 40
1.0
 40
1.0
 40
1.0
 40
2.0
 40
2.0
 40
2.0
 40
3.0
 40
3.0
 40
3.0
 40
4.0
 40
4.0
 40
4.0
 40
5.0
 40
5.0
 40
5.0
 40
6.0
 40
6.0
 40
6.0
 40
7.0
 40
7.0
 40
7.0
 40
8.0
 40
8.0
 40
8.0
 40
9.0
 40
9.0
 40
9.0
 40
10.0
 40
10.0
 40
10.0
 40
11.0
 40
11.0
 40
11.0
 40
12.0
 40
12.0
 40
12.0
 40
13.0
 40
13.0
 40
13.0
 40
14.0
 40
14.0
 40
14.0
 40
14.0
 10
169.936591042314
 20
762.8413674884631
 30
0.0
 10
169.0934469859927
 20
762.8413674884631
 30
0.0
 10
168.405526013129
 20
762.1569777384701
 30
0.0
 10
168.405526013129
 20
761.3138336821476
 30
0.0
 10
168.405526013129
 20
761.1727139583343
 30
0.0
 10
168.4231605956438
 20
761.0386782121096
 30
0.0
 10
168.4619825153932
 20
760.9081306250671
 30
0.0
 10
168.4619825153932
 20
760.9081306250671
 30
0.0
 10
166.7368940148482
 20
760.1249742938843
 30
0.0
 10
166.7368940148482
 20
760.1249742938843
 30
0.0
 10
166.7368940148482
 20
760.1249742938843
 30
0.0
 10
166.7368940148482
 20
758.2270281273636
 30
0.0
 10
166.7368940148482
 20
758.2270281273636
 30
0.0
 10
166.7368940148482
 20
758.2270281273636
 30
0.0
 10
168.8535606809857
 20
757.2674829073363
 30
0.0
 10
168.8535606809857
 20
757.2674829073363
 30
0.0
 10
168.8535606809857
 20
757.2674829073363
 30
0.0
 10
168.8535606809857
 20
755.4365653798523
 30
0.0
 10
168.8535606809857
 20
755.4365653798523
 30
0.0
 10
168.8535606809857
 20
755.4365653798523
 30
0.0
 10
169.3544990963875
 20
755.4365653798523
 30
0.0
 10
169.3544990963875
 20
755.4365653798523
 30
0.0
 10
169.3544990963875
 20
755.4365653798523
 30
0.0
 10
169.3544990963875
 20
757.5885012110207
 30
0.0
 10
169.3544990963875
 20
757.5885012110207
 30
0.0
 10
169.3544990963875
 20
757.5885012110207
 30
0.0
 10
167.23783243025
 20
758.5480679628967
 30
0.0
 10
167.23783243025
 20
758.5480679628967
 30
0.0
 10
167.23783243025
 20
758.5480679628967
 30
0.0
 10
167.23783243025
 20
759.8039559901961
 30
0.0
 10
167.23783243025
 20
759.8039559901961
 30
0.0
 10
167.23783243025
 20
759.8039559901961
 30
0.0
 10
168.6701093463962
 20
760.4530550433136
 30
0.0
 10
168.6701093463962
 20
760.4530550433136
 30
0.0
 10
168.9488175711529
 20
760.0473735180774
 30
0.0
 10
169.4144652896777
 20
759.7827901848102
 30
0.0
 10
169.936591042314
 20
759.7827901848102
 30
0.0
 10
170.7797350986354
 20
759.7827901848102
 30
0.0
 10
171.4641033167802
 20
760.4706896258291
 30
0.0
 10
171.4641033167802
 20
761.3138336821476
 30
0.0
 10
171.4641033167802
 20
762.1569777384701
 30
0.0
 10
170.7797350986354
 20
762.8413674884631
 30
0.0
 10
169.936591042314
 20
762.8413674884631
 30
0.0
  0
SPLINE
  5
BA
330
B5
100
AcDbEntity
  8
incisione
 62
     7
370
    35
100
AcDbSpline
210
0.0
220
0.0
230
1.0
 70
    11
 71
     3
 72
    17
 73
    13
 74
     0
 42
0.0000000001
 43
0.0000000001
 12
1.0
 22
0.0
 32
0.0
 13
1.0
 23
0.0
 33
0.0
 40
0.0
 40
0.0
 40
0.0
 40
0.0
 40
1.0
 40
1.0
 40
1.0
 40
2.0
 40
2.0
 40
2.0
 40
3.0
 40
3.0
 40
3.0
 40
4.0
 40
4.0
 40
4.0
 40
4.0
 10
169.936591042314
 20
760.2837286002136
 30
0.0
 10
169.368623987877
 20
760.2837286002136
 30
0.0
 10
168.9064644285308
 20
760.7458666277117
 30
0.0
 10
168.9064644285308
 20
761.3138336821476
 30
0.0
 10
168.9064644285308
 20
761.8818007365874
 30
0.0
 10
169.368623987877
 20
762.3404290730597
 30
0.0
 10
169.936591042314
 20
762.3404290730597
 30
0.0
 10
170.504558096751
 20
762.3404290730597
 30
0.0
 10
170.9631649013785
 20
761.8818007365874
 30
0.0
 10
170.9631649013785
 20
761.3138336821476
 30
0.0
 10
170.9631649013785
 20
760.7458666277117
 30
0.0
 10
170.504558096751
 20
760.2837286002136
 30
0.0
 10
169.936591042314
 20
760.2837286002136
 30
0.0
  0
ENDBLK
  5
B8
330
B5
100
AcDbEntity
  8
0
100
AcDbBlockEnd
  0
BLOCK
  5
BD
330
BB
100
AcDbEntity
  8
0
100
AcDbBlockBegin
  2
block 18
 70
     0
 10
0.0
 20
0.0
 30
0.0
  3
block 18
  1

  0
SPLINE
  5
BF
330
BB
100
AcDbEntity
  8
incisione
 62
     7
370
    35
100
AcDbSpline
210
0.0
220
0.0
230
1.0
 70
    11
 71
     3
 72
    38
 73
    34
 74
     0
 42
0.0000000001
 43
0.0000000001
 12
1.0
 22
0.0
 32
0.0
 13
1.0
 23
0.0
 33
0.0
 40
0.0
 40
0.0
 40
0.0
 40
0.0
 40
1.0
 40
1.0
 40
1.0
 40
2.0
 40
2.0
 40
2.0
 40
3.0
 40
3.0
 40
3.0
 40
4.0
 40
4.0
 40
4.0
 40
5.0
 40
5.0
 40
5.0
 40
6.0
 40
6.0
 40
6.0
 40
7.0
 40
7.0
 40
7.0
 40
8.0
 40
8.0
 40
8.0
 40
9.0
 40
9.0
 40
9.0
 40
10.0
 40
10.0
 40
10.0
 40
11.0
 40
11.0
 40
11.0
 40
11.0
 10
174.6884973725063
 20
765.1344230434454
 30
0.0
 10
174.6884973725063
 20
765.1344230434454
 30
0.0
 10
174.6884973725063
 20
765.1379542663158
 30
0.0
 10
174.6884973725063
 20
765.1379542663158
 30
0.0
 10
174.8084512909333
 20
765.3566747659363
 30
0.0
 10
174.8790111528406
 20
765.6071332077139
 30
0.0
 10
174.8790111528406
 20
765.8717165409811
 30
0.0
 10
174.8790111528406
 20
766.7148605973038
 30
0.0
 10
174.1910901799765
 20
767.3992503472928
 30
0.0
 10
173.3479461236555
 20
767.3992503472928
 30
0.0
 10
172.5048020673339
 20
767.3992503472928
 30
0.0
 10
171.8204123173422
 20
766.7148605973038
 30
0.0
 10
171.8204123173422
 20
765.8717165409811
 30
0.0
 10
171.8204123173422
 20
765.0285940165072
 30
0.0
 10
172.5048020673339
 20
764.3442042665142
 30
0.0
 10
173.3479461236555
 20
764.3442042665142
 30
0.0
 10
173.7430555121198
 20
764.3442042665142
 30
0.0
 10
174.1028957355541
 20
764.4923649042281
 30
0.0
 10
174.3745199827193
 20
764.7428448778503
 30
0.0
 10
174.3745199827193
 20
764.7428448778503
 30
0.0
 10
176.8404547355208
 20
762.2769101250491
 30
0.0
 10
176.8404547355208
 20
762.2769101250491
 30
0.0
 10
176.8404547355208
 20
762.2769101250491
 30
0.0
 10
176.8404547355208
 20
755.4365653798523
 30
0.0
 10
176.8404547355208
 20
755.4365653798523
 30
0.0
 10
176.8404547355208
 20
755.4365653798523
 30
0.0
 10
177.3413931509229
 20
755.4365653798523
 30
0.0
 10
177.3413931509229
 20
755.4365653798523
 30
0.0
 10
177.3413931509229
 20
755.4365653798523
 30
0.0
 10
177.3413931509229
 20
762.4850584878992
 30
0.0
 10
177.3413931509229
 20
762.4850584878992
 30
0.0
 10
177.3413931509229
 20
762.4850584878992
 30
0.0
 10
174.6884973725063
 20
765.1344230434454
 30
0.0
 10
174.6884973725063
 20
765.1344230434454
 30
0.0
  0
SPLINE
  5
C0
330
BB
100
AcDbEntity
  8
incisione
 62
     7
370
    35
100
AcDbSpline
210
0.0
220
0.0
230
1.0
 70
    11
 71
     3
 72
    17
 73
    13
 74
     0
 42
0.0000000001
 43
0.0000000001
 12
1.0
 22
0.0
 32
0.0
 13
1.0
 23
0.0
 33
0.0
 40
0.0
 40
0.0
 40
0.0
 40
0.0
 40
1.0
 40
1.0
 40
1.0
 40
2.0
 40
2.0
 40
2.0
 40
3.0
 40
3.0
 40
3.0
 40
4.0
 40
4.0
 40
4.0
 40
4.0
 10
173.3479461236555
 20
764.8451426819177
 30
0.0
 10
172.7799790692182
 20
764.8451426819177
 30
0.0
 10
172.3213722645911
 20
765.3037494865454
 30
0.0
 10
172.3213722645911
 20
765.8717165409811
 30
0.0
 10
172.3213722645911
 20
766.4397051272655
 30
0.0
 10
172.7799790692182
 20
766.9018431547637
 30
0.0
 10
173.3479461236555
 20
766.9018431547637
 30
0.0
 10
173.9159131780922
 20
766.9018431547637
 30
0.0
 10
174.3780512055917
 20
766.4397051272655
 30
0.0
 10
174.3780512055917
 20
765.8717165409811
 30
0.0
 10
174.3780512055917
 20
765.3037494865454
 30
0.0
 10
173.9159131780922
 20
764.8451426819177
 30
0.0
 10
173.3479461236555
 20
764.8451426819177
 30
0.0
  0
ENDBLK
  5
BE
330
BB
100
AcDbEntity
  8
0
100
AcDbBlockEnd
  0
BLOCK
  5
C3
330
C1
100
AcDbEntity
  8
0
100
AcDbBlockBegin
  2
block 19
 70
     0
 10
0.0
 20
0.0
 30
0.0
  3
block 19
  1

  0
SPLINE
  5
C5
330
C1
100
AcDbEntity
  8
incisione
 62
     7
370
    35
100
AcDbSpline
210
0.0
220
0.0
230
1.0
 70
    11
 71
     3
 72
    35
 73
    31
 74
     0
 42
0.0000000001
 43
0.0000000001
 12
1.0
 22
0.0
 32
0.0
 13
1.0
 23
0.0
 33
0.0
 40
0.0
 40
0.0
 40
0.0
 40
0.0
 40
1.0
 40
1.0
 40
1.0
 40
2.0
 40
2.0
 40
2.0
 40
3.0
 40
3.0
 40
3.0
 40
4.0
 40
4.0
 40
4.0
 40
5.0
 40
5.0
 40
5.0
 40
6.0
 40
6.0
 40
6.0
 40
7.0
 40
7.0
 40
7.0
 40
8.0
 40
8.0
 40
8.0
 40
9.0
 40
9.0
 40
9.0
 40
10.0
 40
10.0
 40
10.0
 40
10.0
 10
198.441031173263
 20
853.5087875775564
 30
0.0
 10
198.441031173263
 20
853.5087875775564
 30
0.0
 10
195.7916666177188
 20
850.8558917991398
 30
0.0
 10
195.7916666177188
 20
850.8558917991398
 30
0.0
 10
195.5694148952266
 20
850.9758457175675
 30
0.0
 10
195.3189564534489
 20
851.0463840476295
 30
0.0
 10
195.0543731201817
 20
851.0463840476295
 30
0.0
 10
194.2112290638604
 20
851.0463840476295
 30
0.0
 10
193.5268393138687
 20
850.3584846066108
 30
0.0
 10
193.5268393138687
 20
849.5153405502881
 30
0.0
 10
193.5268393138687
 20
848.6721964939696
 30
0.0
 10
194.2112290638604
 20
847.9878067439764
 30
0.0
 10
195.0543731201817
 20
847.9878067439764
 30
0.0
 10
195.8974956446563
 20
847.9878067439764
 30
0.0
 10
196.5854166175203
 20
848.6721964939696
 30
0.0
 10
196.5854166175203
 20
849.5153405502881
 30
0.0
 10
196.5854166175203
 20
849.910449938754
 30
0.0
 10
196.4337247569354
 20
850.273799853214
 30
0.0
 10
196.1867760061834
 20
850.5454456322259
 30
0.0
 10
196.1867760061834
 20
850.5454456322259
 30
0.0
 10
198.6491795361125
 20
853.0078276303082
 30
0.0
 10
198.6491795361125
 20
853.0078276303082
 30
0.0
 10
198.6491795361125
 20
853.0078276303082
 30
0.0
 10
202.7625589499604
 20
853.0078276303082
 30
0.0
 10
202.7625589499604
 20
853.0078276303082
 30
0.0
 10
202.7625589499604
 20
853.0078276303082
 30
0.0
 10
202.7625589499604
 20
853.5087875775564
 30
0.0
 10
202.7625589499604
 20
853.5087875775564
 30
0.0
 10
202.7625589499604
 20
853.5087875775564
 30
0.0
 10
198.441031173263
 20
853.5087875775564
 30
0.0
 10
198.441031173263
 20
853.5087875775564
 30
0.0
  0
SPLINE
  5
C6
330
C1
100
AcDbEntity
  8
incisione
 62
     7
370
    35
100
AcDbSpline
210
0.0
220
0.0
230
1.0
 70
    11
 71
     3
 72
    17
 73
    13
 74
     0
 42
0.0000000001
 43
0.0000000001
 12
1.0
 22
0.0
 32
0.0
 13
1.0
 23
0.0
 33
0.0
 40
0.0
 40
0.0
 40
0.0
 40
0.0
 40
1.0
 40
1.0
 40
1.0
 40
2.0
 40
2.0
 40
2.0
 40
3.0
 40
3.0
 40
3.0
 40
4.0
 40
4.0
 40
4.0
 40
4.0
 10
195.0543731201817
 20
848.4887451593801
 30
0.0
 10
194.4863845338979
 20
848.4887451593801
 30
0.0
 10
194.0277777292708
 20
848.950883186878
 30
0.0
 10
194.0277777292708
 20
849.5153405502881
 30
0.0
 10
194.0277777292708
 20
850.083307604728
 30
0.0
 10
194.4863845338979
 20
850.5454456322259
 30
0.0
 10
195.0543731201817
 20
850.5454456322259
 30
0.0
 10
195.6223401746187
 20
850.5454456322259
 30
0.0
 10
196.0844782021182
 20
850.083307604728
 30
0.0
 10
196.0844782021182
 20
849.5153405502881
 30
0.0
 10
196.0844782021182
 20
848.950883186878
 30
0.0
 10
195.6223401746187
 20
848.4887451593801
 30
0.0
 10
195.0543731201817
 20
848.4887451593801
 30
0.0
  0
ENDBLK
  5
C4
330
C1
100
AcDbEntity
  8
0
100
AcDbBlockEnd
  0
BLOCK
  5
C9
330
C7
100
AcDbEntity
  8
0
100
AcDbBlockBegin
  2
block 20
 70
     0
 10
0.0
 20
0.0
 30
0.0
  3
block 20
  1

  0
SPLINE
  5
CB
330
C7
100
AcDbEntity
  8
incisione
 62
     7
370
    35
100
AcDbSpline
210
0.0
220
0.0
230
1.0
 70
    11
 71
     3
 72
    65
 73
    61
 74
     0
 42
0.0000000001
 43
0.0000000001
 12
1.0
 22
0.0
 32
0.0
 13
1.0
 23
0.0
 33
0.0
 40
0.0
 40
0.0
 40
0.0
 40
0.0
 40
1.0
 40
1.0
 40
1.0
 40
2.0
 40
2.0
 40
2.0
 40
3.0
 40
3.0
 40
3.0
 40
4.0
 40
4.0
 40
4.0
 40
5.0
 40
5.0
 40
5.0
 40
6.0
 40
6.0
 40
6.0
 40
7.0
 40
7.0
 40
7.0
 40
8.0
 40
8.0
 40
8.0
 40
9.0
 40
9.0
 40
9.0
 40
10.0
 40
10.0
 40
10.0
 40
11.0
 40
11.0
 40
11.0
 40
12.0
 40
12.0
 40
12.0
 40
13.0
 40
13.0
 40
13.0
 40
14.0
 40
14.0
 40
14.0
 40
15.0
 40
15.0
 40
15.0
 40
16.0
 40
16.0
 40
16.0
 40
17.0
 40
17.0
 40
17.0
 40
18.0
 40
18.0
 40
18.0
 40
19.0
 40
19.0
 40
19.0
 40
20.0
 40
20.0
 40
20.0
 40
20.0
 10
199.9297430598266
 20
871.7756097097633
 30
0.0
 10
199.9297430598266
 20
871.7756097097633
 30
0.0
 10
197.4638298388719
 20
874.2415229307197
 30
0.0
 10
197.4638298388719
 20
874.2415229307197
 30
0.0
 10
197.710778589624
 20
874.5131687097316
 30
0.0
 10
197.8624704502089
 20
874.873008933166
 30
0.0
 10
197.8624704502089
 20
875.2681183216276
 30
0.0
 10
197.8624704502089
 20
876.1112623779503
 30
0.0
 10
197.1780807002172
 20
876.7956305960952
 30
0.0
 10
196.3349366438959
 20
876.7956305960952
 30
0.0
 10
195.4918141194213
 20
876.7956305960952
 30
0.0
 10
194.8038931465573
 20
876.1112623779503
 30
0.0
 10
194.8038931465573
 20
875.2681183216276
 30
0.0
 10
194.8038931465573
 20
874.4249742653093
 30
0.0
 10
195.4918141194213
 20
873.740584515316
 30
0.0
 10
196.3349366438959
 20
873.740584515316
 30
0.0
 10
196.6030512000355
 20
873.740584515316
 30
0.0
 10
196.8535311736599
 20
873.8076131543525
 30
0.0
 10
197.0722516732797
 20
873.9275670727764
 30
0.0
 10
197.0722516732797
 20
873.9275670727764
 30
0.0
 10
198.0741500359307
 20
872.9256687101285
 30
0.0
 10
198.0741500359307
 20
872.9256687101285
 30
0.0
 10
198.0741500359307
 20
872.9256687101285
 30
0.0
 10
192.6413636467724
 20
867.4893726299414
 30
0.0
 10
192.6413636467724
 20
867.4893726299414
 30
0.0
 10
192.6413636467724
 20
867.4893726299414
 30
0.0
 10
188.1399157583578
 20
867.4893726299414
 30
0.0
 10
188.1399157583578
 20
867.4893726299414
 30
0.0
 10
188.0799495650677
 20
867.8491913215312
 30
0.0
 10
187.8929670076058
 20
868.1702311570639
 30
0.0
 10
187.624873983313
 20
868.3995237934519
 30
0.0
 10
187.3602906500458
 20
868.6288379616879
 30
0.0
 10
187.0145537862542
 20
868.7664264626309
 30
0.0
 10
186.6335477574323
 20
868.7664264626309
 30
0.0
 10
185.7904252329578
 20
868.7664264626309
 30
0.0
 10
185.1025042600938
 20
868.0820367126415
 30
0.0
 10
185.1025042600938
 20
867.2388926563192
 30
0.0
 10
185.1025042600938
 20
866.3957485999972
 30
0.0
 10
185.7904252329578
 20
865.7078276271332
 30
0.0
 10
186.6335477574323
 20
865.7078276271332
 30
0.0
 10
187.3920285922036
 20
865.7078276271332
 30
0.0
 10
188.0199833717776
 20
866.2616913219281
 30
0.0
 10
188.1399157583578
 20
866.9884126826935
 30
0.0
 10
188.1399157583578
 20
866.9884126826935
 30
0.0
 10
192.8459807867495
 20
866.9884126826935
 30
0.0
 10
192.8459807867495
 20
866.9884126826935
 30
0.0
 10
192.8459807867495
 20
866.9884126826935
 30
0.0
 10
198.4304375046459
 20
872.569359709565
 30
0.0
 10
198.4304375046459
 20
872.569359709565
 30
0.0
 10
198.4304375046459
 20
872.569359709565
 30
0.0
 10
199.7216162288239
 20
871.2782025172337
 30
0.0
 10
199.7216162288239
 20
871.2782025172337
 30
0.0
 10
199.7216162288239
 20
871.2782025172337
 30
0.0
 10
202.7625589499604
 20
871.2782025172337
 30
0.0
 10
202.7625589499604
 20
871.2782025172337
 30
0.0
 10
202.7625589499604
 20
871.2782025172337
 30
0.0
 10
202.7625589499604
 20
871.7756097097633
 30
0.0
 10
202.7625589499604
 20
871.7756097097633
 30
0.0
 10
202.7625589499604
 20
871.7756097097633
 30
0.0
 10
199.9297430598266
 20
871.7756097097633
 30
0.0
 10
199.9297430598266
 20
871.7756097097633
 30
0.0
  0
SPLINE
  5
CC
330
C7
100
AcDbEntity
  8
incisione
 62
     7
370
    35
100
AcDbSpline
210
0.0
220
0.0
230
1.0
 70
    11
 71
     3
 72
    17
 73
    13
 74
     0
 42
0.0000000001
 43
0.0000000001
 12
1.0
 22
0.0
 32
0.0
 13
1.0
 23
0.0
 33
0.0
 40
0.0
 40
0.0
 40
0.0
 40
0.0
 40
1.0
 40
1.0
 40
1.0
 40
2.0
 40
2.0
 40
2.0
 40
3.0
 40
3.0
 40
3.0
 40
4.0
 40
4.0
 40
4.0
 40
4.0
 10
196.3349366438959
 20
874.2379917078457
 30
0.0
 10
195.7669695894589
 20
874.2379917078457
 30
0.0
 10
195.3048315619594
 20
874.7001512671919
 30
0.0
 10
195.3048315619594
 20
875.2681183216276
 30
0.0
 10
195.3048315619594
 20
875.8360853760676
 30
0.0
 10
195.7669695894589
 20
876.2982234035654
 30
0.0
 10
196.3349366438959
 20
876.2982234035654
 30
0.0
 10
196.9029252301796
 20
876.2982234035654
 30
0.0
 10
197.3615320348068
 20
875.8360853760676
 30
0.0
 10
197.3615320348068
 20
875.2681183216276
 30
0.0
 10
197.3615320348068
 20
874.7001512671919
 30
0.0
 10
196.9029252301796
 20
874.2379917078457
 30
0.0
 10
196.3349366438959
 20
874.2379917078457
 30
0.0
  0
SPLINE
  5
CD
330
C7
100
AcDbEntity
  8
incisione
 62
     7
370
    35
100
AcDbSpline
210
0.0
220
0.0
230
1.0
 70
    11
 71
     3
 72
    17
 73
    13
 74
     0
 42
0.0000000001
 43
0.0000000001
 12
1.0
 22
0.0
 32
0.0
 13
1.0
 23
0.0
 33
0.0
 40
0.0
 40
0.0
 40
0.0
 40
0.0
 40
1.0
 40
1.0
 40
1.0
 40
2.0
 40
2.0
 40
2.0
 40
3.0
 40
3.0
 40
3.0
 40
4.0
 40
4.0
 40
4.0
 40
4.0
 10
186.6335477574323
 20
866.2087875743814
 30
0.0
 10
186.0655807029953
 20
866.2087875743814
 30
0.0
 10
185.6034426754958
 20
866.6709256018831
 30
0.0
 10
185.6034426754958
 20
867.2388926563192
 30
0.0
 10
185.6034426754958
 20
867.8068597107556
 30
0.0
 10
186.0655807029953
 20
868.2654665153826
 30
0.0
 10
186.6335477574323
 20
868.2654665153826
 30
0.0
 10
187.2015363437161
 20
868.2654665153826
 30
0.0
 10
187.6601431483432
 20
867.8068597107556
 30
0.0
 10
187.6601431483432
 20
867.2388926563192
 30
0.0
 10
187.6601431483432
 20
866.6709256018831
 30
0.0
 10
187.2015363437161
 20
866.2087875743814
 30
0.0
 10
186.6335477574323
 20
866.2087875743814
 30
0.0
  0
ENDBLK
  5
CA
330
C7
100
AcDbEntity
  8
0
100
AcDbBlockEnd
  0
BLOCK
  5
D0
330
CE
100
AcDbEntity
  8
0
100
AcDbBlockBegin
  2
block 21
 70
     0
 10
0.0
 20
0.0
 30
0.0
  3
block 21
  1

  0
SPLINE
  5
D2
330
CE
100
AcDbEntity
  8
incisione
 62
     7
370
    35
100
AcDbSpline
210
0.0
220
0.0
230
1.0
 70
    11
 71
     3
 72
    65
 73
    61
 74
     0
 42
0.0000000001
 43
0.0000000001
 12
1.0
 22
0.0
 32
0.0
 13
1.0
 23
0.0
 33
0.0
 40
0.0
 40
0.0
 40
0.0
 40
0.0
 40
1.0
 40
1.0
 40
1.0
 40
2.0
 40
2.0
 40
2.0
 40
3.0
 40
3.0
 40
3.0
 40
4.0
 40
4.0
 40
4.0
 40
5.0
 40
5.0
 40
5.0
 40
6.0
 40
6.0
 40
6.0
 40
7.0
 40
7.0
 40
7.0
 40
8.0
 40
8.0
 40
8.0
 40
9.0
 40
9.0
 40
9.0
 40
10.0
 40
10.0
 40
10.0
 40
11.0
 40
11.0
 40
11.0
 40
12.0
 40
12.0
 40
12.0
 40
13.0
 40
13.0
 40
13.0
 40
14.0
 40
14.0
 40
14.0
 40
15.0
 40
15.0
 40
15.0
 40
16.0
 40
16.0
 40
16.0
 40
17.0
 40
17.0
 40
17.0
 40
18.0
 40
18.0
 40
18.0
 40
19.0
 40
19.0
 40
19.0
 40
20.0
 40
20.0
 40
20.0
 40
20.0
 10
99.76202000137243
 20
880.8772720677853
 30
0.0
 10
100.3582153069417
 20
881.4734673733561
 30
0.0
 10
100.3582153069417
 20
882.4400750391285
 30
0.0
 10
99.76202000137243
 20
883.0362703446991
 30
0.0
 10
99.16584622764995
 20
883.6324656502658
 30
0.0
 10
98.19570733900359
 20
883.6359968731401
 30
0.0
 10
97.59951203343465
 20
883.0398015675695
 30
0.0
 10
97.00331672786506
 20
882.4436062620025
 30
0.0
 10
97.00682641889065
 20
881.4734673733561
 30
0.0
 10
97.60302172445992
 20
880.8772720677853
 30
0.0
 10
97.79353550479424
 20
880.6867798192993
 30
0.0
 10
98.01578722728642
 20
880.556253764101
 30
0.0
 10
98.25567353229373
 20
880.4892251250648
 30
0.0
 10
98.25567353229373
 20
880.4892251250648
 30
0.0
 10
98.25567353229373
 20
879.0675203456913
 30
0.0
 10
98.25567353229373
 20
879.0675203456913
 30
0.0
 10
98.25567353229373
 20
879.0675203456913
 30
0.0
 10
90.56863197605577
 20
879.0675203456913
 30
0.0
 10
90.56863197605577
 20
879.0675203456913
 30
0.0
 10
90.56863197605577
 20
879.0675203456913
 30
0.0
 10
87.38659106295154
 20
882.2495827906423
 30
0.0
 10
87.38659106295154
 20
882.2495827906423
 30
0.0
 10
87.38659106295154
 20
882.2495827906423
 30
0.0
 10
87.38659106295154
 20
882.2495827906423
 30
0.0
 10
87.38659106295154
 20
882.2531140135127
 30
0.0
 10
87.81343839357399
 20
882.8493093190833
 30
0.0
 10
87.76053464602862
 20
883.6818597067868
 30
0.0
 10
87.22430553374949
 20
884.218088819066
 30
0.0
 10
86.62811022818022
 20
884.8142841246365
 30
0.0
 10
85.65797133953386
 20
884.817815347507
 30
0.0
 10
85.06177603396492
 20
884.2216200419399
 30
0.0
 10
84.46558072839532
 20
883.625424736369
 30
0.0
 10
84.46558072839532
 20
882.6517546248488
 30
0.0
 10
85.06177603396492
 20
882.0555593192818
 30
0.0
 10
85.59800514624405
 20
881.5193302070026
 30
0.0
 10
86.4340867568203
 20
881.4699361504821
 30
0.0
 10
87.03381328526196
 20
881.8968050129527
 30
0.0
 10
87.03381328526196
 20
881.8968050129527
 30
0.0
 10
90.36050514505342
 20
878.5701131531619
 30
0.0
 10
90.36050514505342
 20
878.5701131531619
 30
0.0
 10
90.36050514505342
 20
878.5701131531619
 30
0.0
 10
98.25567353229373
 20
878.5701131531619
 30
0.0
 10
98.25567353229373
 20
878.5701131531619
 30
0.0
 10
98.25567353229373
 20
878.5701131531619
 30
0.0
 10
98.25567353229373
 20
876.7427268485482
 30
0.0
 10
98.25567353229373
 20
876.7427268485482
 30
0.0
 10
98.25567353229373
 20
876.7427268485482
 30
0.0
 10
98.44969700365364
 20
876.5487033771915
 30
0.0
 10
98.44969700365364
 20
876.5487033771915
 30
0.0
 10
98.44969700365364
 20
876.5487033771915
 30
0.0
 10
99.1552525590328
 20
876.5487033771915
 30
0.0
 10
99.1552525590328
 20
876.5487033771915
 30
0.0
 10
99.1552525590328
 20
876.5487033771915
 30
0.0
 10
98.75661194769583
 20
876.9473439885276
 30
0.0
 10
98.75661194769583
 20
876.9473439885276
 30
0.0
 10
98.75661194769583
 20
876.9473439885276
 30
0.0
 10
98.75661194769583
 20
880.4327901546477
 30
0.0
 10
98.75661194769583
 20
880.4327901546477
 30
0.0
 10
99.11998339400256
 20
880.4504247371628
 30
0.0
 10
99.4833333084625
 20
880.598585374877
 30
0.0
 10
99.76202000137243
 20
880.8772720677853
 30
0.0
  0
SPLINE
  5
D3
330
CE
100
AcDbEntity
  8
incisione
 62
     7
370
    35
100
AcDbSpline
210
0.0
220
0.0
230
1.0
 70
    11
 71
     3
 72
    17
 73
    13
 74
     0
 42
0.0000000001
 43
0.0000000001
 12
1.0
 22
0.0
 32
0.0
 13
1.0
 23
0.0
 33
0.0
 40
0.0
 40
0.0
 40
0.0
 40
0.0
 40
1.0
 40
1.0
 40
1.0
 40
2.0
 40
2.0
 40
2.0
 40
3.0
 40
3.0
 40
3.0
 40
4.0
 40
4.0
 40
4.0
 40
4.0
 10
86.8715277560599
 20
882.4118683198418
 30
0.0
 10
86.46935592185086
 20
882.0132277085061
 30
0.0
 10
85.81672564586353
 20
882.0096964856352
 30
0.0
 10
85.41808503452688
 20
882.4118683198418
 30
0.0
 10
85.0159132003172
 20
882.8140401540523
 30
0.0
 10
85.0159132003172
 20
883.46667043004
 30
0.0
 10
85.41808503452688
 20
883.8688422642504
 30
0.0
 10
85.81672564586353
 20
884.2709925666126
 30
0.0
 10
86.46935592185086
 20
884.2674828755863
 30
0.0
 10
86.8715277560599
 20
883.8653110413763
 30
0.0
 10
87.27369959026957
 20
883.4631392071658
 30
0.0
 10
87.27369959026957
 20
882.8140401540523
 30
0.0
 10
86.8715277560599
 20
882.4118683198418
 30
0.0
  0
SPLINE
  5
D4
330
CE
100
AcDbEntity
  8
incisione
 62
     7
370
    35
100
AcDbSpline
210
0.0
220
0.0
230
1.0
 70
    11
 71
     3
 72
    17
 73
    13
 74
     0
 42
0.0000000001
 43
0.0000000001
 12
1.0
 22
0.0
 32
0.0
 13
1.0
 23
0.0
 33
0.0
 40
0.0
 40
0.0
 40
0.0
 40
0.0
 40
1.0
 40
1.0
 40
1.0
 40
2.0
 40
2.0
 40
2.0
 40
3.0
 40
3.0
 40
3.0
 40
4.0
 40
4.0
 40
4.0
 40
4.0
 10
97.9557995021495
 20
881.2300498454748
 30
0.0
 10
97.55364919978695
 20
881.6286904568112
 30
0.0
 10
97.55364919978695
 20
882.284873487518
 30
0.0
 10
97.9557995021495
 20
882.68702378988
 30
0.0
 10
98.35444011348648
 20
883.0856644012159
 30
0.0
 10
99.01062314419298
 20
883.0856644012159
 30
0.0
 10
99.40924222368285
 20
882.68702378988
 30
0.0
 10
99.81141405789221
 20
882.284873487518
 30
0.0
 10
99.81141405789221
 20
881.6322216796855
 30
0.0
 10
99.40924222368285
 20
881.2300498454748
 30
0.0
 10
99.0070919213206
 20
880.827899543113
 30
0.0
 10
98.35444011348648
 20
880.827899543113
 30
0.0
 10
97.9557995021495
 20
881.2300498454748
 30
0.0
  0
ENDBLK
  5
D1
330
CE
100
AcDbEntity
  8
0
100
AcDbBlockEnd
  0
BLOCK
  5
D7
330
D5
100
AcDbEntity
  8
0
100
AcDbBlockBegin
  2
block 22
 70
     0
 10
0.0
 20
0.0
 30
0.0
  3
block 22
  1

  0
SPLINE
  5
D9
330
D5
100
AcDbEntity
  8
incisione
 62
     7
370
    35
100
AcDbSpline
210
0.0
220
0.0
230
1.0
 70
    11
 71
     3
 72
    38
 73
    34
 74
     0
 42
0.0000000001
 43
0.0000000001
 12
1.0
 22
0.0
 32
0.0
 13
1.0
 23
0.0
 33
0.0
 40
0.0
 40
0.0
 40
0.0
 40
0.0
 40
1.0
 40
1.0
 40
1.0
 40
2.0
 40
2.0
 40
2.0
 40
3.0
 40
3.0
 40
3.0
 40
4.0
 40
4.0
 40
4.0
 40
5.0
 40
5.0
 40
5.0
 40
6.0
 40
6.0
 40
6.0
 40
7.0
 40
7.0
 40
7.0
 40
8.0
 40
8.0
 40
8.0
 40
9.0
 40
9.0
 40
9.0
 40
10.0
 40
10.0
 40
10.0
 40
11.0
 40
11.0
 40
11.0
 40
11.0
 10
186.0867465083828
 20
780.7730679573405
 30
0.0
 10
185.2436239839083
 20
780.7730679573405
 30
0.0
 10
184.5557030110442
 20
780.0886782073471
 30
0.0
 10
184.5557030110442
 20
779.2455341510287
 30
0.0
 10
184.5557030110442
 20
778.4870533162544
 30
0.0
 10
185.1095667058385
 20
777.8555888456566
 30
0.0
 10
185.8362880666052
 20
777.735634927229
 30
0.0
 10
185.8362880666052
 20
777.735634927229
 30
0.0
 10
185.8362880666052
 20
773.4529290702816
 30
0.0
 10
185.8362880666052
 20
773.4529290702816
 30
0.0
 10
185.8362880666052
 20
773.4529290702816
 30
0.0
 10
183.1022602895109
 20
770.7189012931873
 30
0.0
 10
183.1022602895109
 20
770.7189012931873
 30
0.0
 10
183.1022602895109
 20
770.7189012931873
 30
0.0
 10
183.1022602895109
 20
755.4824282134987
 30
0.0
 10
183.1022602895109
 20
755.4824282134987
 30
0.0
 10
183.2715867326109
 20
755.4894691273989
 30
0.0
 10
183.4373819528386
 20
755.5035940188884
 30
0.0
 10
183.603198704913
 20
755.5176973785299
 30
0.0
 10
183.603198704913
 20
755.5176973785299
 30
0.0
 10
183.603198704913
 20
770.5142841532115
 30
0.0
 10
183.603198704913
 20
770.5142841532115
 30
0.0
 10
183.603198704913
 20
770.5142841532115
 30
0.0
 10
186.3372264820073
 20
773.2483119303058
 30
0.0
 10
186.3372264820073
 20
773.2483119303058
 30
0.0
 10
186.3372264820073
 20
773.2483119303058
 30
0.0
 10
186.3372264820073
 20
777.735634927229
 30
0.0
 10
186.3372264820073
 20
777.735634927229
 30
0.0
 10
187.0604166199016
 20
777.8555888456566
 30
0.0
 10
187.6142803146958
 20
778.4870533162544
 30
0.0
 10
187.6142803146958
 20
779.2455341510287
 30
0.0
 10
187.6142803146958
 20
780.0886782073471
 30
0.0
 10
186.9298905647042
 20
780.7730679573405
 30
0.0
 10
186.0867465083828
 20
780.7730679573405
 30
0.0
  0
SPLINE
  5
DA
330
D5
100
AcDbEntity
  8
incisione
 62
     7
370
    35
100
AcDbSpline
210
0.0
220
0.0
230
1.0
 70
    11
 71
     3
 72
    17
 73
    13
 74
     0
 42
0.0000000001
 43
0.0000000001
 12
1.0
 22
0.0
 32
0.0
 13
1.0
 23
0.0
 33
0.0
 40
0.0
 40
0.0
 40
0.0
 40
0.0
 40
1.0
 40
1.0
 40
1.0
 40
2.0
 40
2.0
 40
2.0
 40
3.0
 40
3.0
 40
3.0
 40
4.0
 40
4.0
 40
4.0
 40
4.0
 10
186.0867465083828
 20
778.2154290690909
 30
0.0
 10
185.5187794539458
 20
778.2154290690909
 30
0.0
 10
185.0566414264464
 20
778.6775670965889
 30
0.0
 10
185.0566414264464
 20
779.2455341510287
 30
0.0
 10
185.0566414264464
 20
779.8135012054644
 30
0.0
 10
185.5187794539458
 20
780.2721080100922
 30
0.0
 10
186.0867465083828
 20
780.2721080100922
 30
0.0
 10
186.6547350946666
 20
780.2721080100922
 30
0.0
 10
187.1133418992937
 20
779.8135012054644
 30
0.0
 10
187.1133418992937
 20
779.2455341510287
 30
0.0
 10
187.1133418992937
 20
778.6775670965889
 30
0.0
 10
186.6547350946666
 20
778.2154290690909
 30
0.0
 10
186.0867465083828
 20
778.2154290690909
 30
0.0
  0
ENDBLK
  5
D8
330
D5
100
AcDbEntity
  8
0
100
AcDbBlockEnd
  0
BLOCK
  5
DD
330
DB
100
AcDbEntity
  8
0
100
AcDbBlockBegin
  2
block 23
 70
     0
 10
0.0
 20
0.0
 30
0.0
  3
block 23
  1

  0
SPLINE
  5
DF
330
DB
100
AcDbEntity
  8
incisione
 62
     7
370
    35
100
AcDbSpline
210
0.0
220
0.0
230
1.0
 70
    11
 71
     3
 72
    50
 73
    46
 74
     0
 42
0.0000000001
 43
0.0000000001
 12
1.0
 22
0.0
 32
0.0
 13
1.0
 23
0.0
 33
0.0
 40
0.0
 40
0.0
 40
0.0
 40
0.0
 40
1.0
 40
1.0
 40
1.0
 40
2.0
 40
2.0
 40
2.0
 40
3.0
 40
3.0
 40
3.0
 40
4.0
 40
4.0
 40
4.0
 40
5.0
 40
5.0
 40
5.0
 40
6.0
 40
6.0
 40
6.0
 40
7.0
 40
7.0
 40
7.0
 40
8.0
 40
8.0
 40
8.0
 40
9.0
 40
9.0
 40
9.0
 40
10.0
 40
10.0
 40
10.0
 40
11.0
 40
11.0
 40
11.0
 40
12.0
 40
12.0
 40
12.0
 40
13.0
 40
13.0
 40
13.0
 40
14.0
 40
14.0
 40
14.0
 40
15.0
 40
15.0
 40
15.0
 40
15.0
 10
40.64353551908174
 20
906.8593640073611
 30
0.0
 10
40.24136368487239
 20
906.8593640073611
 30
0.0
 10
39.8674201017953
 20
906.753534980423
 30
0.0
 10
39.54640179811037
 20
906.566552422963
 30
0.0
 10
39.54640179811037
 20
906.566552422963
 30
0.0
 10
36.86174654568908
 20
908.8067042303986
 30
0.0
 10
36.86174654568908
 20
908.8067042303986
 30
0.0
 10
36.86174654568908
 20
908.8067042303986
 30
0.0
 10
36.70299223935941
 20
908.6056183132933
 30
0.0
 10
36.70299223935941
 20
908.6056183132933
 30
0.0
 10
35.81400688123747
 20
907.5049533694524
 30
0.0
 10
34.34292957718901
 20
905.9491913120062
 30
0.0
 10
33.8455008528125
 20
905.9491913120062
 30
0.0
 10
33.8455008528125
 20
905.9491913120062
 30
0.0
 10
23.94655727211666
 20
905.9491913120062
 30
0.0
 10
23.94655727211666
 20
905.9491913120062
 30
0.0
 10
23.94655727211666
 20
905.9491913120062
 30
0.0
 10
23.94655727211666
 20
905.4482528966029
 30
0.0
 10
23.94655727211666
 20
905.4482528966029
 30
0.0
 10
23.94655727211666
 20
905.4482528966029
 30
0.0
 10
33.8455008528125
 20
905.4482528966029
 30
0.0
 10
33.8455008528125
 20
905.4482528966029
 30
0.0
 10
34.66747910374632
 20
905.4482528966029
 30
0.0
 10
36.32553896525673
 20
907.363833645635
 30
0.0
 10
36.93230640759635
 20
908.097617452149
 30
0.0
 10
36.93230640759635
 20
908.097617452149
 30
0.0
 10
39.13716751815625
 20
906.2596374789201
 30
0.0
 10
39.13716751815625
 20
906.2596374789201
 30
0.0
 10
38.70325774178903
 20
905.8609968675838
 30
0.0
 10
38.43514318564947
 20
905.285967367403
 30
0.0
 10
38.43514318564947
 20
904.6509716739308
 30
0.0
 10
38.43514318564947
 20
903.4338840345328
 30
0.0
 10
39.42644787968332
 20
902.4425793404966
 30
0.0
 10
40.64353551908174
 20
902.4425793404966
 30
0.0
 10
41.42316062739378
 20
902.4425793404966
 30
0.0
 10
42.10755037738576
 20
902.8482823975773
 30
0.0
 10
42.49915007482443
 20
903.4585810627893
 30
0.0
 10
42.59438543314481
 20
903.5997007866068
 30
0.0
 10
42.66847651792446
 20
903.7549238700616
 30
0.0
 10
42.72491148834253
 20
903.9171878674168
 30
0.0
 10
42.80606501886663
 20
904.1465020356567
 30
0.0
 10
42.85192785251402
 20
904.3934507864084
 30
0.0
 10
42.85192785251402
 20
904.6509716739308
 30
0.0
 10
42.85192785251402
 20
905.871590536199
 30
0.0
 10
41.86062315848048
 20
906.8593640073611
 30
0.0
 10
40.64353551908174
 20
906.8593640073611
 30
0.0
  0
SPLINE
  5
E0
330
DB
100
AcDbEntity
  8
incisione
 62
     7
370
    35
100
AcDbSpline
210
0.0
220
0.0
230
1.0
 70
    11
 71
     3
 72
    17
 73
    13
 74
     0
 42
0.0000000001
 43
0.0000000001
 12
1.0
 22
0.0
 32
0.0
 13
1.0
 23
0.0
 33
0.0
 40
0.0
 40
0.0
 40
0.0
 40
0.0
 40
1.0
 40
1.0
 40
1.0
 40
2.0
 40
2.0
 40
2.0
 40
3.0
 40
3.0
 40
3.0
 40
4.0
 40
4.0
 40
4.0
 40
4.0
 10
40.64353551908174
 20
902.9435392877446
 30
0.0
 10
39.70160334972087
 20
902.9435392877446
 30
0.0
 10
38.93255037817951
 20
903.7090610364154
 30
0.0
 10
38.93255037817951
 20
904.6509716739308
 30
0.0
 10
38.93255037817951
 20
905.5928823114423
 30
0.0
 10
39.70160334972087
 20
906.3619568148321
 30
0.0
 10
40.64353551908174
 20
906.3619568148321
 30
0.0
 10
41.58544615659615
 20
906.3619568148321
 30
0.0
 10
42.35096790526512
 20
905.5928823114423
 30
0.0
 10
42.35096790526512
 20
904.6509716739308
 30
0.0
 10
42.35096790526512
 20
903.7090610364154
 30
0.0
 10
41.58544615659615
 20
902.9435392877446
 30
0.0
 10
40.64353551908174
 20
902.9435392877446
 30
0.0
  0
ENDBLK
  5
DE
330
DB
100
AcDbEntity
  8
0
100
AcDbBlockEnd
  0
BLOCK
  5
E3
330
E1
100
AcDbEntity
  8
0
100
AcDbBlockBegin
  2
block 24
 70
     0
 10
0.0
 20
0.0
 30
0.0
  3
block 24
  1

  0
SPLINE
  5
E5
330
E1
100
AcDbEntity
  8
incisione
 62
     7
370
    35
100
AcDbSpline
210
0.0
220
0.0
230
1.0
 70
    11
 71
     3
 72
    74
 73
    70
 74
     0
 42
0.0000000001
 43
0.0000000001
 12
1.0
 22
0.0
 32
0.0
 13
1.0
 23
0.0
 33
0.0
 40
0.0
 40
0.0
 40
0.0
 40
0.0
 40
1.0
 40
1.0
 40
1.0
 40
2.0
 40
2.0
 40
2.0
 40
3.0
 40
3.0
 40
3.0
 40
4.0
 40
4.0
 40
4.0
 40
5.0
 40
5.0
 40
5.0
 40
6.0
 40
6.0
 40
6.0
 40
7.0
 40
7.0
 40
7.0
 40
8.0
 40
8.0
 40
8.0
 40
9.0
 40
9.0
 40
9.0
 40
10.0
 40
10.0
 40
10.0
 40
11.0
 40
11.0
 40
11.0
 40
12.0
 40
12.0
 40
12.0
 40
13.0
 40
13.0
 40
13.0
 40
14.0
 40
14.0
 40
14.0
 40
15.0
 40
15.0
 40
15.0
 40
16.0
 40
16.0
 40
16.0
 40
17.0
 40
17.0
 40
17.0
 40
18.0
 40
18.0
 40
18.0
 40
19.0
 40
19.0
 40
19.0
 40
20.0
 40
20.0
 40
20.0
 40
21.0
 40
21.0
 40
21.0
 40
22.0
 40
22.0
 40
22.0
 40
23.0
 40
23.0
 40
23.0
 40
23.0
 10
192.7507238965823
 20
880.9654665122076
 30
0.0
 10
191.9287456456485
 20
880.9654665122076
 30
0.0
 10
190.2707073159849
 20
879.0498857631754
 30
0.0
 10
189.6639183417984
 20
878.3196331795358
 30
0.0
 10
189.6639183417984
 20
878.3196331795358
 30
0.0
 10
187.4590572312385
 20
880.157613152765
 30
0.0
 10
187.4590572312385
 20
880.157613152765
 30
0.0
 10
187.8929670076058
 20
880.556253764101
 30
0.0
 10
188.1610815637453
 20
881.1277520414113
 30
0.0
 10
188.1610815637453
 20
881.76274773488
 30
0.0
 10
188.1610815637453
 20
882.9798353742816
 30
0.0
 10
187.1697768697115
 20
883.9711400683138
 30
0.0
 10
185.952689230313
 20
883.9711400683138
 30
0.0
 10
185.1765953448734
 20
883.9711400683138
 30
0.0
 10
184.4922055948817
 20
883.5689682341039
 30
0.0
 10
184.1006058974427
 20
882.9586695688919
 30
0.0
 10
184.1006058974427
 20
882.9586695688919
 30
0.0
 10
184.1006058974427
 20
882.9551383460214
 30
0.0
 10
184.1006058974427
 20
882.9551383460214
 30
0.0
 10
184.1006058974427
 20
882.9551383460214
 30
0.0
 10
181.7722811774302
 20
884.8989473461846
 30
0.0
 10
181.7722811774302
 20
884.8989473461846
 30
0.0
 10
181.7722811774302
 20
884.8989473461846
 30
0.0
 10
172.9140363472883
 20
884.8989473461846
 30
0.0
 10
172.9140363472883
 20
884.8989473461846
 30
0.0
 10
172.7940824288609
 20
885.6221374840795
 30
0.0
 10
172.1626179582614
 20
886.1795324017446
 30
0.0
 10
171.4041371234904
 20
886.1795324017446
 30
0.0
 10
170.5645242900412
 20
886.1795324017446
 30
0.0
 10
169.8766033171771
 20
885.4916114288809
 30
0.0
 10
169.8766033171771
 20
884.6484673725624
 30
0.0
 10
169.8766033171771
 20
883.8053448480846
 30
0.0
 10
170.5645242900412
 20
883.1209550980952
 30
0.0
 10
171.4041371234904
 20
883.1209550980952
 30
0.0
 10
172.1626179582614
 20
883.1209550980952
 30
0.0
 10
172.7940824288609
 20
883.674797261042
 30
0.0
 10
172.9140363472883
 20
884.3980089307847
 30
0.0
 10
172.9140363472883
 20
884.3980089307847
 30
0.0
 10
181.5888298428407
 20
884.3980089307847
 30
0.0
 10
181.5888298428407
 20
884.3980089307847
 30
0.0
 10
181.5888298428407
 20
884.3980089307847
 30
0.0
 10
183.8713132610526
 20
882.4965315413937
 30
0.0
 10
183.8713132610526
 20
882.4965315413937
 30
0.0
 10
183.7901597305282
 20
882.2672173731577
 30
0.0
 10
183.7443184287276
 20
882.0202901542508
 30
0.0
 10
183.7443184287276
 20
881.76274773488
 30
0.0
 10
183.7443184287276
 20
880.5456600954819
 30
0.0
 10
184.7356231227614
 20
879.5543554014494
 30
0.0
 10
185.952689230313
 20
879.5543554014494
 30
0.0
 10
186.3548610645224
 20
879.5543554014494
 30
0.0
 10
186.7252734247271
 20
879.660205960232
 30
0.0
 10
187.0463132602588
 20
879.8506982087218
 30
0.0
 10
187.0463132602588
 20
879.8506982087218
 30
0.0
 10
189.7344782037057
 20
877.610567933131
 30
0.0
 10
189.7344782037057
 20
877.610567933131
 30
0.0
 10
189.7344782037057
 20
877.610567933131
 30
0.0
 10
189.8932325100354
 20
877.8081226273617
 30
0.0
 10
189.8932325100354
 20
877.8081226273617
 30
0.0
 10
190.7822178681573
 20
878.9122972622326
 30
0.0
 10
192.2533167040526
 20
880.4645280968043
 30
0.0
 10
192.7507238965823
 20
880.4645280968043
 30
0.0
 10
192.7507238965823
 20
880.4645280968043
 30
0.0
 10
202.6496674772781
 20
880.4645280968043
 30
0.0
 10
202.6496674772781
 20
880.4645280968043
 30
0.0
 10
202.6496674772781
 20
880.4645280968043
 30
0.0
 10
202.6496674772781
 20
880.9654665122076
 30
0.0
 10
202.6496674772781
 20
880.9654665122076
 30
0.0
 10
202.6496674772781
 20
880.9654665122076
 30
0.0
 10
192.7507238965823
 20
880.9654665122076
 30
0.0
 10
192.7507238965823
 20
880.9654665122076
 30
0.0
  0
SPLINE
  5
E6
330
E1
100
AcDbEntity
  8
incisione
 62
     7
370
    35
100
AcDbSpline
210
0.0
220
0.0
230
1.0
 70
    11
 71
     3
 72
    17
 73
    13
 74
     0
 42
0.0000000001
 43
0.0000000001
 12
1.0
 22
0.0
 32
0.0
 13
1.0
 23
0.0
 33
0.0
 40
0.0
 40
0.0
 40
0.0
 40
0.0
 40
1.0
 40
1.0
 40
1.0
 40
2.0
 40
2.0
 40
2.0
 40
3.0
 40
3.0
 40
3.0
 40
4.0
 40
4.0
 40
4.0
 40
4.0
 10
171.4041371234904
 20
883.6218935134951
 30
0.0
 10
170.8397012919255
 20
883.6218935134951
 30
0.0
 10
170.377563264426
 20
884.0840315409968
 30
0.0
 10
170.377563264426
 20
884.6484673725624
 30
0.0
 10
170.377563264426
 20
885.216455958843
 30
0.0
 10
170.8397012919255
 20
885.6785939863447
 30
0.0
 10
171.4041371234904
 20
885.6785939863447
 30
0.0
 10
171.9721041779271
 20
885.6785939863447
 30
0.0
 10
172.4342422054266
 20
885.216455958843
 30
0.0
 10
172.4342422054266
 20
884.6484673725624
 30
0.0
 10
172.4342422054266
 20
884.0840315409968
 30
0.0
 10
171.9721041779271
 20
883.6218935134951
 30
0.0
 10
171.4041371234904
 20
883.6218935134951
 30
0.0
  0
SPLINE
  5
E7
330
E1
100
AcDbEntity
  8
incisione
 62
     7
370
    35
100
AcDbSpline
210
0.0
220
0.0
230
1.0
 70
    11
 71
     3
 72
    17
 73
    13
 74
     0
 42
0.0000000001
 43
0.0000000001
 12
1.0
 22
0.0
 32
0.0
 13
1.0
 23
0.0
 33
0.0
 40
0.0
 40
0.0
 40
0.0
 40
0.0
 40
1.0
 40
1.0
 40
1.0
 40
2.0
 40
2.0
 40
2.0
 40
3.0
 40
3.0
 40
3.0
 40
4.0
 40
4.0
 40
4.0
 40
4.0
 10
185.952689230313
 20
880.0553153486976
 30
0.0
 10
185.010778592799
 20
880.0553153486976
 30
0.0
 10
184.2452568441297
 20
880.8208370973682
 30
0.0
 10
184.2452568441297
 20
881.76274773488
 30
0.0
 10
184.2452568441297
 20
882.7046583723957
 30
0.0
 10
185.010778592799
 20
883.4702016529105
 30
0.0
 10
185.952689230313
 20
883.4702016529105
 30
0.0
 10
186.8946213996739
 20
883.4702016529105
 30
0.0
 10
187.6601431483432
 20
882.7046583723957
 30
0.0
 10
187.6601431483432
 20
881.76274773488
 30
0.0
 10
187.6601431483432
 20
880.8208370973682
 30
0.0
 10
186.8946213996739
 20
880.0553153486976
 30
0.0
 10
185.952689230313
 20
880.0553153486976
 30
0.0
  0
ENDBLK
  5
E4
330
E1
100
AcDbEntity
  8
0
100
AcDbBlockEnd
  0
BLOCK
  5
EA
330
E8
100
AcDbEntity
  8
0
100
AcDbBlockBegin
  2
block 25
 70
     0
 10
0.0
 20
0.0
 30
0.0
  3
block 25
  1

  0
SPLINE
  5
EC
330
E8
100
AcDbEntity
  8
incisione
 62
     7
370
    35
100
AcDbSpline
210
0.0
220
0.0
230
1.0
 70
    11
 71
     3
 72
    59
 73
    55
 74
     0
 42
0.0000000001
 43
0.0000000001
 12
1.0
 22
0.0
 32
0.0
 13
1.0
 23
0.0
 33
0.0
 40
0.0
 40
0.0
 40
0.0
 40
0.0
 40
1.0
 40
1.0
 40
1.0
 40
2.0
 40
2.0
 40
2.0
 40
3.0
 40
3.0
 40
3.0
 40
4.0
 40
4.0
 40
4.0
 40
5.0
 40
5.0
 40
5.0
 40
6.0
 40
6.0
 40
6.0
 40
7.0
 40
7.0
 40
7.0
 40
8.0
 40
8.0
 40
8.0
 40
9.0
 40
9.0
 40
9.0
 40
10.0
 40
10.0
 40
10.0
 40
11.0
 40
11.0
 40
11.0
 40
12.0
 40
12.0
 40
12.0
 40
13.0
 40
13.0
 40
13.0
 40
14.0
 40
14.0
 40
14.0
 40
15.0
 40
15.0
 40
15.0
 40
16.0
 40
16.0
 40
16.0
 40
17.0
 40
17.0
 40
17.0
 40
18.0
 40
18.0
 40
18.0
 40
18.0
 10
120.3924790823151
 20
896.0149785662808
 30
0.0
 10
119.5493350259941
 20
896.0149785662808
 30
0.0
 10
118.8649452760021
 20
895.3270575934171
 30
0.0
 10
118.8649452760021
 20
894.4874447599652
 30
0.0
 10
118.8649452760021
 20
893.7289639251952
 30
0.0
 10
119.4188089707963
 20
893.0974994545969
 30
0.0
 10
120.1419991086906
 20
892.9775670680139
 30
0.0
 10
120.1419991086906
 20
892.9775670680139
 30
0.0
 10
120.145530331563
 20
892.9775670680139
 30
0.0
 10
120.145530331563
 20
892.9775670680139
 30
0.0
 10
120.145530331563
 20
892.9775670680139
 30
0.0
 10
120.145530331563
 20
884.3027520406176
 30
0.0
 10
120.145530331563
 20
884.3027520406176
 30
0.0
 10
120.145530331563
 20
884.3027520406176
 30
0.0
 10
118.2405217193005
 20
882.0202901542508
 30
0.0
 10
118.2405217193005
 20
882.0202901542508
 30
0.0
 10
118.0112290829104
 20
882.1014221529284
 30
0.0
 10
117.7642803321583
 20
882.1472849865746
 30
0.0
 10
117.5067594446359
 20
882.1472849865746
 30
0.0
 10
116.2896718052378
 20
882.1472849865746
 30
0.0
 10
115.2983671112036
 20
881.155980292542
 30
0.0
 10
115.2983671112036
 20
879.9388926531442
 30
0.0
 10
115.2983671112036
 20
879.5402520418082
 30
0.0
 10
115.4041961381415
 20
879.1663084587288
 30
0.0
 10
115.5946883866287
 20
878.8452901550446
 30
0.0
 10
115.5946883866287
 20
878.8452901550446
 30
0.0
 10
113.6826388604682
 20
876.5487033771915
 30
0.0
 10
113.6826388604682
 20
876.5487033771915
 30
0.0
 10
113.6826388604682
 20
876.5487033771915
 30
0.0
 10
114.3317594454297
 20
876.5487033771915
 30
0.0
 10
114.3317594454297
 20
876.5487033771915
 30
0.0
 10
114.3317594454297
 20
876.5487033771915
 30
0.0
 10
115.9016033306709
 20
878.4325246522187
 30
0.0
 10
115.9016033306709
 20
878.4325246522187
 30
0.0
 10
116.3037751648802
 20
877.9986148758516
 30
0.0
 10
116.8752734421896
 20
877.73050031971
 30
0.0
 10
117.5067594446359
 20
877.73050031971
 30
0.0
 10
118.7238255521875
 20
877.73050031971
 30
0.0
 10
119.7151517780682
 20
878.7218050137465
 30
0.0
 10
119.7151517780682
 20
879.9388926531442
 30
0.0
 10
119.7151517780682
 20
880.71500807043
 30
0.0
 10
119.3129799438588
 20
881.3993978204232
 30
0.0
 10
118.7026597468
 20
881.7909759860145
 30
0.0
 10
118.7026597468
 20
881.7909759860145
 30
0.0
 10
120.6464687469651
 20
884.1228319288988
 30
0.0
 10
120.6464687469651
 20
884.1228319288988
 30
0.0
 10
120.6464687469651
 20
884.1228319288988
 30
0.0
 10
120.6464687469651
 20
892.9775670680139
 30
0.0
 10
120.6464687469651
 20
892.9775670680139
 30
0.0
 10
121.3661491938338
 20
893.0974994545969
 30
0.0
 10
121.923522579654
 20
893.7289639251952
 30
0.0
 10
121.923522579654
 20
894.4874447599652
 30
0.0
 10
121.923522579654
 20
895.3270575934171
 30
0.0
 10
121.2356231386367
 20
896.0149785662808
 30
0.0
 10
120.3924790823151
 20
896.0149785662808
 30
0.0
  0
SPLINE
  5
ED
330
E8
100
AcDbEntity
  8
incisione
 62
     7
370
    35
100
AcDbSpline
210
0.0
220
0.0
230
1.0
 70
    11
 71
     3
 72
    17
 73
    13
 74
     0
 42
0.0000000001
 43
0.0000000001
 12
1.0
 22
0.0
 32
0.0
 13
1.0
 23
0.0
 33
0.0
 40
0.0
 40
0.0
 40
0.0
 40
0.0
 40
1.0
 40
1.0
 40
1.0
 40
2.0
 40
2.0
 40
2.0
 40
3.0
 40
3.0
 40
3.0
 40
4.0
 40
4.0
 40
4.0
 40
4.0
 10
119.2141918308193
 20
879.9388926531442
 30
0.0
 10
119.2141918308193
 20
878.9969820156289
 30
0.0
 10
118.44867008215
 20
878.2314387351134
 30
0.0
 10
117.5067594446359
 20
878.2314387351134
 30
0.0
 10
116.564827275275
 20
878.2314387351134
 30
0.0
 10
115.7993055266057
 20
878.9969820156289
 30
0.0
 10
115.7993055266057
 20
879.9388926531442
 30
0.0
 10
115.7993055266057
 20
880.8808032906561
 30
0.0
 10
116.564827275275
 20
881.6463250393269
 30
0.0
 10
117.5067594446359
 20
881.6463250393269
 30
0.0
 10
118.44867008215
 20
881.6463250393269
 30
0.0
 10
119.2141918308193
 20
880.8808032906561
 30
0.0
 10
119.2141918308193
 20
879.9388926531442
 30
0.0
  0
SPLINE
  5
EE
330
E8
100
AcDbEntity
  8
incisione
 62
     7
370
    35
100
AcDbSpline
210
0.0
220
0.0
230
1.0
 70
    11
 71
     3
 72
    17
 73
    13
 74
     0
 42
0.0000000001
 43
0.0000000001
 12
1.0
 22
0.0
 32
0.0
 13
1.0
 23
0.0
 33
0.0
 40
0.0
 40
0.0
 40
0.0
 40
0.0
 40
1.0
 40
1.0
 40
1.0
 40
2.0
 40
2.0
 40
2.0
 40
3.0
 40
3.0
 40
3.0
 40
4.0
 40
4.0
 40
4.0
 40
4.0
 10
120.3924790823151
 20
893.4573396780313
 30
0.0
 10
119.8280217189037
 20
893.4573396780313
 30
0.0
 10
119.3658836914045
 20
893.9194777055295
 30
0.0
 10
119.3658836914045
 20
894.4874447599652
 30
0.0
 10
119.3658836914045
 20
895.0518805915311
 30
0.0
 10
119.8280217189037
 20
895.5140401508773
 30
0.0
 10
120.3924790823151
 20
895.5140401508773
 30
0.0
 10
120.9604461367524
 20
895.5140401508773
 30
0.0
 10
121.4225841642516
 20
895.0518805915311
 30
0.0
 10
121.4225841642516
 20
894.4874447599652
 30
0.0
 10
121.4225841642516
 20
893.9194777055295
 30
0.0
 10
120.9604461367524
 20
893.4573396780313
 30
0.0
 10
120.3924790823151
 20
893.4573396780313
 30
0.0
  0
ENDBLK
  5
EB
330
E8
100
AcDbEntity
  8
0
100
AcDbBlockEnd
  0
BLOCK
  5
128
330
126
100
AcDbEntity
  8
0
100
AcDbBlockBegin
  2
block 26
 70
     0
 10
0.0
 20
0.0
 30
0.0
  3
block 26
  1

  0
SPLINE
  5
12A
330
126
100
AcDbEntity
  8
int cut
 62
     7
370
    25
100
AcDbSpline
210
0.0
220
0.0
230
1.0
 70
    11
 71
     3
 72
    17
 73
    13
 74
     0
 42
0.0000000001
 43
0.0000000001
 12
1.0
 22
0.0
 32
0.0
 13
1.0
 23
0.0
 33
0.0
 40
0.0
 40
0.0
 40
0.0
 40
0.0
 40
1.0
 40
1.0
 40
1.0
 40
2.0
 40
2.0
 40
2.0
 40
3.0
 40
3.0
 40
3.0
 40
4.0
 40
4.0
 40
4.0
 40
4.0
 10
112.6812750866758
 20
921.982725108514
 30
0.0
 10
112.6812750866758
 20
920.5214463771376
 30
0.0
 10
111.5756008253495
 20
919.3384722073006
 30
0.0
 10
109.8481781957575
 20
919.3384722073006
 30
0.0
 10
108.1900238568103
 20
919.3384722073006
 30
0.0
 10
107.0843495954829
 20
920.5214463771376
 30
0.0
 10
107.1188647231248
 20
921.982725108514
 30
0.0
 10
107.0843495954829
 20
923.5135200525011
 30
0.0
 10
108.1900238568103
 20
924.6616162604938
 30
0.0
 10
109.8829313587611
 20
924.6616162604938
 30
0.0
 10
111.5756008253495
 20
924.6616162604938
 30
0.0
 10
112.6467599590356
 20
923.5135200525011
 30
0.0
 10
112.6812750866758
 20
921.982725108514
 30
0.0
  0
POLYLINE
  5
12B
330
126
100
AcDbEntity
  8
int cut
 62
     7
370
    25
100
AcDb2dPolyline
 66
     1
 10
0.0
 20
0.0
 30
0.0
  0
VERTEX
  5
12C
330
12B
100
AcDbEntity
  8
int cut
 62
     7
370
    25
100
AcDbVertex
100
AcDb2dVertex
 10
107.257163269051
 20
900.2378140915825
 30
0.0
  0
VERTEX
  5
12D
330
12B
100
AcDbEntity
  8
int cut
 62
     7
370
    25
100
AcDbVertex
100
AcDb2dVertex
 10
107.257163269051
 20
917.2510681402379
 30
0.0
  0
VERTEX
  5
12E
330
12B
100
AcDbEntity
  8
int cut
 62
     7
370
    25
100
AcDbVertex
100
AcDb2dVertex
 10
112.5084614131081
 20
917.2510681402379
 30
0.0
  0
VERTEX
  5
12F
330
12B
100
AcDbEntity
  8
int cut
 62
     7
370
    25
100
AcDbVertex
100
AcDb2dVertex
 10
112.5084614131081
 20
900.2378140915825
 30
0.0
  0
VERTEX
  5
130
330
12B
100
AcDbEntity
  8
int cut
 62
     7
370
    25
100
AcDbVertex
100
AcDb2dVertex
 10
107.257163269051
 20
900.2378140915825
 30
0.0
  0
SEQEND
  5
131
330
12B
100
AcDbEntity
  8
int cut
 62
     7
370
    25
  0
INSERT
  5
133
330
126
100
AcDbEntity
  8
int cut
100
AcDbBlockReference
  2
block 27
 10
0.0
 20
0.0
 30
0.0
  0
ENDBLK
  5
129
330
126
100
AcDbEntity
  8
0
100
AcDbBlockEnd
  0
BLOCK
  5
134
330
132
100
AcDbEntity
  8
0
100
AcDbBlockBegin
  2
block 27
 70
     0
 10
0.0
 20
0.0
 30
0.0
  3
block 27
  1

  0
POLYLINE
  5
136
330
132
100
AcDbEntity
  8
int cut
 62
     7
370
    25
100
AcDb2dPolyline
 66
     1
 10
0.0
 20
0.0
 30
0.0
  0
VERTEX
  5
137
330
136
100
AcDbEntity
  8
int cut
 62
     7
370
    25
100
AcDbVertex
100
AcDb2dVertex
 10
115.7111110821833
 20
911.127966504667
 30
0.0
  0
VERTEX
  5
138
330
136
100
AcDbEntity
  8
int cut
 62
     7
370
    25
100
AcDbVertex
100
AcDb2dVertex
 10
115.7111110821833
 20
907.6143136192608
 30
0.0
  0
VERTEX
  5
139
330
136
100
AcDbEntity
  8
int cut
 62
     7
370
    25
100
AcDbVertex
100
AcDb2dVertex
 10
124.7669106065578
 20
907.6143136192608
 30
0.0
  0
VERTEX
  5
13A
330
136
100
AcDbEntity
  8
int cut
 62
     7
370
    25
100
AcDbVertex
100
AcDb2dVertex
 10
124.7669106065578
 20
911.127966504667
 30
0.0
  0
VERTEX
  5
13B
330
136
100
AcDbEntity
  8
int cut
 62
     7
370
    25
100
AcDbVertex
100
AcDb2dVertex
 10
115.7111110821833
 20
911.127966504667
 30
0.0
  0
SEQEND
  5
13C
330
136
100
AcDbEntity
  8
int cut
 62
     7
370
    25
  0
SPLINE
  5
13D
330
132
100
AcDbEntity
  8
int cut
 62
     7
370
    25
100
AcDbSpline
210
0.0
220
0.0
230
1.0
 70
    11
 71
     3
 72
    71
 73
    67
 74
     0
 42
0.0000000001
 43
0.0000000001
 12
1.0
 22
0.0
 32
0.0
 13
1.0
 23
0.0
 33
0.0
 40
0.0
 40
0.0
 40
0.0
 40
0.0
 40
1.0
 40
1.0
 40
1.0
 40
2.0
 40
2.0
 40
2.0
 40
3.0
 40
3.0
 40
3.0
 40
4.0
 40
4.0
 40
4.0
 40
5.0
 40
5.0
 40
5.0
 40
6.0
 40
6.0
 40
6.0
 40
7.0
 40
7.0
 40
7.0
 40
8.0
 40
8.0
 40
8.0
 40
9.0
 40
9.0
 40
9.0
 40
10.0
 40
10.0
 40
10.0
 40
11.0
 40
11.0
 40
11.0
 40
12.0
 40
12.0
 40
12.0
 40
13.0
 40
13.0
 40
13.0
 40
14.0
 40
14.0
 40
14.0
 40
15.0
 40
15.0
 40
15.0
 40
16.0
 40
16.0
 40
16.0
 40
17.0
 40
17.0
 40
17.0
 40
18.0
 40
18.0
 40
18.0
 40
19.0
 40
19.0
 40
19.0
 40
20.0
 40
20.0
 40
20.0
 40
21.0
 40
21.0
 40
21.0
 40
22.0
 40
22.0
 40
22.0
 40
22.0
 10
100.2806145311365
 20
923.6903995323974
 30
0.0
 10
100.2806145311365
 20
923.6903995323974
 30
0.0
 10
98.37913714174668
 20
914.0842460042528
 30
0.0
 10
98.37913714174668
 20
914.0842460042528
 30
0.0
 10
97.89936453173176
 20
911.3008457024863
 30
0.0
 10
97.37726031094215
 20
908.5526930339024
 30
0.0
 10
97.03505467002293
 20
905.9456600891319
 30
0.0
 10
97.03505467002293
 20
905.9456600891319
 30
0.0
 10
96.96449480811597
 20
905.9456600891319
 30
0.0
 10
96.96449480811597
 20
905.9456600891319
 30
0.0
 10
96.61877947617116
 20
908.5526930339024
 30
0.0
 10
96.23777344734899
 20
911.0609378656309
 30
0.0
 10
95.71920044943175
 20
913.8090905342146
 30
0.0
 10
95.71920044943175
 20
913.8090905342146
 30
0.0
 10
93.85299222507192
 20
923.6903995323974
 30
0.0
 10
93.85299222507192
 20
923.6903995323974
 30
0.0
 10
93.85299222507192
 20
923.6903995323974
 30
0.0
 10
88.25794183855835
 20
923.6903995323974
 30
0.0
 10
88.25794183855835
 20
923.6903995323974
 30
0.0
 10
88.25794183855835
 20
923.6903995323974
 30
0.0
 10
86.28945734198015
 20
914.0842460042528
 30
0.0
 10
86.28945734198015
 20
914.0842460042528
 30
0.0
 10
85.70030295030887
 20
911.1985263665744
 30
0.0
 10
85.14997047838732
 20
908.3798353679316
 30
0.0
 10
84.76896444956515
 20
905.8362998393233
 30
0.0
 10
84.76896444956515
 20
905.8362998393233
 30
0.0
 10
84.69842611950465
 20
905.8362998393233
 30
0.0
 10
84.69842611950465
 20
905.8362998393233
 30
0.0
 10
84.3174200906828
 20
908.2034464790869
 30
0.0
 10
83.83764748066852
 20
911.2338170634498
 30
0.0
 10
83.3155217280318
 20
914.0136861423463
 30
0.0
 10
83.3155217280318
 20
914.0136861423463
 30
0.0
 10
81.55516406245627
 20
923.6903995323974
 30
0.0
 10
81.55516406245627
 20
923.6903995323974
 30
0.0
 10
81.55516406245627
 20
923.6903995323974
 30
0.0
 10
75.92484451091245
 20
923.6903995323974
 30
0.0
 10
75.92484451091245
 20
923.6903995323974
 30
0.0
 10
75.92484451091245
 20
923.6903995323974
 30
0.0
 10
81.45286625839145
 20
900.2377182299367
 30
0.0
 10
81.45286625839145
 20
900.2377182299367
 30
0.0
 10
81.45286625839145
 20
900.2377182299367
 30
0.0
 10
87.2207743108771
 20
900.2377182299367
 30
0.0
 10
87.2207743108771
 20
900.2377182299367
 30
0.0
 10
87.2207743108771
 20
900.2377182299367
 30
0.0
 10
89.42916664430938
 20
910.3271755909691
 30
0.0
 10
89.42916664430938
 20
910.3271755909691
 30
0.0
 10
89.98656156197602
 20
912.6943006988843
 30
0.0
 10
90.3640363679258
 20
914.9203276148301
 30
0.0
 10
90.78031156177758
 20
917.5626512564763
 30
0.0
 10
90.78031156177758
 20
917.5626512564763
 30
0.0
 10
90.84734020081247
 20
917.5626512564763
 30
0.0
 10
90.84734020081247
 20
917.5626512564763
 30
0.0
 10
91.1260268937224
 20
914.8850584497992
 30
0.0
 10
91.5035016996722
 20
912.6943006988843
 30
0.0
 10
91.95153636752893
 20
910.3271755909691
 30
0.0
 10
91.95153636752893
 20
910.3271755909691
 30
0.0
 10
93.92355208697919
 20
900.2377182299367
 30
0.0
 10
93.92355208697919
 20
900.2377182299367
 30
0.0
 10
93.92355208697919
 20
900.2377182299367
 30
0.0
 10
99.62445303227737
 20
900.2377182299367
 30
0.0
 10
99.62445303227737
 20
900.2377182299367
 30
0.0
 10
99.62445303227737
 20
900.2377182299367
 30
0.0
 10
105.6357786126427
 20
923.6903995323974
 30
0.0
 10
105.6357786126427
 20
923.6903995323974
 30
0.0
 10
105.6357786126427
 20
923.6903995323974
 30
0.0
 10
100.2806145311365
 20
923.6903995323974
 30
0.0
 10
100.2806145311365
 20
923.6903995323974
 30
0.0
  0
POLYLINE
  5
13E
330
132
100
AcDbEntity
  8
int cut
 62
     7
370
    25
100
AcDb2dPolyline
 66
     1
 10
0.0
 20
0.0
 30
0.0
  0
VERTEX
  5
13F
330
13E
100
AcDbEntity
  8
int cut
 62
     7
370
    25
100
AcDbVertex
100
AcDb2dVertex
 10
142.2541076304521
 20
919.3371122816947
 30
0.0
  0
VERTEX
  5
140
330
13E
100
AcDbEntity
  8
int cut
 62
     7
370
    25
100
AcDbVertex
100
AcDb2dVertex
 10
142.2541076304521
 20
923.6903995323974
 30
0.0
  0
VERTEX
  5
141
330
13E
100
AcDbEntity
  8
int cut
 62
     7
370
    25
100
AcDbVertex
100
AcDb2dVertex
 10
128.0195329134164
 20
923.6903995323974
 30
0.0
  0
VERTEX
  5
142
330
13E
100
AcDbEntity
  8
int cut
 62
     7
370
    25
100
AcDbVertex
100
AcDb2dVertex
 10
128.0195329134164
 20
900.2377182299367
 30
0.0
  0
VERTEX
  5
143
330
13E
100
AcDbEntity
  8
int cut
 62
     7
370
    25
100
AcDbVertex
100
AcDb2dVertex
 10
133.3076683558878
 20
900.2377182299367
 30
0.0
  0
VERTEX
  5
144
330
13E
100
AcDbEntity
  8
int cut
 62
     7
370
    25
100
AcDbVertex
100
AcDb2dVertex
 10
133.3076683558878
 20
909.6674828692363
 30
0.0
  0
VERTEX
  5
145
330
13E
100
AcDbEntity
  8
int cut
 62
     7
370
    25
100
AcDbVertex
100
AcDb2dVertex
 10
141.6685059935
 20
909.6674828692363
 30
0.0
  0
VERTEX
  5
146
330
13E
100
AcDbEntity
  8
int cut
 62
     7
370
    25
100
AcDbVertex
100
AcDb2dVertex
 10
141.6685059935
 20
913.981948200189
 30
0.0
  0
VERTEX
  5
147
330
13E
100
AcDbEntity
  8
int cut
 62
     7
370
    25
100
AcDbVertex
100
AcDb2dVertex
 10
133.3076683558878
 20
913.981948200189
 30
0.0
  0
VERTEX
  5
148
330
13E
100
AcDbEntity
  8
int cut
 62
     7
370
    25
100
AcDbVertex
100
AcDb2dVertex
 10
133.3076683558878
 20
919.3371122816947
 30
0.0
  0
VERTEX
  5
149
330
13E
100
AcDbEntity
  8
int cut
 62
     7
370
    25
100
AcDbVertex
100
AcDb2dVertex
 10
142.2541076304521
 20
919.3371122816947
 30
0.0
  0
SEQEND
  5
14A
330
13E
100
AcDbEntity
  8
int cut
 62
     7
370
    25
  0
SPLINE
  5
14B
330
132
100
AcDbEntity
  8
int cut
 62
     7
370
    25
100
AcDbSpline
210
0.0
220
0.0
230
1.0
 70
    11
 71
     3
 72
    17
 73
    13
 74
     0
 42
0.0000000001
 43
0.0000000001
 12
1.0
 22
0.0
 32
0.0
 13
1.0
 23
0.0
 33
0.0
 40
0.0
 40
0.0
 40
0.0
 40
0.0
 40
1.0
 40
1.0
 40
1.0
 40
2.0
 40
2.0
 40
2.0
 40
3.0
 40
3.0
 40
3.0
 40
4.0
 40
4.0
 40
4.0
 40
4.0
 10
147.9867465179078
 20
924.6640481120698
 30
0.0
 10
146.2969487142396
 20
924.6640481120698
 30
0.0
 10
145.189221324651
 20
923.5140106435525
 30
0.0
 10
145.2245120215284
 20
921.9829456143665
 30
0.0
 10
145.189221324651
 20
920.5224404470878
 30
0.0
 10
146.2969487142396
 20
919.3371122816947
 30
0.0
 10
147.9550085757503
 20
919.3371122816947
 30
0.0
 10
149.6800755444485
 20
919.3371122816947
 30
0.0
 10
150.7842717111646
 20
920.5224404470878
 30
0.0
 10
150.7842717111646
 20
921.9829456143665
 30
0.0
 10
150.7525337690068
 20
923.5140106435525
 30
0.0
 10
149.6800755444485
 20
924.6640481120698
 30
0.0
 10
147.9867465179078
 20
924.6640481120698
 30
0.0
  0
POLYLINE
  5
14C
330
132
100
AcDbEntity
  8
int cut
 62
     7
370
    25
100
AcDb2dPolyline
 66
     1
 10
0.0
 20
0.0
 30
0.0
  0
VERTEX
  5
14D
330
14C
100
AcDbEntity
  8
int cut
 62
     7
370
    25
100
AcDbVertex
100
AcDb2dVertex
 10
145.3620789906235
 20
917.2522050895624
 30
0.0
  0
VERTEX
  5
14E
330
14C
100
AcDbEntity
  8
int cut
 62
     7
370
    25
100
AcDbVertex
100
AcDb2dVertex
 10
145.3620789906235
 20
900.2377182299367
 30
0.0
  0
VERTEX
  5
14F
330
14C
100
AcDbEntity
  8
int cut
 62
     7
370
    25
100
AcDbVertex
100
AcDb2dVertex
 10
150.6149452680646
 20
900.2377182299367
 30
0.0
  0
VERTEX
  5
150
330
14C
100
AcDbEntity
  8
int cut
 62
     7
370
    25
100
AcDbVertex
100
AcDb2dVertex
 10
150.6149452680646
 20
917.2522050895624
 30
0.0
  0
VERTEX
  5
151
330
14C
100
AcDbEntity
  8
int cut
 62
     7
370
    25
100
AcDbVertex
100
AcDb2dVertex
 10
145.3620789906235
 20
917.2522050895624
 30
0.0
  0
SEQEND
  5
152
330
14C
100
AcDbEntity
  8
int cut
 62
     7
370
    25
  0
ENDBLK
  5
135
330
132
100
AcDbEntity
  8
0
100
AcDbBlockEnd
  0
ENDSEC
  0
SECTION
  2
ENTITIES
  0
INSERT
  5
42
330
1F
100
AcDbEntity
  8
incisione
100
AcDbBlockReference
  2
block 2
 10
0.0
 20
0.0
 30
0.0
  0
INSERT
  5
46
330
1F
100
AcDbEntity
  8
incisione
100
AcDbBlockReference
  2
block 3
 10
0.0
 20
0.0
 30
0.0
  0
INSERT
  5
4A
330
1F
100
AcDbEntity
  8
incisione
100
AcDbBlockReference
  2
block 4
 10
0.0
 20
0.0
 30
0.0
  0
INSERT
  5
55
330
1F
100
AcDbEntity
  8
incisione
100
AcDbBlockReference
  2
block 6
 10
0.0
 20
0.0
 30
0.0
  0
INSERT
  5
60
330
1F
100
AcDbEntity
  8
incisione
100
AcDbBlockReference
  2
block 8
 10
0.0
 20
0.0
 30
0.0
  0
INSERT
  5
6B
330
1F
100
AcDbEntity
  8
incisione
100
AcDbBlockReference
  2
block 10
 10
0.0
 20
0.0
 30
0.0
  0
INSERT
  5
76
330
1F
100
AcDbEntity
  8
incisione
100
AcDbBlockReference
  2
block 12
 10
0.0
 20
0.0
 30
0.0
  0
INSERT
  5
83
330
1F
100
AcDbEntity
  8
incisione
100
AcDbBlockReference
  2
block 13
 10
0.0
 20
0.0
 30
0.0
  0
MTEXT
  5
EF
330
1F
100
AcDbEntity
  8
incisione
 62
     7
100
AcDbMText
 10
67.9670830450742
 20
729.7098088453504
 30
0.0
 40
9.990666664169
 41
0.0
 71
     7
 72
     1
  1
\fMyriad Pro|b0|i0|c0|p34;\W1;Luca Clemente
 73
     1
 44
1.0
  0
MTEXT
  5
F0
330
1F
100
AcDbEntity
  8
incisione
 62
     7
100
AcDbMText
 10
67.9670830450742
 20
712.7764755162503
 30
0.0
 40
9.990666664169
 41
0.0
 71
     7
 72
     1
  1
\fMyriad Pro|b0|i0|c0|p34;\W1;Utilizzare legno per maschera wi/fi
 73
     1
 44
1.0
  0
MTEXT
  5
F1
330
1F
100
AcDbEntity
  8
incisione
 62
     7
100
AcDbMText
 10
67.9670830450742
 20
695.8431421871503
 30
0.0
 40
9.990666664169
 41
0.0
 71
     7
 72
     1
  1
\fMyriad Pro|b0|i0|c0|p34;\W1;Plexyglass per gli inserti a dx
 73
     1
 44
1.0
  0
POLYLINE
  5
F3
330
1F
100
AcDbEntity
  8
int cut
 62
     7
370
    53
100
AcDb2dPolyline
 66
     1
 10
0.0
 20
0.0
 30
0.0
  0
VERTEX
  5
F4
330
F3
100
AcDbEntity
  8
int cut
 62
     7
370
    53
100
AcDbVertex
100
AcDb2dVertex
 10
183.6525927614328
 20
876.5487033771915
 30
0.0
  0
VERTEX
  5
F5
330
F3
100
AcDbEntity
  8
int cut
 62
     7
370
    53
100
AcDbVertex
100
AcDb2dVertex
 10
183.6525927614328
 20
842.2410644968795
 30
0.0
  0
VERTEX
  5
F6
330
F3
100
AcDbEntity
  8
int cut
 62
     7
370
    53
100
AcDbVertex
100
AcDb2dVertex
 10
43.05652346064429
 20
842.2410644968795
 30
0.0
  0
VERTEX
  5
F7
330
F3
100
AcDbEntity
  8
int cut
 62
     7
370
    53
100
AcDbVertex
100
AcDb2dVertex
 10
43.05652346064429
 20
876.5487033771915
 30
0.0
  0
VERTEX
  5
F8
330
F3
100
AcDbEntity
  8
int cut
 62
     7
370
    53
100
AcDbVertex
100
AcDb2dVertex
 10
183.6525927614328
 20
876.5487033771915
 30
0.0
  0
SEQEND
  5
F9
330
F3
100
AcDbEntity
  8
int cut
 62
     7
370
    53
  0
POLYLINE
  5
FA
330
1F
100
AcDbEntity
  8
int cut
 62
     7
370
    40
100
AcDb2dPolyline
 66
     1
 10
0.0
 20
0.0
 30
0.0
  0
VERTEX
  5
FB
330
FA
100
AcDbEntity
  8
int cut
 62
     7
370
    40
100
AcDbVertex
100
AcDb2dVertex
 10
183.6531150445983
 20
819.720290238067
 30
0.0
  0
VERTEX
  5
FC
330
FA
100
AcDbEntity
  8
int cut
 62
     7
370
    40
100
AcDbVertex
100
AcDb2dVertex
 10
183.6531150445983
 20
785.4172266144715
 30
0.0
  0
VERTEX
  5
FD
330
FA
100
AcDbEntity
  8
int cut
 62
     7
370
    40
100
AcDbVertex
100
AcDb2dVertex
 10
179.794047900379
 20
792.1478283102207
 30
0.0
  0
VERTEX
  5
FE
330
FA
100
AcDbEntity
  8
int cut
 62
     7
370
    40
100
AcDbVertex
100
AcDb2dVertex
 10
175.9349528155939
 20
785.4172266144715
 30
0.0
  0
VERTEX
  5
FF
330
FA
100
AcDbEntity
  8
int cut
 62
     7
370
    40
100
AcDbVertex
100
AcDb2dVertex
 10
161.5058019375753
 20
785.4172266144715
 30
0.0
  0
VERTEX
  5
100
330
FA
100
AcDbEntity
  8
int cut
 62
     7
370
    40
100
AcDbVertex
100
AcDb2dVertex
 10
157.6467347933559
 20
792.1478283102207
 30
0.0
  0
VERTEX
  5
101
330
FA
100
AcDbEntity
  8
int cut
 62
     7
370
    40
100
AcDbVertex
100
AcDb2dVertex
 10
153.7876397085712
 20
785.4172266144715
 30
0.0
  0
VERTEX
  5
102
330
FA
100
AcDbEntity
  8
int cut
 62
     7
370
    40
100
AcDbVertex
100
AcDb2dVertex
 10
139.3584888305529
 20
785.4172266144715
 30
0.0
  0
VERTEX
  5
103
330
FA
100
AcDbEntity
  8
int cut
 62
     7
370
    40
100
AcDbVertex
100
AcDb2dVertex
 10
135.4994216863335
 20
792.1478283102207
 30
0.0
  0
VERTEX
  5
104
330
FA
100
AcDbEntity
  8
int cut
 62
     7
370
    40
100
AcDbVertex
100
AcDb2dVertex
 10
131.6403545421142
 20
785.4172266144715
 30
0.0
  0
VERTEX
  5
105
330
FA
100
AcDbEntity
  8
int cut
 62
     7
370
    40
100
AcDbVertex
100
AcDb2dVertex
 10
117.2157579763425
 20
785.4172266144715
 30
0.0
  0
VERTEX
  5
106
330
FA
100
AcDbEntity
  8
int cut
 62
     7
370
    40
100
AcDbVertex
100
AcDb2dVertex
 10
113.3566908321231
 20
792.1478283102207
 30
0.0
  0
VERTEX
  5
107
330
FA
100
AcDbEntity
  8
int cut
 62
     7
370
    40
100
AcDbVertex
100
AcDb2dVertex
 10
109.4975957473381
 20
785.4172266144715
 30
0.0
  0
VERTEX
  5
108
330
FA
100
AcDbEntity
  8
int cut
 62
     7
370
    40
100
AcDbVertex
100
AcDb2dVertex
 10
95.06844486932006
 20
785.4172266144715
 30
0.0
  0
VERTEX
  5
109
330
FA
100
AcDbEntity
  8
int cut
 62
     7
370
    40
100
AcDbVertex
100
AcDb2dVertex
 10
91.20937772510071
 20
792.1478283102207
 30
0.0
  0
VERTEX
  5
10A
330
FA
100
AcDbEntity
  8
int cut
 62
     7
370
    40
100
AcDbVertex
100
AcDb2dVertex
 10
87.35031058088103
 20
785.4172266144715
 30
0.0
  0
VERTEX
  5
10B
330
FA
100
AcDbEntity
  8
int cut
 62
     7
370
    40
100
AcDbVertex
100
AcDb2dVertex
 10
72.92113176229797
 20
785.4172266144715
 30
0.0
  0
VERTEX
  5
10C
330
FA
100
AcDbEntity
  8
int cut
 62
     7
370
    40
100
AcDbVertex
100
AcDb2dVertex
 10
69.0620646180783
 20
792.1478283102207
 30
0.0
  0
VERTEX
  5
10D
330
FA
100
AcDbEntity
  8
int cut
 62
     7
370
    40
100
AcDbVertex
100
AcDb2dVertex
 10
65.20299747385894
 20
785.4172266144715
 30
0.0
  0
VERTEX
  5
10E
330
FA
100
AcDbEntity
  8
int cut
 62
     7
370
    40
100
AcDbVertex
100
AcDb2dVertex
 10
50.77381865527461
 20
785.4172266144715
 30
0.0
  0
VERTEX
  5
10F
330
FA
100
AcDbEntity
  8
int cut
 62
     7
370
    40
100
AcDbVertex
100
AcDb2dVertex
 10
46.91475151105526
 20
792.1478283102207
 30
0.0
  0
VERTEX
  5
110
330
FA
100
AcDbEntity
  8
int cut
 62
     7
370
    40
100
AcDbVertex
100
AcDb2dVertex
 10
43.0556843668359
 20
785.4172266144715
 30
0.0
  0
VERTEX
  5
111
330
FA
100
AcDbEntity
  8
int cut
 62
     7
370
    40
100
AcDbVertex
100
AcDb2dVertex
 10
43.0556843668359
 20
819.720290238067
 30
0.0
  0
VERTEX
  5
112
330
FA
100
AcDbEntity
  8
int cut
 62
     7
370
    40
100
AcDbVertex
100
AcDb2dVertex
 10
52.08305769350959
 20
819.720290238067
 30
0.0
  0
VERTEX
  5
113
330
FA
100
AcDbEntity
  8
int cut
 62
     7
370
    40
100
AcDbVertex
100
AcDb2dVertex
 10
55.94212483772895
 20
812.9896885423144
 30
0.0
  0
VERTEX
  5
114
330
FA
100
AcDbEntity
  8
int cut
 62
     7
370
    40
100
AcDbVertex
100
AcDb2dVertex
 10
59.80119198194863
 20
819.720290238067
 30
0.0
  0
VERTEX
  5
115
330
FA
100
AcDbEntity
  8
int cut
 62
     7
370
    40
100
AcDbVertex
100
AcDb2dVertex
 10
74.23037080053136
 20
819.720290238067
 30
0.0
  0
VERTEX
  5
116
330
FA
100
AcDbEntity
  8
int cut
 62
     7
370
    40
100
AcDbVertex
100
AcDb2dVertex
 10
78.08943794475135
 20
812.9896885423144
 30
0.0
  0
VERTEX
  5
117
330
FA
100
AcDbEntity
  8
int cut
 62
     7
370
    40
100
AcDbVertex
100
AcDb2dVertex
 10
81.94850508897072
 20
819.720290238067
 30
0.0
  0
VERTEX
  5
118
330
FA
100
AcDbEntity
  8
int cut
 62
     7
370
    40
100
AcDbVertex
100
AcDb2dVertex
 10
96.3776839075544
 20
819.720290238067
 30
0.0
  0
VERTEX
  5
119
330
FA
100
AcDbEntity
  8
int cut
 62
     7
370
    40
100
AcDbVertex
100
AcDb2dVertex
 10
100.2367510517738
 20
812.9896885423144
 30
0.0
  0
VERTEX
  5
11A
330
FA
100
AcDbEntity
  8
int cut
 62
     7
370
    40
100
AcDbVertex
100
AcDb2dVertex
 10
104.0958181959931
 20
819.720290238067
 30
0.0
  0
VERTEX
  5
11B
330
FA
100
AcDbEntity
  8
int cut
 62
     7
370
    40
100
AcDbVertex
100
AcDb2dVertex
 10
118.5204147617648
 20
819.720290238067
 30
0.0
  0
VERTEX
  5
11C
330
FA
100
AcDbEntity
  8
int cut
 62
     7
370
    40
100
AcDbVertex
100
AcDb2dVertex
 10
122.3840641587968
 20
812.9896885423144
 30
0.0
  0
VERTEX
  5
11D
330
FA
100
AcDbEntity
  8
int cut
 62
     7
370
    40
100
AcDbVertex
100
AcDb2dVertex
 10
126.2431313030162
 20
819.720290238067
 30
0.0
  0
VERTEX
  5
11E
330
FA
100
AcDbEntity
  8
int cut
 62
     7
370
    40
100
AcDbVertex
100
AcDb2dVertex
 10
140.6677278687872
 20
819.720290238067
 30
0.0
  0
VERTEX
  5
11F
330
FA
100
AcDbEntity
  8
int cut
 62
     7
370
    40
100
AcDbVertex
100
AcDb2dVertex
 10
144.5267950130066
 20
812.9896885423144
 30
0.0
  0
VERTEX
  5
120
330
FA
100
AcDbEntity
  8
int cut
 62
     7
370
    40
100
AcDbVertex
100
AcDb2dVertex
 10
148.3858621572259
 20
819.720290238067
 30
0.0
  0
VERTEX
  5
121
330
FA
100
AcDbEntity
  8
int cut
 62
     7
370
    40
100
AcDbVertex
100
AcDb2dVertex
 10
162.8150409758103
 20
819.720290238067
 30
0.0
  0
VERTEX
  5
122
330
FA
100
AcDbEntity
  8
int cut
 62
     7
370
    40
100
AcDbVertex
100
AcDb2dVertex
 10
166.6741081200296
 20
812.9896885423144
 30
0.0
  0
VERTEX
  5
123
330
FA
100
AcDbEntity
  8
int cut
 62
     7
370
    40
100
AcDbVertex
100
AcDb2dVertex
 10
170.533175264249
 20
819.720290238067
 30
0.0
  0
VERTEX
  5
124
330
FA
100
AcDbEntity
  8
int cut
 62
     7
370
    40
100
AcDbVertex
100
AcDb2dVertex
 10
183.6531150445983
 20
819.720290238067
 30
0.0
  0
SEQEND
  5
125
330
FA
100
AcDbEntity
  8
int cut
 62
     7
370
    40
  0
INSERT
  5
127
330
1F
100
AcDbEntity
  8
int cut
100
AcDbBlockReference
  2
block 26
 10
0.0
 20
0.0
 30
0.0
  0
POLYLINE
  5
154
330
1F
100
AcDbEntity
  8
cut
 62
     7
370
    53
100
AcDb2dPolyline
 66
     1
 10
0.0
 20
0.0
 30
0.0
  0
VERTEX
  5
155
330
154
100
AcDbEntity
  8
cut
 62
     7
370
    53
100
AcDbVertex
100
AcDb2dVertex
 10
435.6022378839613
 20
876.5487033771915
 30
0.0
  0
VERTEX
  5
156
330
154
100
AcDbEntity
  8
cut
 62
     7
370
    53
100
AcDbVertex
100
AcDb2dVertex
 10
435.6022378839613
 20
842.2410644968795
 30
0.0
  0
VERTEX
  5
157
330
154
100
AcDbEntity
  8
cut
 62
     7
370
    53
100
AcDbVertex
100
AcDb2dVertex
 10
295.0061685831728
 20
842.2410644968795
 30
0.0
  0
VERTEX
  5
158
330
154
100
AcDbEntity
  8
cut
 62
     7
370
    53
100
AcDbVertex
100
AcDb2dVertex
 10
295.0061685831728
 20
876.5487033771915
 30
0.0
  0
VERTEX
  5
159
330
154
100
AcDbEntity
  8
cut
 62
     7
370
    53
100
AcDbVertex
100
AcDb2dVertex
 10
435.6022378839613
 20
876.5487033771915
 30
0.0
  0
SEQEND
  5
15A
330
154
100
AcDbEntity
  8
cut
 62
     7
370
    53
  0
POLYLINE
  5
15B
330
1F
100
AcDbEntity
  8
cut
 62
     7
370
    40
100
AcDb2dPolyline
 66
     1
 10
0.0
 20
0.0
 30
0.0
  0
VERTEX
  5
15C
330
15B
100
AcDbEntity
  8
cut
 62
     7
370
    40
100
AcDbVertex
100
AcDb2dVertex
 10
435.6027601671268
 20
819.720290238067
 30
0.0
  0
VERTEX
  5
15D
330
15B
100
AcDbEntity
  8
cut
 62
     7
370
    40
100
AcDbVertex
100
AcDb2dVertex
 10
435.6027601671268
 20
785.4172266144715
 30
0.0
  0
VERTEX
  5
15E
330
15B
100
AcDbEntity
  8
cut
 62
     7
370
    40
100
AcDbVertex
100
AcDb2dVertex
 10
431.7436930229075
 20
792.1478283102207
 30
0.0
  0
VERTEX
  5
15F
330
15B
100
AcDbEntity
  8
cut
 62
     7
370
    40
100
AcDbVertex
100
AcDb2dVertex
 10
427.8845979381225
 20
785.4172266144715
 30
0.0
  0
VERTEX
  5
160
330
15B
100
AcDbEntity
  8
cut
 62
     7
370
    40
100
AcDbVertex
100
AcDb2dVertex
 10
413.4554470601038
 20
785.4172266144715
 30
0.0
  0
VERTEX
  5
161
330
15B
100
AcDbEntity
  8
cut
 62
     7
370
    40
100
AcDbVertex
100
AcDb2dVertex
 10
409.5963799158844
 20
792.1478283102207
 30
0.0
  0
VERTEX
  5
162
330
15B
100
AcDbEntity
  8
cut
 62
     7
370
    40
100
AcDbVertex
100
AcDb2dVertex
 10
405.7372848310997
 20
785.4172266144715
 30
0.0
  0
VERTEX
  5
163
330
15B
100
AcDbEntity
  8
cut
 62
     7
370
    40
100
AcDbVertex
100
AcDb2dVertex
 10
391.3081339530814
 20
785.4172266144715
 30
0.0
  0
VERTEX
  5
164
330
15B
100
AcDbEntity
  8
cut
 62
     7
370
    40
100
AcDbVertex
100
AcDb2dVertex
 10
387.449066808862
 20
792.1478283102207
 30
0.0
  0
VERTEX
  5
165
330
15B
100
AcDbEntity
  8
cut
 62
     7
370
    40
100
AcDbVertex
100
AcDb2dVertex
 10
383.5899996646427
 20
785.4172266144715
 30
0.0
  0
VERTEX
  5
166
330
15B
100
AcDbEntity
  8
cut
 62
     7
370
    40
100
AcDbVertex
100
AcDb2dVertex
 10
369.165403098871
 20
785.4172266144715
 30
0.0
  0
VERTEX
  5
167
330
15B
100
AcDbEntity
  8
cut
 62
     7
370
    40
100
AcDbVertex
100
AcDb2dVertex
 10
365.3063359546516
 20
792.1478283102207
 30
0.0
  0
VERTEX
  5
168
330
15B
100
AcDbEntity
  8
cut
 62
     7
370
    40
100
AcDbVertex
100
AcDb2dVertex
 10
361.4472408698666
 20
785.4172266144715
 30
0.0
  0
VERTEX
  5
169
330
15B
100
AcDbEntity
  8
cut
 62
     7
370
    40
100
AcDbVertex
100
AcDb2dVertex
 10
347.0180899918486
 20
785.4172266144715
 30
0.0
  0
VERTEX
  5
16A
330
15B
100
AcDbEntity
  8
cut
 62
     7
370
    40
100
AcDbVertex
100
AcDb2dVertex
 10
343.1590228476292
 20
792.1478283102207
 30
0.0
  0
VERTEX
  5
16B
330
15B
100
AcDbEntity
  8
cut
 62
     7
370
    40
100
AcDbVertex
100
AcDb2dVertex
 10
339.2999557034095
 20
785.4172266144715
 30
0.0
  0
VERTEX
  5
16C
330
15B
100
AcDbEntity
  8
cut
 62
     7
370
    40
100
AcDbVertex
100
AcDb2dVertex
 10
324.8707768848265
 20
785.4172266144715
 30
0.0
  0
VERTEX
  5
16D
330
15B
100
AcDbEntity
  8
cut
 62
     7
370
    40
100
AcDbVertex
100
AcDb2dVertex
 10
321.0117097406068
 20
792.1478283102207
 30
0.0
  0
VERTEX
  5
16E
330
15B
100
AcDbEntity
  8
cut
 62
     7
370
    40
100
AcDbVertex
100
AcDb2dVertex
 10
317.1526425963875
 20
785.4172266144715
 30
0.0
  0
VERTEX
  5
16F
330
15B
100
AcDbEntity
  8
cut
 62
     7
370
    40
100
AcDbVertex
100
AcDb2dVertex
 10
302.7234637778031
 20
785.4172266144715
 30
0.0
  0
VERTEX
  5
170
330
15B
100
AcDbEntity
  8
cut
 62
     7
370
    40
100
AcDbVertex
100
AcDb2dVertex
 10
298.8643966335837
 20
792.1478283102207
 30
0.0
  0
VERTEX
  5
171
330
15B
100
AcDbEntity
  8
cut
 62
     7
370
    40
100
AcDbVertex
100
AcDb2dVertex
 10
295.0053294893644
 20
785.4172266144715
 30
0.0
  0
VERTEX
  5
172
330
15B
100
AcDbEntity
  8
cut
 62
     7
370
    40
100
AcDbVertex
100
AcDb2dVertex
 10
295.0053294893644
 20
819.720290238067
 30
0.0
  0
VERTEX
  5
173
330
15B
100
AcDbEntity
  8
cut
 62
     7
370
    40
100
AcDbVertex
100
AcDb2dVertex
 10
304.0327028160381
 20
819.720290238067
 30
0.0
  0
VERTEX
  5
174
330
15B
100
AcDbEntity
  8
cut
 62
     7
370
    40
100
AcDbVertex
100
AcDb2dVertex
 10
307.8917699602575
 20
812.9896885423144
 30
0.0
  0
VERTEX
  5
175
330
15B
100
AcDbEntity
  8
cut
 62
     7
370
    40
100
AcDbVertex
100
AcDb2dVertex
 10
311.7508371044771
 20
819.720290238067
 30
0.0
  0
VERTEX
  5
176
330
15B
100
AcDbEntity
  8
cut
 62
     7
370
    40
100
AcDbVertex
100
AcDb2dVertex
 10
326.1800159230598
 20
819.720290238067
 30
0.0
  0
VERTEX
  5
177
330
15B
100
AcDbEntity
  8
cut
 62
     7
370
    40
100
AcDbVertex
100
AcDb2dVertex
 10
330.0390830672799
 20
812.9896885423144
 30
0.0
  0
VERTEX
  5
178
330
15B
100
AcDbEntity
  8
cut
 62
     7
370
    40
100
AcDbVertex
100
AcDb2dVertex
 10
333.8981502114992
 20
819.720290238067
 30
0.0
  0
VERTEX
  5
179
330
15B
100
AcDbEntity
  8
cut
 62
     7
370
    40
100
AcDbVertex
100
AcDb2dVertex
 10
348.3273290300829
 20
819.720290238067
 30
0.0
  0
VERTEX
  5
17A
330
15B
100
AcDbEntity
  8
cut
 62
     7
370
    40
100
AcDbVertex
100
AcDb2dVertex
 10
352.1863961743023
 20
812.9896885423144
 30
0.0
  0
VERTEX
  5
17B
330
15B
100
AcDbEntity
  8
cut
 62
     7
370
    40
100
AcDbVertex
100
AcDb2dVertex
 10
356.0454633185216
 20
819.720290238067
 30
0.0
  0
VERTEX
  5
17C
330
15B
100
AcDbEntity
  8
cut
 62
     7
370
    40
100
AcDbVertex
100
AcDb2dVertex
 10
370.4700598842933
 20
819.720290238067
 30
0.0
  0
VERTEX
  5
17D
330
15B
100
AcDbEntity
  8
cut
 62
     7
370
    40
100
AcDbVertex
100
AcDb2dVertex
 10
374.3337092813253
 20
812.9896885423144
 30
0.0
  0
VERTEX
  5
17E
330
15B
100
AcDbEntity
  8
cut
 62
     7
370
    40
100
AcDbVertex
100
AcDb2dVertex
 10
378.1927764255447
 20
819.720290238067
 30
0.0
  0
VERTEX
  5
17F
330
15B
100
AcDbEntity
  8
cut
 62
     7
370
    40
100
AcDbVertex
100
AcDb2dVertex
 10
392.6173729913157
 20
819.720290238067
 30
0.0
  0
VERTEX
  5
180
330
15B
100
AcDbEntity
  8
cut
 62
     7
370
    40
100
AcDbVertex
100
AcDb2dVertex
 10
396.4764401355351
 20
812.9896885423144
 30
0.0
  0
VERTEX
  5
181
330
15B
100
AcDbEntity
  8
cut
 62
     7
370
    40
100
AcDbVertex
100
AcDb2dVertex
 10
400.3355072797544
 20
819.720290238067
 30
0.0
  0
VERTEX
  5
182
330
15B
100
AcDbEntity
  8
cut
 62
     7
370
    40
100
AcDbVertex
100
AcDb2dVertex
 10
414.7646860983388
 20
819.720290238067
 30
0.0
  0
VERTEX
  5
183
330
15B
100
AcDbEntity
  8
cut
 62
     7
370
    40
100
AcDbVertex
100
AcDb2dVertex
 10
418.6237532425581
 20
812.9896885423144
 30
0.0
  0
VERTEX
  5
184
330
15B
100
AcDbEntity
  8
cut
 62
     7
370
    40
100
AcDbVertex
100
AcDb2dVertex
 10
422.4828203867775
 20
819.720290238067
 30
0.0
  0
VERTEX
  5
185
330
15B
100
AcDbEntity
  8
cut
 62
     7
370
    40
100
AcDbVertex
100
AcDb2dVertex
 10
435.6027601671268
 20
819.720290238067
 30
0.0
  0
SEQEND
  5
186
330
15B
100
AcDbEntity
  8
cut
 62
     7
370
    40
  0
SPLINE
  5
187
330
1F
100
AcDbEntity
  8
cut
 62
     7
370
    53
100
AcDbSpline
210
0.0
220
0.0
230
1.0
 70
    11
 71
     3
 72
    35
 73
    31
 74
     0
 42
0.0000000001
 43
0.0000000001
 12
1.0
 22
0.0
 32
0.0
 13
1.0
 23
0.0
 33
0.0
 40
0.0
 40
0.0
 40
0.0
 40
0.0
 40
1.0
 40
1.0
 40
1.0
 40
2.0
 40
2.0
 40
2.0
 40
3.0
 40
3.0
 40
3.0
 40
4.0
 40
4.0
 40
4.0
 40
5.0
 40
5.0
 40
5.0
 40
6.0
 40
6.0
 40
6.0
 40
7.0
 40
7.0
 40
7.0
 40
8.0
 40
8.0
 40
8.0
 40
9.0
 40
9.0
 40
9.0
 40
10.0
 40
10.0
 40
10.0
 40
10.0
 10
181.7511153720427
 20
942.6874742482436
 30
0.0
 10
181.7511153720427
 20
942.6874742482436
 30
0.0
 10
44.95800085003437
 20
942.6874742482436
 30
0.0
 10
44.95800085003437
 20
942.6874742482436
 30
0.0
 10
33.35513457418075
 20
942.6874742482436
 30
0.0
 10
23.94655727211666
 20
933.278896946178
 30
0.0
 10
23.94655727211666
 20
921.6760306703237
 30
0.0
 10
23.94655727211666
 20
921.6760306703237
 30
0.0
 10
23.94655727211666
 20
776.4480089577722
 30
0.0
 10
23.94655727211666
 20
776.4480089577722
 30
0.0
 10
23.94655727211666
 20
764.8416114590433
 30
0.0
 10
33.35513457418075
 20
755.4365653798523
 30
0.0
 10
44.95800085003437
 20
755.4365653798523
 30
0.0
 10
44.95800085003437
 20
755.4365653798523
 30
0.0
 10
181.7511153720427
 20
755.4365653798523
 30
0.0
 10
181.7511153720427
 20
755.4365653798523
 30
0.0
 10
182.2061909537974
 20
755.4365653798523
 30
0.0
 10
182.6577568445265
 20
755.4506687394972
 30
0.0
 10
183.1022602895109
 20
755.4824282134987
 30
0.0
 10
183.2715867326109
 20
755.4894691273989
 30
0.0
 10
183.4373819528386
 20
755.5035940188884
 30
0.0
 10
183.603198704913
 20
755.5176973785299
 30
0.0
 10
194.3382238961854
 20
756.456076793171
 30
0.0
 10
202.7625589499604
 20
765.4660350157449
 30
0.0
 10
202.7625589499604
 20
776.4480089577722
 30
0.0
 10
202.7625589499604
 20
776.4480089577722
 30
0.0
 10
202.7625589499604
 20
921.6760306703237
 30
0.0
 10
202.7625589499604
 20
921.6760306703237
 30
0.0
 10
202.7625589499604
 20
933.278896946178
 30
0.0
 10
193.3539816478963
 20
942.6874742482436
 30
0.0
 10
181.7511153720427
 20
942.6874742482436
 30
0.0
  0
ENDSEC
  0
SECTION
  2
OBJECTS
  0
DICTIONARY
  5
C
330
0
100
AcDbDictionary
281
     1
  3
ACAD_GROUP
350
D
  3
ACAD_LAYOUT
350
1A
  3
ACAD_MATERIAL
350
3B
  3
ACAD_MLEADERSTYLE
350
1AF
  3
ACAD_MLINESTYLE
350
17
  3
ACAD_PLOTSETTINGS
350
19
  3
ACAD_PLOTSTYLENAME
350
E
  3
ACAD_TABLESTYLE
350
1AE
  3
ACAD_VISUALSTYLE
350
2A
  0
DICTIONARY
  5
D
102
{ACAD_REACTORS
330
C
102
}
330
C
100
AcDbDictionary
281
     1
  0
DICTIONARY
  5
1A
102
{ACAD_REACTORS
330
C
102
}
330
C
100
AcDbDictionary
281
     1
  3
Layout1
350
1E
  3
Layout2
350
26
  3
Model
350
22
  0
DICTIONARY
  5
3B
102
{ACAD_REACTORS
330
C
102
}
330
C
100
AcDbDictionary
281
     1
  3
ByBlock
350
3D
  3
ByLayer
350
3C
  3
Global
350
3E
  0
DICTIONARY
  5
1AF
102
{ACAD_REACTORS
330
C
102
}
330
C
100
AcDbDictionary
281
     1
  0
DICTIONARY
  5
17
102
{ACAD_REACTORS
330
C
102
}
330
C
100
AcDbDictionary
281
     1
  3
Standard
350
18
  0
DICTIONARY
  5
19
102
{ACAD_REACTORS
330
C
102
}
330
C
100
AcDbDictionary
281
     1
  0
ACDBDICTIONARYWDFLT
  5
E
102
{ACAD_REACTORS
330
C
102
}
330
C
100
AcDbDictionary
281
     1
  3
Normal
350
F
100
AcDbDictionaryWithDefault
340
F
  0
DICTIONARY
  5
1AE
102
{ACAD_REACTORS
330
C
102
}
330
C
100
AcDbDictionary
281
     1
  0
DICTIONARY
  5
2A
102
{ACAD_REACTORS
330
C
102
}
330
C
100
AcDbDictionary
281
     1
  3
2dWireframe
350
2F
  3
3D Hidden
350
31
  3
3dWireframe
350
30
  3
Basic
350
32
  3
Brighten
350
36
  3
ColorChange
350
3A
  3
Conceptual
350
34
  3
Dim
350
35
  3
Facepattern
350
39
  3
Flat
350
2B
  3
FlatWithEdges
350
2C
  3
Gouraud
350
2D
  3
GouraudWithEdges
350
2E
  3
Linepattern
350
38
  3
Realistic
350
33
  3
Thicken
350
37
  0
LAYOUT
  5
1E
102
{ACAD_REACTORS
330
1A
102
}
330
1A
100
AcDbPlotSettings
  1

  2
none_device
  4

  6

 40
0.0
 41
0.0
 42
0.0
 43
0.0
 44
0.0
 45
0.0
 46
0.0
 47
0.0
 48
0.0
 49
0.0
140
0.0
141
0.0
142
1.0
143
1.0
 70
   688
 72
     0
 73
     0
 74
     5
  7

 75
    16
 76
     0
 77
     2
 78
   300
147
1.0
148
0.0
149
0.0
100
AcDbLayout
  1
Layout1
 70
     1
 71
     1
 10
0.0
 20
0.0
 11
12.0
 21
9.0
 12
0.0
 22
0.0
 32
0.0
 14
1.000000000000000E+20
 24
1.000000000000000E+20
 34
1.000000000000000E+20
 15
-1.000000000000000E+20
 25
-1.000000000000000E+20
 35
-1.000000000000000E+20
146
0.0
 13
0.0
 23
0.0
 33
0.0
 16
1.0
 26
0.0
 36
0.0
 17
0.0
 27
1.0
 37
0.0
 76
     0
330
1B
  0
LAYOUT
  5
26
102
{ACAD_REACTORS
330
1A
102
}
330
1A
100
AcDbPlotSettings
  1

  2
none_device
  4

  6

 40
0.0
 41
0.0
 42
0.0
 43
0.0
 44
0.0
 45
0.0
 46
0.0
 47
0.0
 48
0.0
 49
0.0
140
0.0
141
0.0
142
1.0
143
1.0
 70
   688
 72
     0
 73
     0
 74
     5
  7

 75
    16
 76
     0
 77
     2
 78
   300
147
1.0
148
0.0
149
0.0
100
AcDbLayout
  1
Layout2
 70
     1
 71
     2
 10
0.0
 20
0.0
 11
0.0
 21
0.0
 12
0.0
 22
0.0
 32
0.0
 14
0.0
 24
0.0
 34
0.0
 15
0.0
 25
0.0
 35
0.0
146
0.0
 13
0.0
 23
0.0
 33
0.0
 16
1.0
 26
0.0
 36
0.0
 17
0.0
 27
1.0
 37
0.0
 76
     0
330
23
  0
LAYOUT
  5
22
102
{ACAD_REACTORS
330
1A
102
}
330
1A
100
AcDbPlotSettings
  1

  2
none_device
  4

  6

 40
0.0
 41
0.0
 42
0.0
 43
0.0
 44
0.0
 45
0.0
 46
0.0
 47
0.0
 48
0.0
 49
0.0
140
0.0
141
0.0
142
1.0
143
1.0
 70
  1712
 72
     0
 73
     0
 74
     0
  7

 75
     0
 76
     0
 77
     2
 78
   300
147
1.0
148
0.0
149
0.0
100
AcDbLayout
  1
Model
 70
     1
 71
     0
 10
0.0
 20
0.0
 11
12.0
 21
9.0
 12
0.0
 22
0.0
 32
0.0
 14
1.000000000000000E+20
 24
1.000000000000000E+20
 34
1.000000000000000E+20
 15
-1.000000000000000E+20
 25
-1.000000000000000E+20
 35
-1.000000000000000E+20
146
0.0
 13
0.0
 23
0.0
 33
0.0
 16
1.0
 26
0.0
 36
0.0
 17
0.0
 27
1.0
 37
0.0
 76
     0
330
1F
331
29
  0
MATERIAL
  5
3D
102
{ACAD_REACTORS
330
3B
102
}
102
{ACAD_XDICTIONARY
360
1AA
102
}
330
3B
100
AcDbMaterial
  1
ByBlock
  0
MATERIAL
  5
3C
102
{ACAD_REACTORS
330
3B
102
}
102
{ACAD_XDICTIONARY
360
1A8
102
}
330
3B
100
AcDbMaterial
  1
ByLayer
  0
MATERIAL
  5
3E
102
{ACAD_REACTORS
330
3B
102
}
102
{ACAD_XDICTIONARY
360
1AC
102
}
330
3B
100
AcDbMaterial
  1
Global
  0
MLINESTYLE
  5
18
102
{ACAD_REACTORS
330
17
102
}
330
17
100
AcDbMlineStyle
  2
Standard
 70
     0
  3

 62
   256
 51
90.0
 52
90.0
 71
     2
 49
0.5
 62
   256
  6
BYLAYER
 49
-0.5
 62
   256
  6
BYLAYER
  0
ACDBPLACEHOLDER
  5
F
102
{ACAD_REACTORS
330
E
102
}
330
E
  0
VISUALSTYLE
  5
2F
102
{ACAD_REACTORS
330
2A
102
}
102
{ACAD_XDICTIONARY
360
190
102
}
330
2A
100
AcDbVisualStyle
  2
2dWireframe
 70
     4
 71
     0
 72
     2
 73
     0
 90
        0
 40
-0.6
 41
-30.0
 62
     5
 63
     7
421
 16777215
 74
     1
 91
        4
 64
     7
 65
   257
 75
     1
175
     1
 42
1.0
 92
        0
 66
   257
 43
1.0
 76
     1
 77
     6
 78
     2
 67
     7
 79
     5
170
     0
171
     0
290
     0
174
     0
 93
        1
 44
0.0
173
     0
291
     0
 45
0.0
1001
ACAD
1000
AcDbSavedByObjectVersion
1070
     0
  0
VISUALSTYLE
  5
31
102
{ACAD_REACTORS
330
2A
102
}
102
{ACAD_XDICTIONARY
360
194
102
}
330
2A
100
AcDbVisualStyle
  2
3D Hidden
 70
     6
 71
     1
 72
     2
 73
     2
 90
        0
 40
-0.6
 41
-30.0
 62
     5
 63
     7
421
 16777215
 74
     2
 91
        2
 64
     7
 65
   257
 75
     2
175
     1
 42
40.0
 92
        0
 66
   257
 43
1.0
 76
     1
 77
     6
 78
     2
 67
     7
 79
     3
170
     0
171
     0
290
     0
174
     0
 93
        1
 44
0.0
173
     0
291
     0
 45
0.0
1001
ACAD
1000
AcDbSavedByObjectVersion
1070
     0
  0
VISUALSTYLE
  5
30
102
{ACAD_REACTORS
330
2A
102
}
102
{ACAD_XDICTIONARY
360
192
102
}
330
2A
100
AcDbVisualStyle
  2
3dWireframe
 70
     5
 71
     0
 72
     2
 73
     0
 90
        0
 40
-0.6
 41
-30.0
 62
     5
 63
     7
421
 16777215
 74
     1
 91
        4
 64
     7
 65
   257
 75
     1
175
     1
 42
1.0
 92
        0
 66
   257
 43
1.0
 76
     1
 77
     6
 78
     2
 67
     7
 79
     5
170
     0
171
     0
290
     0
174
     0
 93
        1
 44
0.0
173
     0
291
     0
 45
0.0
1001
ACAD
1000
AcDbSavedByObjectVersion
1070
     0
  0
VISUALSTYLE
  5
32
102
{ACAD_REACTORS
330
2A
102
}
102
{ACAD_XDICTIONARY
360
196
102
}
330
2A
100
AcDbVisualStyle
  2
Basic
 70
     7
 71
     1
 72
     0
 73
     1
 90
        0
 40
-0.6
 41
-30.0
 62
     5
 63
     7
421
 16777215
 74
     0
 91
        4
 64
     7
 65
   257
 75
     1
175
     1
 42
1.0
 92
        8
 66
     7
 43
1.0
 76
     1
 77
     6
 78
     2
 67
     7
 79
     5
170
     0
171
     0
290
     0
174
     0
 93
        1
 44
0.0
173
     0
291
     1
 45
0.0
1001
ACAD
1000
AcDbSavedByObjectVersion
1070
     0
  0
VISUALSTYLE
  5
36
102
{ACAD_REACTORS
330
2A
102
}
102
{ACAD_XDICTIONARY
360
19E
102
}
330
2A
100
AcDbVisualStyle
  2
Brighten
 70
    12
 71
     2
 72
     2
 73
     0
 90
        0
 40
-0.6
 41
-30.0
 62
     5
 63
     7
421
 16777215
 74
     1
 91
        4
 64
     7
 65
   257
 75
     1
175
     1
 42
1.0
 92
        8
 66
     7
 43
1.0
 76
     1
 77
     6
 78
     2
 67
     7
 79
     5
170
     0
171
     0
290
     0
174
     0
 93
        1
 44
50.0
173
     0
291
     1
 45
0.0
1001
ACAD
1000
AcDbSavedByObjectVersion
1070
     0
  0
VISUALSTYLE
  5
3A
102
{ACAD_REACTORS
330
2A
102
}
102
{ACAD_XDICTIONARY
360
1A6
102
}
330
2A
100
AcDbVisualStyle
  2
ColorChange
 70
    16
 71
     2
 72
     2
 73
     3
 90
        0
 40
-0.6
 41
-30.0
 62
     5
 63
     8
421
  8421504
 74
     1
 91
        4
 64
     7
 65
   257
 75
     1
175
     1
 42
1.0
 92
        8
 66
     8
424
  8421504
 43
1.0
 76
     1
 77
     6
 78
     2
 67
     7
 79
     5
170
     0
171
     0
290
     0
174
     0
 93
        1
 44
0.0
173
     0
291
     1
 45
0.0
1001
ACAD
1000
AcDbSavedByObjectVersion
1070
     0
  0
VISUALSTYLE
  5
34
102
{ACAD_REACTORS
330
2A
102
}
102
{ACAD_XDICTIONARY
360
19A
102
}
330
2A
100
AcDbVisualStyle
  2
Conceptual
 70
     9
 71
     3
 72
     2
 73
     0
 90
        0
 40
-0.6
 41
-30.0
 62
     5
 63
     7
421
 16777215
 74
     2
 91
        2
 64
     7
 65
   257
 75
     1
175
     1
 42
40.0
 92
        8
 66
     7
 43
1.0
 76
     1
 77
     6
 78
     2
 67
     7
 79
     3
170
     0
171
     0
290
     0
174
     0
 93
        1
 44
0.0
173
     0
291
     0
 45
0.0
1001
ACAD
1000
AcDbSavedByObjectVersion
1070
     0
  0
VISUALSTYLE
  5
35
102
{ACAD_REACTORS
330
2A
102
}
102
{ACAD_XDICTIONARY
360
19C
102
}
330
2A
100
AcDbVisualStyle
  2
Dim
 70
    11
 71
     2
 72
     2
 73
     0
 90
        0
 40
-0.6
 41
-30.0
 62
     5
 63
     7
421
 16777215
 74
     1
 91
        4
 64
     7
 65
   257
 75
     1
175
     1
 42
1.0
 92
        8
 66
     7
 43
1.0
 76
     1
 77
     6
 78
     2
 67
     7
 79
     5
170
     0
171
     0
290
     0
174
     0
 93
        1
 44
-50.0
173
     0
291
     1
 45
0.0
1001
ACAD
1000
AcDbSavedByObjectVersion
1070
     0
  0
VISUALSTYLE
  5
39
102
{ACAD_REACTORS
330
2A
102
}
102
{ACAD_XDICTIONARY
360
1A4
102
}
330
2A
100
AcDbVisualStyle
  2
Facepattern
 70
    15
 71
     2
 72
     2
 73
     0
 90
        0
 40
-0.6
 41
-30.0
 62
     5
 63
     7
421
 16777215
 74
     1
 91
        4
 64
     7
 65
   257
 75
     1
175
     1
 42
1.0
 92
        8
 66
     7
 43
1.0
 76
     1
 77
     6
 78
     2
 67
     7
 79
     5
170
     0
171
     0
290
     0
174
     0
 93
        1
 44
0.0
173
     0
291
     1
 45
0.0
1001
ACAD
1000
AcDbSavedByObjectVersion
1070
     0
  0
VISUALSTYLE
  5
2B
102
{ACAD_REACTORS
330
2A
102
}
102
{ACAD_XDICTIONARY
360
188
102
}
330
2A
100
AcDbVisualStyle
  2
Flat
 70
     0
 71
     2
 72
     1
 73
     1
 90
        2
 40
-0.6
 41
30.0
 62
     5
 63
     7
421
 16777215
 74
     0
 91
        4
 64
     7
 65
   257
 75
     1
175
     1
 42
1.0
 92
        8
 66
     7
 43
1.0
 76
     1
 77
     6
 78
     2
 67
     7
 79
     5
170
     0
171
     0
290
     0
174
     0
 93
       13
 44
0.0
173
     0
291
     1
 45
0.0
1001
ACAD
1000
AcDbSavedByObjectVersion
1070
     0
  0
VISUALSTYLE
  5
2C
102
{ACAD_REACTORS
330
2A
102
}
102
{ACAD_XDICTIONARY
360
18A
102
}
330
2A
100
AcDbVisualStyle
  2
FlatWithEdges
 70
     1
 71
     2
 72
     1
 73
     1
 90
        2
 40
-0.6
 41
30.0
 62
     5
 63
     7
421
 16777215
 74
     1
 91
        4
 64
     7
 65
   257
 75
     1
175
     1
 42
1.0
 92
        0
 66
   257
 43
1.0
 76
     1
 77
     6
 78
     2
 67
     7
 79
     5
170
     0
171
     0
290
     0
174
     0
 93
       13
 44
0.0
173
     0
291
     1
 45
0.0
1001
ACAD
1000
AcDbSavedByObjectVersion
1070
     0
  0
VISUALSTYLE
  5
2D
102
{ACAD_REACTORS
330
2A
102
}
102
{ACAD_XDICTIONARY
360
18C
102
}
330
2A
100
AcDbVisualStyle
  2
Gouraud
 70
     2
 71
     2
 72
     2
 73
     1
 90
        2
 40
-0.6
 41
30.0
 62
     5
 63
     7
421
 16777215
 74
     0
 91
        4
 64
     7
 65
   257
 75
     1
175
     1
 42
1.0
 92
        0
 66
     7
 43
1.0
 76
     1
 77
     6
 78
     2
 67
     7
 79
     5
170
     0
171
     0
290
     0
174
     0
 93
       13
 44
0.0
173
     0
291
     1
 45
0.0
1001
ACAD
1000
AcDbSavedByObjectVersion
1070
     0
  0
VISUALSTYLE
  5
2E
102
{ACAD_REACTORS
330
2A
102
}
102
{ACAD_XDICTIONARY
360
18E
102
}
330
2A
100
AcDbVisualStyle
  2
GouraudWithEdges
 70
     3
 71
     2
 72
     2
 73
     1
 90
        2
 40
-0.6
 41
30.0
 62
     5
 63
     7
421
 16777215
 74
     1
 91
        4
 64
     7
 65
   257
 75
     1
175
     1
 42
1.0
 92
        0
 66
   257
 43
1.0
 76
     1
 77
     6
 78
     2
 67
     7
 79
     5
170
     0
171
     0
290
     0
174
     0
 93
       13
 44
0.0
173
     0
291
     1
 45
0.0
1001
ACAD
1000
AcDbSavedByObjectVersion
1070
     0
  0
VISUALSTYLE
  5
38
102
{ACAD_REACTORS
330
2A
102
}
102
{ACAD_XDICTIONARY
360
1A2
102
}
330
2A
100
AcDbVisualStyle
  2
Linepattern
 70
    14
 71
     2
 72
     2
 73
     0
 90
        0
 40
-0.6
 41
-30.0
 62
     5
 63
     7
421
 16777215
 74
     1
 91
        4
 64
     7
 65
   257
 75
     7
175
     7
 42
1.0
 92
        8
 66
     7
 43
1.0
 76
     1
 77
     6
 78
     2
 67
     7
 79
     5
170
     0
171
     0
290
     0
174
     0
 93
        1
 44
0.0
173
     0
291
     1
 45
0.0
1001
ACAD
1000
AcDbSavedByObjectVersion
1070
     0
  0
VISUALSTYLE
  5
33
102
{ACAD_REACTORS
330
2A
102
}
102
{ACAD_XDICTIONARY
360
198
102
}
330
2A
100
AcDbVisualStyle
  2
Realistic
 70
     8
 71
     2
 72
     2
 73
     0
 90
        0
 40
-0.6
 41
-30.0
 62
     5
 63
     7
421
 16777215
 74
     1
 91
        0
 64
     7
 65
   257
 75
     1
175
     1
 42
1.0
 92
        8
 66
     8
424
  7895160
 43
1.0
 76
     1
 77
     6
 78
     2
 67
     7
 79
     5
170
     0
171
     0
290
     0
174
     0
 93
       13
 44
0.0
173
     0
291
     0
 45
0.0
1001
ACAD
1000
AcDbSavedByObjectVersion
1070
     0
  0
VISUALSTYLE
  5
37
102
{ACAD_REACTORS
330
2A
102
}
102
{ACAD_XDICTIONARY
360
1A0
102
}
330
2A
100
AcDbVisualStyle
  2
Thicken
 70
    13
 71
     2
 72
     2
 73
     0
 90
        0
 40
-0.6
 41
-30.0
 62
     5
 63
     7
421
 16777215
 74
     1
 91
        4
 64
     7
 65
   257
 75
     1
175
     1
 42
1.0
 92
       12
 66
     7
 43
1.0
 76
     1
 77
     6
 78
     2
 67
     7
 79
     5
170
     0
171
     0
290
     0
174
     0
 93
        1
 44
0.0
173
     0
291
     1
 45
0.0
1001
ACAD
1000
AcDbSavedByObjectVersion
1070
     0
  0
DICTIONARY
  5
1AA
330
3D
100
AcDbDictionary
280
     1
281
     1
  3
ACAD_XREC_ROUNDTRIP
360
1AB
  0
DICTIONARY
  5
1A8
330
3C
100
AcDbDictionary
280
     1
281
     1
  3
ACAD_XREC_ROUNDTRIP
360
1A9
  0
DICTIONARY
  5
1AC
330
3E
100
AcDbDictionary
280
     1
281
     1
  3
ACAD_XREC_ROUNDTRIP
360
1AD
  0
DICTIONARY
  5
190
330
2F
100
AcDbDictionary
280
     1
281
     1
  3
ACAD_XREC_ROUNDTRIP
360
191
  0
DICTIONARY
  5
194
330
31
100
AcDbDictionary
280
     1
281
     1
  3
ACAD_XREC_ROUNDTRIP
360
195
  0
DICTIONARY
  5
192
330
30
100
AcDbDictionary
280
     1
281
     1
  3
ACAD_XREC_ROUNDTRIP
360
193
  0
DICTIONARY
  5
196
330
32
100
AcDbDictionary
280
     1
281
     1
  3
ACAD_XREC_ROUNDTRIP
360
197
  0
DICTIONARY
  5
19E
330
36
100
AcDbDictionary
280
     1
281
     1
  3
ACAD_XREC_ROUNDTRIP
360
19F
  0
DICTIONARY
  5
1A6
330
3A
100
AcDbDictionary
280
     1
281
     1
  3
ACAD_XREC_ROUNDTRIP
360
1A7
  0
DICTIONARY
  5
19A
330
34
100
AcDbDictionary
280
     1
281
     1
  3
ACAD_XREC_ROUNDTRIP
360
19B
  0
DICTIONARY
  5
19C
330
35
100
AcDbDictionary
280
     1
281
     1
  3
ACAD_XREC_ROUNDTRIP
360
19D
  0
DICTIONARY
  5
1A4
330
39
100
AcDbDictionary
280
     1
281
     1
  3
ACAD_XREC_ROUNDTRIP
360
1A5
  0
DICTIONARY
  5
188
330
2B
100
AcDbDictionary
280
     1
281
     1
  3
ACAD_XREC_ROUNDTRIP
360
189
  0
DICTIONARY
  5
18A
330
2C
100
AcDbDictionary
280
     1
281
     1
  3
ACAD_XREC_ROUNDTRIP
360
18B
  0
DICTIONARY
  5
18C
330
2D
100
AcDbDictionary
280
     1
281
     1
  3
ACAD_XREC_ROUNDTRIP
360
18D
  0
DICTIONARY
  5
18E
330
2E
100
AcDbDictionary
280
     1
281
     1
  3
ACAD_XREC_ROUNDTRIP
360
18F
  0
DICTIONARY
  5
1A2
330
38
100
AcDbDictionary
280
     1
281
     1
  3
ACAD_XREC_ROUNDTRIP
360
1A3
  0
DICTIONARY
  5
198
330
33
100
AcDbDictionary
280
     1
281
     1
  3
ACAD_XREC_ROUNDTRIP
360
199
  0
DICTIONARY
  5
1A0
330
37
100
AcDbDictionary
280
     1
281
     1
  3
ACAD_XREC_ROUNDTRIP
360
1A1
  0
XRECORD
  5
1AB
102
{ACAD_REACTORS
330
1AA
102
}
330
1AA
100
AcDbXrecord
280
     1
102
MATERIAL
148
0.0
149
0.0
149
0.0
 93
        0
 94
      127
282
     0
 72
     1
 77
     1
171
     1
175
     1
179
     1
273
     0
  0
XRECORD
  5
1A9
102
{ACAD_REACTORS
330
1A8
102
}
330
1A8
100
AcDbXrecord
280
     1
102
MATERIAL
148
0.0
149
0.0
149
0.0
 93
        0
 94
      127
282
     0
 72
     1
 77
     1
171
     1
175
     1
179
     1
273
     0
  0
XRECORD
  5
1AD
102
{ACAD_REACTORS
330
1AC
102
}
330
1AC
100
AcDbXrecord
280
     1
102
MATERIAL
148
0.0
149
0.0
149
0.0
 93
        0
 94
      127
282
     0
 72
     1
 77
     1
171
     1
175
     1
179
     1
273
     0
  0
XRECORD
  5
191
102
{ACAD_REACTORS
330
190
102
}
330
190
100
AcDbXrecord
280
     1
102
RTVSPropertyOp0
 70
     1
102
RTVSPropertyOp1
 70
     1
102
RTVSPropertyOp2
 70
     1
102
RTVSPropertyOp3
 70
     1
102
RTVSPropertyOp4
 70
     1
102
RTVSPropertyOp5
 70
     1
102
RTVSPropertyOp6
 70
     1
102
RTVSPropertyOp7
 70
     1
102
RTVSPropertyOp8
 70
     1
102
RTVSPropertyOp9
 70
     1
102
RTVSPropertyOp10
 70
     1
102
RTVSPropertyOp11
 70
     1
102
RTVSPropertyOp12
 70
     1
102
RTVSPropertyOp13
 70
     1
102
RTVSPropertyOp14
 70
     1
102
RTVSPropertyOp15
 70
     1
102
RTVSPropertyOp16
 70
     1
102
RTVSPropertyOp17
 70
     1
102
RTVSPropertyOp18
 70
     1
102
RTVSPropertyOp19
 70
     1
102
RTVSPropertyOp20
 70
     1
102
RTVSPropertyOp21
 70
     1
102
RTVSPropertyOp22
 70
     1
102
RTVSPropertyOp23
 70
     1
102
RTVSPropertyOp24
 70
     1
102
RTVSPropertyOp25
 70
     1
102
RTVSPropertyOp26
 70
     1
102
RTVSPropertyOp27
 70
     1
102
RTVSPropertyOp28
 70
     1
102
RTVSPropertyOp29
 70
     1
102
RTVSPropertyOp30
 70
     1
102
RTVSPropertyOp31
 70
     1
102
RTVSPropertyOp32
 70
     1
  0
XRECORD
  5
195
102
{ACAD_REACTORS
330
194
102
}
330
194
100
AcDbXrecord
280
     1
102
RTVSPropertyOp0
 70
     1
102
RTVSPropertyOp1
 70
     1
102
RTVSPropertyOp2
 70
     1
102
RTVSPropertyOp3
 70
     1
102
RTVSPropertyOp4
 70
     1
102
RTVSPropertyOp5
 70
     1
102
RTVSPropertyOp6
 70
     1
102
RTVSPropertyOp7
 70
     1
102
RTVSPropertyOp8
 70
     1
102
RTVSPropertyOp9
 70
     1
102
RTVSPropertyOp10
 70
     1
102
RTVSPropertyOp11
 70
     1
102
RTVSPropertyOp12
 70
     1
102
RTVSPropertyOp13
 70
     1
102
RTVSPropertyOp14
 70
     1
102
RTVSPropertyOp15
 70
     1
102
RTVSPropertyOp16
 70
     1
102
RTVSPropertyOp17
 70
     1
102
RTVSPropertyOp18
 70
     1
102
RTVSPropertyOp19
 70
     1
102
RTVSPropertyOp20
 70
     1
102
RTVSPropertyOp21
 70
     1
102
RTVSPropertyOp22
 70
     1
102
RTVSPropertyOp23
 70
     1
102
RTVSPropertyOp24
 70
     1
102
RTVSPropertyOp25
 70
     1
102
RTVSPropertyOp26
 70
     1
102
RTVSPropertyOp27
 70
     1
102
RTVSPropertyOp28
 70
     1
102
RTVSPropertyOp29
 70
     1
102
RTVSPropertyOp30
 70
     1
102
RTVSPropertyOp31
 70
     1
102
RTVSPropertyOp32
 70
     1
  0
XRECORD
  5
193
102
{ACAD_REACTORS
330
192
102
}
330
192
100
AcDbXrecord
280
     1
102
RTVSPropertyOp0
 70
     1
102
RTVSPropertyOp1
 70
     1
102
RTVSPropertyOp2
 70
     1
102
RTVSPropertyOp3
 70
     1
102
RTVSPropertyOp4
 70
     1
102
RTVSPropertyOp5
 70
     1
102
RTVSPropertyOp6
 70
     1
102
RTVSPropertyOp7
 70
     1
102
RTVSPropertyOp8
 70
     1
102
RTVSPropertyOp9
 70
     1
102
RTVSPropertyOp10
 70
     1
102
RTVSPropertyOp11
 70
     1
102
RTVSPropertyOp12
 70
     1
102
RTVSPropertyOp13
 70
     1
102
RTVSPropertyOp14
 70
     1
102
RTVSPropertyOp15
 70
     1
102
RTVSPropertyOp16
 70
     1
102
RTVSPropertyOp17
 70
     1
102
RTVSPropertyOp18
 70
     1
102
RTVSPropertyOp19
 70
     1
102
RTVSPropertyOp20
 70
     1
102
RTVSPropertyOp21
 70
     1
102
RTVSPropertyOp22
 70
     1
102
RTVSPropertyOp23
 70
     1
102
RTVSPropertyOp24
 70
     1
102
RTVSPropertyOp25
 70
     1
102
RTVSPropertyOp26
 70
     1
102
RTVSPropertyOp27
 70
     1
102
RTVSPropertyOp28
 70
     1
102
RTVSPropertyOp29
 70
     1
102
RTVSPropertyOp30
 70
     1
102
RTVSPropertyOp31
 70
     1
102
RTVSPropertyOp32
 70
     1
  0
XRECORD
  5
197
102
{ACAD_REACTORS
330
196
102
}
330
196
100
AcDbXrecord
280
     1
102
RTVSPropertyOp0
 70
     1
102
RTVSPropertyOp1
 70
     1
102
RTVSPropertyOp2
 70
     1
102
RTVSPropertyOp3
 70
     1
102
RTVSPropertyOp4
 70
     1
102
RTVSPropertyOp5
 70
     1
102
RTVSPropertyOp6
 70
     1
102
RTVSPropertyOp7
 70
     1
102
RTVSPropertyOp8
 70
     1
102
RTVSPropertyOp9
 70
     1
102
RTVSPropertyOp10
 70
     1
102
RTVSPropertyOp11
 70
     1
102
RTVSPropertyOp12
 70
     1
102
RTVSPropertyOp13
 70
     1
102
RTVSPropertyOp14
 70
     1
102
RTVSPropertyOp15
 70
     1
102
RTVSPropertyOp16
 70
     1
102
RTVSPropertyOp17
 70
     1
102
RTVSPropertyOp18
 70
     1
102
RTVSPropertyOp19
 70
     1
102
RTVSPropertyOp20
 70
     1
102
RTVSPropertyOp21
 70
     1
102
RTVSPropertyOp22
 70
     1
102
RTVSPropertyOp23
 70
     1
102
RTVSPropertyOp24
 70
     1
102
RTVSPropertyOp25
 70
     1
102
RTVSPropertyOp26
 70
     1
102
RTVSPropertyOp27
 70
     1
102
RTVSPropertyOp28
 70
     1
102
RTVSPropertyOp29
 70
     1
102
RTVSPropertyOp30
 70
     1
102
RTVSPropertyOp31
 70
     1
102
RTVSPropertyOp32
 70
     1
  0
XRECORD
  5
19F
102
{ACAD_REACTORS
330
19E
102
}
330
19E
100
AcDbXrecord
280
     1
102
RTVSPropertyOp0
 70
     1
102
RTVSPropertyOp1
 70
     1
102
RTVSPropertyOp2
 70
     1
102
RTVSPropertyOp3
 70
     1
102
RTVSPropertyOp4
 70
     1
102
RTVSPropertyOp5
 70
     1
102
RTVSPropertyOp6
 70
     1
102
RTVSPropertyOp7
 70
     1
102
RTVSPropertyOp8
 70
     1
102
RTVSPropertyOp9
 70
     1
102
RTVSPropertyOp10
 70
     1
102
RTVSPropertyOp11
 70
     1
102
RTVSPropertyOp12
 70
     1
102
RTVSPropertyOp13
 70
     1
102
RTVSPropertyOp14
 70
     1
102
RTVSPropertyOp15
 70
     1
102
RTVSPropertyOp16
 70
     1
102
RTVSPropertyOp17
 70
     1
102
RTVSPropertyOp18
 70
     1
102
RTVSPropertyOp19
 70
     1
102
RTVSPropertyOp20
 70
     1
102
RTVSPropertyOp21
 70
     1
102
RTVSPropertyOp22
 70
     1
102
RTVSPropertyOp23
 70
     1
102
RTVSPropertyOp24
 70
     1
102
RTVSPropertyOp25
 70
     1
102
RTVSPropertyOp26
 70
     1
102
RTVSPropertyOp27
 70
     1
102
RTVSPropertyOp28
 70
     1
102
RTVSPropertyOp29
 70
     1
102
RTVSPropertyOp30
 70
     1
102
RTVSPropertyOp31
 70
     1
102
RTVSPropertyOp32
 70
     1
  0
XRECORD
  5
1A7
102
{ACAD_REACTORS
330
1A6
102
}
330
1A6
100
AcDbXrecord
280
     1
102
RTVSPropertyOp0
 70
     1
102
RTVSPropertyOp1
 70
     1
102
RTVSPropertyOp2
 70
     1
102
RTVSPropertyOp3
 70
     1
102
RTVSPropertyOp4
 70
     1
102
RTVSPropertyOp5
 70
     1
102
RTVSPropertyOp6
 70
     1
102
RTVSPropertyOp7
 70
     1
102
RTVSPropertyOp8
 70
     1
102
RTVSPropertyOp9
 70
     1
102
RTVSPropertyOp10
 70
     1
102
RTVSPropertyOp11
 70
     1
102
RTVSPropertyOp12
 70
     1
102
RTVSPropertyOp13
 70
     1
102
RTVSPropertyOp14
 70
     1
102
RTVSPropertyOp15
 70
     1
102
RTVSPropertyOp16
 70
     1
102
RTVSPropertyOp17
 70
     1
102
RTVSPropertyOp18
 70
     1
102
RTVSPropertyOp19
 70
     1
102
RTVSPropertyOp20
 70
     1
102
RTVSPropertyOp21
 70
     1
102
RTVSPropertyOp22
 70
     1
102
RTVSPropertyOp23
 70
     1
102
RTVSPropertyOp24
 70
     1
102
RTVSPropertyOp25
 70
     1
102
RTVSPropertyOp26
 70
     1
102
RTVSPropertyOp27
 70
     1
102
RTVSPropertyOp28
 70
     1
102
RTVSPropertyOp29
 70
     1
102
RTVSPropertyOp30
 70
     1
102
RTVSPropertyOp31
 70
     1
102
RTVSPropertyOp32
 70
     1
  0
XRECORD
  5
19B
102
{ACAD_REACTORS
330
19A
102
}
330
19A
100
AcDbXrecord
280
     1
102
RTVSPropertyOp0
 70
     1
102
RTVSPropertyOp1
 70
     1
102
RTVSPropertyOp2
 70
     1
102
RTVSPropertyOp3
 70
     1
102
RTVSPropertyOp4
 70
     1
102
RTVSPropertyOp5
 70
     1
102
RTVSPropertyOp6
 70
     1
102
RTVSPropertyOp7
 70
     1
102
RTVSPropertyOp8
 70
     1
102
RTVSPropertyOp9
 70
     1
102
RTVSPropertyOp10
 70
     1
102
RTVSPropertyOp11
 70
     1
102
RTVSPropertyOp12
 70
     1
102
RTVSPropertyOp13
 70
     1
102
RTVSPropertyOp14
 70
     1
102
RTVSPropertyOp15
 70
     1
102
RTVSPropertyOp16
 70
     1
102
RTVSPropertyOp17
 70
     1
102
RTVSPropertyOp18
 70
     1
102
RTVSPropertyOp19
 70
     1
102
RTVSPropertyOp20
 70
     1
102
RTVSPropertyOp21
 70
     1
102
RTVSPropertyOp22
 70
     1
102
RTVSPropertyOp23
 70
     1
102
RTVSPropertyOp24
 70
     1
102
RTVSPropertyOp25
 70
     1
102
RTVSPropertyOp26
 70
     1
102
RTVSPropertyOp27
 70
     1
102
RTVSPropertyOp28
 70
     1
102
RTVSPropertyOp29
 70
     1
102
RTVSPropertyOp30
 70
     1
102
RTVSPropertyOp31
 70
     1
102
RTVSPropertyOp32
 70
     1
  0
XRECORD
  5
19D
102
{ACAD_REACTORS
330
19C
102
}
330
19C
100
AcDbXrecord
280
     1
102
RTVSPropertyOp0
 70
     1
102
RTVSPropertyOp1
 70
     1
102
RTVSPropertyOp2
 70
     1
102
RTVSPropertyOp3
 70
     1
102
RTVSPropertyOp4
 70
     1
102
RTVSPropertyOp5
 70
     1
102
RTVSPropertyOp6
 70
     1
102
RTVSPropertyOp7
 70
     1
102
RTVSPropertyOp8
 70
     1
102
RTVSPropertyOp9
 70
     1
102
RTVSPropertyOp10
 70
     1
102
RTVSPropertyOp11
 70
     1
102
RTVSPropertyOp12
 70
     1
102
RTVSPropertyOp13
 70
     1
102
RTVSPropertyOp14
 70
     1
102
RTVSPropertyOp15
 70
     1
102
RTVSPropertyOp16
 70
     1
102
RTVSPropertyOp17
 70
     1
102
RTVSPropertyOp18
 70
     1
102
RTVSPropertyOp19
 70
     1
102
RTVSPropertyOp20
 70
     1
102
RTVSPropertyOp21
 70
     1
102
RTVSPropertyOp22
 70
     1
102
RTVSPropertyOp23
 70
     1
102
RTVSPropertyOp24
 70
     1
102
RTVSPropertyOp25
 70
     1
102
RTVSPropertyOp26
 70
     1
102
RTVSPropertyOp27
 70
     1
102
RTVSPropertyOp28
 70
     1
102
RTVSPropertyOp29
 70
     1
102
RTVSPropertyOp30
 70
     1
102
RTVSPropertyOp31
 70
     1
102
RTVSPropertyOp32
 70
     1
  0
XRECORD
  5
1A5
102
{ACAD_REACTORS
330
1A4
102
}
330
1A4
100
AcDbXrecord
280
     1
102
RTVSPropertyOp0
 70
     1
102
RTVSPropertyOp1
 70
     1
102
RTVSPropertyOp2
 70
     1
102
RTVSPropertyOp3
 70
     1
102
RTVSPropertyOp4
 70
     1
102
RTVSPropertyOp5
 70
     1
102
RTVSPropertyOp6
 70
     1
102
RTVSPropertyOp7
 70
     1
102
RTVSPropertyOp8
 70
     1
102
RTVSPropertyOp9
 70
     1
102
RTVSPropertyOp10
 70
     1
102
RTVSPropertyOp11
 70
     1
102
RTVSPropertyOp12
 70
     1
102
RTVSPropertyOp13
 70
     1
102
RTVSPropertyOp14
 70
     1
102
RTVSPropertyOp15
 70
     1
102
RTVSPropertyOp16
 70
     1
102
RTVSPropertyOp17
 70
     1
102
RTVSPropertyOp18
 70
     1
102
RTVSPropertyOp19
 70
     1
102
RTVSPropertyOp20
 70
     1
102
RTVSPropertyOp21
 70
     1
102
RTVSPropertyOp22
 70
     1
102
RTVSPropertyOp23
 70
     1
102
RTVSPropertyOp24
 70
     1
102
RTVSPropertyOp25
 70
     1
102
RTVSPropertyOp26
 70
     1
102
RTVSPropertyOp27
 70
     1
102
RTVSPropertyOp28
 70
     1
102
RTVSPropertyOp29
 70
     1
102
RTVSPropertyOp30
 70
     1
102
RTVSPropertyOp31
 70
     1
102
RTVSPropertyOp32
 70
     1
  0
XRECORD
  5
189
102
{ACAD_REACTORS
330
188
102
}
330
188
100
AcDbXrecord
280
     1
102
RTVSPropertyOp0
 70
     1
102
RTVSPropertyOp1
 70
     1
102
RTVSPropertyOp2
 70
     1
102
RTVSPropertyOp3
 70
     1
102
RTVSPropertyOp4
 70
     1
102
RTVSPropertyOp5
 70
     1
102
RTVSPropertyOp6
 70
     1
102
RTVSPropertyOp7
 70
     1
102
RTVSPropertyOp8
 70
     1
102
RTVSPropertyOp9
 70
     1
102
RTVSPropertyOp10
 70
     1
102
RTVSPropertyOp11
 70
     1
102
RTVSPropertyOp12
 70
     1
102
RTVSPropertyOp13
 70
     1
102
RTVSPropertyOp14
 70
     1
102
RTVSPropertyOp15
 70
     1
102
RTVSPropertyOp16
 70
     1
102
RTVSPropertyOp17
 70
     1
102
RTVSPropertyOp18
 70
     1
102
RTVSPropertyOp19
 70
     1
102
RTVSPropertyOp20
 70
     1
102
RTVSPropertyOp21
 70
     1
102
RTVSPropertyOp22
 70
     1
102
RTVSPropertyOp23
 70
     1
102
RTVSPropertyOp24
 70
     1
102
RTVSPropertyOp25
 70
     1
102
RTVSPropertyOp26
 70
     1
102
RTVSPropertyOp27
 70
     1
102
RTVSPropertyOp28
 70
     1
102
RTVSPropertyOp29
 70
     1
102
RTVSPropertyOp30
 70
     1
102
RTVSPropertyOp31
 70
     1
102
RTVSPropertyOp32
 70
     1
  0
XRECORD
  5
18B
102
{ACAD_REACTORS
330
18A
102
}
330
18A
100
AcDbXrecord
280
     1
102
RTVSPropertyOp0
 70
     1
102
RTVSPropertyOp1
 70
     1
102
RTVSPropertyOp2
 70
     1
102
RTVSPropertyOp3
 70
     1
102
RTVSPropertyOp4
 70
     1
102
RTVSPropertyOp5
 70
     1
102
RTVSPropertyOp6
 70
     1
102
RTVSPropertyOp7
 70
     1
102
RTVSPropertyOp8
 70
     1
102
RTVSPropertyOp9
 70
     1
102
RTVSPropertyOp10
 70
     1
102
RTVSPropertyOp11
 70
     1
102
RTVSPropertyOp12
 70
     1
102
RTVSPropertyOp13
 70
     1
102
RTVSPropertyOp14
 70
     1
102
RTVSPropertyOp15
 70
     1
102
RTVSPropertyOp16
 70
     1
102
RTVSPropertyOp17
 70
     1
102
RTVSPropertyOp18
 70
     1
102
RTVSPropertyOp19
 70
     1
102
RTVSPropertyOp20
 70
     1
102
RTVSPropertyOp21
 70
     1
102
RTVSPropertyOp22
 70
     1
102
RTVSPropertyOp23
 70
     1
102
RTVSPropertyOp24
 70
     1
102
RTVSPropertyOp25
 70
     1
102
RTVSPropertyOp26
 70
     1
102
RTVSPropertyOp27
 70
     1
102
RTVSPropertyOp28
 70
     1
102
RTVSPropertyOp29
 70
     1
102
RTVSPropertyOp30
 70
     1
102
RTVSPropertyOp31
 70
     1
102
RTVSPropertyOp32
 70
     1
  0
XRECORD
  5
18D
102
{ACAD_REACTORS
330
18C
102
}
330
18C
100
AcDbXrecord
280
     1
102
RTVSPropertyOp0
 70
     1
102
RTVSPropertyOp1
 70
     1
102
RTVSPropertyOp2
 70
     1
102
RTVSPropertyOp3
 70
     1
102
RTVSPropertyOp4
 70
     1
102
RTVSPropertyOp5
 70
     1
102
RTVSPropertyOp6
 70
     1
102
RTVSPropertyOp7
 70
     1
102
RTVSPropertyOp8
 70
     1
102
RTVSPropertyOp9
 70
     1
102
RTVSPropertyOp10
 70
     1
102
RTVSPropertyOp11
 70
     1
102
RTVSPropertyOp12
 70
     1
102
RTVSPropertyOp13
 70
     1
102
RTVSPropertyOp14
 70
     1
102
RTVSPropertyOp15
 70
     1
102
RTVSPropertyOp16
 70
     1
102
RTVSPropertyOp17
 70
     1
102
RTVSPropertyOp18
 70
     1
102
RTVSPropertyOp19
 70
     1
102
RTVSPropertyOp20
 70
     1
102
RTVSPropertyOp21
 70
     1
102
RTVSPropertyOp22
 70
     1
102
RTVSPropertyOp23
 70
     1
102
RTVSPropertyOp24
 70
     1
102
RTVSPropertyOp25
 70
     1
102
RTVSPropertyOp26
 70
     1
102
RTVSPropertyOp27
 70
     1
102
RTVSPropertyOp28
 70
     1
102
RTVSPropertyOp29
 70
     1
102
RTVSPropertyOp30
 70
     1
102
RTVSPropertyOp31
 70
     1
102
RTVSPropertyOp32
 70
     1
  0
XRECORD
  5
18F
102
{ACAD_REACTORS
330
18E
102
}
330
18E
100
AcDbXrecord
280
     1
102
RTVSPropertyOp0
 70
     1
102
RTVSPropertyOp1
 70
     1
102
RTVSPropertyOp2
 70
     1
102
RTVSPropertyOp3
 70
     1
102
RTVSPropertyOp4
 70
     1
102
RTVSPropertyOp5
 70
     1
102
RTVSPropertyOp6
 70
     1
102
RTVSPropertyOp7
 70
     1
102
RTVSPropertyOp8
 70
     1
102
RTVSPropertyOp9
 70
     1
102
RTVSPropertyOp10
 70
     1
102
RTVSPropertyOp11
 70
     1
102
RTVSPropertyOp12
 70
     1
102
RTVSPropertyOp13
 70
     1
102
RTVSPropertyOp14
 70
     1
102
RTVSPropertyOp15
 70
     1
102
RTVSPropertyOp16
 70
     1
102
RTVSPropertyOp17
 70
     1
102
RTVSPropertyOp18
 70
     1
102
RTVSPropertyOp19
 70
     1
102
RTVSPropertyOp20
 70
     1
102
RTVSPropertyOp21
 70
     1
102
RTVSPropertyOp22
 70
     1
102
RTVSPropertyOp23
 70
     1
102
RTVSPropertyOp24
 70
     1
102
RTVSPropertyOp25
 70
     1
102
RTVSPropertyOp26
 70
     1
102
RTVSPropertyOp27
 70
     1
102
RTVSPropertyOp28
 70
     1
102
RTVSPropertyOp29
 70
     1
102
RTVSPropertyOp30
 70
     1
102
RTVSPropertyOp31
 70
     1
102
RTVSPropertyOp32
 70
     1
  0
XRECORD
  5
1A3
102
{ACAD_REACTORS
330
1A2
102
}
330
1A2
100
AcDbXrecord
280
     1
102
RTVSPropertyOp0
 70
     1
102
RTVSPropertyOp1
 70
     1
102
RTVSPropertyOp2
 70
     1
102
RTVSPropertyOp3
 70
     1
102
RTVSPropertyOp4
 70
     1
102
RTVSPropertyOp5
 70
     1
102
RTVSPropertyOp6
 70
     1
102
RTVSPropertyOp7
 70
     1
102
RTVSPropertyOp8
 70
     1
102
RTVSPropertyOp9
 70
     1
102
RTVSPropertyOp10
 70
     1
102
RTVSPropertyOp11
 70
     1
102
RTVSPropertyOp12
 70
     1
102
RTVSPropertyOp13
 70
     1
102
RTVSPropertyOp14
 70
     1
102
RTVSPropertyOp15
 70
     1
102
RTVSPropertyOp16
 70
     1
102
RTVSPropertyOp17
 70
     1
102
RTVSPropertyOp18
 70
     1
102
RTVSPropertyOp19
 70
     1
102
RTVSPropertyOp20
 70
     1
102
RTVSPropertyOp21
 70
     1
102
RTVSPropertyOp22
 70
     1
102
RTVSPropertyOp23
 70
     1
102
RTVSPropertyOp24
 70
     1
102
RTVSPropertyOp25
 70
     1
102
RTVSPropertyOp26
 70
     1
102
RTVSPropertyOp27
 70
     1
102
RTVSPropertyOp28
 70
     1
102
RTVSPropertyOp29
 70
     1
102
RTVSPropertyOp30
 70
     1
102
RTVSPropertyOp31
 70
     1
102
RTVSPropertyOp32
 70
     1
  0
XRECORD
  5
199
102
{ACAD_REACTORS
330
198
102
}
330
198
100
AcDbXrecord
280
     1
102
RTVSPropertyOp0
 70
     1
102
RTVSPropertyOp1
 70
     1
102
RTVSPropertyOp2
 70
     1
102
RTVSPropertyOp3
 70
     1
102
RTVSPropertyOp4
 70
     1
102
RTVSPropertyOp5
 70
     1
102
RTVSPropertyOp6
 70
     1
102
RTVSPropertyOp7
 70
     1
102
RTVSPropertyOp8
 70
     1
102
RTVSPropertyOp9
 70
     1
102
RTVSPropertyOp10
 70
     1
102
RTVSPropertyOp11
 70
     1
102
RTVSPropertyOp12
 70
     1
102
RTVSPropertyOp13
 70
     1
102
RTVSPropertyOp14
 70
     1
102
RTVSPropertyOp15
 70
     1
102
RTVSPropertyOp16
 70
     1
102
RTVSPropertyOp17
 70
     1
102
RTVSPropertyOp18
 70
     1
102
RTVSPropertyOp19
 70
     1
102
RTVSPropertyOp20
 70
     1
102
RTVSPropertyOp21
 70
     1
102
RTVSPropertyOp22
 70
     1
102
RTVSPropertyOp23
 70
     1
102
RTVSPropertyOp24
 70
     1
102
RTVSPropertyOp25
 70
     1
102
RTVSPropertyOp26
 70
     1
102
RTVSPropertyOp27
 70
     1
102
RTVSPropertyOp28
 70
     1
102
RTVSPropertyOp29
 70
     1
102
RTVSPropertyOp30
 70
     1
102
RTVSPropertyOp31
 70
     1
102
RTVSPropertyOp32
 70
     1
  0
XRECORD
  5
1A1
102
{ACAD_REACTORS
330
1A0
102
}
330
1A0
100
AcDbXrecord
280
     1
102
RTVSPropertyOp0
 70
     1
102
RTVSPropertyOp1
 70
     1
102
RTVSPropertyOp2
 70
     1
102
RTVSPropertyOp3
 70
     1
102
RTVSPropertyOp4
 70
     1
102
RTVSPropertyOp5
 70
     1
102
RTVSPropertyOp6
 70
     1
102
RTVSPropertyOp7
 70
     1
102
RTVSPropertyOp8
 70
     1
102
RTVSPropertyOp9
 70
     1
102
RTVSPropertyOp10
 70
     1
102
RTVSPropertyOp11
 70
     1
102
RTVSPropertyOp12
 70
     1
102
RTVSPropertyOp13
 70
     1
102
RTVSPropertyOp14
 70
     1
102
RTVSPropertyOp15
 70
     1
102
RTVSPropertyOp16
 70
     1
102
RTVSPropertyOp17
 70
     1
102
RTVSPropertyOp18
 70
     1
102
RTVSPropertyOp19
 70
     1
102
RTVSPropertyOp20
 70
     1
102
RTVSPropertyOp21
 70
     1
102
RTVSPropertyOp22
 70
     1
102
RTVSPropertyOp23
 70
     1
102
RTVSPropertyOp24
 70
     1
102
RTVSPropertyOp25
 70
     1
102
RTVSPropertyOp26
 70
     1
102
RTVSPropertyOp27
 70
     1
102
RTVSPropertyOp28
 70
     1
102
RTVSPropertyOp29
 70
     1
102
RTVSPropertyOp30
 70
     1
102
RTVSPropertyOp31
 70
     1
102
RTVSPropertyOp32
 70
     1
  0
ENDSEC
  0
EOF
