  0
SECTION
  2
HEADER
  9
$ACADVER
  1
AC1018
  9
$ACADMAINTVER
 70
     0
  9
$DWGCODEPAGE
  3
ANSI_1252
  9
$INSBASE
 10
0.0
 20
0.0
 30
0.0
  9
$EXTMIN
 10
1.000000000000000E+20
 20
1.000000000000000E+20
 30
1.000000000000000E+20
  9
$EXTMAX
 10
-1.000000000000000E+20
 20
-1.000000000000000E+20
 30
-1.000000000000000E+20
  9
$LIMMIN
 10
0.0
 20
0.0
  9
$LIMMAX
 10
12.0
 20
9.0
  9
$ORTHOMODE
 70
     0
  9
$REGENMODE
 70
     1
  9
$FILLMODE
 70
     1
  9
$QTEXTMODE
 70
     0
  9
$MIRRTEXT
 70
     1
  9
$LTSCALE
 40
1.0
  9
$ATTMODE
 70
     1
  9
$TEXTSIZE
 40
0.2
  9
$TRACEWID
 40
0.05
  9
$TEXTSTYLE
  7
Standard
  9
$CLAYER
  8
0
  9
$CELTYPE
  6
ByLayer
  9
$CECOLOR
 62
   256
  9
$CELTSCALE
 40
1.0
  9
$DISPSILH
 70
     0
  9
$DIMSCALE
 40
1.0
  9
$DIMASZ
 40
0.18
  9
$DIMEXO
 40
0.0625
  9
$DIMDLI
 40
0.38
  9
$DIMRND
 40
0.0
  9
$DIMDLE
 40
0.0
  9
$DIMEXE
 40
0.18
  9
$DIMTP
 40
0.0
  9
$DIMTM
 40
0.0
  9
$DIMTXT
 40
0.18
  9
$DIMCEN
 40
0.09
  9
$DIMTSZ
 40
0.0
  9
$DIMTOL
 70
     0
  9
$DIMLIM
 70
     0
  9
$DIMTIH
 70
     1
  9
$DIMTOH
 70
     1
  9
$DIMSE1
 70
     0
  9
$DIMSE2
 70
     0
  9
$DIMTAD
 70
     0
  9
$DIMZIN
 70
     0
  9
$DIMBLK
  1

  9
$DIMASO
 70
     1
  9
$DIMSHO
 70
     1
  9
$DIMPOST
  1

  9
$DIMAPOST
  1

  9
$DIMALT
 70
     0
  9
$DIMALTD
 70
     2
  9
$DIMALTF
 40
25.4
  9
$DIMLFAC
 40
1.0
  9
$DIMTOFL
 70
     0
  9
$DIMTVP
 40
0.0
  9
$DIMTIX
 70
     0
  9
$DIMSOXD
 70
     0
  9
$DIMSAH
 70
     0
  9
$DIMBLK1
  1

  9
$DIMBLK2
  1

  9
$DIMSTYLE
  2
Standard
  9
$DIMCLRD
 70
     0
  9
$DIMCLRE
 70
     0
  9
$DIMCLRT
 70
     0
  9
$DIMTFAC
 40
1.0
  9
$DIMGAP
 40
0.09
  9
$DIMJUST
 70
     0
  9
$DIMSD1
 70
     0
  9
$DIMSD2
 70
     0
  9
$DIMTOLJ
 70
     1
  9
$DIMTZIN
 70
     0
  9
$DIMALTZ
 70
     0
  9
$DIMALTTZ
 70
     0
  9
$DIMUPT
 70
     0
  9
$DIMDEC
 70
     4
  9
$DIMTDEC
 70
     4
  9
$DIMALTU
 70
     2
  9
$DIMALTTD
 70
     2
  9
$DIMTXSTY
  7
Standard
  9
$DIMAUNIT
 70
     0
  9
$DIMADEC
 70
     0
  9
$DIMALTRND
 40
0.0
  9
$DIMAZIN
 70
     0
  9
$DIMDSEP
 70
    46
  9
$DIMATFIT
 70
     3
  9
$DIMFRAC
 70
     0
  9
$DIMLDRBLK
  1

  9
$DIMLUNIT
 70
     2
  9
$DIMLWD
 70
    -2
  9
$DIMLWE
 70
    -2
  9
$DIMTMOVE
 70
     0
  9
$LUNITS
 70
     2
  9
$LUPREC
 70
     4
  9
$SKETCHINC
 40
0.1
  9
$FILLETRAD
 40
0.5
  9
$AUNITS
 70
     0
  9
$AUPREC
 70
     0
  9
$MENU
  1
.
  9
$ELEVATION
 40
0.0
  9
$PELEVATION
 40
0.0
  9
$THICKNESS
 40
0.0
  9
$LIMCHECK
 70
     0
  9
$CHAMFERA
 40
0.5
  9
$CHAMFERB
 40
0.5
  9
$CHAMFERC
 40
1.0
  9
$CHAMFERD
 40
0.0
  9
$SKPOLY
 70
     0
  9
$TDCREATE
 40
2457940.494103264
  9
$TDUCREATE
 40
2457940.410769931
  9
$TDUPDATE
 40
2457940.494103287
  9
$TDUUPDATE
 40
2457940.410769954
  9
$TDINDWG
 40
0.0000000116
  9
$TDUSRTIMER
 40
0.0000000116
  9
$USRTIMER
 70
     1
  9
$ANGBASE
 50
0.0
  9
$ANGDIR
 70
     0
  9
$PDMODE
 70
     0
  9
$PDSIZE
 40
0.0
  9
$PLINEWID
 40
0.0
  9
$SPLFRAME
 70
     0
  9
$SPLINETYPE
 70
     6
  9
$SPLINESEGS
 70
     8
  9
$HANDSEED
  5
E8
  9
$SURFTAB1
 70
     6
  9
$SURFTAB2
 70
     6
  9
$SURFTYPE
 70
     6
  9
$SURFU
 70
     6
  9
$SURFV
 70
     6
  9
$UCSBASE
  2

  9
$UCSNAME
  2

  9
$UCSORG
 10
0.0
 20
0.0
 30
0.0
  9
$UCSXDIR
 10
1.0
 20
0.0
 30
0.0
  9
$UCSYDIR
 10
0.0
 20
1.0
 30
0.0
  9
$UCSORTHOREF
  2

  9
$UCSORTHOVIEW
 70
     0
  9
$UCSORGTOP
 10
0.0
 20
0.0
 30
0.0
  9
$UCSORGBOTTOM
 10
0.0
 20
0.0
 30
0.0
  9
$UCSORGLEFT
 10
0.0
 20
0.0
 30
0.0
  9
$UCSORGRIGHT
 10
0.0
 20
0.0
 30
0.0
  9
$UCSORGFRONT
 10
0.0
 20
0.0
 30
0.0
  9
$UCSORGBACK
 10
0.0
 20
0.0
 30
0.0
  9
$PUCSBASE
  2

  9
$PUCSNAME
  2

  9
$PUCSORG
 10
0.0
 20
0.0
 30
0.0
  9
$PUCSXDIR
 10
1.0
 20
0.0
 30
0.0
  9
$PUCSYDIR
 10
0.0
 20
1.0
 30
0.0
  9
$PUCSORTHOREF
  2

  9
$PUCSORTHOVIEW
 70
     0
  9
$PUCSORGTOP
 10
0.0
 20
0.0
 30
0.0
  9
$PUCSORGBOTTOM
 10
0.0
 20
0.0
 30
0.0
  9
$PUCSORGLEFT
 10
0.0
 20
0.0
 30
0.0
  9
$PUCSORGRIGHT
 10
0.0
 20
0.0
 30
0.0
  9
$PUCSORGFRONT
 10
0.0
 20
0.0
 30
0.0
  9
$PUCSORGBACK
 10
0.0
 20
0.0
 30
0.0
  9
$USERI1
 70
     0
  9
$USERI2
 70
     0
  9
$USERI3
 70
     0
  9
$USERI4
 70
     0
  9
$USERI5
 70
     0
  9
$USERR1
 40
0.0
  9
$USERR2
 40
0.0
  9
$USERR3
 40
0.0
  9
$USERR4
 40
0.0
  9
$USERR5
 40
0.0
  9
$WORLDVIEW
 70
     1
  9
$SHADEDGE
 70
     3
  9
$SHADEDIF
 70
    70
  9
$TILEMODE
 70
     1
  9
$MAXACTVP
 70
    64
  9
$PINSBASE
 10
0.0
 20
0.0
 30
0.0
  9
$PLIMCHECK
 70
     0
  9
$PEXTMIN
 10
1.000000000000000E+20
 20
1.000000000000000E+20
 30
1.000000000000000E+20
  9
$PEXTMAX
 10
-1.000000000000000E+20
 20
-1.000000000000000E+20
 30
-1.000000000000000E+20
  9
$PLIMMIN
 10
0.0
 20
0.0
  9
$PLIMMAX
 10
12.0
 20
9.0
  9
$UNITMODE
 70
     0
  9
$VISRETAIN
 70
     1
  9
$PLINEGEN
 70
     0
  9
$PSLTSCALE
 70
     1
  9
$TREEDEPTH
 70
  3020
  9
$CMLSTYLE
  2
Standard
  9
$CMLJUST
 70
     0
  9
$CMLSCALE
 40
1.0
  9
$PROXYGRAPHICS
 70
     1
  9
$MEASUREMENT
 70
     0
  9
$CELWEIGHT
370
    -1
  9
$ENDCAPS
280
     0
  9
$JOINSTYLE
280
     0
  9
$LWDISPLAY
290
     1
  9
$INSUNITS
 70
     1
  9
$HYPERLINKBASE
  1

  9
$STYLESHEET
  1

  9
$XEDIT
290
     1
  9
$CEPSNTYPE
380
     0
  9
$PSTYLEMODE
290
     1
  9
$FINGERPRINTGUID
  2
{08265FF0-B6ED-4AA2-A3D9-01EDBE8828B3}
  9
$VERSIONGUID
  2
{FAEB1C32-E019-11D5-929B-00C0DF256EC4}
  9
$EXTNAMES
290
     1
  9
$PSVPSCALE
 40
0.0
  9
$OLESTARTUP
290
     0
  9
$SORTENTS
280
   127
  9
$INDEXCTL
280
     0
  9
$HIDETEXT
280
     1
  9
$XCLIPFRAME
290
     0
  9
$HALOGAP
280
     0
  9
$OBSCOLOR
 70
   257
  9
$OBSLTYPE
280
     0
  9
$INTERSECTIONDISPLAY
280
     0
  9
$INTERSECTIONCOLOR
 70
   257
  9
$DIMASSOC
280
     2
  9
$PROJECTNAME
  1

  0
ENDSEC
  0
SECTION
  2
CLASSES
  0
CLASS
  1
ACDBDICTIONARYWDFLT
  2
AcDbDictionaryWithDefault
  3
ObjectDBX Classes
 90
        0
 91
        4
280
     0
281
     0
  0
CLASS
  1
VISUALSTYLE
  2
AcDbVisualStyle
  3
ObjectDBX Classes
 90
     4095
 91
        4
280
     0
281
     0
  0
CLASS
  1
MATERIAL
  2
AcDbMaterial
  3
ObjectDBX Classes
 90
     1153
 91
        4
280
     0
281
     0
  0
CLASS
  1
SUN
  2
AcDbSun
  3
SCENEOE
 90
     1024
 91
        4
280
     0
281
     0
  0
ENDSEC
  0
SECTION
  2
TABLES
  0
TABLE
  2
VPORT
  5
8
330
0
100
AcDbSymbolTable
 70
     1
  0
VPORT
  5
29
330
8
100
AcDbSymbolTableRecord
100
AcDbViewportTableRecord
  2
*Active
 70
     0
 10
0.0
 20
0.0
 11
1.0
 21
1.0
 12
0.0
 22
0.0
 13
0.0
 23
0.0
 14
0.5
 24
0.5
 15
0.5
 25
0.5
 16
0.0
 26
0.0
 36
1.0
 17
107.9499999730125
 27
139.6999999650752
 37
0.0
 40
419.9999998949999
 41
0.7071428571428571
 42
50.0
 43
0.0
 44
0.0
 50
0.0
 51
0.0
 71
     0
 72
   100
 73
     1
 74
     3
 75
     0
 76
     0
 77
     0
 78
     0
281
     0
 65
     1
110
0.0
120
0.0
130
0.0
111
1.0
121
0.0
131
0.0
112
0.0
122
1.0
132
0.0
 79
     0
146
0.0
  0
ENDTAB
  0
TABLE
  2
LTYPE
  5
5
330
0
100
AcDbSymbolTable
 70
     1
  0
LTYPE
  5
14
330
5
100
AcDbSymbolTableRecord
100
AcDbLinetypeTableRecord
  2
ByBlock
 70
     0
  3

 72
    65
 73
     0
 40
0.0
  0
LTYPE
  5
15
330
5
100
AcDbSymbolTableRecord
100
AcDbLinetypeTableRecord
  2
ByLayer
 70
     0
  3

 72
    65
 73
     0
 40
0.0
  0
LTYPE
  5
16
330
5
100
AcDbSymbolTableRecord
100
AcDbLinetypeTableRecord
  2
Continuous
 70
     0
  3
Solid line
 72
    65
 73
     0
 40
0.0
  0
ENDTAB
  0
TABLE
  2
LAYER
  5
2
330
0
100
AcDbSymbolTable
 70
     4
  0
LAYER
  5
10
330
2
100
AcDbSymbolTableRecord
100
AcDbLayerTableRecord
  2
0
 70
     0
 62
     7
  6
Continuous
370
    -3
390
F
  0
LAYER
  5
40
330
2
100
AcDbSymbolTableRecord
100
AcDbLayerTableRecord
  2
cut
 70
     0
 62
     7
  6
Continuous
370
    -3
390
F
  0
LAYER
  5
BE
330
2
100
AcDbSymbolTableRecord
100
AcDbLayerTableRecord
  2
engr1
 70
     0
 62
     7
  6
Continuous
370
    -3
390
F
  0
LAYER
  5
BF
330
2
100
AcDbSymbolTableRecord
100
AcDbLayerTableRecord
  2
eng 2
 70
     0
 62
     7
  6
Continuous
370
    -3
390
F
  0
ENDTAB
  0
TABLE
  2
STYLE
  5
3
330
0
100
AcDbSymbolTable
 70
     1
  0
STYLE
  5
11
330
3
100
AcDbSymbolTableRecord
100
AcDbTextStyleTableRecord
  2
Standard
 70
     0
 40
0.0
 41
1.0
 50
0.0
 71
     0
 42
0.2
  3
txt
  4

  0
ENDTAB
  0
TABLE
  2
VIEW
  5
6
330
0
100
AcDbSymbolTable
 70
     0
  0
ENDTAB
  0
TABLE
  2
UCS
  5
7
330
0
100
AcDbSymbolTable
 70
     0
  0
ENDTAB
  0
TABLE
  2
APPID
  5
9
330
0
100
AcDbSymbolTable
 70
     1
  0
APPID
  5
12
330
9
100
AcDbSymbolTableRecord
100
AcDbRegAppTableRecord
  2
ACAD
 70
     0
  0
ENDTAB
  0
TABLE
  2
DIMSTYLE
  5
A
330
0
100
AcDbSymbolTable
 70
     1
100
AcDbDimStyleTable
  0
DIMSTYLE
105
27
330
A
100
AcDbSymbolTableRecord
100
AcDbDimStyleTableRecord
  2
Standard
 70
     0
178
     0
340
11
  0
ENDTAB
  0
TABLE
  2
BLOCK_RECORD
  5
1
330
0
100
AcDbSymbolTable
 70
     5
  0
BLOCK_RECORD
  5
1F
330
1
100
AcDbSymbolTableRecord
100
AcDbBlockTableRecord
  2
*Model_Space
340
22
  0
BLOCK_RECORD
  5
1B
330
1
100
AcDbSymbolTableRecord
100
AcDbBlockTableRecord
  2
*Paper_Space
340
1E
  0
BLOCK_RECORD
  5
23
330
1
100
AcDbSymbolTableRecord
100
AcDbBlockTableRecord
  2
*Paper_Space0
340
26
  0
BLOCK_RECORD
  5
41
330
1
100
AcDbSymbolTableRecord
100
AcDbBlockTableRecord
  2
block 2
340
0
102
{BLKREFS
331
42
102
}
  0
BLOCK_RECORD
  5
59
330
1
100
AcDbSymbolTableRecord
100
AcDbBlockTableRecord
  2
block 3
340
0
102
{BLKREFS
331
5A
102
}
  0
BLOCK_RECORD
  5
71
330
1
100
AcDbSymbolTableRecord
100
AcDbBlockTableRecord
  2
block 4
340
0
102
{BLKREFS
331
72
102
}
  0
BLOCK_RECORD
  5
89
330
1
100
AcDbSymbolTableRecord
100
AcDbBlockTableRecord
  2
block 5
340
0
102
{BLKREFS
331
8A
102
}
  0
ENDTAB
  0
ENDSEC
  0
SECTION
  2
BLOCKS
  0
BLOCK
  5
20
330
1F
100
AcDbEntity
  8
0
100
AcDbBlockBegin
  2
*Model_Space
 70
     0
 10
0.0
 20
0.0
 30
0.0
  3
*Model_Space
  1

  0
ENDBLK
  5
21
330
1F
100
AcDbEntity
  8
0
100
AcDbBlockEnd
  0
BLOCK
  5
1C
330
1B
100
AcDbEntity
 67
     1
  8
0
100
AcDbBlockBegin
  2
*Paper_Space
 70
     0
 10
0.0
 20
0.0
 30
0.0
  3
*Paper_Space
  1

  0
ENDBLK
  5
1D
330
1B
100
AcDbEntity
 67
     1
  8
0
100
AcDbBlockEnd
  0
BLOCK
  5
24
330
23
100
AcDbEntity
  8
0
100
AcDbBlockBegin
  2
*Paper_Space0
 70
     0
 10
0.0
 20
0.0
 30
0.0
  3
*Paper_Space0
  1

  0
ENDBLK
  5
25
330
23
100
AcDbEntity
  8
0
100
AcDbBlockEnd
  0
BLOCK
  5
43
330
41
100
AcDbEntity
  8
0
100
AcDbBlockBegin
  2
block 2
 70
     0
 10
0.0
 20
0.0
 30
0.0
  3
block 2
  1

  0
POLYLINE
  5
45
330
41
100
AcDbEntity
  8
cut
 62
     7
370
   211
100
AcDb2dPolyline
 66
     1
 10
0.0
 20
0.0
 30
0.0
  0
VERTEX
  5
46
330
45
100
AcDbEntity
  8
cut
 62
     7
370
   211
100
AcDbVertex
100
AcDb2dVertex
 10
-283.6934605642432
 20
384.3988618019302
 30
0.0
  0
VERTEX
  5
47
330
45
100
AcDbEntity
  8
cut
 62
     7
370
   211
100
AcDbVertex
100
AcDb2dVertex
 10
-255.4971687022185
 20
384.3988618019302
 30
0.0
  0
VERTEX
  5
48
330
45
100
AcDbEntity
  8
cut
 62
     7
370
   211
100
AcDbVertex
100
AcDb2dVertex
 10
-255.4971687022185
 20
160.3150855665941
 30
0.0
  0
VERTEX
  5
49
330
45
100
AcDbEntity
  8
cut
 62
     7
370
   211
100
AcDbVertex
100
AcDb2dVertex
 10
-255.4195980620876
 20
160.4231758028308
 30
0.0
  0
VERTEX
  5
4A
330
45
100
AcDbEntity
  8
cut
 62
     7
370
   211
100
AcDbVertex
100
AcDb2dVertex
 10
-255.4195980620876
 20
154.4985592067444
 30
0.0
  0
VERTEX
  5
4B
330
45
100
AcDbEntity
  8
cut
 62
     7
370
   211
100
AcDbVertex
100
AcDb2dVertex
 10
-234.7463866427472
 20
183.2937981425466
 30
0.0
  0
VERTEX
  5
4C
330
45
100
AcDbEntity
  8
cut
 62
     7
370
   211
100
AcDbVertex
100
AcDb2dVertex
 10
-203.9622873600318
 20
227.0678005223052
 30
0.0
  0
VERTEX
  5
4D
330
45
100
AcDbEntity
  8
cut
 62
     7
370
   211
100
AcDbVertex
100
AcDb2dVertex
 10
-203.8707285716994
 20
261.2904409674777
 30
0.0
  0
VERTEX
  5
4E
330
45
100
AcDbEntity
  8
cut
 62
     7
370
   211
100
AcDbVertex
100
AcDb2dVertex
 10
-232.1623941715701
 20
222.2952986796173
 30
0.0
  0
VERTEX
  5
4F
330
45
100
AcDbEntity
  8
cut
 62
     7
370
   211
100
AcDbVertex
100
AcDb2dVertex
 10
-232.1623941715701
 20
384.3988618019302
 30
0.0
  0
VERTEX
  5
50
330
45
100
AcDbEntity
  8
cut
 62
     7
370
   211
100
AcDbVertex
100
AcDb2dVertex
 10
-203.8707285716994
 20
384.3988618019302
 30
0.0
  0
VERTEX
  5
51
330
45
100
AcDbEntity
  8
cut
 62
     7
370
   211
100
AcDbVertex
100
AcDb2dVertex
 10
-203.8707285716994
 20
404.4413349015294
 30
0.0
  0
VERTEX
  5
52
330
45
100
AcDbEntity
  8
cut
 62
     7
370
   211
100
AcDbVertex
100
AcDb2dVertex
 10
-232.1623941715701
 20
404.4413349015294
 30
0.0
  0
VERTEX
  5
53
330
45
100
AcDbEntity
  8
cut
 62
     7
370
   211
100
AcDbVertex
100
AcDb2dVertex
 10
-232.1623941715701
 20
404.498559144244
 30
0.0
  0
VERTEX
  5
54
330
45
100
AcDbEntity
  8
cut
 62
     7
370
   211
100
AcDbVertex
100
AcDb2dVertex
 10
-255.4971687022185
 20
404.498559144244
 30
0.0
  0
VERTEX
  5
55
330
45
100
AcDbEntity
  8
cut
 62
     7
370
   211
100
AcDbVertex
100
AcDb2dVertex
 10
-255.4971687022185
 20
404.4413349015294
 30
0.0
  0
VERTEX
  5
56
330
45
100
AcDbEntity
  8
cut
 62
     7
370
   211
100
AcDbVertex
100
AcDb2dVertex
 10
-283.6934605642432
 20
404.4413349015294
 30
0.0
  0
VERTEX
  5
57
330
45
100
AcDbEntity
  8
cut
 62
     7
370
   211
100
AcDbVertex
100
AcDb2dVertex
 10
-283.6934605642432
 20
384.3988618019302
 30
0.0
  0
SEQEND
  5
58
330
45
100
AcDbEntity
  8
cut
 62
     7
370
   211
  0
ENDBLK
  5
44
330
41
100
AcDbEntity
  8
0
100
AcDbBlockEnd
  0
BLOCK
  5
5B
330
59
100
AcDbEntity
  8
0
100
AcDbBlockBegin
  2
block 3
 70
     0
 10
0.0
 20
0.0
 30
0.0
  3
block 3
  1

  0
POLYLINE
  5
5D
330
59
100
AcDbEntity
  8
cut
 62
     7
370
   211
100
AcDb2dPolyline
 66
     1
 10
0.0
 20
0.0
 30
0.0
  0
VERTEX
  5
5E
330
5D
100
AcDbEntity
  8
cut
 62
     7
370
   211
100
AcDbVertex
100
AcDb2dVertex
 10
-174.2960880909693
 20
-7.809306553509719
 30
0.0
  0
VERTEX
  5
5F
330
5D
100
AcDbEntity
  8
cut
 62
     7
370
   211
100
AcDbVertex
100
AcDb2dVertex
 10
-202.492379952994
 20
-7.809306553509719
 30
0.0
  0
VERTEX
  5
60
330
5D
100
AcDbEntity
  8
cut
 62
     7
370
   211
100
AcDbVertex
100
AcDb2dVertex
 10
-202.492379952994
 20
216.2744696818264
 30
0.0
  0
VERTEX
  5
61
330
5D
100
AcDbEntity
  8
cut
 62
     7
370
   211
100
AcDbVertex
100
AcDb2dVertex
 10
-202.5699505931249
 20
216.1663794455894
 30
0.0
  0
VERTEX
  5
62
330
5D
100
AcDbEntity
  8
cut
 62
     7
370
   211
100
AcDbVertex
100
AcDb2dVertex
 10
-202.5699505931249
 20
222.0909960416758
 30
0.0
  0
VERTEX
  5
63
330
5D
100
AcDbEntity
  8
cut
 62
     7
370
   211
100
AcDbVertex
100
AcDb2dVertex
 10
-223.2431620124653
 20
193.2957571058736
 30
0.0
  0
VERTEX
  5
64
330
5D
100
AcDbEntity
  8
cut
 62
     7
370
   211
100
AcDbVertex
100
AcDb2dVertex
 10
-254.0272612951807
 20
149.5217547261149
 30
0.0
  0
VERTEX
  5
65
330
5D
100
AcDbEntity
  8
cut
 62
     7
370
   211
100
AcDbVertex
100
AcDb2dVertex
 10
-254.1188200835131
 20
115.2991142809425
 30
0.0
  0
VERTEX
  5
66
330
5D
100
AcDbEntity
  8
cut
 62
     7
370
   211
100
AcDbVertex
100
AcDb2dVertex
 10
-225.8271544836424
 20
154.2942565688029
 30
0.0
  0
VERTEX
  5
67
330
5D
100
AcDbEntity
  8
cut
 62
     7
370
   211
100
AcDbVertex
100
AcDb2dVertex
 10
-225.8271544836424
 20
-7.809306553509719
 30
0.0
  0
VERTEX
  5
68
330
5D
100
AcDbEntity
  8
cut
 62
     7
370
   211
100
AcDbVertex
100
AcDb2dVertex
 10
-254.1188200835131
 20
-7.809306553509719
 30
0.0
  0
VERTEX
  5
69
330
5D
100
AcDbEntity
  8
cut
 62
     7
370
   211
100
AcDbVertex
100
AcDb2dVertex
 10
-254.1188200835131
 20
-27.85177965310855
 30
0.0
  0
VERTEX
  5
6A
330
5D
100
AcDbEntity
  8
cut
 62
     7
370
   211
100
AcDbVertex
100
AcDb2dVertex
 10
-225.8271544836424
 20
-27.85177965310855
 30
0.0
  0
VERTEX
  5
6B
330
5D
100
AcDbEntity
  8
cut
 62
     7
370
   211
100
AcDbVertex
100
AcDb2dVertex
 10
-225.8271544836424
 20
-27.90900389582512
 30
0.0
  0
VERTEX
  5
6C
330
5D
100
AcDbEntity
  8
cut
 62
     7
370
   211
100
AcDbVertex
100
AcDb2dVertex
 10
-202.492379952994
 20
-27.90900389582512
 30
0.0
  0
VERTEX
  5
6D
330
5D
100
AcDbEntity
  8
cut
 62
     7
370
   211
100
AcDbVertex
100
AcDb2dVertex
 10
-202.492379952994
 20
-27.85177965310855
 30
0.0
  0
VERTEX
  5
6E
330
5D
100
AcDbEntity
  8
cut
 62
     7
370
   211
100
AcDbVertex
100
AcDb2dVertex
 10
-174.2960880909693
 20
-27.85177965310855
 30
0.0
  0
VERTEX
  5
6F
330
5D
100
AcDbEntity
  8
cut
 62
     7
370
   211
100
AcDbVertex
100
AcDb2dVertex
 10
-174.2960880909693
 20
-7.809306553509719
 30
0.0
  0
SEQEND
  5
70
330
5D
100
AcDbEntity
  8
cut
 62
     7
370
   211
  0
ENDBLK
  5
5C
330
59
100
AcDbEntity
  8
0
100
AcDbBlockEnd
  0
BLOCK
  5
73
330
71
100
AcDbEntity
  8
0
100
AcDbBlockBegin
  2
block 4
 70
     0
 10
0.0
 20
0.0
 30
0.0
  3
block 4
  1

  0
POLYLINE
  5
75
330
71
100
AcDbEntity
  8
cut
 62
     7
370
   211
100
AcDb2dPolyline
 66
     1
 10
0.0
 20
0.0
 30
0.0
  0
VERTEX
  5
76
330
75
100
AcDbEntity
  8
cut
 62
     7
370
   211
100
AcDbVertex
100
AcDb2dVertex
 10
-235.1028654344969
 20
-42.43088402543748
 30
0.0
  0
VERTEX
  5
77
330
75
100
AcDbEntity
  8
cut
 62
     7
370
   211
100
AcDbVertex
100
AcDb2dVertex
 10
-263.2991572965216
 20
-42.43088402543748
 30
0.0
  0
VERTEX
  5
78
330
75
100
AcDbEntity
  8
cut
 62
     7
370
   211
100
AcDbVertex
100
AcDb2dVertex
 10
-263.2991572965216
 20
181.6528922099012
 30
0.0
  0
VERTEX
  5
79
330
75
100
AcDbEntity
  8
cut
 62
     7
370
   211
100
AcDbVertex
100
AcDb2dVertex
 10
-263.3767279366525
 20
181.5448019736655
 30
0.0
  0
VERTEX
  5
7A
330
75
100
AcDbEntity
  8
cut
 62
     7
370
   211
100
AcDbVertex
100
AcDb2dVertex
 10
-263.3767279366525
 20
187.4694185697506
 30
0.0
  0
VERTEX
  5
7B
330
75
100
AcDbEntity
  8
cut
 62
     7
370
   211
100
AcDbVertex
100
AcDb2dVertex
 10
-284.0499393559928
 20
158.6741796339497
 30
0.0
  0
VERTEX
  5
7C
330
75
100
AcDbEntity
  8
cut
 62
     7
370
   211
100
AcDbVertex
100
AcDb2dVertex
 10
-314.8340386387083
 20
114.9001772541898
 30
0.0
  0
VERTEX
  5
7D
330
75
100
AcDbEntity
  8
cut
 62
     7
370
   211
100
AcDbVertex
100
AcDb2dVertex
 10
-314.9255974270407
 20
80.6775368090173
 30
0.0
  0
VERTEX
  5
7E
330
75
100
AcDbEntity
  8
cut
 62
     7
370
   211
100
AcDbVertex
100
AcDb2dVertex
 10
-286.63393182717
 20
119.672679096879
 30
0.0
  0
VERTEX
  5
7F
330
75
100
AcDbEntity
  8
cut
 62
     7
370
   211
100
AcDbVertex
100
AcDb2dVertex
 10
-286.63393182717
 20
-42.43088402543748
 30
0.0
  0
VERTEX
  5
80
330
75
100
AcDbEntity
  8
cut
 62
     7
370
   211
100
AcDbVertex
100
AcDb2dVertex
 10
-314.9255974270407
 20
-42.43088402543748
 30
0.0
  0
VERTEX
  5
81
330
75
100
AcDbEntity
  8
cut
 62
     7
370
   211
100
AcDbVertex
100
AcDb2dVertex
 10
-314.9255974270407
 20
-62.47335712502989
 30
0.0
  0
VERTEX
  5
82
330
75
100
AcDbEntity
  8
cut
 62
     7
370
   211
100
AcDbVertex
100
AcDb2dVertex
 10
-286.63393182717
 20
-62.47335712502989
 30
0.0
  0
VERTEX
  5
83
330
75
100
AcDbEntity
  8
cut
 62
     7
370
   211
100
AcDbVertex
100
AcDb2dVertex
 10
-286.63393182717
 20
-62.53058136775288
 30
0.0
  0
VERTEX
  5
84
330
75
100
AcDbEntity
  8
cut
 62
     7
370
   211
100
AcDbVertex
100
AcDb2dVertex
 10
-263.2991572965216
 20
-62.53058136775288
 30
0.0
  0
VERTEX
  5
85
330
75
100
AcDbEntity
  8
cut
 62
     7
370
   211
100
AcDbVertex
100
AcDb2dVertex
 10
-263.2991572965216
 20
-62.47335712502989
 30
0.0
  0
VERTEX
  5
86
330
75
100
AcDbEntity
  8
cut
 62
     7
370
   211
100
AcDbVertex
100
AcDb2dVertex
 10
-235.1028654344969
 20
-62.47335712502989
 30
0.0
  0
VERTEX
  5
87
330
75
100
AcDbEntity
  8
cut
 62
     7
370
   211
100
AcDbVertex
100
AcDb2dVertex
 10
-235.1028654344969
 20
-42.43088402543748
 30
0.0
  0
SEQEND
  5
88
330
75
100
AcDbEntity
  8
cut
 62
     7
370
   211
  0
ENDBLK
  5
74
330
71
100
AcDbEntity
  8
0
100
AcDbBlockEnd
  0
BLOCK
  5
8B
330
89
100
AcDbEntity
  8
0
100
AcDbBlockBegin
  2
block 5
 70
     0
 10
0.0
 20
0.0
 30
0.0
  3
block 5
  1

  0
POLYLINE
  5
8D
330
89
100
AcDbEntity
  8
cut
 62
     7
370
   211
100
AcDb2dPolyline
 66
     1
 10
0.0
 20
0.0
 30
0.0
  0
VERTEX
  5
8E
330
8D
100
AcDbEntity
  8
cut
 62
     7
370
   211
100
AcDbVertex
100
AcDb2dVertex
 10
-290.1026763620832
 20
-85.0227951818965
 30
0.0
  0
VERTEX
  5
8F
330
8D
100
AcDbEntity
  8
cut
 62
     7
370
   211
100
AcDbVertex
100
AcDb2dVertex
 10
-318.2989682241079
 20
-85.0227951818965
 30
0.0
  0
VERTEX
  5
90
330
8D
100
AcDbEntity
  8
cut
 62
     7
370
   211
100
AcDbVertex
100
AcDb2dVertex
 10
-318.2989682241079
 20
139.0609810534422
 30
0.0
  0
VERTEX
  5
91
330
8D
100
AcDbEntity
  8
cut
 62
     7
370
   211
100
AcDbVertex
100
AcDb2dVertex
 10
-318.3765388642388
 20
138.9528908172052
 30
0.0
  0
VERTEX
  5
92
330
8D
100
AcDbEntity
  8
cut
 62
     7
370
   211
100
AcDbVertex
100
AcDb2dVertex
 10
-318.3765388642388
 20
144.8775074132916
 30
0.0
  0
VERTEX
  5
93
330
8D
100
AcDbEntity
  8
cut
 62
     7
370
   211
100
AcDbVertex
100
AcDb2dVertex
 10
-339.0497502835727
 20
116.0822684774894
 30
0.0
  0
VERTEX
  5
94
330
8D
100
AcDbEntity
  8
cut
 62
     7
370
   211
100
AcDbVertex
100
AcDb2dVertex
 10
-369.8338495662952
 20
72.30826609773075
 30
0.0
  0
VERTEX
  5
95
330
8D
100
AcDbEntity
  8
cut
 62
     7
370
   211
100
AcDbVertex
100
AcDb2dVertex
 10
-369.9254083546359
 20
38.08562565255829
 30
0.0
  0
VERTEX
  5
96
330
8D
100
AcDbEntity
  8
cut
 62
     7
370
   211
100
AcDbVertex
100
AcDb2dVertex
 10
-341.6337427547563
 20
77.08076794041871
 30
0.0
  0
VERTEX
  5
97
330
8D
100
AcDbEntity
  8
cut
 62
     7
370
   211
100
AcDbVertex
100
AcDb2dVertex
 10
-341.6337427547563
 20
-85.0227951818965
 30
0.0
  0
VERTEX
  5
98
330
8D
100
AcDbEntity
  8
cut
 62
     7
370
   211
100
AcDbVertex
100
AcDb2dVertex
 10
-369.9254083546359
 20
-85.0227951818965
 30
0.0
  0
VERTEX
  5
99
330
8D
100
AcDbEntity
  8
cut
 62
     7
370
   211
100
AcDbVertex
100
AcDb2dVertex
 10
-369.9254083546359
 20
-105.0652682814889
 30
0.0
  0
VERTEX
  5
9A
330
8D
100
AcDbEntity
  8
cut
 62
     7
370
   211
100
AcDbVertex
100
AcDb2dVertex
 10
-341.6337427547563
 20
-105.0652682814889
 30
0.0
  0
VERTEX
  5
9B
330
8D
100
AcDbEntity
  8
cut
 62
     7
370
   211
100
AcDbVertex
100
AcDb2dVertex
 10
-341.6337427547563
 20
-105.1224925242119
 30
0.0
  0
VERTEX
  5
9C
330
8D
100
AcDbEntity
  8
cut
 62
     7
370
   211
100
AcDbVertex
100
AcDb2dVertex
 10
-318.2989682241079
 20
-105.1224925242119
 30
0.0
  0
VERTEX
  5
9D
330
8D
100
AcDbEntity
  8
cut
 62
     7
370
   211
100
AcDbVertex
100
AcDb2dVertex
 10
-318.2989682241079
 20
-105.0652682814889
 30
0.0
  0
VERTEX
  5
9E
330
8D
100
AcDbEntity
  8
cut
 62
     7
370
   211
100
AcDbVertex
100
AcDb2dVertex
 10
-290.1026763620832
 20
-105.0652682814889
 30
0.0
  0
VERTEX
  5
9F
330
8D
100
AcDbEntity
  8
cut
 62
     7
370
   211
100
AcDbVertex
100
AcDb2dVertex
 10
-290.1026763620832
 20
-85.0227951818965
 30
0.0
  0
SEQEND
  5
A0
330
8D
100
AcDbEntity
  8
cut
 62
     7
370
   211
  0
ENDBLK
  5
8C
330
89
100
AcDbEntity
  8
0
100
AcDbBlockEnd
  0
ENDSEC
  0
SECTION
  2
ENTITIES
  0
INSERT
  5
42
330
1F
100
AcDbEntity
  8
cut
100
AcDbBlockReference
  2
block 2
 10
0.0
 20
0.0
 30
0.0
  0
INSERT
  5
5A
330
1F
100
AcDbEntity
  8
cut
100
AcDbBlockReference
  2
block 3
 10
0.0
 20
0.0
 30
0.0
  0
INSERT
  5
72
330
1F
100
AcDbEntity
  8
cut
100
AcDbBlockReference
  2
block 4
 10
0.0
 20
0.0
 30
0.0
  0
INSERT
  5
8A
330
1F
100
AcDbEntity
  8
cut
100
AcDbBlockReference
  2
block 5
 10
0.0
 20
0.0
 30
0.0
  0
SPLINE
  5
A1
330
1F
100
AcDbEntity
  8
cut
 62
     7
370
   211
100
AcDbSpline
210
0.0
220
0.0
230
1.0
 70
    11
 71
     3
 72
    41
 73
    37
 74
     0
 42
0.0000000001
 43
0.0000000001
 12
1.0
 22
0.0
 32
0.0
 13
1.0
 23
0.0
 33
0.0
 40
0.0
 40
0.0
 40
0.0
 40
0.0
 40
1.0
 40
1.0
 40
1.0
 40
2.0
 40
2.0
 40
2.0
 40
3.0
 40
3.0
 40
3.0
 40
4.0
 40
4.0
 40
4.0
 40
5.0
 40
5.0
 40
5.0
 40
6.0
 40
6.0
 40
6.0
 40
7.0
 40
7.0
 40
7.0
 40
8.0
 40
8.0
 40
8.0
 40
9.0
 40
9.0
 40
9.0
 40
10.0
 40
10.0
 40
10.0
 40
11.0
 40
11.0
 40
11.0
 40
12.0
 40
12.0
 40
12.0
 40
12.0
 10
-727.9032287956225
 20
157.518352028779
 30
0.0
 10
-727.9032287956225
 20
157.518352028779
 30
0.0
 10
-831.9857124128571
 20
157.518352028779
 30
0.0
 10
-831.9857124128571
 20
157.518352028779
 30
0.0
 10
-831.9857124128571
 20
157.518352028779
 30
0.0
 10
-773.6450156650375
 20
290.4423117664061
 30
0.0
 10
-773.6450156650375
 20
290.4423117664061
 30
0.0
 10
-769.8077590314632
 20
298.1267532525264
 30
0.0
 10
-767.8891307146757
 20
306.7717499244125
 30
0.0
 10
-767.8891307146757
 20
316.3797838368075
 30
0.0
 10
-767.8891307146757
 20
334.6278503115988
 30
0.0
 10
-774.4690578399063
 20
350.2970619078134
 30
0.0
 10
-787.6264300356137
 20
363.3899006801898
 30
0.0
 10
-800.7862842860709
 20
376.4752932883388
 30
0.0
 10
-816.6664705354904
 20
383.0229537018994
 30
0.0
 10
-835.2520964554099
 20
383.0229537018994
 30
0.0
 10
-835.2520964554099
 20
383.0229537018994
 30
0.0
 10
-835.2520964554099
 20
407.5183519662796
 30
0.0
 10
-835.2520964554099
 20
407.5183519662796
 30
0.0
 10
-810.0344202606424
 20
407.5183519662796
 30
0.0
 10
-788.4827389221492
 20
398.6301139295233
 30
0.0
 10
-770.5896062756865
 20
380.8610840202438
 30
0.0
 10
-752.7014377387139
 20
363.0870900014745
 30
0.0
 10
-743.7536303881111
 20
341.5949779768266
 30
0.0
 10
-743.7536303881111
 20
316.3797838368075
 30
0.0
 10
-743.7536303881111
 20
303.4110478016036
 30
0.0
 10
-746.2753980075928
 20
291.4003848974251
 30
0.0
 10
-751.3164511917956
 20
280.3577233432427
 30
0.0
 10
-751.3164511917956
 20
280.3577233432427
 30
0.0
 10
-794.1914648323824
 20
182.0137502931604
 30
0.0
 10
-794.1914648323824
 20
182.0137502931604
 30
0.0
 10
-794.1914648323824
 20
182.0137502931604
 30
0.0
 10
-727.9032287956225
 20
182.0137502931604
 30
0.0
 10
-727.9032287956225
 20
182.0137502931604
 30
0.0
 10
-727.9032287956225
 20
182.0137502931604
 30
0.0
 10
-727.9032287956225
 20
157.518352028779
 30
0.0
 10
-727.9032287956225
 20
157.518352028779
 30
0.0
  0
SPLINE
  5
A2
330
1F
100
AcDbEntity
  8
cut
 62
     7
370
   211
100
AcDbSpline
210
0.0
220
0.0
230
1.0
 70
    11
 71
     3
 72
    47
 73
    43
 74
     0
 42
0.0000000001
 43
0.0000000001
 12
1.0
 22
0.0
 32
0.0
 13
1.0
 23
0.0
 33
0.0
 40
0.0
 40
0.0
 40
0.0
 40
0.0
 40
1.0
 40
1.0
 40
1.0
 40
2.0
 40
2.0
 40
2.0
 40
3.0
 40
3.0
 40
3.0
 40
4.0
 40
4.0
 40
4.0
 40
5.0
 40
5.0
 40
5.0
 40
6.0
 40
6.0
 40
6.0
 40
7.0
 40
7.0
 40
7.0
 40
8.0
 40
8.0
 40
8.0
 40
9.0
 40
9.0
 40
9.0
 40
10.0
 40
10.0
 40
10.0
 40
11.0
 40
11.0
 40
11.0
 40
12.0
 40
12.0
 40
12.0
 40
13.0
 40
13.0
 40
13.0
 40
14.0
 40
14.0
 40
14.0
 40
14.0
 10
-621.5433626198334
 20
245.0710043624513
 30
0.0
 10
-621.5433626198334
 20
219.874177193333
 30
0.0
 10
-630.3403824428682
 20
198.4762865176264
 30
0.0
 10
-647.934422088952
 20
180.8822468715453
 30
0.0
 10
-665.5309190031359
 20
163.2906644935718
 30
0.0
 10
-686.8059462734931
 20
154.4985592067444
 30
0.0
 10
-711.771790240556
 20
154.4985592067444
 30
0.0
 10
-711.771790240556
 20
154.4985592067444
 30
0.0
 10
-711.771790240556
 20
178.0367304036443
 30
0.0
 10
-711.771790240556
 20
178.0367304036443
 30
0.0
 10
-693.5609762996129
 20
178.0367304036443
 30
0.0
 10
-677.9524092839864
 20
184.5730635682519
 30
0.0
 10
-664.9460891936734
 20
197.6506444336746
 30
0.0
 10
-651.9397691033463
 20
210.7233107628861
 30
0.0
 10
-645.4378376922398
 20
226.5382882995021
 30
0.0
 10
-645.4378376922398
 20
245.0832907029889
 30
0.0
 10
-645.4378376922398
 20
261.2496575789044
 30
0.0
 10
-650.7529086076707
 20
275.6295905410323
 30
0.0
 10
-661.38550770663
 20
288.2353759299127
 30
0.0
 10
-672.0181068055996
 20
300.8337895144745
 30
0.0
 10
-685.3684444309013
 20
308.3235427045954
 30
0.0
 10
-701.429148778214
 20
310.7021782321654
 30
0.0
 10
-701.429148778214
 20
310.7021782321654
 30
0.0
 10
-670.7575282667093
 20
380.2477801963199
 30
0.0
 10
-670.7575282667093
 20
380.2477801963199
 30
0.0
 10
-670.7575282667093
 20
380.2477801963199
 30
0.0
 10
-728.5328159983643
 20
380.2477801963199
 30
0.0
 10
-728.5328159983643
 20
380.2477801963199
 30
0.0
 10
-728.5328159983643
 20
380.2477801963199
 30
0.0
 10
-728.5328159983643
 20
404.498559144244
 30
0.0
 10
-728.5328159983643
 20
404.498559144244
 30
0.0
 10
-728.5328159983643
 20
404.498559144244
 30
0.0
 10
-633.1711553021263
 20
404.498559144244
 30
0.0
 10
-633.1711553021263
 20
404.498559144244
 30
0.0
 10
-633.1711553021263
 20
404.498559144244
 30
0.0
 10
-668.5681023833816
 20
324.2343536973854
 30
0.0
 10
-668.5681023833816
 20
324.2343536973854
 30
0.0
 10
-654.080049624541
 20
316.3882966317486
 30
0.0
 10
-642.6218084416245
 20
305.3305901502753
 30
0.0
 10
-634.1909215665288
 20
291.0661487891725
 30
0.0
 10
-625.7600346914259
 20
276.8017074280714
 30
0.0
 10
-621.5433626198334
 20
261.4708117085323
 30
0.0
 10
-621.5433626198334
 20
245.0710043624513
 30
0.0
  0
SPLINE
  5
A3
330
1F
100
AcDbEntity
  8
cut
 62
     7
370
   211
100
AcDbSpline
210
0.0
220
0.0
230
1.0
 70
    11
 71
     3
 72
    32
 73
    28
 74
     0
 42
0.0000000001
 43
0.0000000001
 12
1.0
 22
0.0
 32
0.0
 13
1.0
 23
0.0
 33
0.0
 40
0.0
 40
0.0
 40
0.0
 40
0.0
 40
1.0
 40
1.0
 40
1.0
 40
2.0
 40
2.0
 40
2.0
 40
3.0
 40
3.0
 40
3.0
 40
4.0
 40
4.0
 40
4.0
 40
5.0
 40
5.0
 40
5.0
 40
6.0
 40
6.0
 40
6.0
 40
7.0
 40
7.0
 40
7.0
 40
8.0
 40
8.0
 40
8.0
 40
9.0
 40
9.0
 40
9.0
 40
9.0
 10
-347.0356097573444
 20
8.82269466009799
 30
0.0
 10
-347.0356097573444
 20
8.82269466009799
 30
0.0
 10
-383.6716892430792
 20
3.384065328876902
 30
0.0
 10
-383.6716892430792
 20
3.384065328876902
 30
0.0
 10
-383.6716892430792
 20
3.384065328876902
 30
0.0
 10
-377.0241671856822
 20
-41.3954428239627
 30
0.0
 10
-377.0241671856822
 20
-41.3954428239627
 30
0.0
 10
-377.0241671856822
 20
-41.3954428239627
 30
0.0
 10
-399.7528412267239
 20
-44.76951655222759
 30
0.0
 10
-399.7528412267239
 20
-44.76951655222759
 30
0.0
 10
-399.7528412267239
 20
-44.76951655222759
 30
0.0
 10
-406.4003632841136
 20
0.0099916006120042
 30
0.0
 10
-406.4003632841136
 20
0.0099916006120042
 30
0.0
 10
-406.4003632841136
 20
0.0099916006120042
 30
0.0
 10
-516.3132764994399
 20
-16.30659036132531
 30
0.0
 10
-516.3132764994399
 20
-16.30659036132531
 30
0.0
 10
-482.1818504095152
 20
57.40255638899615
 30
0.0
 10
-447.9908802030379
 20
131.4669313582775
 30
0.0
 10
-413.7343946952318
 20
205.8945876361162
 30
0.0
 10
-413.7343946952318
 20
205.8945876361162
 30
0.0
 10
-387.0960756709073
 20
26.45165933453668
 30
0.0
 10
-387.0960756709073
 20
26.45165933453668
 30
0.0
 10
-387.0960756709073
 20
26.45165933453668
 30
0.0
 10
-350.4599961851766
 20
31.89028866575905
 30
0.0
 10
-350.4599961851766
 20
31.89028866575905
 30
0.0
 10
-350.4599961851766
 20
31.89028866575905
 30
0.0
 10
-347.0356097573444
 20
8.82269466009799
 30
0.0
 10
-347.0356097573444
 20
8.82269466009799
 30
0.0
  0
POLYLINE
  5
A4
330
1F
100
AcDbEntity
  8
cut
 62
     7
370
   211
100
AcDb2dPolyline
 66
     1
 10
0.0
 20
0.0
 30
0.0
  0
VERTEX
  5
A5
330
A4
100
AcDbEntity
  8
cut
 62
     7
370
   211
100
AcDbVertex
100
AcDb2dVertex
 10
-409.824749711949
 20
23.07758560627307
 30
0.0
  0
VERTEX
  5
A6
330
A4
100
AcDbEntity
  8
cut
 62
     7
370
   211
100
AcDbVertex
100
AcDb2dVertex
 10
-425.8876862712298
 20
131.2818747241034
 30
0.0
  0
VERTEX
  5
A7
330
A4
100
AcDbEntity
  8
cut
 62
     7
370
   211
100
AcDbVertex
100
AcDb2dVertex
 10
-480.6987577613394
 20
12.55633266628821
 30
0.0
  0
VERTEX
  5
A8
330
A4
100
AcDbEntity
  8
cut
 62
     7
370
   211
100
AcDbVertex
100
AcDb2dVertex
 10
-409.824749711949
 20
23.07758560627307
 30
0.0
  0
SEQEND
  5
A9
330
A4
100
AcDbEntity
  8
cut
 62
     7
370
   211
  0
SPLINE
  5
AA
330
1F
100
AcDbEntity
  8
cut
 62
     7
370
   211
100
AcDbSpline
210
0.0
220
0.0
230
1.0
 70
    11
 71
     3
 72
    47
 73
    43
 74
     0
 42
0.0000000001
 43
0.0000000001
 12
1.0
 22
0.0
 32
0.0
 13
1.0
 23
0.0
 33
0.0
 40
0.0
 40
0.0
 40
0.0
 40
0.0
 40
1.0
 40
1.0
 40
1.0
 40
2.0
 40
2.0
 40
2.0
 40
3.0
 40
3.0
 40
3.0
 40
4.0
 40
4.0
 40
4.0
 40
5.0
 40
5.0
 40
5.0
 40
6.0
 40
6.0
 40
6.0
 40
7.0
 40
7.0
 40
7.0
 40
8.0
 40
8.0
 40
8.0
 40
9.0
 40
9.0
 40
9.0
 40
10.0
 40
10.0
 40
10.0
 40
11.0
 40
11.0
 40
11.0
 40
12.0
 40
12.0
 40
12.0
 40
13.0
 40
13.0
 40
13.0
 40
14.0
 40
14.0
 40
14.0
 40
14.0
 10
-569.0743219595272
 20
-118.4986499282731
 30
0.0
 10
-594.2785209329742
 20
-118.4986499282731
 30
0.0
 10
-615.6764116086791
 20
-109.6328265982497
 30
0.0
 10
-633.2679939866524
 20
-91.92083808303208
 30
0.0
 10
-650.8669481689469
 20
-74.20884956781579
 30
0.0
 10
-659.6590534557711
 20
-52.86993332667041
 30
0.0
 10
-659.6590534557711
 20
-27.90900389582512
 30
0.0
 10
-659.6590534557711
 20
-27.90900389582512
 30
0.0
 10
-636.4771861343893
 20
-27.90900389582512
 30
0.0
 10
-636.4771861343893
 20
-27.90900389582512
 30
0.0
 10
-636.4771861343893
 20
-46.35325830692418
 30
0.0
 10
-629.8794212671103
 20
-62.07977419168876
 30
0.0
 10
-616.6863488006563
 20
-75.08363701390127
 30
0.0
 10
-603.4908190660952
 20
-88.08749983612404
 30
0.0
 10
-587.6193243630163
 20
-94.60417485587027
 30
0.0
 10
-569.0743219595272
 20
-94.60417485587027
 30
0.0
 10
-550.7701318305295
 20
-94.60417485587027
 30
0.0
 10
-535.0165859965912
 20
-88.08749983612404
 30
0.0
 10
-521.8210562620266
 20
-75.08363701390127
 30
0.0
 10
-508.6255265274725
 20
-62.07977419168876
 30
0.0
 10
-502.02776166019
 20
-46.35325830692418
 30
0.0
 10
-502.02776166019
 20
-27.90900389582512
 30
0.0
 10
-502.02776166019
 20
-27.90900389582512
 30
0.0
 10
-409.6590535182692
 20
-27.90900389582512
 30
0.0
 10
-409.6590535182692
 20
-27.90900389582512
 30
0.0
 10
-409.6590535182692
 20
-27.90900389582512
 30
0.0
 10
-409.6590535182763
 20
-117.0636053537927
 30
0.0
 10
-409.6590535182763
 20
-117.0636053537927
 30
0.0
 10
-409.6590535182763
 20
-117.0636053537927
 30
0.0
 10
-433.9098324661969
 20
-117.0636053537927
 30
0.0
 10
-433.9098324661969
 20
-117.0636053537927
 30
0.0
 10
-433.9098324661969
 20
-117.0636053537927
 30
0.0
 10
-433.9098324661969
 20
-51.80839350445842
 30
0.0
 10
-433.9098324661969
 20
-51.80839350445842
 30
0.0
 10
-433.9098324661969
 20
-51.80839350445842
 30
0.0
 10
-482.0550864865415
 20
-51.80839350445456
 30
0.0
 10
-482.0550864865415
 20
-51.80839350445456
 30
0.0
 10
-487.5274225608136
 20
-71.39773485341613
 30
0.0
 10
-498.3443167678098
 20
-87.41912291101495
 30
0.0
 10
-514.5106836437304
 20
-99.85289953241015
 30
0.0
 10
-530.6819650558407
 20
-112.276847081365
 30
0.0
 10
-548.8682063157157
 20
-118.4986499282731
 30
0.0
 10
-569.0743219595272
 20
-118.4986499282731
 30
0.0
  0
SPLINE
  5
AB
330
1F
100
AcDbEntity
  8
cut
 62
     7
370
   211
100
AcDbSpline
210
0.0
220
0.0
230
1.0
 70
    11
 71
     3
 72
    38
 73
    34
 74
     0
 42
0.0000000001
 43
0.0000000001
 12
1.0
 22
0.0
 32
0.0
 13
1.0
 23
0.0
 33
0.0
 40
0.0
 40
0.0
 40
0.0
 40
0.0
 40
1.0
 40
1.0
 40
1.0
 40
2.0
 40
2.0
 40
2.0
 40
3.0
 40
3.0
 40
3.0
 40
4.0
 40
4.0
 40
4.0
 40
5.0
 40
5.0
 40
5.0
 40
6.0
 40
6.0
 40
6.0
 40
7.0
 40
7.0
 40
7.0
 40
8.0
 40
8.0
 40
8.0
 40
9.0
 40
9.0
 40
9.0
 40
10.0
 40
10.0
 40
10.0
 40
11.0
 40
11.0
 40
11.0
 40
11.0
 10
-265.6641858983061
 20
223.1685312937853
 30
0.0
 10
-265.6641858983061
 20
204.0899795139152
 30
0.0
 10
-272.4064899114483
 20
187.8773997981086
 30
0.0
 10
-285.8713835985099
 20
174.5283278539663
 30
0.0
 10
-299.3461344551829
 20
161.1718630326133
 30
0.0
 10
-315.6203214810532
 20
154.4985592067444
 30
0.0
 10
-334.6939446761148
 20
154.4985592067444
 30
0.0
 10
-353.5309958005438
 20
154.4985592067444
 30
0.0
 10
-369.6868967910933
 20
161.1718630326133
 30
0.0
 10
-383.156719062958
 20
174.5283278539663
 30
0.0
 10
-396.6265413348222
 20
187.8773997981086
 30
0.0
 10
-403.3639167631558
 20
204.0899795139152
 30
0.0
 10
-403.3639167631558
 20
223.1685312937853
 30
0.0
 10
-403.3639167631558
 20
232.7028785989179
 30
0.0
 10
-401.3382684083332
 20
242.242154488853
 30
0.0
 10
-397.2820431138824
 20
251.7814303787881
 30
0.0
 10
-397.2820431138824
 20
251.7814303787881
 30
0.0
 10
-331.1207206925421
 20
404.498559144244
 30
0.0
 10
-331.1207206925421
 20
404.498559144244
 30
0.0
 10
-331.1207206925421
 20
404.498559144244
 30
0.0
 10
-304.2303619968579
 20
404.498559144244
 30
0.0
 10
-304.2303619968579
 20
404.498559144244
 30
0.0
 10
-304.2303619968579
 20
404.498559144244
 30
0.0
 10
-354.1027116379134
 20
289.3791395631711
 30
0.0
 10
-354.1027116379134
 20
289.3791395631711
 30
0.0
 10
-347.8976233685174
 20
291.2569303738507
 30
0.0
 10
-341.4510344436706
 20
292.1958257791893
 30
0.0
 10
-334.7678734481839
 20
292.1958257791893
 30
0.0
 10
-315.6745359139063
 20
292.1958257791893
 30
0.0
 10
-299.385563133622
 20
285.455986058449
 30
0.0
 10
-285.8960265225352
 20
271.9886280789893
 30
0.0
 10
-272.4114184962572
 20
258.5138772223189
 30
0.0
 10
-265.6641858983061
 20
242.242154488853
 30
0.0
 10
-265.6641858983061
 20
223.1685312937853
 30
0.0
  0
SPLINE
  5
AC
330
1F
100
AcDbEntity
  8
cut
 62
     7
370
   211
100
AcDbSpline
210
0.0
220
0.0
230
1.0
 70
    11
 71
     3
 72
    29
 73
    25
 74
     0
 42
0.0000000001
 43
0.0000000001
 12
1.0
 22
0.0
 32
0.0
 13
1.0
 23
0.0
 33
0.0
 40
0.0
 40
0.0
 40
0.0
 40
0.0
 40
1.0
 40
1.0
 40
1.0
 40
2.0
 40
2.0
 40
2.0
 40
3.0
 40
3.0
 40
3.0
 40
4.0
 40
4.0
 40
4.0
 40
5.0
 40
5.0
 40
5.0
 40
6.0
 40
6.0
 40
6.0
 40
7.0
 40
7.0
 40
7.0
 40
8.0
 40
8.0
 40
8.0
 40
8.0
 10
-290.7013967073383
 20
222.9886379484054
 30
0.0
 10
-290.7013967073383
 20
235.1942782178091
 30
0.0
 10
-294.9941940724329
 20
245.6108422030203
 30
0.0
 10
-303.5748602178066
 20
254.2284727344351
 30
0.0
 10
-312.1604549479893
 20
262.84610326585
 30
0.0
 10
-322.5351259623594
 20
267.1586149701608
 30
0.0
 10
-334.6939446761148
 20
267.1586149701608
 30
0.0
 10
-346.6161913192284
 20
267.1586149701608
 30
0.0
 10
-356.8676477134796
 20
262.84610326585
 30
0.0
 10
-365.4532424436632
 20
254.2284727344351
 30
0.0
 10
-374.0339085890444
 20
245.6108422030203
 30
0.0
 10
-378.3267059541309
 20
235.1942782178091
 30
0.0
 10
-378.3267059541309
 20
222.9886379484054
 30
0.0
 10
-378.3267059541309
 20
210.7780690942018
 30
0.0
 10
-374.0339085890444
 20
200.3615051089907
 30
0.0
 10
-365.4532424436632
 20
191.7438745775758
 30
0.0
 10
-356.8676477134796
 20
183.1287083385629
 30
0.0
 10
-346.6161913192284
 20
178.8186609266564
 30
0.0
 10
-334.6939446761148
 20
178.8186609266564
 30
0.0
 10
-322.5351259623594
 20
178.8186609266564
 30
0.0
 10
-312.1604549479893
 20
183.1287083385629
 30
0.0
 10
-303.5748602178066
 20
191.7438745775758
 30
0.0
 10
-294.9941940724329
 20
200.3615051089907
 30
0.0
 10
-290.7013967073383
 20
210.7780690942018
 30
0.0
 10
-290.7013967073383
 20
222.9886379484054
 30
0.0
  0
POLYLINE
  5
AD
330
1F
100
AcDbEntity
  8
cut
 62
     7
370
   211
100
AcDb2dPolyline
 66
     1
 10
0.0
 20
0.0
 30
0.0
  0
VERTEX
  5
AE
330
AD
100
AcDbEntity
  8
cut
 62
     7
370
   211
100
AcDbVertex
100
AcDb2dVertex
 10
-506.6591212594412
 20
404.498559144244
 30
0.0
  0
VERTEX
  5
AF
330
AD
100
AcDbEntity
  8
cut
 62
     7
370
   211
100
AcDbVertex
100
AcDb2dVertex
 10
-614.3217946183661
 20
154.4985592067444
 30
0.0
  0
VERTEX
  5
B0
330
AD
100
AcDbEntity
  8
cut
 62
     7
370
   211
100
AcDbVertex
100
AcDb2dVertex
 10
-641.3393067071308
 20
154.4985592067444
 30
0.0
  0
VERTEX
  5
B1
330
AD
100
AcDbEntity
  8
cut
 62
     7
370
   211
100
AcDbVertex
100
AcDb2dVertex
 10
-544.3739989872245
 20
379.6813749666601
 30
0.0
  0
VERTEX
  5
B2
330
AD
100
AcDbEntity
  8
cut
 62
     7
370
   211
100
AcDbVertex
100
AcDb2dVertex
 10
-627.8305506627536
 20
379.6813749666601
 30
0.0
  0
VERTEX
  5
B3
330
AD
100
AcDbEntity
  8
cut
 62
     7
370
   211
100
AcDbVertex
100
AcDb2dVertex
 10
-627.8305506627536
 20
404.498559144244
 30
0.0
  0
VERTEX
  5
B4
330
AD
100
AcDbEntity
  8
cut
 62
     7
370
   211
100
AcDbVertex
100
AcDb2dVertex
 10
-506.6591212594412
 20
404.498559144244
 30
0.0
  0
SEQEND
  5
B5
330
AD
100
AcDbEntity
  8
cut
 62
     7
370
   211
  0
SPLINE
  5
B6
330
1F
100
AcDbEntity
  8
cut
 62
     7
370
   211
100
AcDbSpline
210
0.0
220
0.0
230
1.0
 70
    11
 71
     3
 72
    41
 73
    37
 74
     0
 42
0.0000000001
 43
0.0000000001
 12
1.0
 22
0.0
 32
0.0
 13
1.0
 23
0.0
 33
0.0
 40
0.0
 40
0.0
 40
0.0
 40
0.0
 40
1.0
 40
1.0
 40
1.0
 40
2.0
 40
2.0
 40
2.0
 40
3.0
 40
3.0
 40
3.0
 40
4.0
 40
4.0
 40
4.0
 40
5.0
 40
5.0
 40
5.0
 40
6.0
 40
6.0
 40
6.0
 40
7.0
 40
7.0
 40
7.0
 40
8.0
 40
8.0
 40
8.0
 40
9.0
 40
9.0
 40
9.0
 40
10.0
 40
10.0
 40
10.0
 40
11.0
 40
11.0
 40
11.0
 40
12.0
 40
12.0
 40
12.0
 40
12.0
 10
-524.1358132745813
 20
0.480398863345958
 30
0.0
 10
-531.4980297920163
 20
-17.21970827107406
 30
0.0
 10
-544.046682031783
 20
-29.72473936718206
 30
0.0
 10
-561.7656027232673
 20
-37.0335694064115
 30
0.0
 10
-579.4917681360861
 20
-44.34723572646818
 30
0.0
 10
-597.2046280050233
 20
-44.31915076400933
 30
0.0
 10
-614.8980432274838
 20
-36.95971769326925
 30
0.0
 10
-632.8145221819454
 20
-29.50750306591587
 30
0.0
 10
-645.4294073161179
 20
-16.92100759093075
 30
0.0
 10
-652.7354539086397
 20
0.8046050125107829
 30
0.0
 10
-660.0487452225059
 20
18.52538133513021
 30
0.0
 10
-660.0228908973727
 20
36.23916901962776
 30
0.0
 10
-652.6606743799374
 20
53.93927615404777
 30
0.0
 10
-642.5177946107318
 20
78.3246033365943
 30
0.0
 10
-624.3826828515784
 20
91.79238445453099
 30
0.0
 10
-598.2579447459832
 20
94.34893641365032
 30
0.0
 10
-613.7513773481784
 20
113.7033854149269
 30
0.0
 10
-616.7424860633641
 20
134.820245908228
 30
0.0
 10
-607.2258818013083
 20
157.6998928997579
 30
0.0
 10
-600.1355152447607
 20
174.74642329941
 30
0.0
 10
-587.9541939600903
 20
186.8338338116417
 30
0.0
 10
-570.6882348530884
 20
193.9595187929522
 30
0.0
 10
-553.4250591927739
 20
201.0785118623044
 30
0.0
 10
-536.1563547578842
 20
201.0520109336921
 30
0.0
 10
-518.8867606262268
 20
193.8688628205212
 30
0.0
 10
-501.840230226577
 20
186.7784962639661
 30
0.0
 10
-489.7537475298985
 20
174.5949443419801
 30
0.0
 10
-482.6271347330265
 20
157.3312158722932
 30
0.0
 10
-475.5122279321315
 20
140.0645067529139
 30
0.0
 10
-475.4919630762492
 20
122.9019450938183
 30
0.0
 10
-482.582329632804
 20
105.855414694165
 30
0.0
 10
-492.0989338948524
 20
82.97576770263507
 30
0.0
 10
-509.1835610599263
 20
70.20924730472476
 30
0.0
 10
-533.8326776689377
 20
67.55176723196527
 30
0.0
 10
-517.2273272720857
 20
47.2219802875926
 30
0.0
 10
-513.9929335053754
 20
24.86572604589248
 30
0.0
 10
-524.1358132745813
 20
0.480398863345958
 30
0.0
  0
SPLINE
  5
B7
330
1F
100
AcDbEntity
  8
cut
 62
     7
370
   211
100
AcDbSpline
210
0.0
220
0.0
230
1.0
 70
    11
 71
     3
 72
    29
 73
    25
 74
     0
 42
0.0000000001
 43
0.0000000001
 12
1.0
 22
0.0
 32
0.0
 13
1.0
 23
0.0
 33
0.0
 40
0.0
 40
0.0
 40
0.0
 40
0.0
 40
1.0
 40
1.0
 40
1.0
 40
2.0
 40
2.0
 40
2.0
 40
3.0
 40
3.0
 40
3.0
 40
4.0
 40
4.0
 40
4.0
 40
5.0
 40
5.0
 40
5.0
 40
6.0
 40
6.0
 40
6.0
 40
7.0
 40
7.0
 40
7.0
 40
8.0
 40
8.0
 40
8.0
 40
8.0
 10
-546.5411459336643
 20
9.60870741845684
 30
0.0
 10
-541.6766089203135
 20
21.30393888736403
 30
0.0
 10
-541.6364294551458
 20
32.97537643765301
 30
0.0
 10
-546.4107571733332
 20
44.62153944438037
 30
0.0
 10
-551.1895461661528
 20
56.26955808223615
 30
0.0
 10
-559.2960641137946
 20
64.47155869722297
 30
0.0
 10
-570.7303110162549
 20
69.22754128933312
 30
0.0
 10
-582.3876216507194
 20
74.07630543805915
 30
0.0
 10
-594.0267052599664
 20
74.08732821467159
 30
0.0
 10
-605.6520231186249
 20
69.26246525031681
 30
0.0
 10
-617.2818022519373
 20
64.43945791709301
 30
0.0
 10
-625.5262657801532
 20
56.18052601911744
 30
0.0
 10
-630.3908027935041
 20
44.48529455021283
 30
0.0
 10
-635.1671973280669
 20
33.0019736267066
 30
0.0
 10
-635.1673029206962
 20
21.43946229891734
 30
0.0
 10
-630.3885139278801
 20
9.791443661055139
 30
0.0
 10
-625.6141862097037
 20
-1.854719345672226
 30
0.0
 10
-617.398742039565
 20
-10.09679383318991
 30
0.0
 10
-605.7414314051005
 20
-14.94555798191595
 30
0.0
 10
-594.3071845026402
 20
-19.70154057402353
 30
0.0
 10
-582.7770271158901
 20
-19.67248947810766
 30
0.0
 10
-571.1472479825813
 20
-14.84948214488129
 30
0.0
 10
-559.5219301239157
 20
-10.02461918052266
 30
0.0
 10
-551.3175404682272
 20
-1.874613505050673
 30
0.0
 10
-546.5411459336643
 20
9.60870741845684
 30
0.0
  0
SPLINE
  5
B8
330
1F
100
AcDbEntity
  8
cut
 62
     7
370
   211
100
AcDbSpline
210
0.0
220
0.0
230
1.0
 70
    11
 71
     3
 72
    29
 73
    25
 74
     0
 42
0.0000000001
 43
0.0000000001
 12
1.0
 22
0.0
 32
0.0
 13
1.0
 23
0.0
 33
0.0
 40
0.0
 40
0.0
 40
0.0
 40
0.0
 40
1.0
 40
1.0
 40
1.0
 40
2.0
 40
2.0
 40
2.0
 40
3.0
 40
3.0
 40
3.0
 40
4.0
 40
4.0
 40
4.0
 40
5.0
 40
5.0
 40
5.0
 40
6.0
 40
6.0
 40
6.0
 40
7.0
 40
7.0
 40
7.0
 40
8.0
 40
8.0
 40
8.0
 40
8.0
 10
-504.2730469327511
 20
114.8774932594529
 30
0.0
 10
-499.695204929345
 20
125.8834577964671
 30
0.0
 10
-499.7793753547866
 20
136.9917273227737
 30
0.0
 10
-504.5227747623815
 20
148.2089937503208
 30
0.0
 10
-509.2635685264712
 20
159.4199432720998
 30
0.0
 10
-517.158790142438
 20
167.3247325090169
 30
0.0
 10
-528.2049061512123
 20
171.919275192616
 30
0.0
 10
-539.4785471666339
 20
176.6084550639594
 30
0.0
 10
-550.6998873833005
 20
176.6550452289895
 30
0.0
 10
-561.8903053588529
 20
172.07055448069
 30
0.0
 10
-573.0781176908895
 20
167.4797468266147
 30
0.0
 10
-580.9573224979544
 20
159.6837788714829
 30
0.0
 10
-585.5351645013609
 20
148.67781433447
 30
0.0
 10
-590.2039324302497
 20
137.4532473400851
 30
0.0
 10
-590.2241493534287
 20
126.2575691524998
 30
0.0
 10
-585.5894983651414
 20
115.0933854152189
 30
0.0
 10
-580.9540973644758
 20
103.9184234975212
 30
0.0
 10
-573.0079460963389
 20
95.9976835927953
 30
0.0
 10
-561.734305080917
 20
91.3085037214493
 30
0.0
 10
-550.688189072132
 20
86.71396103785017
 30
0.0
 10
-539.5177785076398
 20
86.68332154063535
 30
0.0
 10
-528.22196776867
 20
91.23182468485096
 30
0.0
 10
-516.9254070173295
 20
95.76954964865884
 30
0.0
 10
-508.9418148616438
 20
103.6529262650693
 30
0.0
 10
-504.2730469327511
 20
114.8774932594529
 30
0.0
  0
SPLINE
  5
B9
330
1F
100
AcDbEntity
  8
cut
 62
     7
370
   211
100
AcDbSpline
210
0.0
220
0.0
230
1.0
 70
    11
 71
     3
 72
    38
 73
    34
 74
     0
 42
0.0000000001
 43
0.0000000001
 12
1.0
 22
0.0
 32
0.0
 13
1.0
 23
0.0
 33
0.0
 40
0.0
 40
0.0
 40
0.0
 40
0.0
 40
1.0
 40
1.0
 40
1.0
 40
2.0
 40
2.0
 40
2.0
 40
3.0
 40
3.0
 40
3.0
 40
4.0
 40
4.0
 40
4.0
 40
5.0
 40
5.0
 40
5.0
 40
6.0
 40
6.0
 40
6.0
 40
7.0
 40
7.0
 40
7.0
 40
8.0
 40
8.0
 40
8.0
 40
9.0
 40
9.0
 40
9.0
 40
10.0
 40
10.0
 40
10.0
 40
11.0
 40
11.0
 40
11.0
 40
11.0
 10
-378.6135456345873
 20
340.5270702228819
 30
0.0
 10
-378.6135456345873
 20
330.987794332943
 30
0.0
 10
-380.7624086095387
 20
321.4485184430121
 30
0.0
 10
-385.0552059746255
 20
311.9141711378792
 30
0.0
 10
-385.0552059746255
 20
311.9141711378792
 30
0.0
 10
-450.8665988748216
 20
159.1970423724219
 30
0.0
 10
-450.8665988748216
 20
159.1970423724219
 30
0.0
 10
-450.8665988748216
 20
159.1970423724219
 30
0.0
 10
-478.12167284606
 20
159.1970423724219
 30
0.0
 10
-478.12167284606
 20
159.1970423724219
 30
0.0
 10
-478.12167284606
 20
159.1970423724219
 30
0.0
 10
-428.0817513216318
 20
274.4125693571928
 30
0.0
 10
-428.0817513216318
 20
274.4125693571928
 30
0.0
 10
-434.5135544920647
 20
272.4657783592463
 30
0.0
 10
-441.0636436978205
 20
271.4997757374805
 30
0.0
 10
-447.7320189388821
 20
271.4997757374805
 30
0.0
 10
-466.5444271392834
 20
271.4997757374805
 30
0.0
 10
-482.6756852058091
 20
278.2346868734132
 30
0.0
 10
-496.1307217232587
 20
291.7069734376818
 30
0.0
 10
-509.5906868255108
 20
305.1743314171414
 30
0.0
 10
-516.3132764994399
 20
321.4485184430121
 30
0.0
 10
-516.3132764994399
 20
340.5270702228819
 30
0.0
 10
-516.3132764994399
 20
359.359192762505
 30
0.0
 10
-509.5759010710992
 20
375.5150937530544
 30
0.0
 10
-496.1060787992351
 20
388.9898446097216
 30
0.0
 10
-482.6362565273703
 20
402.4572025891864
 30
0.0
 10
-466.4803555368244
 20
409.1970423099229
 30
0.0
 10
-447.6433044123925
 20
409.1970423099229
 30
0.0
 10
-428.5696812173248
 20
409.1970423099229
 30
0.0
 10
-412.2954941914522
 20
402.4572025891864
 30
0.0
 10
-398.820743334785
 20
388.9898446097216
 30
0.0
 10
-385.3558496477305
 20
375.5150937530544
 30
0.0
 10
-378.6135456345873
 20
359.359192762505
 30
0.0
 10
-378.6135456345873
 20
340.5270702228819
 30
0.0
  0
SPLINE
  5
BA
330
1F
100
AcDbEntity
  8
cut
 62
     7
370
   211
100
AcDbSpline
210
0.0
220
0.0
230
1.0
 70
    11
 71
     3
 72
    29
 73
    25
 74
     0
 42
0.0000000001
 43
0.0000000001
 12
1.0
 22
0.0
 32
0.0
 13
1.0
 23
0.0
 33
0.0
 40
0.0
 40
0.0
 40
0.0
 40
0.0
 40
1.0
 40
1.0
 40
1.0
 40
2.0
 40
2.0
 40
2.0
 40
3.0
 40
3.0
 40
3.0
 40
4.0
 40
4.0
 40
4.0
 40
5.0
 40
5.0
 40
5.0
 40
6.0
 40
6.0
 40
6.0
 40
7.0
 40
7.0
 40
7.0
 40
8.0
 40
8.0
 40
8.0
 40
8.0
 10
-403.6507564436157
 20
340.5270702228819
 30
0.0
 10
-403.6507564436157
 20
352.446852573594
 30
0.0
 10
-407.9435538087093
 20
362.7007732602467
 30
0.0
 10
-416.5242199540834
 20
371.2839036980275
 30
0.0
 10
-425.109814684267
 20
379.8694984282076
 30
0.0
 10
-435.4844856986342
 20
384.159831500898
 30
0.0
 10
-447.6433044123925
 20
384.159831500898
 30
0.0
 10
-459.5655510555118
 20
384.159831500898
 30
0.0
 10
-469.8170074497602
 20
379.8694984282076
 30
0.0
 10
-478.4026021799367
 20
371.2839036980275
 30
0.0
 10
-486.9832683253179
 20
362.7007732602467
 30
0.0
 10
-491.2760656904044
 20
352.446852573594
 30
0.0
 10
-491.2760656904044
 20
340.5270702228819
 30
0.0
 10
-491.2760656904044
 20
328.365787216725
 30
0.0
 10
-486.9832683253179
 20
317.9935804947567
 30
0.0
 10
-478.4026021799367
 20
309.4104500569747
 30
0.0
 10
-469.8170074497602
 20
300.8273196191939
 30
0.0
 10
-459.5655510555118
 20
296.5345222541058
 30
0.0
 10
-447.6433044123925
 20
296.5345222541058
 30
0.0
 10
-435.4844856986342
 20
296.5345222541058
 30
0.0
 10
-425.109814684267
 20
300.8273196191939
 30
0.0
 10
-416.5242199540834
 20
309.4104500569747
 30
0.0
 10
-407.9435538087093
 20
317.9935804947567
 30
0.0
 10
-403.6507564436157
 20
328.365787216725
 30
0.0
 10
-403.6507564436157
 20
340.5270702228819
 30
0.0
  0
SPLINE
  5
BB
330
1F
100
AcDbEntity
  8
cut
 62
     7
370
   211
100
AcDbSpline
210
0.0
220
0.0
230
1.0
 70
    11
 71
     3
 72
    29
 73
    25
 74
     0
 42
0.0000000001
 43
0.0000000001
 12
1.0
 22
0.0
 32
0.0
 13
1.0
 23
0.0
 33
0.0
 40
0.0
 40
0.0
 40
0.0
 40
0.0
 40
1.0
 40
1.0
 40
1.0
 40
2.0
 40
2.0
 40
2.0
 40
3.0
 40
3.0
 40
3.0
 40
4.0
 40
4.0
 40
4.0
 40
5.0
 40
5.0
 40
5.0
 40
6.0
 40
6.0
 40
6.0
 40
7.0
 40
7.0
 40
7.0
 40
8.0
 40
8.0
 40
8.0
 40
8.0
 10
-661.422942344226
 20
-5.667925834947191
 30
0.0
 10
-661.422942344226
 20
-39.83778773432242
 30
0.0
 10
-673.5720664126463
 20
-69.07304397095075
 30
0.0
 10
-697.8607048013658
 20
-93.35927992263154
 30
0.0
 10
-722.151745627107
 20
-117.6527231854159
 30
0.0
 10
-751.5023188412468
 20
-129.7970423797729
 30
0.0
 10
-785.9004122586159
 20
-129.7970423797729
 30
0.0
 10
-820.3057129870841
 20
-129.7970423797729
 30
0.0
 10
-849.5938228384042
 20
-117.6527231854159
 30
0.0
 10
-873.7671442496056
 20
-93.35927992263154
 30
0.0
 10
-897.9452705348741
 20
-69.07304397095075
 30
0.0
 10
-910.0295288034397
 20
-39.83778773432242
 30
0.0
 10
-910.0295288034397
 20
-5.667925834947191
 30
0.0
 10
-910.0295288034397
 20
28.73016758242381
 30
0.0
 10
-897.9452705348741
 20
58.07833835953021
 30
0.0
 10
-873.7671442496056
 20
82.37178162231066
 30
0.0
 10
-849.5938228384042
 20
106.6604200110247
 30
0.0
 10
-820.3057129870841
 20
118.8095440794456
 30
0.0
 10
-785.9004122586159
 20
118.8095440794456
 30
0.0
 10
-751.5023188412468
 20
118.8095440794456
 30
0.0
 10
-722.151745627107
 20
106.6604200110247
 30
0.0
 10
-697.8607048013658
 20
82.37178162231066
 30
0.0
 10
-673.5720664126463
 20
58.07833835953021
 30
0.0
 10
-661.422942344226
 20
28.73016758242381
 30
0.0
 10
-661.422942344226
 20
-5.667925834947191
 30
0.0
  0
SPLINE
  5
BC
330
1F
100
AcDbEntity
  8
cut
 62
     7
370
   211
100
AcDbSpline
210
0.0
220
0.0
230
1.0
 70
    11
 71
     3
 72
    29
 73
    25
 74
     0
 42
0.0000000001
 43
0.0000000001
 12
1.0
 22
0.0
 32
0.0
 13
1.0
 23
0.0
 33
0.0
 40
0.0
 40
0.0
 40
0.0
 40
0.0
 40
1.0
 40
1.0
 40
1.0
 40
2.0
 40
2.0
 40
2.0
 40
3.0
 40
3.0
 40
3.0
 40
4.0
 40
4.0
 40
4.0
 40
5.0
 40
5.0
 40
5.0
 40
6.0
 40
6.0
 40
6.0
 40
7.0
 40
7.0
 40
7.0
 40
8.0
 40
8.0
 40
8.0
 40
8.0
 10
-686.1800559540903
 20
-5.667925834947191
 30
0.0
 10
-686.1800559540903
 20
21.9913317089969
 30
0.0
 10
-695.8883039984818
 20
45.58566579560225
 30
0.0
 10
-715.2927879021048
 20
65.11267398783694
 30
0.0
 10
-734.7044791168273
 20
84.6372797430384
 30
0.0
 10
-758.2411547146738
 20
94.40078383915382
 30
0.0
 10
-785.9004122586159
 20
94.40078383915382
 30
0.0
 10
-813.3314382845707
 20
94.40078383915382
 30
0.0
 10
-836.8056505195976
 20
84.6372797430384
 30
0.0
 10
-856.3326587118311
 20
65.11267398783694
 30
0.0
 10
-875.8572644670331
 20
45.58566579560225
 30
0.0
 10
-885.620768563148
 20
21.9913317089969
 30
0.0
 10
-885.620768563148
 20
-5.667925834947191
 30
0.0
 10
-885.620768563148
 20
-33.09895186089679
 30
0.0
 10
-875.8572644670331
 20
-56.57556653295635
 30
0.0
 10
-856.3326587118311
 20
-76.10017228816038
 30
0.0
 10
-836.8056505195976
 20
-95.62718048039122
 30
0.0
 10
-813.3314382845707
 20
-105.3906845765131
 30
0.0
 10
-785.9004122586159
 20
-105.3906845765131
 30
0.0
 10
-758.2411547146738
 20
-105.3906845765131
 30
0.0
 10
-734.7044791168273
 20
-95.62718048039122
 30
0.0
 10
-715.2927879021048
 20
-76.10017228816038
 30
0.0
 10
-695.8883039984818
 20
-56.57556653295635
 30
0.0
 10
-686.1800559540903
 20
-33.09895186089679
 30
0.0
 10
-686.1800559540903
 20
-5.667925834947191
 30
0.0
  0
SPLINE
  5
BD
330
1F
100
AcDbEntity
  8
cut
 62
     7
370
   211
100
AcDbSpline
210
0.0
220
0.0
230
1.0
 70
    11
 71
     3
 72
    41
 73
    37
 74
     0
 42
0.0000000001
 43
0.0000000001
 12
1.0
 22
0.0
 32
0.0
 13
1.0
 23
0.0
 33
0.0
 40
0.0
 40
0.0
 40
0.0
 40
0.0
 40
1.0
 40
1.0
 40
1.0
 40
2.0
 40
2.0
 40
2.0
 40
3.0
 40
3.0
 40
3.0
 40
4.0
 40
4.0
 40
4.0
 40
5.0
 40
5.0
 40
5.0
 40
6.0
 40
6.0
 40
6.0
 40
7.0
 40
7.0
 40
7.0
 40
8.0
 40
8.0
 40
8.0
 40
9.0
 40
9.0
 40
9.0
 40
10.0
 40
10.0
 40
10.0
 40
11.0
 40
11.0
 40
11.0
 40
12.0
 40
12.0
 40
12.0
 40
12.0
 10
-781.577662625516
 20
126.3597208804831
 30
0.0
 10
-781.577662625516
 20
126.3597208804831
 30
0.0
 10
-885.6651103522402
 20
126.3597208804831
 30
0.0
 10
-885.6651103522402
 20
126.3597208804831
 30
0.0
 10
-885.6651103522402
 20
126.3597208804831
 30
0.0
 10
-827.3219315496775
 20
259.2836806181089
 30
0.0
 10
-827.3219315496775
 20
259.2836806181089
 30
0.0
 10
-823.4846749161071
 20
266.9681221042292
 30
0.0
 10
-821.5635645445735
 20
275.6131187761154
 30
0.0
 10
-821.5635645445735
 20
285.2211526885103
 30
0.0
 10
-821.5635645445735
 20
303.4692191633032
 30
0.0
 10
-828.1459737245397
 20
319.1384307595137
 30
0.0
 10
-841.3058279749969
 20
332.2312695318946
 30
0.0
 10
-854.4656822254545
 20
345.3166621400429
 30
0.0
 10
-870.3409043653842
 20
351.8643225536029
 30
0.0
 10
-888.9265302853038
 20
351.8643225536029
 30
0.0
 10
-888.9265302853038
 20
351.8643225536029
 30
0.0
 10
-888.9265302853038
 20
376.359720817985
 30
0.0
 10
-888.9265302853038
 20
376.359720817985
 30
0.0
 10
-863.7138182000292
 20
376.359720817985
 30
0.0
 10
-842.1596548067893
 20
367.4714827812255
 30
0.0
 10
-824.2690042150701
 20
349.7024528719472
 30
0.0
 10
-806.3783536233577
 20
331.9284588531776
 30
0.0
 10
-797.4280642180088
 20
310.4363468285268
 30
0.0
 10
-797.4280642180088
 20
285.2211526885103
 30
0.0
 10
-797.4280642180088
 20
272.2524166533103
 30
0.0
 10
-799.9498318374905
 20
260.2417537491318
 30
0.0
 10
-804.993367076436
 20
249.1990921949494
 30
0.0
 10
-804.993367076436
 20
249.1990921949494
 30
0.0
 10
-847.8683807170227
 20
150.8551191448642
 30
0.0
 10
-847.8683807170227
 20
150.8551191448642
 30
0.0
 10
-847.8683807170227
 20
150.8551191448642
 30
0.0
 10
-781.577662625516
 20
150.8551191448642
 30
0.0
 10
-781.577662625516
 20
150.8551191448642
 30
0.0
 10
-781.577662625516
 20
150.8551191448642
 30
0.0
 10
-781.577662625516
 20
126.3597208804831
 30
0.0
 10
-781.577662625516
 20
126.3597208804831
 30
0.0
  0
ENDSEC
  0
SECTION
  2
OBJECTS
  0
DICTIONARY
  5
C
330
0
100
AcDbDictionary
281
     1
  3
ACAD_GROUP
350
D
  3
ACAD_LAYOUT
350
1A
  3
ACAD_MATERIAL
350
3B
  3
ACAD_MLEADERSTYLE
350
E7
  3
ACAD_MLINESTYLE
350
17
  3
ACAD_PLOTSETTINGS
350
19
  3
ACAD_PLOTSTYLENAME
350
E
  3
ACAD_TABLESTYLE
350
E6
  3
ACAD_VISUALSTYLE
350
2A
  0
DICTIONARY
  5
D
102
{ACAD_REACTORS
330
C
102
}
330
C
100
AcDbDictionary
281
     1
  0
DICTIONARY
  5
1A
102
{ACAD_REACTORS
330
C
102
}
330
C
100
AcDbDictionary
281
     1
  3
Layout1
350
1E
  3
Layout2
350
26
  3
Model
350
22
  0
DICTIONARY
  5
3B
102
{ACAD_REACTORS
330
C
102
}
330
C
100
AcDbDictionary
281
     1
  3
ByBlock
350
3D
  3
ByLayer
350
3C
  3
Global
350
3E
  0
DICTIONARY
  5
E7
102
{ACAD_REACTORS
330
C
102
}
330
C
100
AcDbDictionary
281
     1
  0
DICTIONARY
  5
17
102
{ACAD_REACTORS
330
C
102
}
330
C
100
AcDbDictionary
281
     1
  3
Standard
350
18
  0
DICTIONARY
  5
19
102
{ACAD_REACTORS
330
C
102
}
330
C
100
AcDbDictionary
281
     1
  0
ACDBDICTIONARYWDFLT
  5
E
102
{ACAD_REACTORS
330
C
102
}
330
C
100
AcDbDictionary
281
     1
  3
Normal
350
F
100
AcDbDictionaryWithDefault
340
F
  0
DICTIONARY
  5
E6
102
{ACAD_REACTORS
330
C
102
}
330
C
100
AcDbDictionary
281
     1
  0
DICTIONARY
  5
2A
102
{ACAD_REACTORS
330
C
102
}
330
C
100
AcDbDictionary
281
     1
  3
2dWireframe
350
2F
  3
3D Hidden
350
31
  3
3dWireframe
350
30
  3
Basic
350
32
  3
Brighten
350
36
  3
ColorChange
350
3A
  3
Conceptual
350
34
  3
Dim
350
35
  3
Facepattern
350
39
  3
Flat
350
2B
  3
FlatWithEdges
350
2C
  3
Gouraud
350
2D
  3
GouraudWithEdges
350
2E
  3
Linepattern
350
38
  3
Realistic
350
33
  3
Thicken
350
37
  0
LAYOUT
  5
1E
102
{ACAD_REACTORS
330
1A
102
}
330
1A
100
AcDbPlotSettings
  1

  2
none_device
  4

  6

 40
0.0
 41
0.0
 42
0.0
 43
0.0
 44
0.0
 45
0.0
 46
0.0
 47
0.0
 48
0.0
 49
0.0
140
0.0
141
0.0
142
1.0
143
1.0
 70
   688
 72
     0
 73
     0
 74
     5
  7

 75
    16
 76
     0
 77
     2
 78
   300
147
1.0
148
0.0
149
0.0
100
AcDbLayout
  1
Layout1
 70
     1
 71
     1
 10
0.0
 20
0.0
 11
12.0
 21
9.0
 12
0.0
 22
0.0
 32
0.0
 14
1.000000000000000E+20
 24
1.000000000000000E+20
 34
1.000000000000000E+20
 15
-1.000000000000000E+20
 25
-1.000000000000000E+20
 35
-1.000000000000000E+20
146
0.0
 13
0.0
 23
0.0
 33
0.0
 16
1.0
 26
0.0
 36
0.0
 17
0.0
 27
1.0
 37
0.0
 76
     0
330
1B
  0
LAYOUT
  5
26
102
{ACAD_REACTORS
330
1A
102
}
330
1A
100
AcDbPlotSettings
  1

  2
none_device
  4

  6

 40
0.0
 41
0.0
 42
0.0
 43
0.0
 44
0.0
 45
0.0
 46
0.0
 47
0.0
 48
0.0
 49
0.0
140
0.0
141
0.0
142
1.0
143
1.0
 70
   688
 72
     0
 73
     0
 74
     5
  7

 75
    16
 76
     0
 77
     2
 78
   300
147
1.0
148
0.0
149
0.0
100
AcDbLayout
  1
Layout2
 70
     1
 71
     2
 10
0.0
 20
0.0
 11
0.0
 21
0.0
 12
0.0
 22
0.0
 32
0.0
 14
0.0
 24
0.0
 34
0.0
 15
0.0
 25
0.0
 35
0.0
146
0.0
 13
0.0
 23
0.0
 33
0.0
 16
1.0
 26
0.0
 36
0.0
 17
0.0
 27
1.0
 37
0.0
 76
     0
330
23
  0
LAYOUT
  5
22
102
{ACAD_REACTORS
330
1A
102
}
330
1A
100
AcDbPlotSettings
  1

  2
none_device
  4

  6

 40
0.0
 41
0.0
 42
0.0
 43
0.0
 44
0.0
 45
0.0
 46
0.0
 47
0.0
 48
0.0
 49
0.0
140
0.0
141
0.0
142
1.0
143
1.0
 70
  1712
 72
     0
 73
     0
 74
     0
  7

 75
     0
 76
     0
 77
     2
 78
   300
147
1.0
148
0.0
149
0.0
100
AcDbLayout
  1
Model
 70
     1
 71
     0
 10
0.0
 20
0.0
 11
12.0
 21
9.0
 12
0.0
 22
0.0
 32
0.0
 14
1.000000000000000E+20
 24
1.000000000000000E+20
 34
1.000000000000000E+20
 15
-1.000000000000000E+20
 25
-1.000000000000000E+20
 35
-1.000000000000000E+20
146
0.0
 13
0.0
 23
0.0
 33
0.0
 16
1.0
 26
0.0
 36
0.0
 17
0.0
 27
1.0
 37
0.0
 76
     0
330
1F
331
29
  0
MATERIAL
  5
3D
102
{ACAD_REACTORS
330
3B
102
}
102
{ACAD_XDICTIONARY
360
E2
102
}
330
3B
100
AcDbMaterial
  1
ByBlock
  0
MATERIAL
  5
3C
102
{ACAD_REACTORS
330
3B
102
}
102
{ACAD_XDICTIONARY
360
E0
102
}
330
3B
100
AcDbMaterial
  1
ByLayer
  0
MATERIAL
  5
3E
102
{ACAD_REACTORS
330
3B
102
}
102
{ACAD_XDICTIONARY
360
E4
102
}
330
3B
100
AcDbMaterial
  1
Global
  0
MLINESTYLE
  5
18
102
{ACAD_REACTORS
330
17
102
}
330
17
100
AcDbMlineStyle
  2
Standard
 70
     0
  3

 62
   256
 51
90.0
 52
90.0
 71
     2
 49
0.5
 62
   256
  6
BYLAYER
 49
-0.5
 62
   256
  6
BYLAYER
  0
ACDBPLACEHOLDER
  5
F
102
{ACAD_REACTORS
330
E
102
}
330
E
  0
VISUALSTYLE
  5
2F
102
{ACAD_REACTORS
330
2A
102
}
102
{ACAD_XDICTIONARY
360
C8
102
}
330
2A
100
AcDbVisualStyle
  2
2dWireframe
 70
     4
 71
     0
 72
     2
 73
     0
 90
        0
 40
-0.6
 41
-30.0
 62
     5
 63
     7
421
 16777215
 74
     1
 91
        4
 64
     7
 65
   257
 75
     1
175
     1
 42
1.0
 92
        0
 66
   257
 43
1.0
 76
     1
 77
     6
 78
     2
 67
     7
 79
     5
170
     0
171
     0
290
     0
174
     0
 93
        1
 44
0.0
173
     0
291
     0
 45
0.0
1001
ACAD
1000
AcDbSavedByObjectVersion
1070
     0
  0
VISUALSTYLE
  5
31
102
{ACAD_REACTORS
330
2A
102
}
102
{ACAD_XDICTIONARY
360
CC
102
}
330
2A
100
AcDbVisualStyle
  2
3D Hidden
 70
     6
 71
     1
 72
     2
 73
     2
 90
        0
 40
-0.6
 41
-30.0
 62
     5
 63
     7
421
 16777215
 74
     2
 91
        2
 64
     7
 65
   257
 75
     2
175
     1
 42
40.0
 92
        0
 66
   257
 43
1.0
 76
     1
 77
     6
 78
     2
 67
     7
 79
     3
170
     0
171
     0
290
     0
174
     0
 93
        1
 44
0.0
173
     0
291
     0
 45
0.0
1001
ACAD
1000
AcDbSavedByObjectVersion
1070
     0
  0
VISUALSTYLE
  5
30
102
{ACAD_REACTORS
330
2A
102
}
102
{ACAD_XDICTIONARY
360
CA
102
}
330
2A
100
AcDbVisualStyle
  2
3dWireframe
 70
     5
 71
     0
 72
     2
 73
     0
 90
        0
 40
-0.6
 41
-30.0
 62
     5
 63
     7
421
 16777215
 74
     1
 91
        4
 64
     7
 65
   257
 75
     1
175
     1
 42
1.0
 92
        0
 66
   257
 43
1.0
 76
     1
 77
     6
 78
     2
 67
     7
 79
     5
170
     0
171
     0
290
     0
174
     0
 93
        1
 44
0.0
173
     0
291
     0
 45
0.0
1001
ACAD
1000
AcDbSavedByObjectVersion
1070
     0
  0
VISUALSTYLE
  5
32
102
{ACAD_REACTORS
330
2A
102
}
102
{ACAD_XDICTIONARY
360
CE
102
}
330
2A
100
AcDbVisualStyle
  2
Basic
 70
     7
 71
     1
 72
     0
 73
     1
 90
        0
 40
-0.6
 41
-30.0
 62
     5
 63
     7
421
 16777215
 74
     0
 91
        4
 64
     7
 65
   257
 75
     1
175
     1
 42
1.0
 92
        8
 66
     7
 43
1.0
 76
     1
 77
     6
 78
     2
 67
     7
 79
     5
170
     0
171
     0
290
     0
174
     0
 93
        1
 44
0.0
173
     0
291
     1
 45
0.0
1001
ACAD
1000
AcDbSavedByObjectVersion
1070
     0
  0
VISUALSTYLE
  5
36
102
{ACAD_REACTORS
330
2A
102
}
102
{ACAD_XDICTIONARY
360
D6
102
}
330
2A
100
AcDbVisualStyle
  2
Brighten
 70
    12
 71
     2
 72
     2
 73
     0
 90
        0
 40
-0.6
 41
-30.0
 62
     5
 63
     7
421
 16777215
 74
     1
 91
        4
 64
     7
 65
   257
 75
     1
175
     1
 42
1.0
 92
        8
 66
     7
 43
1.0
 76
     1
 77
     6
 78
     2
 67
     7
 79
     5
170
     0
171
     0
290
     0
174
     0
 93
        1
 44
50.0
173
     0
291
     1
 45
0.0
1001
ACAD
1000
AcDbSavedByObjectVersion
1070
     0
  0
VISUALSTYLE
  5
3A
102
{ACAD_REACTORS
330
2A
102
}
102
{ACAD_XDICTIONARY
360
DE
102
}
330
2A
100
AcDbVisualStyle
  2
ColorChange
 70
    16
 71
     2
 72
     2
 73
     3
 90
        0
 40
-0.6
 41
-30.0
 62
     5
 63
     8
421
  8421504
 74
     1
 91
        4
 64
     7
 65
   257
 75
     1
175
     1
 42
1.0
 92
        8
 66
     8
424
  8421504
 43
1.0
 76
     1
 77
     6
 78
     2
 67
     7
 79
     5
170
     0
171
     0
290
     0
174
     0
 93
        1
 44
0.0
173
     0
291
     1
 45
0.0
1001
ACAD
1000
AcDbSavedByObjectVersion
1070
     0
  0
VISUALSTYLE
  5
34
102
{ACAD_REACTORS
330
2A
102
}
102
{ACAD_XDICTIONARY
360
D2
102
}
330
2A
100
AcDbVisualStyle
  2
Conceptual
 70
     9
 71
     3
 72
     2
 73
     0
 90
        0
 40
-0.6
 41
-30.0
 62
     5
 63
     7
421
 16777215
 74
     2
 91
        2
 64
     7
 65
   257
 75
     1
175
     1
 42
40.0
 92
        8
 66
     7
 43
1.0
 76
     1
 77
     6
 78
     2
 67
     7
 79
     3
170
     0
171
     0
290
     0
174
     0
 93
        1
 44
0.0
173
     0
291
     0
 45
0.0
1001
ACAD
1000
AcDbSavedByObjectVersion
1070
     0
  0
VISUALSTYLE
  5
35
102
{ACAD_REACTORS
330
2A
102
}
102
{ACAD_XDICTIONARY
360
D4
102
}
330
2A
100
AcDbVisualStyle
  2
Dim
 70
    11
 71
     2
 72
     2
 73
     0
 90
        0
 40
-0.6
 41
-30.0
 62
     5
 63
     7
421
 16777215
 74
     1
 91
        4
 64
     7
 65
   257
 75
     1
175
     1
 42
1.0
 92
        8
 66
     7
 43
1.0
 76
     1
 77
     6
 78
     2
 67
     7
 79
     5
170
     0
171
     0
290
     0
174
     0
 93
        1
 44
-50.0
173
     0
291
     1
 45
0.0
1001
ACAD
1000
AcDbSavedByObjectVersion
1070
     0
  0
VISUALSTYLE
  5
39
102
{ACAD_REACTORS
330
2A
102
}
102
{ACAD_XDICTIONARY
360
DC
102
}
330
2A
100
AcDbVisualStyle
  2
Facepattern
 70
    15
 71
     2
 72
     2
 73
     0
 90
        0
 40
-0.6
 41
-30.0
 62
     5
 63
     7
421
 16777215
 74
     1
 91
        4
 64
     7
 65
   257
 75
     1
175
     1
 42
1.0
 92
        8
 66
     7
 43
1.0
 76
     1
 77
     6
 78
     2
 67
     7
 79
     5
170
     0
171
     0
290
     0
174
     0
 93
        1
 44
0.0
173
     0
291
     1
 45
0.0
1001
ACAD
1000
AcDbSavedByObjectVersion
1070
     0
  0
VISUALSTYLE
  5
2B
102
{ACAD_REACTORS
330
2A
102
}
102
{ACAD_XDICTIONARY
360
C0
102
}
330
2A
100
AcDbVisualStyle
  2
Flat
 70
     0
 71
     2
 72
     1
 73
     1
 90
        2
 40
-0.6
 41
30.0
 62
     5
 63
     7
421
 16777215
 74
     0
 91
        4
 64
     7
 65
   257
 75
     1
175
     1
 42
1.0
 92
        8
 66
     7
 43
1.0
 76
     1
 77
     6
 78
     2
 67
     7
 79
     5
170
     0
171
     0
290
     0
174
     0
 93
       13
 44
0.0
173
     0
291
     1
 45
0.0
1001
ACAD
1000
AcDbSavedByObjectVersion
1070
     0
  0
VISUALSTYLE
  5
2C
102
{ACAD_REACTORS
330
2A
102
}
102
{ACAD_XDICTIONARY
360
C2
102
}
330
2A
100
AcDbVisualStyle
  2
FlatWithEdges
 70
     1
 71
     2
 72
     1
 73
     1
 90
        2
 40
-0.6
 41
30.0
 62
     5
 63
     7
421
 16777215
 74
     1
 91
        4
 64
     7
 65
   257
 75
     1
175
     1
 42
1.0
 92
        0
 66
   257
 43
1.0
 76
     1
 77
     6
 78
     2
 67
     7
 79
     5
170
     0
171
     0
290
     0
174
     0
 93
       13
 44
0.0
173
     0
291
     1
 45
0.0
1001
ACAD
1000
AcDbSavedByObjectVersion
1070
     0
  0
VISUALSTYLE
  5
2D
102
{ACAD_REACTORS
330
2A
102
}
102
{ACAD_XDICTIONARY
360
C4
102
}
330
2A
100
AcDbVisualStyle
  2
Gouraud
 70
     2
 71
     2
 72
     2
 73
     1
 90
        2
 40
-0.6
 41
30.0
 62
     5
 63
     7
421
 16777215
 74
     0
 91
        4
 64
     7
 65
   257
 75
     1
175
     1
 42
1.0
 92
        0
 66
     7
 43
1.0
 76
     1
 77
     6
 78
     2
 67
     7
 79
     5
170
     0
171
     0
290
     0
174
     0
 93
       13
 44
0.0
173
     0
291
     1
 45
0.0
1001
ACAD
1000
AcDbSavedByObjectVersion
1070
     0
  0
VISUALSTYLE
  5
2E
102
{ACAD_REACTORS
330
2A
102
}
102
{ACAD_XDICTIONARY
360
C6
102
}
330
2A
100
AcDbVisualStyle
  2
GouraudWithEdges
 70
     3
 71
     2
 72
     2
 73
     1
 90
        2
 40
-0.6
 41
30.0
 62
     5
 63
     7
421
 16777215
 74
     1
 91
        4
 64
     7
 65
   257
 75
     1
175
     1
 42
1.0
 92
        0
 66
   257
 43
1.0
 76
     1
 77
     6
 78
     2
 67
     7
 79
     5
170
     0
171
     0
290
     0
174
     0
 93
       13
 44
0.0
173
     0
291
     1
 45
0.0
1001
ACAD
1000
AcDbSavedByObjectVersion
1070
     0
  0
VISUALSTYLE
  5
38
102
{ACAD_REACTORS
330
2A
102
}
102
{ACAD_XDICTIONARY
360
DA
102
}
330
2A
100
AcDbVisualStyle
  2
Linepattern
 70
    14
 71
     2
 72
     2
 73
     0
 90
        0
 40
-0.6
 41
-30.0
 62
     5
 63
     7
421
 16777215
 74
     1
 91
        4
 64
     7
 65
   257
 75
     7
175
     7
 42
1.0
 92
        8
 66
     7
 43
1.0
 76
     1
 77
     6
 78
     2
 67
     7
 79
     5
170
     0
171
     0
290
     0
174
     0
 93
        1
 44
0.0
173
     0
291
     1
 45
0.0
1001
ACAD
1000
AcDbSavedByObjectVersion
1070
     0
  0
VISUALSTYLE
  5
33
102
{ACAD_REACTORS
330
2A
102
}
102
{ACAD_XDICTIONARY
360
D0
102
}
330
2A
100
AcDbVisualStyle
  2
Realistic
 70
     8
 71
     2
 72
     2
 73
     0
 90
        0
 40
-0.6
 41
-30.0
 62
     5
 63
     7
421
 16777215
 74
     1
 91
        0
 64
     7
 65
   257
 75
     1
175
     1
 42
1.0
 92
        8
 66
     8
424
  7895160
 43
1.0
 76
     1
 77
     6
 78
     2
 67
     7
 79
     5
170
     0
171
     0
290
     0
174
     0
 93
       13
 44
0.0
173
     0
291
     0
 45
0.0
1001
ACAD
1000
AcDbSavedByObjectVersion
1070
     0
  0
VISUALSTYLE
  5
37
102
{ACAD_REACTORS
330
2A
102
}
102
{ACAD_XDICTIONARY
360
D8
102
}
330
2A
100
AcDbVisualStyle
  2
Thicken
 70
    13
 71
     2
 72
     2
 73
     0
 90
        0
 40
-0.6
 41
-30.0
 62
     5
 63
     7
421
 16777215
 74
     1
 91
        4
 64
     7
 65
   257
 75
     1
175
     1
 42
1.0
 92
       12
 66
     7
 43
1.0
 76
     1
 77
     6
 78
     2
 67
     7
 79
     5
170
     0
171
     0
290
     0
174
     0
 93
        1
 44
0.0
173
     0
291
     1
 45
0.0
1001
ACAD
1000
AcDbSavedByObjectVersion
1070
     0
  0
DICTIONARY
  5
E2
330
3D
100
AcDbDictionary
280
     1
281
     1
  3
ACAD_XREC_ROUNDTRIP
360
E3
  0
DICTIONARY
  5
E0
330
3C
100
AcDbDictionary
280
     1
281
     1
  3
ACAD_XREC_ROUNDTRIP
360
E1
  0
DICTIONARY
  5
E4
330
3E
100
AcDbDictionary
280
     1
281
     1
  3
ACAD_XREC_ROUNDTRIP
360
E5
  0
DICTIONARY
  5
C8
330
2F
100
AcDbDictionary
280
     1
281
     1
  3
ACAD_XREC_ROUNDTRIP
360
C9
  0
DICTIONARY
  5
CC
330
31
100
AcDbDictionary
280
     1
281
     1
  3
ACAD_XREC_ROUNDTRIP
360
CD
  0
DICTIONARY
  5
CA
330
30
100
AcDbDictionary
280
     1
281
     1
  3
ACAD_XREC_ROUNDTRIP
360
CB
  0
DICTIONARY
  5
CE
330
32
100
AcDbDictionary
280
     1
281
     1
  3
ACAD_XREC_ROUNDTRIP
360
CF
  0
DICTIONARY
  5
D6
330
36
100
AcDbDictionary
280
     1
281
     1
  3
ACAD_XREC_ROUNDTRIP
360
D7
  0
DICTIONARY
  5
DE
330
3A
100
AcDbDictionary
280
     1
281
     1
  3
ACAD_XREC_ROUNDTRIP
360
DF
  0
DICTIONARY
  5
D2
330
34
100
AcDbDictionary
280
     1
281
     1
  3
ACAD_XREC_ROUNDTRIP
360
D3
  0
DICTIONARY
  5
D4
330
35
100
AcDbDictionary
280
     1
281
     1
  3
ACAD_XREC_ROUNDTRIP
360
D5
  0
DICTIONARY
  5
DC
330
39
100
AcDbDictionary
280
     1
281
     1
  3
ACAD_XREC_ROUNDTRIP
360
DD
  0
DICTIONARY
  5
C0
330
2B
100
AcDbDictionary
280
     1
281
     1
  3
ACAD_XREC_ROUNDTRIP
360
C1
  0
DICTIONARY
  5
C2
330
2C
100
AcDbDictionary
280
     1
281
     1
  3
ACAD_XREC_ROUNDTRIP
360
C3
  0
DICTIONARY
  5
C4
330
2D
100
AcDbDictionary
280
     1
281
     1
  3
ACAD_XREC_ROUNDTRIP
360
C5
  0
DICTIONARY
  5
C6
330
2E
100
AcDbDictionary
280
     1
281
     1
  3
ACAD_XREC_ROUNDTRIP
360
C7
  0
DICTIONARY
  5
DA
330
38
100
AcDbDictionary
280
     1
281
     1
  3
ACAD_XREC_ROUNDTRIP
360
DB
  0
DICTIONARY
  5
D0
330
33
100
AcDbDictionary
280
     1
281
     1
  3
ACAD_XREC_ROUNDTRIP
360
D1
  0
DICTIONARY
  5
D8
330
37
100
AcDbDictionary
280
     1
281
     1
  3
ACAD_XREC_ROUNDTRIP
360
D9
  0
XRECORD
  5
E3
102
{ACAD_REACTORS
330
E2
102
}
330
E2
100
AcDbXrecord
280
     1
102
MATERIAL
148
0.0
149
0.0
149
0.0
 93
        0
 94
      127
282
     0
 72
     1
 77
     1
171
     1
175
     1
179
     1
273
     0
  0
XRECORD
  5
E1
102
{ACAD_REACTORS
330
E0
102
}
330
E0
100
AcDbXrecord
280
     1
102
MATERIAL
148
0.0
149
0.0
149
0.0
 93
        0
 94
      127
282
     0
 72
     1
 77
     1
171
     1
175
     1
179
     1
273
     0
  0
XRECORD
  5
E5
102
{ACAD_REACTORS
330
E4
102
}
330
E4
100
AcDbXrecord
280
     1
102
MATERIAL
148
0.0
149
0.0
149
0.0
 93
        0
 94
      127
282
     0
 72
     1
 77
     1
171
     1
175
     1
179
     1
273
     0
  0
XRECORD
  5
C9
102
{ACAD_REACTORS
330
C8
102
}
330
C8
100
AcDbXrecord
280
     1
102
RTVSPropertyOp0
 70
     1
102
RTVSPropertyOp1
 70
     1
102
RTVSPropertyOp2
 70
     1
102
RTVSPropertyOp3
 70
     1
102
RTVSPropertyOp4
 70
     1
102
RTVSPropertyOp5
 70
     1
102
RTVSPropertyOp6
 70
     1
102
RTVSPropertyOp7
 70
     1
102
RTVSPropertyOp8
 70
     1
102
RTVSPropertyOp9
 70
     1
102
RTVSPropertyOp10
 70
     1
102
RTVSPropertyOp11
 70
     1
102
RTVSPropertyOp12
 70
     1
102
RTVSPropertyOp13
 70
     1
102
RTVSPropertyOp14
 70
     1
102
RTVSPropertyOp15
 70
     1
102
RTVSPropertyOp16
 70
     1
102
RTVSPropertyOp17
 70
     1
102
RTVSPropertyOp18
 70
     1
102
RTVSPropertyOp19
 70
     1
102
RTVSPropertyOp20
 70
     1
102
RTVSPropertyOp21
 70
     1
102
RTVSPropertyOp22
 70
     1
102
RTVSPropertyOp23
 70
     1
102
RTVSPropertyOp24
 70
     1
102
RTVSPropertyOp25
 70
     1
102
RTVSPropertyOp26
 70
     1
102
RTVSPropertyOp27
 70
     1
102
RTVSPropertyOp28
 70
     1
102
RTVSPropertyOp29
 70
     1
102
RTVSPropertyOp30
 70
     1
102
RTVSPropertyOp31
 70
     1
102
RTVSPropertyOp32
 70
     1
  0
XRECORD
  5
CD
102
{ACAD_REACTORS
330
CC
102
}
330
CC
100
AcDbXrecord
280
     1
102
RTVSPropertyOp0
 70
     1
102
RTVSPropertyOp1
 70
     1
102
RTVSPropertyOp2
 70
     1
102
RTVSPropertyOp3
 70
     1
102
RTVSPropertyOp4
 70
     1
102
RTVSPropertyOp5
 70
     1
102
RTVSPropertyOp6
 70
     1
102
RTVSPropertyOp7
 70
     1
102
RTVSPropertyOp8
 70
     1
102
RTVSPropertyOp9
 70
     1
102
RTVSPropertyOp10
 70
     1
102
RTVSPropertyOp11
 70
     1
102
RTVSPropertyOp12
 70
     1
102
RTVSPropertyOp13
 70
     1
102
RTVSPropertyOp14
 70
     1
102
RTVSPropertyOp15
 70
     1
102
RTVSPropertyOp16
 70
     1
102
RTVSPropertyOp17
 70
     1
102
RTVSPropertyOp18
 70
     1
102
RTVSPropertyOp19
 70
     1
102
RTVSPropertyOp20
 70
     1
102
RTVSPropertyOp21
 70
     1
102
RTVSPropertyOp22
 70
     1
102
RTVSPropertyOp23
 70
     1
102
RTVSPropertyOp24
 70
     1
102
RTVSPropertyOp25
 70
     1
102
RTVSPropertyOp26
 70
     1
102
RTVSPropertyOp27
 70
     1
102
RTVSPropertyOp28
 70
     1
102
RTVSPropertyOp29
 70
     1
102
RTVSPropertyOp30
 70
     1
102
RTVSPropertyOp31
 70
     1
102
RTVSPropertyOp32
 70
     1
  0
XRECORD
  5
CB
102
{ACAD_REACTORS
330
CA
102
}
330
CA
100
AcDbXrecord
280
     1
102
RTVSPropertyOp0
 70
     1
102
RTVSPropertyOp1
 70
     1
102
RTVSPropertyOp2
 70
     1
102
RTVSPropertyOp3
 70
     1
102
RTVSPropertyOp4
 70
     1
102
RTVSPropertyOp5
 70
     1
102
RTVSPropertyOp6
 70
     1
102
RTVSPropertyOp7
 70
     1
102
RTVSPropertyOp8
 70
     1
102
RTVSPropertyOp9
 70
     1
102
RTVSPropertyOp10
 70
     1
102
RTVSPropertyOp11
 70
     1
102
RTVSPropertyOp12
 70
     1
102
RTVSPropertyOp13
 70
     1
102
RTVSPropertyOp14
 70
     1
102
RTVSPropertyOp15
 70
     1
102
RTVSPropertyOp16
 70
     1
102
RTVSPropertyOp17
 70
     1
102
RTVSPropertyOp18
 70
     1
102
RTVSPropertyOp19
 70
     1
102
RTVSPropertyOp20
 70
     1
102
RTVSPropertyOp21
 70
     1
102
RTVSPropertyOp22
 70
     1
102
RTVSPropertyOp23
 70
     1
102
RTVSPropertyOp24
 70
     1
102
RTVSPropertyOp25
 70
     1
102
RTVSPropertyOp26
 70
     1
102
RTVSPropertyOp27
 70
     1
102
RTVSPropertyOp28
 70
     1
102
RTVSPropertyOp29
 70
     1
102
RTVSPropertyOp30
 70
     1
102
RTVSPropertyOp31
 70
     1
102
RTVSPropertyOp32
 70
     1
  0
XRECORD
  5
CF
102
{ACAD_REACTORS
330
CE
102
}
330
CE
100
AcDbXrecord
280
     1
102
RTVSPropertyOp0
 70
     1
102
RTVSPropertyOp1
 70
     1
102
RTVSPropertyOp2
 70
     1
102
RTVSPropertyOp3
 70
     1
102
RTVSPropertyOp4
 70
     1
102
RTVSPropertyOp5
 70
     1
102
RTVSPropertyOp6
 70
     1
102
RTVSPropertyOp7
 70
     1
102
RTVSPropertyOp8
 70
     1
102
RTVSPropertyOp9
 70
     1
102
RTVSPropertyOp10
 70
     1
102
RTVSPropertyOp11
 70
     1
102
RTVSPropertyOp12
 70
     1
102
RTVSPropertyOp13
 70
     1
102
RTVSPropertyOp14
 70
     1
102
RTVSPropertyOp15
 70
     1
102
RTVSPropertyOp16
 70
     1
102
RTVSPropertyOp17
 70
     1
102
RTVSPropertyOp18
 70
     1
102
RTVSPropertyOp19
 70
     1
102
RTVSPropertyOp20
 70
     1
102
RTVSPropertyOp21
 70
     1
102
RTVSPropertyOp22
 70
     1
102
RTVSPropertyOp23
 70
     1
102
RTVSPropertyOp24
 70
     1
102
RTVSPropertyOp25
 70
     1
102
RTVSPropertyOp26
 70
     1
102
RTVSPropertyOp27
 70
     1
102
RTVSPropertyOp28
 70
     1
102
RTVSPropertyOp29
 70
     1
102
RTVSPropertyOp30
 70
     1
102
RTVSPropertyOp31
 70
     1
102
RTVSPropertyOp32
 70
     1
  0
XRECORD
  5
D7
102
{ACAD_REACTORS
330
D6
102
}
330
D6
100
AcDbXrecord
280
     1
102
RTVSPropertyOp0
 70
     1
102
RTVSPropertyOp1
 70
     1
102
RTVSPropertyOp2
 70
     1
102
RTVSPropertyOp3
 70
     1
102
RTVSPropertyOp4
 70
     1
102
RTVSPropertyOp5
 70
     1
102
RTVSPropertyOp6
 70
     1
102
RTVSPropertyOp7
 70
     1
102
RTVSPropertyOp8
 70
     1
102
RTVSPropertyOp9
 70
     1
102
RTVSPropertyOp10
 70
     1
102
RTVSPropertyOp11
 70
     1
102
RTVSPropertyOp12
 70
     1
102
RTVSPropertyOp13
 70
     1
102
RTVSPropertyOp14
 70
     1
102
RTVSPropertyOp15
 70
     1
102
RTVSPropertyOp16
 70
     1
102
RTVSPropertyOp17
 70
     1
102
RTVSPropertyOp18
 70
     1
102
RTVSPropertyOp19
 70
     1
102
RTVSPropertyOp20
 70
     1
102
RTVSPropertyOp21
 70
     1
102
RTVSPropertyOp22
 70
     1
102
RTVSPropertyOp23
 70
     1
102
RTVSPropertyOp24
 70
     1
102
RTVSPropertyOp25
 70
     1
102
RTVSPropertyOp26
 70
     1
102
RTVSPropertyOp27
 70
     1
102
RTVSPropertyOp28
 70
     1
102
RTVSPropertyOp29
 70
     1
102
RTVSPropertyOp30
 70
     1
102
RTVSPropertyOp31
 70
     1
102
RTVSPropertyOp32
 70
     1
  0
XRECORD
  5
DF
102
{ACAD_REACTORS
330
DE
102
}
330
DE
100
AcDbXrecord
280
     1
102
RTVSPropertyOp0
 70
     1
102
RTVSPropertyOp1
 70
     1
102
RTVSPropertyOp2
 70
     1
102
RTVSPropertyOp3
 70
     1
102
RTVSPropertyOp4
 70
     1
102
RTVSPropertyOp5
 70
     1
102
RTVSPropertyOp6
 70
     1
102
RTVSPropertyOp7
 70
     1
102
RTVSPropertyOp8
 70
     1
102
RTVSPropertyOp9
 70
     1
102
RTVSPropertyOp10
 70
     1
102
RTVSPropertyOp11
 70
     1
102
RTVSPropertyOp12
 70
     1
102
RTVSPropertyOp13
 70
     1
102
RTVSPropertyOp14
 70
     1
102
RTVSPropertyOp15
 70
     1
102
RTVSPropertyOp16
 70
     1
102
RTVSPropertyOp17
 70
     1
102
RTVSPropertyOp18
 70
     1
102
RTVSPropertyOp19
 70
     1
102
RTVSPropertyOp20
 70
     1
102
RTVSPropertyOp21
 70
     1
102
RTVSPropertyOp22
 70
     1
102
RTVSPropertyOp23
 70
     1
102
RTVSPropertyOp24
 70
     1
102
RTVSPropertyOp25
 70
     1
102
RTVSPropertyOp26
 70
     1
102
RTVSPropertyOp27
 70
     1
102
RTVSPropertyOp28
 70
     1
102
RTVSPropertyOp29
 70
     1
102
RTVSPropertyOp30
 70
     1
102
RTVSPropertyOp31
 70
     1
102
RTVSPropertyOp32
 70
     1
  0
XRECORD
  5
D3
102
{ACAD_REACTORS
330
D2
102
}
330
D2
100
AcDbXrecord
280
     1
102
RTVSPropertyOp0
 70
     1
102
RTVSPropertyOp1
 70
     1
102
RTVSPropertyOp2
 70
     1
102
RTVSPropertyOp3
 70
     1
102
RTVSPropertyOp4
 70
     1
102
RTVSPropertyOp5
 70
     1
102
RTVSPropertyOp6
 70
     1
102
RTVSPropertyOp7
 70
     1
102
RTVSPropertyOp8
 70
     1
102
RTVSPropertyOp9
 70
     1
102
RTVSPropertyOp10
 70
     1
102
RTVSPropertyOp11
 70
     1
102
RTVSPropertyOp12
 70
     1
102
RTVSPropertyOp13
 70
     1
102
RTVSPropertyOp14
 70
     1
102
RTVSPropertyOp15
 70
     1
102
RTVSPropertyOp16
 70
     1
102
RTVSPropertyOp17
 70
     1
102
RTVSPropertyOp18
 70
     1
102
RTVSPropertyOp19
 70
     1
102
RTVSPropertyOp20
 70
     1
102
RTVSPropertyOp21
 70
     1
102
RTVSPropertyOp22
 70
     1
102
RTVSPropertyOp23
 70
     1
102
RTVSPropertyOp24
 70
     1
102
RTVSPropertyOp25
 70
     1
102
RTVSPropertyOp26
 70
     1
102
RTVSPropertyOp27
 70
     1
102
RTVSPropertyOp28
 70
     1
102
RTVSPropertyOp29
 70
     1
102
RTVSPropertyOp30
 70
     1
102
RTVSPropertyOp31
 70
     1
102
RTVSPropertyOp32
 70
     1
  0
XRECORD
  5
D5
102
{ACAD_REACTORS
330
D4
102
}
330
D4
100
AcDbXrecord
280
     1
102
RTVSPropertyOp0
 70
     1
102
RTVSPropertyOp1
 70
     1
102
RTVSPropertyOp2
 70
     1
102
RTVSPropertyOp3
 70
     1
102
RTVSPropertyOp4
 70
     1
102
RTVSPropertyOp5
 70
     1
102
RTVSPropertyOp6
 70
     1
102
RTVSPropertyOp7
 70
     1
102
RTVSPropertyOp8
 70
     1
102
RTVSPropertyOp9
 70
     1
102
RTVSPropertyOp10
 70
     1
102
RTVSPropertyOp11
 70
     1
102
RTVSPropertyOp12
 70
     1
102
RTVSPropertyOp13
 70
     1
102
RTVSPropertyOp14
 70
     1
102
RTVSPropertyOp15
 70
     1
102
RTVSPropertyOp16
 70
     1
102
RTVSPropertyOp17
 70
     1
102
RTVSPropertyOp18
 70
     1
102
RTVSPropertyOp19
 70
     1
102
RTVSPropertyOp20
 70
     1
102
RTVSPropertyOp21
 70
     1
102
RTVSPropertyOp22
 70
     1
102
RTVSPropertyOp23
 70
     1
102
RTVSPropertyOp24
 70
     1
102
RTVSPropertyOp25
 70
     1
102
RTVSPropertyOp26
 70
     1
102
RTVSPropertyOp27
 70
     1
102
RTVSPropertyOp28
 70
     1
102
RTVSPropertyOp29
 70
     1
102
RTVSPropertyOp30
 70
     1
102
RTVSPropertyOp31
 70
     1
102
RTVSPropertyOp32
 70
     1
  0
XRECORD
  5
DD
102
{ACAD_REACTORS
330
DC
102
}
330
DC
100
AcDbXrecord
280
     1
102
RTVSPropertyOp0
 70
     1
102
RTVSPropertyOp1
 70
     1
102
RTVSPropertyOp2
 70
     1
102
RTVSPropertyOp3
 70
     1
102
RTVSPropertyOp4
 70
     1
102
RTVSPropertyOp5
 70
     1
102
RTVSPropertyOp6
 70
     1
102
RTVSPropertyOp7
 70
     1
102
RTVSPropertyOp8
 70
     1
102
RTVSPropertyOp9
 70
     1
102
RTVSPropertyOp10
 70
     1
102
RTVSPropertyOp11
 70
     1
102
RTVSPropertyOp12
 70
     1
102
RTVSPropertyOp13
 70
     1
102
RTVSPropertyOp14
 70
     1
102
RTVSPropertyOp15
 70
     1
102
RTVSPropertyOp16
 70
     1
102
RTVSPropertyOp17
 70
     1
102
RTVSPropertyOp18
 70
     1
102
RTVSPropertyOp19
 70
     1
102
RTVSPropertyOp20
 70
     1
102
RTVSPropertyOp21
 70
     1
102
RTVSPropertyOp22
 70
     1
102
RTVSPropertyOp23
 70
     1
102
RTVSPropertyOp24
 70
     1
102
RTVSPropertyOp25
 70
     1
102
RTVSPropertyOp26
 70
     1
102
RTVSPropertyOp27
 70
     1
102
RTVSPropertyOp28
 70
     1
102
RTVSPropertyOp29
 70
     1
102
RTVSPropertyOp30
 70
     1
102
RTVSPropertyOp31
 70
     1
102
RTVSPropertyOp32
 70
     1
  0
XRECORD
  5
C1
102
{ACAD_REACTORS
330
C0
102
}
330
C0
100
AcDbXrecord
280
     1
102
RTVSPropertyOp0
 70
     1
102
RTVSPropertyOp1
 70
     1
102
RTVSPropertyOp2
 70
     1
102
RTVSPropertyOp3
 70
     1
102
RTVSPropertyOp4
 70
     1
102
RTVSPropertyOp5
 70
     1
102
RTVSPropertyOp6
 70
     1
102
RTVSPropertyOp7
 70
     1
102
RTVSPropertyOp8
 70
     1
102
RTVSPropertyOp9
 70
     1
102
RTVSPropertyOp10
 70
     1
102
RTVSPropertyOp11
 70
     1
102
RTVSPropertyOp12
 70
     1
102
RTVSPropertyOp13
 70
     1
102
RTVSPropertyOp14
 70
     1
102
RTVSPropertyOp15
 70
     1
102
RTVSPropertyOp16
 70
     1
102
RTVSPropertyOp17
 70
     1
102
RTVSPropertyOp18
 70
     1
102
RTVSPropertyOp19
 70
     1
102
RTVSPropertyOp20
 70
     1
102
RTVSPropertyOp21
 70
     1
102
RTVSPropertyOp22
 70
     1
102
RTVSPropertyOp23
 70
     1
102
RTVSPropertyOp24
 70
     1
102
RTVSPropertyOp25
 70
     1
102
RTVSPropertyOp26
 70
     1
102
RTVSPropertyOp27
 70
     1
102
RTVSPropertyOp28
 70
     1
102
RTVSPropertyOp29
 70
     1
102
RTVSPropertyOp30
 70
     1
102
RTVSPropertyOp31
 70
     1
102
RTVSPropertyOp32
 70
     1
  0
XRECORD
  5
C3
102
{ACAD_REACTORS
330
C2
102
}
330
C2
100
AcDbXrecord
280
     1
102
RTVSPropertyOp0
 70
     1
102
RTVSPropertyOp1
 70
     1
102
RTVSPropertyOp2
 70
     1
102
RTVSPropertyOp3
 70
     1
102
RTVSPropertyOp4
 70
     1
102
RTVSPropertyOp5
 70
     1
102
RTVSPropertyOp6
 70
     1
102
RTVSPropertyOp7
 70
     1
102
RTVSPropertyOp8
 70
     1
102
RTVSPropertyOp9
 70
     1
102
RTVSPropertyOp10
 70
     1
102
RTVSPropertyOp11
 70
     1
102
RTVSPropertyOp12
 70
     1
102
RTVSPropertyOp13
 70
     1
102
RTVSPropertyOp14
 70
     1
102
RTVSPropertyOp15
 70
     1
102
RTVSPropertyOp16
 70
     1
102
RTVSPropertyOp17
 70
     1
102
RTVSPropertyOp18
 70
     1
102
RTVSPropertyOp19
 70
     1
102
RTVSPropertyOp20
 70
     1
102
RTVSPropertyOp21
 70
     1
102
RTVSPropertyOp22
 70
     1
102
RTVSPropertyOp23
 70
     1
102
RTVSPropertyOp24
 70
     1
102
RTVSPropertyOp25
 70
     1
102
RTVSPropertyOp26
 70
     1
102
RTVSPropertyOp27
 70
     1
102
RTVSPropertyOp28
 70
     1
102
RTVSPropertyOp29
 70
     1
102
RTVSPropertyOp30
 70
     1
102
RTVSPropertyOp31
 70
     1
102
RTVSPropertyOp32
 70
     1
  0
XRECORD
  5
C5
102
{ACAD_REACTORS
330
C4
102
}
330
C4
100
AcDbXrecord
280
     1
102
RTVSPropertyOp0
 70
     1
102
RTVSPropertyOp1
 70
     1
102
RTVSPropertyOp2
 70
     1
102
RTVSPropertyOp3
 70
     1
102
RTVSPropertyOp4
 70
     1
102
RTVSPropertyOp5
 70
     1
102
RTVSPropertyOp6
 70
     1
102
RTVSPropertyOp7
 70
     1
102
RTVSPropertyOp8
 70
     1
102
RTVSPropertyOp9
 70
     1
102
RTVSPropertyOp10
 70
     1
102
RTVSPropertyOp11
 70
     1
102
RTVSPropertyOp12
 70
     1
102
RTVSPropertyOp13
 70
     1
102
RTVSPropertyOp14
 70
     1
102
RTVSPropertyOp15
 70
     1
102
RTVSPropertyOp16
 70
     1
102
RTVSPropertyOp17
 70
     1
102
RTVSPropertyOp18
 70
     1
102
RTVSPropertyOp19
 70
     1
102
RTVSPropertyOp20
 70
     1
102
RTVSPropertyOp21
 70
     1
102
RTVSPropertyOp22
 70
     1
102
RTVSPropertyOp23
 70
     1
102
RTVSPropertyOp24
 70
     1
102
RTVSPropertyOp25
 70
     1
102
RTVSPropertyOp26
 70
     1
102
RTVSPropertyOp27
 70
     1
102
RTVSPropertyOp28
 70
     1
102
RTVSPropertyOp29
 70
     1
102
RTVSPropertyOp30
 70
     1
102
RTVSPropertyOp31
 70
     1
102
RTVSPropertyOp32
 70
     1
  0
XRECORD
  5
C7
102
{ACAD_REACTORS
330
C6
102
}
330
C6
100
AcDbXrecord
280
     1
102
RTVSPropertyOp0
 70
     1
102
RTVSPropertyOp1
 70
     1
102
RTVSPropertyOp2
 70
     1
102
RTVSPropertyOp3
 70
     1
102
RTVSPropertyOp4
 70
     1
102
RTVSPropertyOp5
 70
     1
102
RTVSPropertyOp6
 70
     1
102
RTVSPropertyOp7
 70
     1
102
RTVSPropertyOp8
 70
     1
102
RTVSPropertyOp9
 70
     1
102
RTVSPropertyOp10
 70
     1
102
RTVSPropertyOp11
 70
     1
102
RTVSPropertyOp12
 70
     1
102
RTVSPropertyOp13
 70
     1
102
RTVSPropertyOp14
 70
     1
102
RTVSPropertyOp15
 70
     1
102
RTVSPropertyOp16
 70
     1
102
RTVSPropertyOp17
 70
     1
102
RTVSPropertyOp18
 70
     1
102
RTVSPropertyOp19
 70
     1
102
RTVSPropertyOp20
 70
     1
102
RTVSPropertyOp21
 70
     1
102
RTVSPropertyOp22
 70
     1
102
RTVSPropertyOp23
 70
     1
102
RTVSPropertyOp24
 70
     1
102
RTVSPropertyOp25
 70
     1
102
RTVSPropertyOp26
 70
     1
102
RTVSPropertyOp27
 70
     1
102
RTVSPropertyOp28
 70
     1
102
RTVSPropertyOp29
 70
     1
102
RTVSPropertyOp30
 70
     1
102
RTVSPropertyOp31
 70
     1
102
RTVSPropertyOp32
 70
     1
  0
XRECORD
  5
DB
102
{ACAD_REACTORS
330
DA
102
}
330
DA
100
AcDbXrecord
280
     1
102
RTVSPropertyOp0
 70
     1
102
RTVSPropertyOp1
 70
     1
102
RTVSPropertyOp2
 70
     1
102
RTVSPropertyOp3
 70
     1
102
RTVSPropertyOp4
 70
     1
102
RTVSPropertyOp5
 70
     1
102
RTVSPropertyOp6
 70
     1
102
RTVSPropertyOp7
 70
     1
102
RTVSPropertyOp8
 70
     1
102
RTVSPropertyOp9
 70
     1
102
RTVSPropertyOp10
 70
     1
102
RTVSPropertyOp11
 70
     1
102
RTVSPropertyOp12
 70
     1
102
RTVSPropertyOp13
 70
     1
102
RTVSPropertyOp14
 70
     1
102
RTVSPropertyOp15
 70
     1
102
RTVSPropertyOp16
 70
     1
102
RTVSPropertyOp17
 70
     1
102
RTVSPropertyOp18
 70
     1
102
RTVSPropertyOp19
 70
     1
102
RTVSPropertyOp20
 70
     1
102
RTVSPropertyOp21
 70
     1
102
RTVSPropertyOp22
 70
     1
102
RTVSPropertyOp23
 70
     1
102
RTVSPropertyOp24
 70
     1
102
RTVSPropertyOp25
 70
     1
102
RTVSPropertyOp26
 70
     1
102
RTVSPropertyOp27
 70
     1
102
RTVSPropertyOp28
 70
     1
102
RTVSPropertyOp29
 70
     1
102
RTVSPropertyOp30
 70
     1
102
RTVSPropertyOp31
 70
     1
102
RTVSPropertyOp32
 70
     1
  0
XRECORD
  5
D1
102
{ACAD_REACTORS
330
D0
102
}
330
D0
100
AcDbXrecord
280
     1
102
RTVSPropertyOp0
 70
     1
102
RTVSPropertyOp1
 70
     1
102
RTVSPropertyOp2
 70
     1
102
RTVSPropertyOp3
 70
     1
102
RTVSPropertyOp4
 70
     1
102
RTVSPropertyOp5
 70
     1
102
RTVSPropertyOp6
 70
     1
102
RTVSPropertyOp7
 70
     1
102
RTVSPropertyOp8
 70
     1
102
RTVSPropertyOp9
 70
     1
102
RTVSPropertyOp10
 70
     1
102
RTVSPropertyOp11
 70
     1
102
RTVSPropertyOp12
 70
     1
102
RTVSPropertyOp13
 70
     1
102
RTVSPropertyOp14
 70
     1
102
RTVSPropertyOp15
 70
     1
102
RTVSPropertyOp16
 70
     1
102
RTVSPropertyOp17
 70
     1
102
RTVSPropertyOp18
 70
     1
102
RTVSPropertyOp19
 70
     1
102
RTVSPropertyOp20
 70
     1
102
RTVSPropertyOp21
 70
     1
102
RTVSPropertyOp22
 70
     1
102
RTVSPropertyOp23
 70
     1
102
RTVSPropertyOp24
 70
     1
102
RTVSPropertyOp25
 70
     1
102
RTVSPropertyOp26
 70
     1
102
RTVSPropertyOp27
 70
     1
102
RTVSPropertyOp28
 70
     1
102
RTVSPropertyOp29
 70
     1
102
RTVSPropertyOp30
 70
     1
102
RTVSPropertyOp31
 70
     1
102
RTVSPropertyOp32
 70
     1
  0
XRECORD
  5
D9
102
{ACAD_REACTORS
330
D8
102
}
330
D8
100
AcDbXrecord
280
     1
102
RTVSPropertyOp0
 70
     1
102
RTVSPropertyOp1
 70
     1
102
RTVSPropertyOp2
 70
     1
102
RTVSPropertyOp3
 70
     1
102
RTVSPropertyOp4
 70
     1
102
RTVSPropertyOp5
 70
     1
102
RTVSPropertyOp6
 70
     1
102
RTVSPropertyOp7
 70
     1
102
RTVSPropertyOp8
 70
     1
102
RTVSPropertyOp9
 70
     1
102
RTVSPropertyOp10
 70
     1
102
RTVSPropertyOp11
 70
     1
102
RTVSPropertyOp12
 70
     1
102
RTVSPropertyOp13
 70
     1
102
RTVSPropertyOp14
 70
     1
102
RTVSPropertyOp15
 70
     1
102
RTVSPropertyOp16
 70
     1
102
RTVSPropertyOp17
 70
     1
102
RTVSPropertyOp18
 70
     1
102
RTVSPropertyOp19
 70
     1
102
RTVSPropertyOp20
 70
     1
102
RTVSPropertyOp21
 70
     1
102
RTVSPropertyOp22
 70
     1
102
RTVSPropertyOp23
 70
     1
102
RTVSPropertyOp24
 70
     1
102
RTVSPropertyOp25
 70
     1
102
RTVSPropertyOp26
 70
     1
102
RTVSPropertyOp27
 70
     1
102
RTVSPropertyOp28
 70
     1
102
RTVSPropertyOp29
 70
     1
102
RTVSPropertyOp30
 70
     1
102
RTVSPropertyOp31
 70
     1
102
RTVSPropertyOp32
 70
     1
  0
ENDSEC
  0
EOF
