  0
SECTION
  2
HEADER
  9
$ACADVER
  1
AC1018
  9
$ACADMAINTVER
 70
     0
  9
$DWGCODEPAGE
  3
ANSI_1252
  9
$INSBASE
 10
0.0
 20
0.0
 30
0.0
  9
$EXTMIN
 10
1.000000000000000E+20
 20
1.000000000000000E+20
 30
1.000000000000000E+20
  9
$EXTMAX
 10
-1.000000000000000E+20
 20
-1.000000000000000E+20
 30
-1.000000000000000E+20
  9
$LIMMIN
 10
0.0
 20
0.0
  9
$LIMMAX
 10
12.0
 20
9.0
  9
$ORTHOMODE
 70
     0
  9
$REGENMODE
 70
     1
  9
$FILLMODE
 70
     1
  9
$QTEXTMODE
 70
     0
  9
$MIRRTEXT
 70
     1
  9
$LTSCALE
 40
1.0
  9
$ATTMODE
 70
     1
  9
$TEXTSIZE
 40
0.2
  9
$TRACEWID
 40
0.05
  9
$TEXTSTYLE
  7
Standard
  9
$CLAYER
  8
0
  9
$CELTYPE
  6
ByLayer
  9
$CECOLOR
 62
   256
  9
$CELTSCALE
 40
1.0
  9
$DISPSILH
 70
     0
  9
$DIMSCALE
 40
1.0
  9
$DIMASZ
 40
0.18
  9
$DIMEXO
 40
0.0625
  9
$DIMDLI
 40
0.38
  9
$DIMRND
 40
0.0
  9
$DIMDLE
 40
0.0
  9
$DIMEXE
 40
0.18
  9
$DIMTP
 40
0.0
  9
$DIMTM
 40
0.0
  9
$DIMTXT
 40
0.18
  9
$DIMCEN
 40
0.09
  9
$DIMTSZ
 40
0.0
  9
$DIMTOL
 70
     0
  9
$DIMLIM
 70
     0
  9
$DIMTIH
 70
     1
  9
$DIMTOH
 70
     1
  9
$DIMSE1
 70
     0
  9
$DIMSE2
 70
     0
  9
$DIMTAD
 70
     0
  9
$DIMZIN
 70
     0
  9
$DIMBLK
  1

  9
$DIMASO
 70
     1
  9
$DIMSHO
 70
     1
  9
$DIMPOST
  1

  9
$DIMAPOST
  1

  9
$DIMALT
 70
     0
  9
$DIMALTD
 70
     2
  9
$DIMALTF
 40
25.4
  9
$DIMLFAC
 40
1.0
  9
$DIMTOFL
 70
     0
  9
$DIMTVP
 40
0.0
  9
$DIMTIX
 70
     0
  9
$DIMSOXD
 70
     0
  9
$DIMSAH
 70
     0
  9
$DIMBLK1
  1

  9
$DIMBLK2
  1

  9
$DIMSTYLE
  2
Standard
  9
$DIMCLRD
 70
     0
  9
$DIMCLRE
 70
     0
  9
$DIMCLRT
 70
     0
  9
$DIMTFAC
 40
1.0
  9
$DIMGAP
 40
0.09
  9
$DIMJUST
 70
     0
  9
$DIMSD1
 70
     0
  9
$DIMSD2
 70
     0
  9
$DIMTOLJ
 70
     1
  9
$DIMTZIN
 70
     0
  9
$DIMALTZ
 70
     0
  9
$DIMALTTZ
 70
     0
  9
$DIMUPT
 70
     0
  9
$DIMDEC
 70
     4
  9
$DIMTDEC
 70
     4
  9
$DIMALTU
 70
     2
  9
$DIMALTTD
 70
     2
  9
$DIMTXSTY
  7
Standard
  9
$DIMAUNIT
 70
     0
  9
$DIMADEC
 70
     0
  9
$DIMALTRND
 40
0.0
  9
$DIMAZIN
 70
     0
  9
$DIMDSEP
 70
    46
  9
$DIMATFIT
 70
     3
  9
$DIMFRAC
 70
     0
  9
$DIMLDRBLK
  1

  9
$DIMLUNIT
 70
     2
  9
$DIMLWD
 70
    -2
  9
$DIMLWE
 70
    -2
  9
$DIMTMOVE
 70
     0
  9
$LUNITS
 70
     2
  9
$LUPREC
 70
     4
  9
$SKETCHINC
 40
0.1
  9
$FILLETRAD
 40
0.5
  9
$AUNITS
 70
     0
  9
$AUPREC
 70
     0
  9
$MENU
  1
.
  9
$ELEVATION
 40
0.0
  9
$PELEVATION
 40
0.0
  9
$THICKNESS
 40
0.0
  9
$LIMCHECK
 70
     0
  9
$CHAMFERA
 40
0.5
  9
$CHAMFERB
 40
0.5
  9
$CHAMFERC
 40
1.0
  9
$CHAMFERD
 40
0.0
  9
$SKPOLY
 70
     0
  9
$TDCREATE
 40
2457933.680552349
  9
$TDUCREATE
 40
2457933.597219016
  9
$TDUPDATE
 40
2457933.680552373
  9
$TDUUPDATE
 40
2457933.597219039
  9
$TDINDWG
 40
0.0000000116
  9
$TDUSRTIMER
 40
0.0000000116
  9
$USRTIMER
 70
     1
  9
$ANGBASE
 50
0.0
  9
$ANGDIR
 70
     0
  9
$PDMODE
 70
     0
  9
$PDSIZE
 40
0.0
  9
$PLINEWID
 40
0.0
  9
$SPLFRAME
 70
     0
  9
$SPLINETYPE
 70
     6
  9
$SPLINESEGS
 70
     8
  9
$HANDSEED
  5
119
  9
$SURFTAB1
 70
     6
  9
$SURFTAB2
 70
     6
  9
$SURFTYPE
 70
     6
  9
$SURFU
 70
     6
  9
$SURFV
 70
     6
  9
$UCSBASE
  2

  9
$UCSNAME
  2

  9
$UCSORG
 10
0.0
 20
0.0
 30
0.0
  9
$UCSXDIR
 10
1.0
 20
0.0
 30
0.0
  9
$UCSYDIR
 10
0.0
 20
1.0
 30
0.0
  9
$UCSORTHOREF
  2

  9
$UCSORTHOVIEW
 70
     0
  9
$UCSORGTOP
 10
0.0
 20
0.0
 30
0.0
  9
$UCSORGBOTTOM
 10
0.0
 20
0.0
 30
0.0
  9
$UCSORGLEFT
 10
0.0
 20
0.0
 30
0.0
  9
$UCSORGRIGHT
 10
0.0
 20
0.0
 30
0.0
  9
$UCSORGFRONT
 10
0.0
 20
0.0
 30
0.0
  9
$UCSORGBACK
 10
0.0
 20
0.0
 30
0.0
  9
$PUCSBASE
  2

  9
$PUCSNAME
  2

  9
$PUCSORG
 10
0.0
 20
0.0
 30
0.0
  9
$PUCSXDIR
 10
1.0
 20
0.0
 30
0.0
  9
$PUCSYDIR
 10
0.0
 20
1.0
 30
0.0
  9
$PUCSORTHOREF
  2

  9
$PUCSORTHOVIEW
 70
     0
  9
$PUCSORGTOP
 10
0.0
 20
0.0
 30
0.0
  9
$PUCSORGBOTTOM
 10
0.0
 20
0.0
 30
0.0
  9
$PUCSORGLEFT
 10
0.0
 20
0.0
 30
0.0
  9
$PUCSORGRIGHT
 10
0.0
 20
0.0
 30
0.0
  9
$PUCSORGFRONT
 10
0.0
 20
0.0
 30
0.0
  9
$PUCSORGBACK
 10
0.0
 20
0.0
 30
0.0
  9
$USERI1
 70
     0
  9
$USERI2
 70
     0
  9
$USERI3
 70
     0
  9
$USERI4
 70
     0
  9
$USERI5
 70
     0
  9
$USERR1
 40
0.0
  9
$USERR2
 40
0.0
  9
$USERR3
 40
0.0
  9
$USERR4
 40
0.0
  9
$USERR5
 40
0.0
  9
$WORLDVIEW
 70
     1
  9
$SHADEDGE
 70
     3
  9
$SHADEDIF
 70
    70
  9
$TILEMODE
 70
     1
  9
$MAXACTVP
 70
    64
  9
$PINSBASE
 10
0.0
 20
0.0
 30
0.0
  9
$PLIMCHECK
 70
     0
  9
$PEXTMIN
 10
1.000000000000000E+20
 20
1.000000000000000E+20
 30
1.000000000000000E+20
  9
$PEXTMAX
 10
-1.000000000000000E+20
 20
-1.000000000000000E+20
 30
-1.000000000000000E+20
  9
$PLIMMIN
 10
0.0
 20
0.0
  9
$PLIMMAX
 10
12.0
 20
9.0
  9
$UNITMODE
 70
     0
  9
$VISRETAIN
 70
     1
  9
$PLINEGEN
 70
     0
  9
$PSLTSCALE
 70
     1
  9
$TREEDEPTH
 70
  3020
  9
$CMLSTYLE
  2
Standard
  9
$CMLJUST
 70
     0
  9
$CMLSCALE
 40
1.0
  9
$PROXYGRAPHICS
 70
     1
  9
$MEASUREMENT
 70
     0
  9
$CELWEIGHT
370
    -1
  9
$ENDCAPS
280
     0
  9
$JOINSTYLE
280
     0
  9
$LWDISPLAY
290
     1
  9
$INSUNITS
 70
     1
  9
$HYPERLINKBASE
  1

  9
$STYLESHEET
  1

  9
$XEDIT
290
     1
  9
$CEPSNTYPE
380
     0
  9
$PSTYLEMODE
290
     1
  9
$FINGERPRINTGUID
  2
{013A57AA-4583-4D82-8428-B66AA503EA0B}
  9
$VERSIONGUID
  2
{FAEB1C32-E019-11D5-929B-00C0DF256EC4}
  9
$EXTNAMES
290
     1
  9
$PSVPSCALE
 40
0.0
  9
$OLESTARTUP
290
     0
  9
$SORTENTS
280
   127
  9
$INDEXCTL
280
     0
  9
$HIDETEXT
280
     1
  9
$XCLIPFRAME
290
     0
  9
$HALOGAP
280
     0
  9
$OBSCOLOR
 70
   257
  9
$OBSLTYPE
280
     0
  9
$INTERSECTIONDISPLAY
280
     0
  9
$INTERSECTIONCOLOR
 70
   257
  9
$DIMASSOC
280
     2
  9
$PROJECTNAME
  1

  0
ENDSEC
  0
SECTION
  2
CLASSES
  0
CLASS
  1
ACDBDICTIONARYWDFLT
  2
AcDbDictionaryWithDefault
  3
ObjectDBX Classes
 90
        0
 91
        4
280
     0
281
     0
  0
CLASS
  1
VISUALSTYLE
  2
AcDbVisualStyle
  3
ObjectDBX Classes
 90
     4095
 91
        4
280
     0
281
     0
  0
CLASS
  1
MATERIAL
  2
AcDbMaterial
  3
ObjectDBX Classes
 90
     1153
 91
        4
280
     0
281
     0
  0
CLASS
  1
SUN
  2
AcDbSun
  3
SCENEOE
 90
     1024
 91
        4
280
     0
281
     0
  0
ENDSEC
  0
SECTION
  2
TABLES
  0
TABLE
  2
VPORT
  5
8
330
0
100
AcDbSymbolTable
 70
     1
  0
VPORT
  5
29
330
8
100
AcDbSymbolTableRecord
100
AcDbViewportTableRecord
  2
*Active
 70
     0
 10
0.0
 20
0.0
 11
1.0
 21
1.0
 12
0.0
 22
0.0
 13
0.0
 23
0.0
 14
0.5
 24
0.5
 15
0.5
 25
0.5
 16
0.0
 26
0.0
 36
1.0
 17
288.0
 27
384.0
 37
0.0
 40
792.0
 41
0.7727272727272727
 42
50.0
 43
0.0
 44
0.0
 50
0.0
 51
0.0
 71
     0
 72
   100
 73
     1
 74
     3
 75
     0
 76
     0
 77
     0
 78
     0
281
     0
 65
     1
110
0.0
120
0.0
130
0.0
111
1.0
121
0.0
131
0.0
112
0.0
122
1.0
132
0.0
 79
     0
146
0.0
  0
ENDTAB
  0
TABLE
  2
LTYPE
  5
5
330
0
100
AcDbSymbolTable
 70
     1
  0
LTYPE
  5
14
330
5
100
AcDbSymbolTableRecord
100
AcDbLinetypeTableRecord
  2
ByBlock
 70
     0
  3

 72
    65
 73
     0
 40
0.0
  0
LTYPE
  5
15
330
5
100
AcDbSymbolTableRecord
100
AcDbLinetypeTableRecord
  2
ByLayer
 70
     0
  3

 72
    65
 73
     0
 40
0.0
  0
LTYPE
  5
16
330
5
100
AcDbSymbolTableRecord
100
AcDbLinetypeTableRecord
  2
Continuous
 70
     0
  3
Solid line
 72
    65
 73
     0
 40
0.0
  0
ENDTAB
  0
TABLE
  2
LAYER
  5
2
330
0
100
AcDbSymbolTable
 70
     3
  0
LAYER
  5
10
330
2
100
AcDbSymbolTableRecord
100
AcDbLayerTableRecord
  2
0
 70
     0
 62
     7
  6
Continuous
370
    -3
390
F
  0
LAYER
  5
40
330
2
100
AcDbSymbolTableRecord
100
AcDbLayerTableRecord
  2
cut
 70
     0
 62
     7
  6
Continuous
370
    -3
390
F
  0
LAYER
  5
89
330
2
100
AcDbSymbolTableRecord
100
AcDbLayerTableRecord
  2
engr
 70
     0
 62
     7
  6
Continuous
370
    -3
390
F
  0
ENDTAB
  0
TABLE
  2
STYLE
  5
3
330
0
100
AcDbSymbolTable
 70
     1
  0
STYLE
  5
11
330
3
100
AcDbSymbolTableRecord
100
AcDbTextStyleTableRecord
  2
Standard
 70
     0
 40
0.0
 41
1.0
 50
0.0
 71
     0
 42
0.2
  3
txt
  4

  0
ENDTAB
  0
TABLE
  2
VIEW
  5
6
330
0
100
AcDbSymbolTable
 70
     0
  0
ENDTAB
  0
TABLE
  2
UCS
  5
7
330
0
100
AcDbSymbolTable
 70
     0
  0
ENDTAB
  0
TABLE
  2
APPID
  5
9
330
0
100
AcDbSymbolTable
 70
     1
  0
APPID
  5
12
330
9
100
AcDbSymbolTableRecord
100
AcDbRegAppTableRecord
  2
ACAD
 70
     0
  0
ENDTAB
  0
TABLE
  2
DIMSTYLE
  5
A
330
0
100
AcDbSymbolTable
 70
     1
100
AcDbDimStyleTable
  0
DIMSTYLE
105
27
330
A
100
AcDbSymbolTableRecord
100
AcDbDimStyleTableRecord
  2
Standard
 70
     0
178
     0
340
11
  0
ENDTAB
  0
TABLE
  2
BLOCK_RECORD
  5
1
330
0
100
AcDbSymbolTable
 70
     1
  0
BLOCK_RECORD
  5
1F
330
1
100
AcDbSymbolTableRecord
100
AcDbBlockTableRecord
  2
*Model_Space
340
22
  0
BLOCK_RECORD
  5
1B
330
1
100
AcDbSymbolTableRecord
100
AcDbBlockTableRecord
  2
*Paper_Space
340
1E
  0
BLOCK_RECORD
  5
23
330
1
100
AcDbSymbolTableRecord
100
AcDbBlockTableRecord
  2
*Paper_Space0
340
26
  0
ENDTAB
  0
ENDSEC
  0
SECTION
  2
BLOCKS
  0
BLOCK
  5
20
330
1F
100
AcDbEntity
  8
0
100
AcDbBlockBegin
  2
*Model_Space
 70
     0
 10
0.0
 20
0.0
 30
0.0
  3
*Model_Space
  1

  0
ENDBLK
  5
21
330
1F
100
AcDbEntity
  8
0
100
AcDbBlockEnd
  0
BLOCK
  5
1C
330
1B
100
AcDbEntity
 67
     1
  8
0
100
AcDbBlockBegin
  2
*Paper_Space
 70
     0
 10
0.0
 20
0.0
 30
0.0
  3
*Paper_Space
  1

  0
ENDBLK
  5
1D
330
1B
100
AcDbEntity
 67
     1
  8
0
100
AcDbBlockEnd
  0
BLOCK
  5
24
330
23
100
AcDbEntity
  8
0
100
AcDbBlockBegin
  2
*Paper_Space0
 70
     0
 10
0.0
 20
0.0
 30
0.0
  3
*Paper_Space0
  1

  0
ENDBLK
  5
25
330
23
100
AcDbEntity
  8
0
100
AcDbBlockEnd
  0
ENDSEC
  0
SECTION
  2
ENTITIES
  0
POLYLINE
  5
41
330
1F
100
AcDbEntity
  8
cut
 62
     7
370
    40
100
AcDb2dPolyline
 66
     1
 10
0.0
 20
0.0
 30
0.0
  0
VERTEX
  5
42
330
41
100
AcDbEntity
  8
cut
 62
     7
370
    40
100
AcDbVertex
100
AcDb2dVertex
 10
-136.6956
 20
752.2026809977615
 30
0.0
  0
VERTEX
  5
43
330
41
100
AcDbEntity
  8
cut
 62
     7
370
    40
100
AcDbVertex
100
AcDb2dVertex
 10
-420.1601000000001
 20
752.2026809977615
 30
0.0
  0
VERTEX
  5
44
330
41
100
AcDbEntity
  8
cut
 62
     7
370
    40
100
AcDbVertex
100
AcDb2dVertex
 10
-561.8924000000002
 20
506.7151871992974
 30
0.0
  0
VERTEX
  5
45
330
41
100
AcDbEntity
  8
cut
 62
     7
370
    40
100
AcDbVertex
100
AcDb2dVertex
 10
-420.1601000000001
 20
261.2276934008332
 30
0.0
  0
VERTEX
  5
46
330
41
100
AcDbEntity
  8
cut
 62
     7
370
    40
100
AcDbVertex
100
AcDb2dVertex
 10
-136.6956
 20
261.2276934008332
 30
0.0
  0
VERTEX
  5
47
330
41
100
AcDbEntity
  8
cut
 62
     7
370
    40
100
AcDbVertex
100
AcDb2dVertex
 10
5.03670000000011
 20
506.7151871992974
 30
0.0
  0
VERTEX
  5
48
330
41
100
AcDbEntity
  8
cut
 62
     7
370
    40
100
AcDbVertex
100
AcDb2dVertex
 10
-136.6956
 20
752.2026809977615
 30
0.0
  0
SEQEND
  5
49
330
41
100
AcDbEntity
  8
cut
 62
     7
370
    40
  0
POLYLINE
  5
4A
330
1F
100
AcDbEntity
  8
cut
 62
     7
370
    40
100
AcDb2dPolyline
 66
     1
 10
0.0
 20
0.0
 30
0.0
  0
VERTEX
  5
4B
330
4A
100
AcDbEntity
  8
cut
 62
     7
370
    40
100
AcDbVertex
100
AcDb2dVertex
 10
-136.6956
 20
-258.6400000000003
 30
0.0
  0
VERTEX
  5
4C
330
4A
100
AcDbEntity
  8
cut
 62
     7
370
    40
100
AcDbVertex
100
AcDb2dVertex
 10
-420.1601000000001
 20
-258.6400000000003
 30
0.0
  0
VERTEX
  5
4D
330
4A
100
AcDbEntity
  8
cut
 62
     7
370
    40
100
AcDbVertex
100
AcDb2dVertex
 10
-561.8924000000002
 20
-504.1274999999996
 30
0.0
  0
VERTEX
  5
4E
330
4A
100
AcDbEntity
  8
cut
 62
     7
370
    40
100
AcDbVertex
100
AcDb2dVertex
 10
-420.1601000000001
 20
-749.6151
 30
0.0
  0
VERTEX
  5
4F
330
4A
100
AcDbEntity
  8
cut
 62
     7
370
    40
100
AcDbVertex
100
AcDb2dVertex
 10
-136.6956
 20
-749.6151
 30
0.0
  0
VERTEX
  5
50
330
4A
100
AcDbEntity
  8
cut
 62
     7
370
    40
100
AcDbVertex
100
AcDb2dVertex
 10
5.03670000000011
 20
-504.1274999999996
 30
0.0
  0
VERTEX
  5
51
330
4A
100
AcDbEntity
  8
cut
 62
     7
370
    40
100
AcDbVertex
100
AcDb2dVertex
 10
-136.6956
 20
-258.6400000000003
 30
0.0
  0
SEQEND
  5
52
330
4A
100
AcDbEntity
  8
cut
 62
     7
370
    40
  0
POLYLINE
  5
53
330
1F
100
AcDbEntity
  8
cut
 62
     7
370
    40
100
AcDb2dPolyline
 66
     1
 10
0.0
 20
0.0
 30
0.0
  0
VERTEX
  5
54
330
53
100
AcDbEntity
  8
cut
 62
     7
370
    40
100
AcDbVertex
100
AcDb2dVertex
 10
-136.6956
 20
240.2090939318077
 30
0.0
  0
VERTEX
  5
55
330
53
100
AcDbEntity
  8
cut
 62
     7
370
    40
100
AcDbVertex
100
AcDb2dVertex
 10
-420.1601000000001
 20
240.2090939318077
 30
0.0
  0
VERTEX
  5
56
330
53
100
AcDbEntity
  8
cut
 62
     7
370
    40
100
AcDbVertex
100
AcDb2dVertex
 10
-561.8924000000002
 20
-5.278400000000147
 30
0.0
  0
VERTEX
  5
57
330
53
100
AcDbEntity
  8
cut
 62
     7
370
    40
100
AcDbVertex
100
AcDb2dVertex
 10
-420.1601000000001
 20
-250.7659999999996
 30
0.0
  0
VERTEX
  5
58
330
53
100
AcDbEntity
  8
cut
 62
     7
370
    40
100
AcDbVertex
100
AcDb2dVertex
 10
-136.6956
 20
-250.7659999999996
 30
0.0
  0
VERTEX
  5
59
330
53
100
AcDbEntity
  8
cut
 62
     7
370
    40
100
AcDbVertex
100
AcDb2dVertex
 10
5.03670000000011
 20
-5.278400000000147
 30
0.0
  0
VERTEX
  5
5A
330
53
100
AcDbEntity
  8
cut
 62
     7
370
    40
100
AcDbVertex
100
AcDb2dVertex
 10
-136.6956
 20
240.2090939318077
 30
0.0
  0
SEQEND
  5
5B
330
53
100
AcDbEntity
  8
cut
 62
     7
370
    40
  0
POLYLINE
  5
5C
330
1F
100
AcDbEntity
  8
cut
 62
     7
370
    40
100
AcDb2dPolyline
 66
     1
 10
0.0
 20
0.0
 30
0.0
  0
VERTEX
  5
5D
330
5C
100
AcDbEntity
  8
cut
 62
     7
370
    40
100
AcDbVertex
100
AcDb2dVertex
 10
762.0324807494399
 20
752.2026809977615
 30
0.0
  0
VERTEX
  5
5E
330
5C
100
AcDbEntity
  8
cut
 62
     7
370
    40
100
AcDbVertex
100
AcDb2dVertex
 10
478.567887910358
 20
752.2026809977615
 30
0.0
  0
VERTEX
  5
5F
330
5C
100
AcDbEntity
  8
cut
 62
     7
370
    40
100
AcDbVertex
100
AcDb2dVertex
 10
336.835591490817
 20
506.7151871992974
 30
0.0
  0
VERTEX
  5
60
330
5C
100
AcDbEntity
  8
cut
 62
     7
370
    40
100
AcDbVertex
100
AcDb2dVertex
 10
478.567887910358
 20
261.2276934008332
 30
0.0
  0
VERTEX
  5
61
330
5C
100
AcDbEntity
  8
cut
 62
     7
370
    40
100
AcDbVertex
100
AcDb2dVertex
 10
762.0324807494399
 20
261.2276934008332
 30
0.0
  0
VERTEX
  5
62
330
5C
100
AcDbEntity
  8
cut
 62
     7
370
    40
100
AcDbVertex
100
AcDb2dVertex
 10
903.7647771689808
 20
506.7151871992974
 30
0.0
  0
VERTEX
  5
63
330
5C
100
AcDbEntity
  8
cut
 62
     7
370
    40
100
AcDbVertex
100
AcDb2dVertex
 10
762.0324807494399
 20
752.2026809977615
 30
0.0
  0
SEQEND
  5
64
330
5C
100
AcDbEntity
  8
cut
 62
     7
370
    40
  0
POLYLINE
  5
65
330
1F
100
AcDbEntity
  8
cut
 62
     7
370
    40
100
AcDb2dPolyline
 66
     1
 10
0.0
 20
0.0
 30
0.0
  0
VERTEX
  5
66
330
65
100
AcDbEntity
  8
cut
 62
     7
370
    40
100
AcDbVertex
100
AcDb2dVertex
 10
762.0324807494399
 20
247.5139937472704
 30
0.0
  0
VERTEX
  5
67
330
65
100
AcDbEntity
  8
cut
 62
     7
370
    40
100
AcDbVertex
100
AcDb2dVertex
 10
478.567887910358
 20
247.5139937472704
 30
0.0
  0
VERTEX
  5
68
330
65
100
AcDbEntity
  8
cut
 62
     7
370
    40
100
AcDbVertex
100
AcDb2dVertex
 10
336.835591490817
 20
2.026499999999942
 30
0.0
  0
VERTEX
  5
69
330
65
100
AcDbEntity
  8
cut
 62
     7
370
    40
100
AcDbVertex
100
AcDb2dVertex
 10
478.567887910358
 20
-243.4610000000002
 30
0.0
  0
VERTEX
  5
6A
330
65
100
AcDbEntity
  8
cut
 62
     7
370
    40
100
AcDbVertex
100
AcDb2dVertex
 10
762.0324807494399
 20
-243.4610000000002
 30
0.0
  0
VERTEX
  5
6B
330
65
100
AcDbEntity
  8
cut
 62
     7
370
    40
100
AcDbVertex
100
AcDb2dVertex
 10
903.7647771689808
 20
2.026499999999942
 30
0.0
  0
VERTEX
  5
6C
330
65
100
AcDbEntity
  8
cut
 62
     7
370
    40
100
AcDbVertex
100
AcDb2dVertex
 10
762.0324807494399
 20
247.5139937472704
 30
0.0
  0
SEQEND
  5
6D
330
65
100
AcDbEntity
  8
cut
 62
     7
370
    40
  0
POLYLINE
  5
6E
330
1F
100
AcDbEntity
  8
cut
 62
     7
370
    40
100
AcDb2dPolyline
 66
     1
 10
0.0
 20
0.0
 30
0.0
  0
VERTEX
  5
6F
330
6E
100
AcDbEntity
  8
cut
 62
     7
370
    40
100
AcDbVertex
100
AcDb2dVertex
 10
308.5322922058185
 20
492.00808757083
 30
0.0
  0
VERTEX
  5
70
330
6E
100
AcDbEntity
  8
cut
 62
     7
370
    40
100
AcDbVertex
100
AcDb2dVertex
 10
25.06779999999981
 20
492.00808757083
 30
0.0
  0
VERTEX
  5
71
330
6E
100
AcDbEntity
  8
cut
 62
     7
370
    40
100
AcDbVertex
100
AcDb2dVertex
 10
-116.6644999999999
 20
246.5205937723658
 30
0.0
  0
VERTEX
  5
72
330
6E
100
AcDbEntity
  8
cut
 62
     7
370
    40
100
AcDbVertex
100
AcDb2dVertex
 10
25.06779999999981
 20
1.033099999999649
 30
0.0
  0
VERTEX
  5
73
330
6E
100
AcDbEntity
  8
cut
 62
     7
370
    40
100
AcDbVertex
100
AcDb2dVertex
 10
308.5322922058185
 20
1.033099999999649
 30
0.0
  0
VERTEX
  5
74
330
6E
100
AcDbEntity
  8
cut
 62
     7
370
    40
100
AcDbVertex
100
AcDb2dVertex
 10
450.2645886253595
 20
246.5205937723658
 30
0.0
  0
VERTEX
  5
75
330
6E
100
AcDbEntity
  8
cut
 62
     7
370
    40
100
AcDbVertex
100
AcDb2dVertex
 10
308.5322922058185
 20
492.00808757083
 30
0.0
  0
SEQEND
  5
76
330
6E
100
AcDbEntity
  8
cut
 62
     7
370
    40
  0
POLYLINE
  5
77
330
1F
100
AcDbEntity
  8
cut
 62
     7
370
    40
100
AcDb2dPolyline
 66
     1
 10
0.0
 20
0.0
 30
0.0
  0
VERTEX
  5
78
330
77
100
AcDbEntity
  8
cut
 62
     7
370
    40
100
AcDbVertex
100
AcDb2dVertex
 10
311.7822921237166
 20
-7.225099999999657
 30
0.0
  0
VERTEX
  5
79
330
77
100
AcDbEntity
  8
cut
 62
     7
370
    40
100
AcDbVertex
100
AcDb2dVertex
 10
28.31779999999981
 20
-7.225099999999657
 30
0.0
  0
VERTEX
  5
7A
330
77
100
AcDbEntity
  8
cut
 62
     7
370
    40
100
AcDbVertex
100
AcDb2dVertex
 10
-113.4144999999999
 20
-252.7125999999998
 30
0.0
  0
VERTEX
  5
7B
330
77
100
AcDbEntity
  8
cut
 62
     7
370
    40
100
AcDbVertex
100
AcDb2dVertex
 10
28.31779999999981
 20
-498.2001
 30
0.0
  0
VERTEX
  5
7C
330
77
100
AcDbEntity
  8
cut
 62
     7
370
    40
100
AcDbVertex
100
AcDb2dVertex
 10
311.7822921237166
 20
-498.2001
 30
0.0
  0
VERTEX
  5
7D
330
77
100
AcDbEntity
  8
cut
 62
     7
370
    40
100
AcDbVertex
100
AcDb2dVertex
 10
453.5145885432576
 20
-252.7125999999998
 30
0.0
  0
VERTEX
  5
7E
330
77
100
AcDbEntity
  8
cut
 62
     7
370
    40
100
AcDbVertex
100
AcDb2dVertex
 10
311.7822921237166
 20
-7.225099999999657
 30
0.0
  0
SEQEND
  5
7F
330
77
100
AcDbEntity
  8
cut
 62
     7
370
    40
  0
POLYLINE
  5
80
330
1F
100
AcDbEntity
  8
cut
 62
     7
370
    40
100
AcDb2dPolyline
 66
     1
 10
0.0
 20
0.0
 30
0.0
  0
VERTEX
  5
81
330
80
100
AcDbEntity
  8
cut
 62
     7
370
    40
100
AcDbVertex
100
AcDb2dVertex
 10
762.0324807494399
 20
-258.6400000000003
 30
0.0
  0
VERTEX
  5
82
330
80
100
AcDbEntity
  8
cut
 62
     7
370
    40
100
AcDbVertex
100
AcDb2dVertex
 10
478.567887910358
 20
-258.6400000000003
 30
0.0
  0
VERTEX
  5
83
330
80
100
AcDbEntity
  8
cut
 62
     7
370
    40
100
AcDbVertex
100
AcDb2dVertex
 10
336.835591490817
 20
-504.1274999999996
 30
0.0
  0
VERTEX
  5
84
330
80
100
AcDbEntity
  8
cut
 62
     7
370
    40
100
AcDbVertex
100
AcDb2dVertex
 10
478.567887910358
 20
-749.6151
 30
0.0
  0
VERTEX
  5
85
330
80
100
AcDbEntity
  8
cut
 62
     7
370
    40
100
AcDbVertex
100
AcDb2dVertex
 10
762.0324807494399
 20
-749.6151
 30
0.0
  0
VERTEX
  5
86
330
80
100
AcDbEntity
  8
cut
 62
     7
370
    40
100
AcDbVertex
100
AcDb2dVertex
 10
903.7647771689808
 20
-504.1274999999996
 30
0.0
  0
VERTEX
  5
87
330
80
100
AcDbEntity
  8
cut
 62
     7
370
    40
100
AcDbVertex
100
AcDb2dVertex
 10
762.0324807494399
 20
-258.6400000000003
 30
0.0
  0
SEQEND
  5
88
330
80
100
AcDbEntity
  8
cut
 62
     7
370
    40
  0
SPLINE
  5
8A
330
1F
100
AcDbEntity
  8
engr
 62
     7
370
    35
100
AcDbSpline
210
0.0
220
0.0
230
1.0
 70
    11
 71
     3
 72
    29
 73
    25
 74
     0
 42
0.0000000001
 43
0.0000000001
 12
1.0
 22
0.0
 32
0.0
 13
1.0
 23
0.0
 33
0.0
 40
0.0
 40
0.0
 40
0.0
 40
0.0
 40
1.0
 40
1.0
 40
1.0
 40
2.0
 40
2.0
 40
2.0
 40
3.0
 40
3.0
 40
3.0
 40
4.0
 40
4.0
 40
4.0
 40
5.0
 40
5.0
 40
5.0
 40
6.0
 40
6.0
 40
6.0
 40
7.0
 40
7.0
 40
7.0
 40
8.0
 40
8.0
 40
8.0
 40
8.0
 10
-207.8888000000002
 20
-504.5104000000001
 30
0.0
 10
-207.8888000000002
 20
-529.5123000000003
 30
0.0
 10
-216.7775000000001
 20
-550.9009999999998
 30
0.0
 10
-234.549
 20
-568.6724999999997
 30
0.0
 10
-252.3224
 20
-586.4458999999997
 30
0.0
 10
-273.797
 20
-595.3325999999997
 30
0.0
 10
-298.9668999999999
 20
-595.3325999999997
 30
0.0
 10
-324.1388000000002
 20
-595.3325999999997
 30
0.0
 10
-345.5684999999999
 20
-586.4458999999997
 30
0.0
 10
-363.2559999999999
 20
-568.6724999999997
 30
0.0
 10
-380.9474
 20
-550.9009999999998
 30
0.0
 10
-389.7872000000002
 20
-529.5123000000003
 30
0.0
 10
-389.7872000000002
 20
-504.5104000000001
 30
0.0
 10
-389.7872000000002
 20
-479.3404
 30
0.0
 10
-380.9474
 20
-457.8678
 30
0.0
 10
-363.2559999999999
 20
-440.0923999999995
 30
0.0
 10
-345.5684999999999
 20
-422.3229000000001
 30
0.0
 10
-324.1388000000002
 20
-413.4322000000002
 30
0.0
 10
-298.9668999999999
 20
-413.4322000000002
 30
0.0
 10
-273.797
 20
-413.4322000000002
 30
0.0
 10
-252.3224
 20
-422.3229000000001
 30
0.0
 10
-234.549
 20
-440.0923999999995
 30
0.0
 10
-216.7775000000001
 20
-457.8678
 30
0.0
 10
-207.8888000000002
 20
-479.3404
 30
0.0
 10
-207.8888000000002
 20
-504.5104000000001
 30
0.0
  0
SPLINE
  5
8B
330
1F
100
AcDbEntity
  8
engr
 62
     7
370
    35
100
AcDbSpline
210
0.0
220
0.0
230
1.0
 70
    11
 71
     3
 72
    29
 73
    25
 74
     0
 42
0.0000000001
 43
0.0000000001
 12
1.0
 22
0.0
 32
0.0
 13
1.0
 23
0.0
 33
0.0
 40
0.0
 40
0.0
 40
0.0
 40
0.0
 40
1.0
 40
1.0
 40
1.0
 40
2.0
 40
2.0
 40
2.0
 40
3.0
 40
3.0
 40
3.0
 40
4.0
 40
4.0
 40
4.0
 40
5.0
 40
5.0
 40
5.0
 40
6.0
 40
6.0
 40
6.0
 40
7.0
 40
7.0
 40
7.0
 40
8.0
 40
8.0
 40
8.0
 40
8.0
 10
-226.0021000000002
 20
-504.5104000000001
 30
0.0
 10
-226.0021000000002
 20
-484.2721000000001
 30
0.0
 10
-233.1055999999999
 20
-467.0083999999997
 30
0.0
 10
-247.3047999999999
 20
-452.7213000000002
 30
0.0
 10
-261.5079000000001
 20
-438.4341999999997
 30
0.0
 10
-278.7285999999999
 20
-431.2916000000005
 30
0.0
 10
-298.9668999999999
 20
-431.2916000000005
 30
0.0
 10
-319.0372000000002
 20
-431.2916000000005
 30
0.0
 10
-336.2130000000002
 20
-438.4341999999997
 30
0.0
 10
-350.5001000000002
 20
-452.7213000000002
 30
0.0
 10
-364.7872000000002
 20
-467.0083999999997
 30
0.0
 10
-371.9297999999999
 20
-484.2721000000001
 30
0.0
 10
-371.9297999999999
 20
-504.5104000000001
 30
0.0
 10
-371.9297999999999
 20
-524.5807000000004
 30
0.0
 10
-364.7872000000002
 20
-541.7565000000004
 30
0.0
 10
-350.5001000000002
 20
-556.0436
 30
0.0
 10
-336.2130000000002
 20
-570.3307000000004
 30
0.0
 10
-319.0372000000002
 20
-577.4732000000004
 30
0.0
 10
-298.9668999999999
 20
-577.4732000000004
 30
0.0
 10
-278.7285999999999
 20
-577.4732000000004
 30
0.0
 10
-261.5079000000001
 20
-570.3307000000004
 30
0.0
 10
-247.3047999999999
 20
-556.0436
 30
0.0
 10
-233.1055999999999
 20
-541.7565000000004
 30
0.0
 10
-226.0021000000002
 20
-524.5807000000004
 30
0.0
 10
-226.0021000000002
 20
-504.5104000000001
 30
0.0
  0
SPLINE
  5
8C
330
1F
100
AcDbEntity
  8
engr
 62
     7
370
    35
100
AcDbSpline
210
0.0
220
0.0
230
1.0
 70
    11
 71
     3
 72
    47
 73
    43
 74
     0
 42
0.0000000001
 43
0.0000000001
 12
1.0
 22
0.0
 32
0.0
 13
1.0
 23
0.0
 33
0.0
 40
0.0
 40
0.0
 40
0.0
 40
0.0
 40
1.0
 40
1.0
 40
1.0
 40
2.0
 40
2.0
 40
2.0
 40
3.0
 40
3.0
 40
3.0
 40
4.0
 40
4.0
 40
4.0
 40
5.0
 40
5.0
 40
5.0
 40
6.0
 40
6.0
 40
6.0
 40
7.0
 40
7.0
 40
7.0
 40
8.0
 40
8.0
 40
8.0
 40
9.0
 40
9.0
 40
9.0
 40
10.0
 40
10.0
 40
10.0
 40
11.0
 40
11.0
 40
11.0
 40
12.0
 40
12.0
 40
12.0
 40
13.0
 40
13.0
 40
13.0
 40
14.0
 40
14.0
 40
14.0
 40
14.0
 10
-111.9650000000001
 20
-531.0416000000005
 30
0.0
 10
-111.9650000000001
 20
-549.0729000000001
 30
0.0
 10
-118.3029000000001
 20
-564.3795
 30
0.0
 10
-130.9708000000001
 20
-576.9634999999998
 30
0.0
 10
-143.6446999999998
 20
-589.5514000000003
 30
0.0
 10
-158.9063999999998
 20
-595.8423999999995
 30
0.0
 10
-176.7658000000001
 20
-595.8423999999995
 30
0.0
 10
-176.7658000000001
 20
-595.8423999999995
 30
0.0
 10
-176.7658000000001
 20
-579.2604000000001
 30
0.0
 10
-176.7658000000001
 20
-579.2604000000001
 30
0.0
 10
-163.5704000000001
 20
-579.2604000000001
 30
0.0
 10
-152.3224
 20
-574.5397000000003
 30
0.0
 10
-143.0176999999999
 20
-565.1001999999999
 30
0.0
 10
-133.7150000000001
 20
-555.6607000000004
 30
0.0
 10
-129.0587
 20
-544.3091999999997
 30
0.0
 10
-129.0587
 20
-531.0416000000005
 30
0.0
 10
-129.0587
 20
-517.9479000000001
 30
0.0
 10
-133.7150000000001
 20
-506.6782999999996
 30
0.0
 10
-143.0176999999999
 20
-497.2389000000003
 30
0.0
 10
-152.3224
 20
-487.7993999999999
 30
0.0
 10
-163.5704000000001
 20
-483.0807000000004
 30
0.0
 10
-176.7658000000001
 20
-483.0807000000004
 30
0.0
 10
-176.7658000000001
 20
-483.0807000000004
 30
0.0
 10
-176.7658000000001
 20
-417.0045
 30
0.0
 10
-176.7658000000001
 20
-417.0045
 30
0.0
 10
-176.7658000000001
 20
-417.0045
 30
0.0
 10
-112.9865
 20
-417.0045
 30
0.0
 10
-112.9865
 20
-417.0045
 30
0.0
 10
-112.9865
 20
-417.0045
 30
0.0
 10
-112.9865
 20
-434.3522000000003
 30
0.0
 10
-112.9865
 20
-434.3522000000003
 30
0.0
 10
-112.9865
 20
-434.3522000000003
 30
0.0
 10
-159.672
 20
-434.3522000000003
 30
0.0
 10
-159.672
 20
-434.3522000000003
 30
0.0
 10
-159.672
 20
-434.3522000000003
 30
0.0
 10
-159.672
 20
-468.7936
 30
0.0
 10
-159.672
 20
-468.7936
 30
0.0
 10
-145.6525000000001
 20
-472.7075999999997
 30
0.0
 10
-134.1954000000001
 20
-480.4458999999997
 30
0.0
 10
-125.3029000000001
 20
-492.0083999999997
 30
0.0
 10
-116.4142000000002
 20
-503.5767999999998
 30
0.0
 10
-111.9650000000001
 20
-516.5884999999998
 30
0.0
 10
-111.9650000000001
 20
-531.0416000000005
 30
0.0
  0
POLYLINE
  5
8D
330
1F
100
AcDbEntity
  8
engr
 62
     7
370
    35
100
AcDb2dPolyline
 66
     1
 10
0.0
 20
0.0
 30
0.0
  0
VERTEX
  5
8E
330
8D
100
AcDbEntity
  8
engr
 62
     7
370
    35
100
AcDbVertex
100
AcDb2dVertex
 10
-428.0538000000001
 20
-92.91129999999976
 30
0.0
  0
VERTEX
  5
8F
330
8D
100
AcDbEntity
  8
engr
 62
     7
370
    35
100
AcDbVertex
100
AcDb2dVertex
 10
-445.1455999999998
 20
-92.91129999999976
 30
0.0
  0
VERTEX
  5
90
330
8D
100
AcDbEntity
  8
engr
 62
     7
370
    35
100
AcDbVertex
100
AcDb2dVertex
 10
-445.1455999999998
 20
62.45589999999993
 30
0.0
  0
VERTEX
  5
91
330
8D
100
AcDbEntity
  8
engr
 62
     7
370
    35
100
AcDbVertex
100
AcDb2dVertex
 10
-428.0538000000001
 20
86.4363999999996
 30
0.0
  0
VERTEX
  5
92
330
8D
100
AcDbEntity
  8
engr
 62
     7
370
    35
100
AcDbVertex
100
AcDb2dVertex
 10
-428.0538000000001
 20
-92.91129999999976
 30
0.0
  0
SEQEND
  5
93
330
8D
100
AcDbEntity
  8
engr
 62
     7
370
    35
  0
SPLINE
  5
94
330
1F
100
AcDbEntity
  8
engr
 62
     7
370
    35
100
AcDbSpline
210
0.0
220
0.0
230
1.0
 70
    11
 71
     3
 72
    29
 73
    25
 74
     0
 42
0.0000000001
 43
0.0000000001
 12
1.0
 22
0.0
 32
0.0
 13
1.0
 23
0.0
 33
0.0
 40
0.0
 40
0.0
 40
0.0
 40
0.0
 40
1.0
 40
1.0
 40
1.0
 40
2.0
 40
2.0
 40
2.0
 40
3.0
 40
3.0
 40
3.0
 40
4.0
 40
4.0
 40
4.0
 40
5.0
 40
5.0
 40
5.0
 40
6.0
 40
6.0
 40
6.0
 40
7.0
 40
7.0
 40
7.0
 40
8.0
 40
8.0
 40
8.0
 40
8.0
 10
-208.1455999999998
 20
-5.661299999999756
 30
0.0
 10
-208.1455999999998
 20
-30.66319999999996
 30
0.0
 10
-217.0324000000001
 20
-52.05190000000039
 30
0.0
 10
-234.8038000000001
 20
-69.82340000000022
 30
0.0
 10
-252.5792000000001
 20
-87.59680000000026
 30
0.0
 10
-274.0518999999999
 20
-96.48350000000028
 30
0.0
 10
-299.2218000000003
 20
-96.48350000000028
 30
0.0
 10
-324.3955999999998
 20
-96.48350000000028
 30
0.0
 10
-345.8253
 20
-87.59680000000026
 30
0.0
 10
-363.5109000000002
 20
-69.82340000000022
 30
0.0
 10
-381.2022999999999
 20
-52.05190000000039
 30
0.0
 10
-390.0441000000001
 20
-30.66319999999996
 30
0.0
 10
-390.0441000000001
 20
-5.661299999999756
 30
0.0
 10
-390.0441000000001
 20
19.50870000000032
 30
0.0
 10
-381.2022999999999
 20
40.98130000000037
 30
0.0
 10
-363.5109000000002
 20
58.75669999999991
 30
0.0
 10
-345.8253
 20
76.52620000000024
 30
0.0
 10
-324.3955999999998
 20
85.41690000000017
 30
0.0
 10
-299.2218000000003
 20
85.41690000000017
 30
0.0
 10
-274.0518999999999
 20
85.41690000000017
 30
0.0
 10
-252.5792000000001
 20
76.52620000000024
 30
0.0
 10
-234.8038000000001
 20
58.75669999999991
 30
0.0
 10
-217.0324000000001
 20
40.98130000000037
 30
0.0
 10
-208.1455999999998
 20
19.50870000000032
 30
0.0
 10
-208.1455999999998
 20
-5.661299999999756
 30
0.0
  0
SPLINE
  5
95
330
1F
100
AcDbEntity
  8
engr
 62
     7
370
    35
100
AcDbSpline
210
0.0
220
0.0
230
1.0
 70
    11
 71
     3
 72
    29
 73
    25
 74
     0
 42
0.0000000001
 43
0.0000000001
 12
1.0
 22
0.0
 32
0.0
 13
1.0
 23
0.0
 33
0.0
 40
0.0
 40
0.0
 40
0.0
 40
0.0
 40
1.0
 40
1.0
 40
1.0
 40
2.0
 40
2.0
 40
2.0
 40
3.0
 40
3.0
 40
3.0
 40
4.0
 40
4.0
 40
4.0
 40
5.0
 40
5.0
 40
5.0
 40
6.0
 40
6.0
 40
6.0
 40
7.0
 40
7.0
 40
7.0
 40
8.0
 40
8.0
 40
8.0
 40
8.0
 10
-226.2588999999998
 20
-5.661299999999756
 30
0.0
 10
-226.2588999999998
 20
14.57700000000023
 30
0.0
 10
-233.3604999999998
 20
31.84069999999974
 30
0.0
 10
-247.5596999999998
 20
46.12780000000021
 30
0.0
 10
-261.7628
 20
60.41489999999976
 30
0.0
 10
-278.9834999999998
 20
67.55749999999989
 30
0.0
 10
-299.2218000000003
 20
67.55749999999989
 30
0.0
 10
-319.2921000000001
 20
67.55749999999989
 30
0.0
 10
-336.4699000000001
 20
60.41489999999976
 30
0.0
 10
-350.7550000000001
 20
46.12780000000021
 30
0.0
 10
-365.0421000000001
 20
31.84069999999974
 30
0.0
 10
-372.1846999999998
 20
14.57700000000023
 30
0.0
 10
-372.1846999999998
 20
-5.661299999999756
 30
0.0
 10
-372.1846999999998
 20
-25.73160000000007
 30
0.0
 10
-365.0421000000001
 20
-42.90729999999985
 30
0.0
 10
-350.7550000000001
 20
-57.19449999999961
 30
0.0
 10
-336.4699000000001
 20
-71.48160000000007
 30
0.0
 10
-319.2921000000001
 20
-78.6241
 30
0.0
 10
-299.2218000000003
 20
-78.6241
 30
0.0
 10
-278.9834999999998
 20
-78.6241
 30
0.0
 10
-261.7628
 20
-71.48160000000007
 30
0.0
 10
-247.5596999999998
 20
-57.19449999999961
 30
0.0
 10
-233.3604999999998
 20
-42.90729999999985
 30
0.0
 10
-226.2588999999998
 20
-25.73160000000007
 30
0.0
 10
-226.2588999999998
 20
-5.661299999999756
 30
0.0
  0
POLYLINE
  5
96
330
1F
100
AcDbEntity
  8
engr
 62
     7
370
    35
100
AcDb2dPolyline
 66
     1
 10
0.0
 20
0.0
 30
0.0
  0
VERTEX
  5
97
330
96
100
AcDbEntity
  8
engr
 62
     7
370
    35
100
AcDbVertex
100
AcDb2dVertex
 10
-427.799
 20
-591.7604000000001
 30
0.0
  0
VERTEX
  5
98
330
96
100
AcDbEntity
  8
engr
 62
     7
370
    35
100
AcDbVertex
100
AcDb2dVertex
 10
-444.8908000000001
 20
-591.7604000000001
 30
0.0
  0
VERTEX
  5
99
330
96
100
AcDbEntity
  8
engr
 62
     7
370
    35
100
AcDbVertex
100
AcDb2dVertex
 10
-444.8908000000001
 20
-436.3932000000004
 30
0.0
  0
VERTEX
  5
9A
330
96
100
AcDbEntity
  8
engr
 62
     7
370
    35
100
AcDbVertex
100
AcDb2dVertex
 10
-427.799
 20
-412.4126999999999
 30
0.0
  0
VERTEX
  5
9B
330
96
100
AcDbEntity
  8
engr
 62
     7
370
    35
100
AcDbVertex
100
AcDb2dVertex
 10
-427.799
 20
-591.7604000000001
 30
0.0
  0
SEQEND
  5
9C
330
96
100
AcDbEntity
  8
engr
 62
     7
370
    35
  0
POLYLINE
  5
9D
330
1F
100
AcDbEntity
  8
engr
 62
     7
370
    35
100
AcDb2dPolyline
 66
     1
 10
0.0
 20
0.0
 30
0.0
  0
VERTEX
  5
9E
330
9D
100
AcDbEntity
  8
engr
 62
     7
370
    35
100
AcDbVertex
100
AcDb2dVertex
 10
-1.131600000000162
 20
-343.9117999999999
 30
0.0
  0
VERTEX
  5
9F
330
9D
100
AcDbEntity
  8
engr
 62
     7
370
    35
100
AcDbVertex
100
AcDb2dVertex
 10
-18.22530000000006
 20
-343.9117999999999
 30
0.0
  0
VERTEX
  5
A0
330
9D
100
AcDbEntity
  8
engr
 62
     7
370
    35
100
AcDbVertex
100
AcDb2dVertex
 10
-18.22530000000006
 20
-188.5446000000002
 30
0.0
  0
VERTEX
  5
A1
330
9D
100
AcDbEntity
  8
engr
 62
     7
370
    35
100
AcDbVertex
100
AcDb2dVertex
 10
-1.131600000000162
 20
-164.5640999999996
 30
0.0
  0
VERTEX
  5
A2
330
9D
100
AcDbEntity
  8
engr
 62
     7
370
    35
100
AcDbVertex
100
AcDb2dVertex
 10
-1.131600000000162
 20
-343.9117999999999
 30
0.0
  0
SEQEND
  5
A3
330
9D
100
AcDbEntity
  8
engr
 62
     7
370
    35
  0
SPLINE
  5
A4
330
1F
100
AcDbEntity
  8
engr
 62
     7
370
    35
100
AcDbSpline
210
0.0
220
0.0
230
1.0
 70
    11
 71
     3
 72
    29
 73
    25
 74
     0
 42
0.0000000001
 43
0.0000000001
 12
1.0
 22
0.0
 32
0.0
 13
1.0
 23
0.0
 33
0.0
 40
0.0
 40
0.0
 40
0.0
 40
0.0
 40
1.0
 40
1.0
 40
1.0
 40
2.0
 40
2.0
 40
2.0
 40
3.0
 40
3.0
 40
3.0
 40
4.0
 40
4.0
 40
4.0
 40
5.0
 40
5.0
 40
5.0
 40
6.0
 40
6.0
 40
6.0
 40
7.0
 40
7.0
 40
7.0
 40
8.0
 40
8.0
 40
8.0
 40
8.0
 10
218.7765944732382
 20
-256.6617999999999
 30
0.0
 10
218.7765944732382
 20
-281.6656999999996
 30
0.0
 10
209.8878946977857
 20
-303.0524000000005
 30
0.0
 10
192.118395146681
 20
-320.8258999999998
 30
0.0
 10
174.3429955957254
 20
-338.5992999999999
 30
0.0
 10
152.8683961382194
 20
-347.4859999999999
 30
0.0
 10
127.7003967740166
 20
-347.4859999999999
 30
0.0
 10
102.5265974099602
 20
-347.4859999999999
 30
0.0
 10
81.09690000000046
 20
-338.5992999999999
 30
0.0
 10
63.41139999999996
 20
-320.8258999999998
 30
0.0
 10
45.7199999999998
 20
-303.0524000000005
 30
0.0
 10
36.87820000000011
 20
-281.6656999999996
 30
0.0
 10
36.87820000000011
 20
-256.6617999999999
 30
0.0
 10
36.87820000000011
 20
-231.4938000000002
 30
0.0
 10
45.7199999999998
 20
-210.0212000000001
 30
0.0
 10
63.41139999999996
 20
-192.2438000000002
 30
0.0
 10
81.09690000000046
 20
-174.4742999999999
 30
0.0
 10
102.5265974099602
 20
-165.5837000000001
 30
0.0
 10
127.7003967740166
 20
-165.5837000000001
 30
0.0
 10
152.8683961382194
 20
-165.5837000000001
 30
0.0
 10
174.3429955957254
 20
-174.4742999999999
 30
0.0
 10
192.118395146681
 20
-192.2438000000002
 30
0.0
 10
209.8878946977857
 20
-210.0212000000001
 30
0.0
 10
218.7765944732382
 20
-231.4938000000002
 30
0.0
 10
218.7765944732382
 20
-256.6617999999999
 30
0.0
  0
SPLINE
  5
A5
330
1F
100
AcDbEntity
  8
engr
 62
     7
370
    35
100
AcDbSpline
210
0.0
220
0.0
230
1.0
 70
    11
 71
     3
 72
    29
 73
    25
 74
     0
 42
0.0000000001
 43
0.0000000001
 12
1.0
 22
0.0
 32
0.0
 13
1.0
 23
0.0
 33
0.0
 40
0.0
 40
0.0
 40
0.0
 40
0.0
 40
1.0
 40
1.0
 40
1.0
 40
2.0
 40
2.0
 40
2.0
 40
3.0
 40
3.0
 40
3.0
 40
4.0
 40
4.0
 40
4.0
 40
5.0
 40
5.0
 40
5.0
 40
6.0
 40
6.0
 40
6.0
 40
7.0
 40
7.0
 40
7.0
 40
8.0
 40
8.0
 40
8.0
 40
8.0
 10
200.6632949308187
 20
-256.6617999999999
 30
0.0
 10
200.6632949308187
 20
-236.4234999999999
 30
0.0
 10
193.5597951102682
 20
-219.1617999999999
 30
0.0
 10
179.3624954689221
 20
-204.8726999999999
 30
0.0
 10
165.1593958277226
 20
-190.5875999999998
 30
0.0
 10
147.9386962627541
 20
-183.4431000000004
 30
0.0
 10
127.7003967740166
 20
-183.4431000000004
 30
0.0
 10
107.630097281035
 20
-183.4431000000004
 30
0.0
 10
90.45240000000013
 20
-190.5875999999998
 30
0.0
 10
76.16719999999987
 20
-204.8726999999999
 30
0.0
 10
61.88009999999986
 20
-219.1617999999999
 30
0.0
 10
54.73559999999998
 20
-236.4234999999999
 30
0.0
 10
54.73559999999998
 20
-256.6617999999999
 30
0.0
 10
54.73559999999998
 20
-276.7321000000002
 30
0.0
 10
61.88009999999986
 20
-293.9079000000002
 30
0.0
 10
76.16719999999987
 20
-308.1970000000001
 30
0.0
 10
90.45240000000013
 20
-322.4821000000002
 30
0.0
 10
107.630097281035
 20
-329.6265999999996
 30
0.0
 10
127.7003967740166
 20
-329.6265999999996
 30
0.0
 10
147.9386962627541
 20
-329.6265999999996
 30
0.0
 10
165.1593958277226
 20
-322.4821000000002
 30
0.0
 10
179.3624954689221
 20
-308.1970000000001
 30
0.0
 10
193.5597951102682
 20
-293.9079000000002
 30
0.0
 10
200.6632949308187
 20
-276.7321000000002
 30
0.0
 10
200.6632949308187
 20
-256.6617999999999
 30
0.0
  0
SPLINE
  5
A6
330
1F
100
AcDbEntity
  8
engr
 62
     7
370
    35
100
AcDbSpline
210
0.0
220
0.0
230
1.0
 70
    11
 71
     3
 72
    32
 73
    28
 74
     0
 42
0.0000000001
 43
0.0000000001
 12
1.0
 22
0.0
 32
0.0
 13
1.0
 23
0.0
 33
0.0
 40
0.0
 40
0.0
 40
0.0
 40
0.0
 40
1.0
 40
1.0
 40
1.0
 40
2.0
 40
2.0
 40
2.0
 40
3.0
 40
3.0
 40
3.0
 40
4.0
 40
4.0
 40
4.0
 40
5.0
 40
5.0
 40
5.0
 40
6.0
 40
6.0
 40
6.0
 40
7.0
 40
7.0
 40
7.0
 40
8.0
 40
8.0
 40
8.0
 40
9.0
 40
9.0
 40
9.0
 40
9.0
 10
358.325390947939
 20
-310.2359999999999
 30
0.0
 10
358.325390947939
 20
-310.2359999999999
 30
0.0
 10
330.7726916439788
 20
-310.2359999999999
 30
0.0
 10
330.7726916439788
 20
-310.2359999999999
 30
0.0
 10
330.7726916439788
 20
-310.2359999999999
 30
0.0
 10
330.7726916439788
 20
-343.9117999999999
 30
0.0
 10
330.7726916439788
 20
-343.9117999999999
 30
0.0
 10
330.7726916439788
 20
-343.9117999999999
 30
0.0
 10
313.6808920757539
 20
-343.9117999999999
 30
0.0
 10
313.6808920757539
 20
-343.9117999999999
 30
0.0
 10
313.6808920757539
 20
-343.9117999999999
 30
0.0
 10
313.6808920757539
 20
-310.2359999999999
 30
0.0
 10
313.6808920757539
 20
-310.2359999999999
 30
0.0
 10
313.6808920757539
 20
-310.2359999999999
 30
0.0
 10
231.0226941638757
 20
-310.2359999999999
 30
0.0
 10
231.0226941638757
 20
-310.2359999999999
 30
0.0
 10
264.1886933260321
 20
-259.7281999999996
 30
0.0
 10
297.4367924861144
 20
-208.9625999999998
 30
0.0
 10
330.7726916439788
 20
-157.9390999999996
 30
0.0
 10
330.7726916439788
 20
-157.9390999999996
 30
0.0
 10
330.7726916439788
 20
-292.8883999999998
 30
0.0
 10
330.7726916439788
 20
-292.8883999999998
 30
0.0
 10
330.7726916439788
 20
-292.8883999999998
 30
0.0
 10
358.325390947939
 20
-292.8883999999998
 30
0.0
 10
358.325390947939
 20
-292.8883999999998
 30
0.0
 10
358.325390947939
 20
-292.8883999999998
 30
0.0
 10
358.325390947939
 20
-310.2359999999999
 30
0.0
 10
358.325390947939
 20
-310.2359999999999
 30
0.0
  0
POLYLINE
  5
A7
330
1F
100
AcDbEntity
  8
engr
 62
     7
370
    35
100
AcDb2dPolyline
 66
     1
 10
0.0
 20
0.0
 30
0.0
  0
VERTEX
  5
A8
330
A7
100
AcDbEntity
  8
engr
 62
     7
370
    35
100
AcDbVertex
100
AcDb2dVertex
 10
313.6808920757539
 20
-292.8883999999998
 30
0.0
  0
VERTEX
  5
A9
330
A7
100
AcDbEntity
  8
engr
 62
     7
370
    35
100
AcDbVertex
100
AcDb2dVertex
 10
313.6808920757539
 20
-211.5133999999998
 30
0.0
  0
VERTEX
  5
AA
330
A7
100
AcDbEntity
  8
engr
 62
     7
370
    35
100
AcDbVertex
100
AcDb2dVertex
 10
260.3800934222454
 20
-292.8883999999998
 30
0.0
  0
VERTEX
  5
AB
330
A7
100
AcDbEntity
  8
engr
 62
     7
370
    35
100
AcDbVertex
100
AcDb2dVertex
 10
313.6808920757539
 20
-292.8883999999998
 30
0.0
  0
SEQEND
  5
AC
330
A7
100
AcDbEntity
  8
engr
 62
     7
370
    35
  0
POLYLINE
  5
AD
330
1F
100
AcDbEntity
  8
engr
 62
     7
370
    35
100
AcDb2dPolyline
 66
     1
 10
0.0
 20
0.0
 30
0.0
  0
VERTEX
  5
AE
330
AD
100
AcDbEntity
  8
engr
 62
     7
370
    35
100
AcDbVertex
100
AcDb2dVertex
 10
16.2824999999998
 20
158.6328959925959
 30
0.0
  0
VERTEX
  5
AF
330
AD
100
AcDbEntity
  8
engr
 62
     7
370
    35
100
AcDbVertex
100
AcDb2dVertex
 10
-0.8112999999998465
 20
158.6328959925959
 30
0.0
  0
VERTEX
  5
B0
330
AD
100
AcDbEntity
  8
engr
 62
     7
370
    35
100
AcDbVertex
100
AcDb2dVertex
 10
-0.8112999999998465
 20
314.0000920676903
 30
0.0
  0
VERTEX
  5
B1
330
AD
100
AcDbEntity
  8
engr
 62
     7
370
    35
100
AcDbVertex
100
AcDb2dVertex
 10
16.2824999999998
 20
337.9805914618919
 30
0.0
  0
VERTEX
  5
B2
330
AD
100
AcDbEntity
  8
engr
 62
     7
370
    35
100
AcDbVertex
100
AcDb2dVertex
 10
16.2824999999998
 20
158.6328959925959
 30
0.0
  0
SEQEND
  5
B3
330
AD
100
AcDbEntity
  8
engr
 62
     7
370
    35
  0
SPLINE
  5
B4
330
1F
100
AcDbEntity
  8
engr
 62
     7
370
    35
100
AcDbSpline
210
0.0
220
0.0
230
1.0
 70
    11
 71
     3
 72
    29
 73
    25
 74
     0
 42
0.0000000001
 43
0.0000000001
 12
1.0
 22
0.0
 32
0.0
 13
1.0
 23
0.0
 33
0.0
 40
0.0
 40
0.0
 40
0.0
 40
0.0
 40
1.0
 40
1.0
 40
1.0
 40
2.0
 40
2.0
 40
2.0
 40
3.0
 40
3.0
 40
3.0
 40
4.0
 40
4.0
 40
4.0
 40
5.0
 40
5.0
 40
5.0
 40
6.0
 40
6.0
 40
6.0
 40
7.0
 40
7.0
 40
7.0
 40
8.0
 40
8.0
 40
8.0
 40
8.0
 10
236.1906940333211
 20
245.8828937884755
 30
0.0
 10
236.1906940333211
 20
220.8809944200766
 30
0.0
 10
227.3019942578685
 20
199.4922949604006
 30
0.0
 10
209.5324947067638
 20
181.7207954093465
 30
0.0
 10
191.7570951558082
 20
163.9473958583403
 30
0.0
 10
170.2824956983022
 20
155.0605960828398
 30
0.0
 10
145.1144963340994
 20
155.0605960828398
 30
0.0
 10
119.9406969700431
 20
155.0605960828398
 30
0.0
 10
98.51100000000042
 20
163.9473958583403
 30
0.0
 10
80.82539999999972
 20
181.7207954093465
 30
0.0
 10
63.13400000000001
 20
199.4922949604006
 30
0.0
 10
54.29219999999987
 20
220.8809944200766
 30
0.0
 10
54.29219999999987
 20
245.8828937884755
 30
0.0
 10
54.29219999999987
 20
271.0527931526303
 30
0.0
 10
63.13400000000001
 20
292.5254926101843
 30
0.0
 10
80.82539999999972
 20
310.3008921611399
 30
0.0
 10
98.51100000000042
 20
328.0703917122446
 30
0.0
 10
119.9406969700431
 20
336.9609914876492
 30
0.0
 10
145.1144963340994
 20
336.9609914876492
 30
0.0
 10
170.2824956983022
 20
336.9609914876492
 30
0.0
 10
191.7570951558082
 20
328.0703917122446
 30
0.0
 10
209.5324947067638
 20
310.3008921611399
 30
0.0
 10
227.3019942578685
 20
292.5254926101843
 30
0.0
 10
236.1906940333211
 20
271.0527931526303
 30
0.0
 10
236.1906940333211
 20
245.8828937884755
 30
0.0
  0
SPLINE
  5
B5
330
1F
100
AcDbEntity
  8
engr
 62
     7
370
    35
100
AcDbSpline
210
0.0
220
0.0
230
1.0
 70
    11
 71
     3
 72
    29
 73
    25
 74
     0
 42
0.0000000001
 43
0.0000000001
 12
1.0
 22
0.0
 32
0.0
 13
1.0
 23
0.0
 33
0.0
 40
0.0
 40
0.0
 40
0.0
 40
0.0
 40
1.0
 40
1.0
 40
1.0
 40
2.0
 40
2.0
 40
2.0
 40
3.0
 40
3.0
 40
3.0
 40
4.0
 40
4.0
 40
4.0
 40
5.0
 40
5.0
 40
5.0
 40
6.0
 40
6.0
 40
6.0
 40
7.0
 40
7.0
 40
7.0
 40
8.0
 40
8.0
 40
8.0
 40
8.0
 10
218.0773944909015
 20
245.8828937884755
 30
0.0
 10
218.0773944909015
 20
266.121193277213
 30
0.0
 10
210.973894670351
 20
283.3848928410953
 30
0.0
 10
196.776595029005
 20
297.6719924801728
 30
0.0
 10
182.5734953878055
 20
311.9590921192503
 30
0.0
 10
165.3527958228369
 20
319.101691938813
 30
0.0
 10
145.1144963340994
 20
319.101691938813
 30
0.0
 10
125.0441968411178
 20
319.101691938813
 30
0.0
 10
107.866497275063
 20
311.9590921192503
 30
0.0
 10
93.58129999999983
 20
297.6719924801728
 30
0.0
 10
79.29420000000027
 20
283.3848928410953
 30
0.0
 10
72.14969999999994
 20
266.121193277213
 30
0.0
 10
72.14969999999994
 20
245.8828937884755
 30
0.0
 10
72.14969999999994
 20
225.8125942954939
 30
0.0
 10
79.29420000000027
 20
208.6367947293911
 30
0.0
 10
93.58129999999983
 20
194.3496950903136
 30
0.0
 10
107.866497275063
 20
180.0625954512361
 30
0.0
 10
125.0441968411178
 20
172.9199956316734
 30
0.0
 10
145.1144963340994
 20
172.9199956316734
 30
0.0
 10
165.3527958228369
 20
172.9199956316734
 30
0.0
 10
182.5734953878055
 20
180.0625954512361
 30
0.0
 10
196.776595029005
 20
194.3496950903136
 30
0.0
 10
210.973894670351
 20
208.6367947293911
 30
0.0
 10
218.0773944909015
 20
225.8125942954939
 30
0.0
 10
218.0773944909015
 20
245.8828937884755
 30
0.0
  0
SPLINE
  5
B6
330
1F
100
AcDbEntity
  8
engr
 62
     7
370
    35
100
AcDbSpline
210
0.0
220
0.0
230
1.0
 70
    11
 71
     3
 72
    41
 73
    37
 74
     0
 42
0.0000000001
 43
0.0000000001
 12
1.0
 22
0.0
 32
0.0
 13
1.0
 23
0.0
 33
0.0
 40
0.0
 40
0.0
 40
0.0
 40
0.0
 40
1.0
 40
1.0
 40
1.0
 40
2.0
 40
2.0
 40
2.0
 40
3.0
 40
3.0
 40
3.0
 40
4.0
 40
4.0
 40
4.0
 40
5.0
 40
5.0
 40
5.0
 40
6.0
 40
6.0
 40
6.0
 40
7.0
 40
7.0
 40
7.0
 40
8.0
 40
8.0
 40
8.0
 40
9.0
 40
9.0
 40
9.0
 40
10.0
 40
10.0
 40
10.0
 40
11.0
 40
11.0
 40
11.0
 40
12.0
 40
12.0
 40
12.0
 40
12.0
 10
334.4113915520575
 20
158.6328959925959
 30
0.0
 10
334.4113915520575
 20
158.6328959925959
 30
0.0
 10
260.6984934142019
 20
158.6328959925959
 30
0.0
 10
260.6984934142019
 20
158.6328959925959
 30
0.0
 10
260.6984934142019
 20
158.6328959925959
 30
0.0
 10
302.0148923704619
 20
252.7715936144523
 30
0.0
 10
302.0148923704619
 20
252.7715936144523
 30
0.0
 10
304.7335923017818
 20
258.212993476991
 30
0.0
 10
306.0929922674404
 20
264.335993322311
 30
0.0
 10
306.0929922674404
 20
271.1406931504098
 30
0.0
 10
306.0929922674404
 20
284.0625928239751
 30
0.0
 10
301.4328923851645
 20
295.1602925436237
 30
0.0
 10
292.114492620567
 20
304.4336923093579
 30
0.0
 10
282.7941928560176
 20
313.7012920752386
 30
0.0
 10
271.548093140118
 20
318.3359919581562
 30
0.0
 10
258.3859934726206
 20
318.3359919581562
 30
0.0
 10
258.3859934726206
 20
318.3359919581562
 30
0.0
 10
258.3859934726206
 20
335.6855915198685
 30
0.0
 10
258.3859934726206
 20
335.6855915198685
 30
0.0
 10
276.2453930214542
 20
335.6855915198685
 30
0.0
 10
291.5070926359112
 20
329.390691678891
 30
0.0
 10
304.1789923157921
 20
316.8066919967896
 30
0.0
 10
316.8488919957235
 20
304.2168923148347
 30
0.0
 10
323.1867918356147
 20
288.9980926992939
 30
0.0
 10
323.1867918356147
 20
271.1406931504098
 30
0.0
 10
323.1867918356147
 20
261.955193382455
 30
0.0
 10
321.3996918807607
 20
253.4492935973321
 30
0.0
 10
317.8292919709565
 20
245.6289937948895
 30
0.0
 10
317.8292919709565
 20
245.6289937948895
 30
0.0
 10
287.4660927379955
 20
175.9805955543561
 30
0.0
 10
287.4660927379955
 20
175.9805955543561
 30
0.0
 10
287.4660927379955
 20
175.9805955543561
 30
0.0
 10
334.4113915520575
 20
175.9805955543561
 30
0.0
 10
334.4113915520575
 20
175.9805955543561
 30
0.0
 10
334.4113915520575
 20
175.9805955543561
 30
0.0
 10
334.4113915520575
 20
158.6328959925959
 30
0.0
 10
334.4113915520575
 20
158.6328959925959
 30
0.0
  0
POLYLINE
  5
B7
330
1F
100
AcDbEntity
  8
engr
 62
     7
370
    35
100
AcDb2dPolyline
 66
     1
 10
0.0
 20
0.0
 30
0.0
  0
VERTEX
  5
B8
330
B7
100
AcDbEntity
  8
engr
 62
     7
370
    35
100
AcDbVertex
100
AcDb2dVertex
 10
-132.6300000000001
 20
418.8274894195274
 30
0.0
  0
VERTEX
  5
B9
330
B7
100
AcDbEntity
  8
engr
 62
     7
370
    35
100
AcDbVertex
100
AcDb2dVertex
 10
-149.7217999999998
 20
418.8274894195274
 30
0.0
  0
VERTEX
  5
BA
330
B7
100
AcDbEntity
  8
engr
 62
     7
370
    35
100
AcDbVertex
100
AcDb2dVertex
 10
-149.7217999999998
 20
574.1946854946218
 30
0.0
  0
VERTEX
  5
BB
330
B7
100
AcDbEntity
  8
engr
 62
     7
370
    35
100
AcDbVertex
100
AcDb2dVertex
 10
-132.6300000000001
 20
598.1751848888234
 30
0.0
  0
VERTEX
  5
BC
330
B7
100
AcDbEntity
  8
engr
 62
     7
370
    35
100
AcDbVertex
100
AcDb2dVertex
 10
-132.6300000000001
 20
418.8274894195274
 30
0.0
  0
SEQEND
  5
BD
330
B7
100
AcDbEntity
  8
engr
 62
     7
370
    35
  0
SPLINE
  5
BE
330
1F
100
AcDbEntity
  8
engr
 62
     7
370
    35
100
AcDbSpline
210
0.0
220
0.0
230
1.0
 70
    11
 71
     3
 72
    29
 73
    25
 74
     0
 42
0.0000000001
 43
0.0000000001
 12
1.0
 22
0.0
 32
0.0
 13
1.0
 23
0.0
 33
0.0
 40
0.0
 40
0.0
 40
0.0
 40
0.0
 40
1.0
 40
1.0
 40
1.0
 40
2.0
 40
2.0
 40
2.0
 40
3.0
 40
3.0
 40
3.0
 40
4.0
 40
4.0
 40
4.0
 40
5.0
 40
5.0
 40
5.0
 40
6.0
 40
6.0
 40
6.0
 40
7.0
 40
7.0
 40
7.0
 40
8.0
 40
8.0
 40
8.0
 40
8.0
 10
-205.337
 20
506.077487215407
 30
0.0
 10
-205.337
 20
526.3157867041446
 30
0.0
 10
-212.4405999999999
 20
543.5794862680268
 30
0.0
 10
-226.6397999999999
 20
557.8665859071043
 30
0.0
 10
-240.8429000000001
 20
572.1536855461818
 30
0.0
 10
-258.0636
 20
579.2962853657446
 30
0.0
 10
-278.3018999999999
 20
579.2962853657446
 30
0.0
 10
-298.3721999999998
 20
579.2962853657446
 30
0.0
 10
-315.5479999999998
 20
572.1536855461818
 30
0.0
 10
-329.8351000000002
 20
557.8665859071043
 30
0.0
 10
-344.1221999999998
 20
543.5794862680268
 30
0.0
 10
-351.2647999999999
 20
526.3157867041446
 30
0.0
 10
-351.2647999999999
 20
506.077487215407
 30
0.0
 10
-351.2647999999999
 20
486.0071877224254
 30
0.0
 10
-344.1221999999998
 20
468.8313881563226
 30
0.0
 10
-329.8351000000002
 20
454.5442885172451
 30
0.0
 10
-315.5479999999998
 20
440.2571888781677
 30
0.0
 10
-298.3721999999998
 20
433.1145890586049
 30
0.0
 10
-278.3018999999999
 20
433.1145890586049
 30
0.0
 10
-258.0636
 20
433.1145890586049
 30
0.0
 10
-240.8429000000001
 20
440.2571888781677
 30
0.0
 10
-226.6397999999999
 20
454.5442885172451
 30
0.0
 10
-212.4405999999999
 20
468.8313881563226
 30
0.0
 10
-205.337
 20
486.0071877224254
 30
0.0
 10
-205.337
 20
506.077487215407
 30
0.0
  0
SPLINE
  5
BF
330
1F
100
AcDbEntity
  8
engr
 62
     7
370
    35
100
AcDbSpline
210
0.0
220
0.0
230
1.0
 70
    11
 71
     3
 72
    29
 73
    25
 74
     0
 42
0.0000000001
 43
0.0000000001
 12
1.0
 22
0.0
 32
0.0
 13
1.0
 23
0.0
 33
0.0
 40
0.0
 40
0.0
 40
0.0
 40
0.0
 40
1.0
 40
1.0
 40
1.0
 40
2.0
 40
2.0
 40
2.0
 40
3.0
 40
3.0
 40
3.0
 40
4.0
 40
4.0
 40
4.0
 40
5.0
 40
5.0
 40
5.0
 40
6.0
 40
6.0
 40
6.0
 40
7.0
 40
7.0
 40
7.0
 40
8.0
 40
8.0
 40
8.0
 40
8.0
 10
-187.2238000000002
 20
506.077487215407
 30
0.0
 10
-187.2238000000002
 20
481.0755878470081
 30
0.0
 10
-196.1124
 20
459.6868883873321
 30
0.0
 10
-213.8838999999998
 20
441.915388836278
 30
0.0
 10
-231.6574000000001
 20
424.1419892852718
 30
0.0
 10
-253.1320000000001
 20
415.2552895097688
 30
0.0
 10
-278.3018999999999
 20
415.2552895097688
 30
0.0
 10
-303.4738000000002
 20
415.2552895097688
 30
0.0
 10
-324.9034000000001
 20
424.1419892852718
 30
0.0
 10
-342.5909000000001
 20
441.915388836278
 30
0.0
 10
-360.2824000000001
 20
459.6868883873321
 30
0.0
 10
-369.1221999999998
 20
481.0755878470081
 30
0.0
 10
-369.1221999999998
 20
506.077487215407
 30
0.0
 10
-369.1221999999998
 20
531.2473865795619
 30
0.0
 10
-360.2824000000001
 20
552.7200860371158
 30
0.0
 10
-342.5909000000001
 20
570.4954855880715
 30
0.0
 10
-324.9034000000001
 20
588.2649851391761
 30
0.0
 10
-303.4738000000002
 20
597.1555849145807
 30
0.0
 10
-278.3018999999999
 20
597.1555849145807
 30
0.0
 10
-253.1320000000001
 20
597.1555849145807
 30
0.0
 10
-231.6574000000001
 20
588.2649851391761
 30
0.0
 10
-213.8838999999998
 20
570.4954855880715
 30
0.0
 10
-196.1124
 20
552.7200860371158
 30
0.0
 10
-187.2238000000002
 20
531.2473865795619
 30
0.0
 10
-187.2238000000002
 20
506.077487215407
 30
0.0
  0
POLYLINE
  5
C0
330
1F
100
AcDbEntity
  8
engr
 62
     7
370
    35
100
AcDb2dPolyline
 66
     1
 10
0.0
 20
0.0
 30
0.0
  0
VERTEX
  5
C1
330
C0
100
AcDbEntity
  8
engr
 62
     7
370
    35
100
AcDbVertex
100
AcDb2dVertex
 10
-407.1338999999998
 20
418.8274894195274
 30
0.0
  0
VERTEX
  5
C2
330
C0
100
AcDbEntity
  8
engr
 62
     7
370
    35
100
AcDbVertex
100
AcDb2dVertex
 10
-424.2257
 20
418.8274894195274
 30
0.0
  0
VERTEX
  5
C3
330
C0
100
AcDbEntity
  8
engr
 62
     7
370
    35
100
AcDbVertex
100
AcDb2dVertex
 10
-424.2257
 20
574.1946854946218
 30
0.0
  0
VERTEX
  5
C4
330
C0
100
AcDbEntity
  8
engr
 62
     7
370
    35
100
AcDbVertex
100
AcDb2dVertex
 10
-407.1338999999998
 20
598.1751848888234
 30
0.0
  0
VERTEX
  5
C5
330
C0
100
AcDbEntity
  8
engr
 62
     7
370
    35
100
AcDbVertex
100
AcDb2dVertex
 10
-407.1338999999998
 20
418.8274894195274
 30
0.0
  0
SEQEND
  5
C6
330
C0
100
AcDbEntity
  8
engr
 62
     7
370
    35
  0
SPLINE
  5
C7
330
1F
100
AcDbEntity
  8
engr
 62
     7
370
    35
100
AcDbSpline
210
0.0
220
0.0
230
1.0
 70
    11
 71
     3
 72
    47
 73
    43
 74
     0
 42
0.0000000001
 43
0.0000000001
 12
1.0
 22
0.0
 32
0.0
 13
1.0
 23
0.0
 33
0.0
 40
0.0
 40
0.0
 40
0.0
 40
0.0
 40
1.0
 40
1.0
 40
1.0
 40
2.0
 40
2.0
 40
2.0
 40
3.0
 40
3.0
 40
3.0
 40
4.0
 40
4.0
 40
4.0
 40
5.0
 40
5.0
 40
5.0
 40
6.0
 40
6.0
 40
6.0
 40
7.0
 40
7.0
 40
7.0
 40
8.0
 40
8.0
 40
8.0
 40
9.0
 40
9.0
 40
9.0
 40
10.0
 40
10.0
 40
10.0
 40
11.0
 40
11.0
 40
11.0
 40
12.0
 40
12.0
 40
12.0
 40
13.0
 40
13.0
 40
13.0
 40
14.0
 40
14.0
 40
14.0
 40
14.0
 10
-111.7101000000002
 20
-32.20030000000042
 30
0.0
 10
-111.7101000000002
 20
-50.22770000000037
 30
0.0
 10
-118.0050000000001
 20
-65.53430000000026
 30
0.0
 10
-130.5889999999999
 20
-78.11830000000009
 30
0.0
 10
-143.1768999999999
 20
-90.70229999999992
 30
0.0
 10
-158.3955999999998
 20
-96.99330000000009
 30
0.0
 10
-176.2550000000001
 20
-96.99330000000009
 30
0.0
 10
-176.2550000000001
 20
-96.99330000000009
 30
0.0
 10
-176.2550000000001
 20
-80.15539999999964
 30
0.0
 10
-176.2550000000001
 20
-80.15539999999964
 30
0.0
 10
-163.2276999999999
 20
-80.15539999999964
 30
0.0
 10
-152.0636
 20
-75.47959999999966
 30
0.0
 10
-142.7588999999998
 20
-66.1241
 30
0.0
 10
-133.4542000000001
 20
-56.77260000000024
 30
0.0
 10
-128.8018999999999
 20
-45.46010000000024
 30
0.0
 10
-128.8018999999999
 20
-32.19250000000011
 30
0.0
 10
-128.8018999999999
 20
-20.63000000000011
 30
0.0
 10
-132.6066000000001
 20
-10.34090000000015
 30
0.0
 10
-140.212
 20
-1.32340000000022
 30
0.0
 10
-147.8175000000001
 20
7.688400000000001
 30
0.0
 10
-157.3683000000001
 20
13.04579999999987
 30
0.0
 10
-168.8566000000001
 20
14.74889999999959
 30
0.0
 10
-168.8566000000001
 20
14.74889999999959
 30
0.0
 10
-146.9151999999999
 20
64.4970000000003
 30
0.0
 10
-146.9151999999999
 20
64.4970000000003
 30
0.0
 10
-146.9151999999999
 20
64.4970000000003
 30
0.0
 10
-188.2471999999998
 20
64.4970000000003
 30
0.0
 10
-188.2471999999998
 20
64.4970000000003
 30
0.0
 10
-188.2471999999998
 20
64.4970000000003
 30
0.0
 10
-188.2471999999998
 20
81.84460000000036
 30
0.0
 10
-188.2471999999998
 20
81.84460000000036
 30
0.0
 10
-188.2471999999998
 20
81.84460000000036
 30
0.0
 10
-120.0284000000001
 20
81.84460000000036
 30
0.0
 10
-120.0284000000001
 20
81.84460000000036
 30
0.0
 10
-120.0284000000001
 20
81.84460000000036
 30
0.0
 10
-145.3488000000002
 20
24.42659999999978
 30
0.0
 10
-145.3488000000002
 20
24.42659999999978
 30
0.0
 10
-134.9854999999998
 20
18.81530000000021
 30
0.0
 10
-126.7901999999999
 20
10.90520000000015
 30
0.0
 10
-120.7588999999998
 20
0.7020000000002256
 30
0.0
 10
-114.7276999999999
 20
-9.502999999999702
 30
0.0
 10
-111.7101000000002
 20
-20.46979999999985
 30
0.0
 10
-111.7101000000002
 20
-32.20030000000042
 30
0.0
  0
POLYLINE
  5
C8
330
1F
100
AcDbEntity
  8
engr
 62
     7
370
    35
100
AcDb2dPolyline
 66
     1
 10
0.0
 20
0.0
 30
0.0
  0
VERTEX
  5
C9
330
C8
100
AcDbEntity
  8
engr
 62
     7
370
    35
100
AcDbVertex
100
AcDb2dVertex
 10
463.2767882966436
 20
-85.86120000000028
 30
0.0
  0
VERTEX
  5
CA
330
C8
100
AcDbEntity
  8
engr
 62
     7
370
    35
100
AcDbVertex
100
AcDb2dVertex
 10
446.1829887284694
 20
-85.86120000000028
 30
0.0
  0
VERTEX
  5
CB
330
C8
100
AcDbEntity
  8
engr
 62
     7
370
    35
100
AcDbVertex
100
AcDb2dVertex
 10
446.1829887284694
 20
69.50600000000031
 30
0.0
  0
VERTEX
  5
CC
330
C8
100
AcDbEntity
  8
engr
 62
     7
370
    35
100
AcDbVertex
100
AcDb2dVertex
 10
463.2767882966436
 20
93.48649999999998
 30
0.0
  0
VERTEX
  5
CD
330
C8
100
AcDbEntity
  8
engr
 62
     7
370
    35
100
AcDbVertex
100
AcDb2dVertex
 10
463.2767882966436
 20
-85.86120000000028
 30
0.0
  0
SEQEND
  5
CE
330
C8
100
AcDbEntity
  8
engr
 62
     7
370
    35
  0
SPLINE
  5
CF
330
1F
100
AcDbEntity
  8
engr
 62
     7
370
    35
100
AcDbSpline
210
0.0
220
0.0
230
1.0
 70
    11
 71
     3
 72
    29
 73
    25
 74
     0
 42
0.0000000001
 43
0.0000000001
 12
1.0
 22
0.0
 32
0.0
 13
1.0
 23
0.0
 33
0.0
 40
0.0
 40
0.0
 40
0.0
 40
0.0
 40
1.0
 40
1.0
 40
1.0
 40
2.0
 40
2.0
 40
2.0
 40
3.0
 40
3.0
 40
3.0
 40
4.0
 40
4.0
 40
4.0
 40
5.0
 40
5.0
 40
5.0
 40
6.0
 40
6.0
 40
6.0
 40
7.0
 40
7.0
 40
7.0
 40
8.0
 40
8.0
 40
8.0
 40
8.0
 10
683.1849827412952
 20
1.388799999999719
 30
0.0
 10
683.1849827412952
 20
-23.61309999999958
 30
0.0
 10
674.2962829658427
 20
-45.0018
 30
0.0
 10
656.526783414738
 20
-62.77329999999984
 30
0.0
 10
638.7513838637824
 20
-80.54669999999987
 30
0.0
 10
617.2767844062764
 20
-89.4335000000001
 30
0.0
 10
592.1087850420736
 20
-89.4335000000001
 30
0.0
 10
566.9349856780173
 20
-89.4335000000001
 30
0.0
 10
545.505286219377
 20
-80.54669999999987
 30
0.0
 10
527.8196866661528
 20
-62.77329999999984
 30
0.0
 10
510.1282871130752
 20
-45.0018
 30
0.0
 10
501.2864873364379
 20
-23.61309999999958
 30
0.0
 10
501.2864873364379
 20
1.388799999999719
 30
0.0
 10
501.2864873364379
 20
26.55869999999959
 30
0.0
 10
510.1282871130752
 20
48.03139999999985
 30
0.0
 10
527.8196866661528
 20
65.8068000000003
 30
0.0
 10
545.505286219377
 20
83.57629999999972
 30
0.0
 10
566.9349856780173
 20
92.46690000000035
 30
0.0
 10
592.1087850420736
 20
92.46690000000035
 30
0.0
 10
617.2767844062764
 20
92.46690000000035
 30
0.0
 10
638.7513838637824
 20
83.57629999999972
 30
0.0
 10
656.526783414738
 20
65.8068000000003
 30
0.0
 10
674.2962829658427
 20
48.03139999999985
 30
0.0
 10
683.1849827412952
 20
26.55869999999959
 30
0.0
 10
683.1849827412952
 20
1.388799999999719
 30
0.0
  0
SPLINE
  5
D0
330
1F
100
AcDbEntity
  8
engr
 62
     7
370
    35
100
AcDbSpline
210
0.0
220
0.0
230
1.0
 70
    11
 71
     3
 72
    29
 73
    25
 74
     0
 42
0.0000000001
 43
0.0000000001
 12
1.0
 22
0.0
 32
0.0
 13
1.0
 23
0.0
 33
0.0
 40
0.0
 40
0.0
 40
0.0
 40
0.0
 40
1.0
 40
1.0
 40
1.0
 40
2.0
 40
2.0
 40
2.0
 40
3.0
 40
3.0
 40
3.0
 40
4.0
 40
4.0
 40
4.0
 40
5.0
 40
5.0
 40
5.0
 40
6.0
 40
6.0
 40
6.0
 40
7.0
 40
7.0
 40
7.0
 40
8.0
 40
8.0
 40
8.0
 40
8.0
 10
665.0716831988757
 20
1.388799999999719
 30
0.0
 10
665.0716831988757
 20
21.6270999999997
 30
0.0
 10
657.9681833783252
 20
38.89080000000013
 30
0.0
 10
643.7708837369792
 20
53.17789999999968
 30
0.0
 10
629.5677840957796
 20
67.46500000000015
 30
0.0
 10
612.3470845308111
 20
74.60760000000028
 30
0.0
 10
592.1087850420736
 20
74.60760000000028
 30
0.0
 10
572.038485549092
 20
74.60760000000028
 30
0.0
 10
554.8607859830372
 20
67.46500000000015
 30
0.0
 10
540.5755863439117
 20
53.17789999999968
 30
0.0
 10
526.2884867048342
 20
38.89080000000013
 30
0.0
 10
519.1439868853195
 20
21.6270999999997
 30
0.0
 10
519.1439868853195
 20
1.388799999999719
 30
0.0
 10
519.1439868853195
 20
-18.68149999999969
 30
0.0
 10
526.2884867048342
 20
-35.85729999999967
 30
0.0
 10
540.5755863439117
 20
-50.14440000000013
 30
0.0
 10
554.8607859830372
 20
-64.43149999999969
 30
0.0
 10
572.038485549092
 20
-71.57409999999982
 30
0.0
 10
592.1087850420736
 20
-71.57409999999982
 30
0.0
 10
612.3470845308111
 20
-71.57409999999982
 30
0.0
 10
629.5677840957796
 20
-64.43149999999969
 30
0.0
 10
643.7708837369792
 20
-50.14440000000013
 30
0.0
 10
657.9681833783252
 20
-35.85729999999967
 30
0.0
 10
665.0716831988757
 20
-18.68149999999969
 30
0.0
 10
665.0716831988757
 20
1.388799999999719
 30
0.0
  0
POLYLINE
  5
D1
330
1F
100
AcDbEntity
  8
engr
 62
     7
370
    35
100
AcDb2dPolyline
 66
     1
 10
0.0
 20
0.0
 30
0.0
  0
VERTEX
  5
D2
330
D1
100
AcDbEntity
  8
engr
 62
     7
370
    35
100
AcDbVertex
100
AcDb2dVertex
 10
794.4173799313285
 20
88.89469999999983
 30
0.0
  0
VERTEX
  5
D3
330
D1
100
AcDbEntity
  8
engr
 62
     7
370
    35
100
AcDbVertex
100
AcDb2dVertex
 10
719.1614818324524
 20
-85.86120000000028
 30
0.0
  0
VERTEX
  5
D4
330
D1
100
AcDbEntity
  8
engr
 62
     7
370
    35
100
AcDbVertex
100
AcDb2dVertex
 10
700.2747823095706
 20
-85.86120000000028
 30
0.0
  0
VERTEX
  5
D5
330
D1
100
AcDbEntity
  8
engr
 62
     7
370
    35
100
AcDbVertex
100
AcDb2dVertex
 10
768.0560805972709
 20
71.54699999999957
 30
0.0
  0
VERTEX
  5
D6
330
D1
100
AcDbEntity
  8
engr
 62
     7
370
    35
100
AcDbVertex
100
AcDb2dVertex
 10
709.7181820710102
 20
71.54699999999957
 30
0.0
  0
VERTEX
  5
D7
330
D1
100
AcDbEntity
  8
engr
 62
     7
370
    35
100
AcDbVertex
100
AcDb2dVertex
 10
709.7181820710102
 20
88.89469999999983
 30
0.0
  0
VERTEX
  5
D8
330
D1
100
AcDbEntity
  8
engr
 62
     7
370
    35
100
AcDbVertex
100
AcDb2dVertex
 10
794.4173799313285
 20
88.89469999999983
 30
0.0
  0
SEQEND
  5
D9
330
D1
100
AcDbEntity
  8
engr
 62
     7
370
    35
  0
POLYLINE
  5
DA
330
1F
100
AcDbEntity
  8
engr
 62
     7
370
    35
100
AcDb2dPolyline
 66
     1
 10
0.0
 20
0.0
 30
0.0
  0
VERTEX
  5
DB
330
DA
100
AcDbEntity
  8
engr
 62
     7
370
    35
100
AcDbVertex
100
AcDb2dVertex
 10
454.6028885157648
 20
418.8274894195274
 30
0.0
  0
VERTEX
  5
DC
330
DA
100
AcDbEntity
  8
engr
 62
     7
370
    35
100
AcDbVertex
100
AcDb2dVertex
 10
437.509188947588
 20
418.8274894195274
 30
0.0
  0
VERTEX
  5
DD
330
DA
100
AcDbEntity
  8
engr
 62
     7
370
    35
100
AcDbVertex
100
AcDb2dVertex
 10
437.509188947588
 20
574.1946854946218
 30
0.0
  0
VERTEX
  5
DE
330
DA
100
AcDbEntity
  8
engr
 62
     7
370
    35
100
AcDbVertex
100
AcDb2dVertex
 10
454.6028885157648
 20
598.1751848888234
 30
0.0
  0
VERTEX
  5
DF
330
DA
100
AcDbEntity
  8
engr
 62
     7
370
    35
100
AcDbVertex
100
AcDb2dVertex
 10
454.6028885157648
 20
418.8274894195274
 30
0.0
  0
SEQEND
  5
E0
330
DA
100
AcDbEntity
  8
engr
 62
     7
370
    35
  0
SPLINE
  5
E1
330
1F
100
AcDbEntity
  8
engr
 62
     7
370
    35
100
AcDbSpline
210
0.0
220
0.0
230
1.0
 70
    11
 71
     3
 72
    29
 73
    25
 74
     0
 42
0.0000000001
 43
0.0000000001
 12
1.0
 22
0.0
 32
0.0
 13
1.0
 23
0.0
 33
0.0
 40
0.0
 40
0.0
 40
0.0
 40
0.0
 40
1.0
 40
1.0
 40
1.0
 40
2.0
 40
2.0
 40
2.0
 40
3.0
 40
3.0
 40
3.0
 40
4.0
 40
4.0
 40
4.0
 40
5.0
 40
5.0
 40
5.0
 40
6.0
 40
6.0
 40
6.0
 40
7.0
 40
7.0
 40
7.0
 40
8.0
 40
8.0
 40
8.0
 40
8.0
 10
674.5111829604139
 20
506.077487215407
 30
0.0
 10
674.5111829604139
 20
481.0755878470081
 30
0.0
 10
665.6224831849613
 20
459.6868883873321
 30
0.0
 10
647.8528836338592
 20
441.915388836278
 30
0.0
 10
630.077584082901
 20
424.1419892852718
 30
0.0
 10
608.6028846253976
 20
415.2552895097688
 30
0.0
 10
583.4349852611922
 20
415.2552895097688
 30
0.0
 10
558.2611858971359
 20
415.2552895097688
 30
0.0
 10
536.8314864384956
 20
424.1419892852718
 30
0.0
 10
519.1458868852715
 20
441.915388836278
 30
0.0
 10
501.4544873321938
 20
459.6868883873321
 30
0.0
 10
492.6126875555565
 20
481.0755878470081
 30
0.0
 10
492.6126875555565
 20
506.077487215407
 30
0.0
 10
492.6126875555565
 20
531.2473865795619
 30
0.0
 10
501.4544873321938
 20
552.7200860371158
 30
0.0
 10
519.1458868852715
 20
570.4954855880715
 30
0.0
 10
536.8314864384956
 20
588.2649851391761
 30
0.0
 10
558.2611858971359
 20
597.1555849145807
 30
0.0
 10
583.4349852611922
 20
597.1555849145807
 30
0.0
 10
608.6028846253976
 20
597.1555849145807
 30
0.0
 10
630.077584082901
 20
588.2649851391761
 30
0.0
 10
647.8528836338592
 20
570.4954855880715
 30
0.0
 10
665.6224831849613
 20
552.7200860371158
 30
0.0
 10
674.5111829604139
 20
531.2473865795619
 30
0.0
 10
674.5111829604139
 20
506.077487215407
 30
0.0
  0
SPLINE
  5
E2
330
1F
100
AcDbEntity
  8
engr
 62
     7
370
    35
100
AcDbSpline
210
0.0
220
0.0
230
1.0
 70
    11
 71
     3
 72
    29
 73
    25
 74
     0
 42
0.0000000001
 43
0.0000000001
 12
1.0
 22
0.0
 32
0.0
 13
1.0
 23
0.0
 33
0.0
 40
0.0
 40
0.0
 40
0.0
 40
0.0
 40
1.0
 40
1.0
 40
1.0
 40
2.0
 40
2.0
 40
2.0
 40
3.0
 40
3.0
 40
3.0
 40
4.0
 40
4.0
 40
4.0
 40
5.0
 40
5.0
 40
5.0
 40
6.0
 40
6.0
 40
6.0
 40
7.0
 40
7.0
 40
7.0
 40
8.0
 40
8.0
 40
8.0
 40
8.0
 10
656.3978834179943
 20
506.077487215407
 30
0.0
 10
656.3978834179943
 20
526.3157867041446
 30
0.0
 10
649.2943835974438
 20
543.5794862680268
 30
0.0
 10
635.0970839560978
 20
557.8665859071043
 30
0.0
 10
620.8939843148983
 20
572.1536855461818
 30
0.0
 10
603.6732847499297
 20
579.2962853657446
 30
0.0
 10
583.4349852611922
 20
579.2962853657446
 30
0.0
 10
563.3646857682106
 20
579.2962853657446
 30
0.0
 10
546.1868862021583
 20
572.1536855461818
 30
0.0
 10
531.9017865630303
 20
557.8665859071043
 30
0.0
 10
517.6146869239528
 20
543.5794862680268
 30
0.0
 10
510.4700871044406
 20
526.3157867041446
 30
0.0
 10
510.4700871044406
 20
506.077487215407
 30
0.0
 10
510.4700871044406
 20
486.0071877224254
 30
0.0
 10
517.6146869239528
 20
468.8313881563226
 30
0.0
 10
531.9017865630303
 20
454.5442885172451
 30
0.0
 10
546.1868862021583
 20
440.2571888781677
 30
0.0
 10
563.3646857682106
 20
433.1145890586049
 30
0.0
 10
583.4349852611922
 20
433.1145890586049
 30
0.0
 10
603.6732847499297
 20
433.1145890586049
 30
0.0
 10
620.8939843148983
 20
440.2571888781677
 30
0.0
 10
635.0970839560978
 20
454.5442885172451
 30
0.0
 10
649.2943835974438
 20
468.8313881563226
 30
0.0
 10
656.3978834179943
 20
486.0071877224254
 30
0.0
 10
656.3978834179943
 20
506.077487215407
 30
0.0
  0
SPLINE
  5
E3
330
1F
100
AcDbEntity
  8
engr
 62
     7
370
    35
100
AcDbSpline
210
0.0
220
0.0
230
1.0
 70
    11
 71
     3
 72
    41
 73
    37
 74
     0
 42
0.0000000001
 43
0.0000000001
 12
1.0
 22
0.0
 32
0.0
 13
1.0
 23
0.0
 33
0.0
 40
0.0
 40
0.0
 40
0.0
 40
0.0
 40
1.0
 40
1.0
 40
1.0
 40
2.0
 40
2.0
 40
2.0
 40
3.0
 40
3.0
 40
3.0
 40
4.0
 40
4.0
 40
4.0
 40
5.0
 40
5.0
 40
5.0
 40
6.0
 40
6.0
 40
6.0
 40
7.0
 40
7.0
 40
7.0
 40
8.0
 40
8.0
 40
8.0
 40
9.0
 40
9.0
 40
9.0
 40
10.0
 40
10.0
 40
10.0
 40
11.0
 40
11.0
 40
11.0
 40
12.0
 40
12.0
 40
12.0
 40
12.0
 10
803.0911797122099
 20
465.7688882336879
 30
0.0
 10
803.0911797122099
 20
451.8216885860238
 30
0.0
 10
798.1556798368911
 20
439.9153888868022
 30
0.0
 10
788.2943800860085
 20
430.0520891359702
 30
0.0
 10
778.4271803352749
 20
420.1868893851861
 30
0.0
 10
766.5208806360533
 20
415.2552895097688
 30
0.0
 10
752.5775809882907
 20
415.2552895097688
 30
0.0
 10
738.4583813449717
 20
415.2552895097688
 30
0.0
 10
726.4681816478696
 20
420.1868893851861
 30
0.0
 10
716.6048818970376
 20
430.0520891359702
 30
0.0
 10
706.7396821462535
 20
439.9153888868022
 30
0.0
 10
701.8079822708387
 20
451.8216885860238
 30
0.0
 10
701.8079822708387
 20
465.7688882336879
 30
0.0
 10
701.8079822708387
 20
484.9876877481802
 30
0.0
 10
710.2278820581341
 20
499.1028873916002
 30
0.0
 10
727.065781632773
 20
508.118487163847
 30
0.0
 10
711.2474820323769
 20
516.7923869447259
 30
0.0
 10
703.3392822321548
 20
530.1419866074866
 30
0.0
 10
703.3392822321548
 20
548.1731861519802
 30
0.0
 10
703.3392822321548
 20
561.6067858126189
 30
0.0
 10
708.1439821107779
 20
573.1302855215108
 30
0.0
 10
717.7532818680265
 20
582.741585278709
 30
0.0
 10
727.3607816253207
 20
592.3470850360536
 30
0.0
 10
738.9681813320931
 20
597.1555849145807
 30
0.0
 10
752.5775809882907
 20
597.1555849145807
 30
0.0
 10
766.0111806489294
 20
597.1555849145807
 30
0.0
 10
777.5345803578239
 20
592.3470850360536
 30
0.0
 10
787.145880115022
 20
582.741585278709
 30
0.0
 10
796.7532798723187
 20
573.1302855215108
 30
0.0
 10
801.5599797508912
 20
561.6067858126189
 30
0.0
 10
801.5599797508912
 20
548.1731861519802
 30
0.0
 10
801.5599797508912
 20
530.1419866074866
 30
0.0
 10
793.6517799506692
 20
516.7923869447259
 30
0.0
 10
777.8333803502755
 20
508.118487163847
 30
0.0
 10
794.6712799249144
 20
499.1028873916002
 30
0.0
 10
803.0911797122099
 20
484.9876877481802
 30
0.0
 10
803.0911797122099
 20
465.7688882336879
 30
0.0
  0
SPLINE
  5
E4
330
1F
100
AcDbEntity
  8
engr
 62
     7
370
    35
100
AcDbSpline
210
0.0
220
0.0
230
1.0
 70
    11
 71
     3
 72
    29
 73
    25
 74
     0
 42
0.0000000001
 43
0.0000000001
 12
1.0
 22
0.0
 32
0.0
 13
1.0
 23
0.0
 33
0.0
 40
0.0
 40
0.0
 40
0.0
 40
0.0
 40
1.0
 40
1.0
 40
1.0
 40
2.0
 40
2.0
 40
2.0
 40
3.0
 40
3.0
 40
3.0
 40
4.0
 40
4.0
 40
4.0
 40
5.0
 40
5.0
 40
5.0
 40
6.0
 40
6.0
 40
6.0
 40
7.0
 40
7.0
 40
7.0
 40
8.0
 40
8.0
 40
8.0
 40
8.0
 10
785.4876801569117
 20
465.6419882368937
 30
0.0
 10
785.4876801569117
 20
474.8587880040577
 30
0.0
 10
782.255280238569
 20
482.7102878057121
 30
0.0
 10
775.7923804018355
 20
489.2005876417534
 30
0.0
 10
769.3275805651501
 20
495.6887874778477
 30
0.0
 10
761.591180760588
 20
498.9348873958443
 30
0.0
 10
752.5775809882907
 20
498.9348873958443
 30
0.0
 10
743.393981220288
 20
498.9348873958443
 30
0.0
 10
735.5677814179944
 20
495.6887874778477
 30
0.0
 10
729.1068815812105
 20
489.2005876417534
 30
0.0
 10
722.6400817445756
 20
482.7102878057121
 30
0.0
 10
719.4114818261369
 20
474.8587880040577
 30
0.0
 10
719.4114818261369
 20
465.6419882368937
 30
0.0
 10
719.4114818261369
 20
456.5930884654881
 30
0.0
 10
722.6400817445756
 20
448.8235886617622
 30
0.0
 10
729.1068815812105
 20
442.3333888257184
 30
0.0
 10
735.5677814179944
 20
435.8450889896267
 30
0.0
 10
743.393981220288
 20
432.604889071481
 30
0.0
 10
752.5775809882907
 20
432.604889071481
 30
0.0
 10
761.591180760588
 20
432.604889071481
 30
0.0
 10
769.3275805651501
 20
435.8450889896267
 30
0.0
 10
775.7923804018355
 20
442.3333888257184
 30
0.0
 10
782.255280238569
 20
448.8235886617622
 30
0.0
 10
785.4876801569117
 20
456.5930884654881
 30
0.0
 10
785.4876801569117
 20
465.6419882368937
 30
0.0
  0
SPLINE
  5
E5
330
1F
100
AcDbEntity
  8
engr
 62
     7
370
    35
100
AcDbSpline
210
0.0
220
0.0
230
1.0
 70
    11
 71
     3
 72
    29
 73
    25
 74
     0
 42
0.0000000001
 43
0.0000000001
 12
1.0
 22
0.0
 32
0.0
 13
1.0
 23
0.0
 33
0.0
 40
0.0
 40
0.0
 40
0.0
 40
0.0
 40
1.0
 40
1.0
 40
1.0
 40
2.0
 40
2.0
 40
2.0
 40
3.0
 40
3.0
 40
3.0
 40
4.0
 40
4.0
 40
4.0
 40
5.0
 40
5.0
 40
5.0
 40
6.0
 40
6.0
 40
6.0
 40
7.0
 40
7.0
 40
7.0
 40
8.0
 40
8.0
 40
8.0
 40
8.0
 10
784.4681801826664
 20
548.1731861519802
 30
0.0
 10
784.4681801826664
 20
556.847085932859
 30
0.0
 10
781.3060802625478
 20
564.284585744972
 30
0.0
 10
774.987680422164
 20
570.4954855880715
 30
0.0
 10
768.6693805817777
 20
576.7024854312695
 30
0.0
 10
761.1556807715897
 20
579.8079853528179
 30
0.0
 10
752.450580991499
 20
579.8079853528179
 30
0.0
 10
743.5677812158974
 20
579.8079853528179
 30
0.0
 10
736.0150814066947
 20
576.7024854312695
 30
0.0
 10
729.7806815641889
 20
570.4954855880715
 30
0.0
 10
723.546281721683
 20
564.284585744972
 30
0.0
 10
720.4329818003316
 20
556.847085932859
 30
0.0
 10
720.4329818003316
 20
548.1731861519802
 30
0.0
 10
720.4329818003316
 20
539.3274863754414
 30
0.0
 10
723.546281721683
 20
531.800186565597
 30
0.0
 10
729.7806815641889
 20
525.595086722351
 30
0.0
 10
736.0150814066947
 20
519.3841868792515
 30
0.0
 10
743.5677812158974
 20
516.2825869576045
 30
0.0
 10
752.450580991499
 20
516.2825869576045
 30
0.0
 10
761.1556807715897
 20
516.2825869576045
 30
0.0
 10
768.6693805817777
 20
519.3841868792515
 30
0.0
 10
774.987680422164
 20
525.595086722351
 30
0.0
 10
781.3060802625478
 20
531.800186565597
 30
0.0
 10
784.4681801826664
 20
539.3274863754414
 30
0.0
 10
784.4681801826664
 20
548.1731861519802
 30
0.0
  0
POLYLINE
  5
E6
330
1F
100
AcDbEntity
  8
engr
 62
     7
370
    35
100
AcDb2dPolyline
 66
     1
 10
0.0
 20
0.0
 30
0.0
  0
VERTEX
  5
E7
330
E6
100
AcDbEntity
  8
engr
 62
     7
370
    35
100
AcDbVertex
100
AcDb2dVertex
 10
457.4095884448616
 20
-592.0151999999998
 30
0.0
  0
VERTEX
  5
E8
330
E6
100
AcDbEntity
  8
engr
 62
     7
370
    35
100
AcDbVertex
100
AcDb2dVertex
 10
440.3157888766873
 20
-592.0151999999998
 30
0.0
  0
VERTEX
  5
E9
330
E6
100
AcDbEntity
  8
engr
 62
     7
370
    35
100
AcDbVertex
100
AcDb2dVertex
 10
440.3157888766873
 20
-436.6481000000003
 30
0.0
  0
VERTEX
  5
EA
330
E6
100
AcDbEntity
  8
engr
 62
     7
370
    35
100
AcDbVertex
100
AcDb2dVertex
 10
457.4095884448616
 20
-412.6675999999998
 30
0.0
  0
VERTEX
  5
EB
330
E6
100
AcDbEntity
  8
engr
 62
     7
370
    35
100
AcDbVertex
100
AcDb2dVertex
 10
457.4095884448616
 20
-592.0151999999998
 30
0.0
  0
SEQEND
  5
EC
330
E6
100
AcDbEntity
  8
engr
 62
     7
370
    35
  0
SPLINE
  5
ED
330
1F
100
AcDbEntity
  8
engr
 62
     7
370
    35
100
AcDbSpline
210
0.0
220
0.0
230
1.0
 70
    11
 71
     3
 72
    29
 73
    25
 74
     0
 42
0.0000000001
 43
0.0000000001
 12
1.0
 22
0.0
 32
0.0
 13
1.0
 23
0.0
 33
0.0
 40
0.0
 40
0.0
 40
0.0
 40
0.0
 40
1.0
 40
1.0
 40
1.0
 40
2.0
 40
2.0
 40
2.0
 40
3.0
 40
3.0
 40
3.0
 40
4.0
 40
4.0
 40
4.0
 40
5.0
 40
5.0
 40
5.0
 40
6.0
 40
6.0
 40
6.0
 40
7.0
 40
7.0
 40
7.0
 40
8.0
 40
8.0
 40
8.0
 40
8.0
 10
677.3177828895132
 20
-504.7651999999998
 30
0.0
 10
677.3177828895132
 20
-529.7672000000002
 30
0.0
 10
668.4290831140606
 20
-551.1558999999997
 30
0.0
 10
650.659583562956
 20
-568.9274000000005
 30
0.0
 10
632.8841840120003
 20
-586.7008000000005
 30
0.0
 10
611.4095845544944
 20
-595.5874999999996
 30
0.0
 10
586.2415851902915
 20
-595.5874999999996
 30
0.0
 10
561.0677858262352
 20
-595.5874999999996
 30
0.0
 10
539.638086367595
 20
-586.7008000000005
 30
0.0
 10
521.9525868143683
 20
-568.9274000000005
 30
0.0
 10
504.2611872612906
 20
-551.1558999999997
 30
0.0
 10
495.4193874846533
 20
-529.7672000000002
 30
0.0
 10
495.4193874846533
 20
-504.7651999999998
 30
0.0
 10
495.4193874846533
 20
-479.5953
 30
0.0
 10
504.2611872612906
 20
-458.1226999999999
 30
0.0
 10
521.9525868143683
 20
-440.3473000000004
 30
0.0
 10
539.638086367595
 20
-422.5776999999998
 30
0.0
 10
561.0677858262352
 20
-413.6871000000001
 30
0.0
 10
586.2415851902915
 20
-413.6871000000001
 30
0.0
 10
611.4095845544944
 20
-413.6871000000001
 30
0.0
 10
632.8841840120003
 20
-422.5776999999998
 30
0.0
 10
650.659583562956
 20
-440.3473000000004
 30
0.0
 10
668.4290831140606
 20
-458.1226999999999
 30
0.0
 10
677.3177828895132
 20
-479.5953
 30
0.0
 10
677.3177828895132
 20
-504.7651999999998
 30
0.0
  0
SPLINE
  5
EE
330
1F
100
AcDbEntity
  8
engr
 62
     7
370
    35
100
AcDbSpline
210
0.0
220
0.0
230
1.0
 70
    11
 71
     3
 72
    29
 73
    25
 74
     0
 42
0.0000000001
 43
0.0000000001
 12
1.0
 22
0.0
 32
0.0
 13
1.0
 23
0.0
 33
0.0
 40
0.0
 40
0.0
 40
0.0
 40
0.0
 40
1.0
 40
1.0
 40
1.0
 40
2.0
 40
2.0
 40
2.0
 40
3.0
 40
3.0
 40
3.0
 40
4.0
 40
4.0
 40
4.0
 40
5.0
 40
5.0
 40
5.0
 40
6.0
 40
6.0
 40
6.0
 40
7.0
 40
7.0
 40
7.0
 40
8.0
 40
8.0
 40
8.0
 40
8.0
 10
659.2044833470936
 20
-504.7651999999998
 30
0.0
 10
659.2044833470936
 20
-484.527
 30
0.0
 10
652.1009835265431
 20
-467.2632999999996
 30
0.0
 10
637.9036838851971
 20
-452.9762000000001
 30
0.0
 10
623.7005842439976
 20
-438.6890999999996
 30
0.0
 10
606.479884679029
 20
-431.5465000000004
 30
0.0
 10
586.2415851902915
 20
-431.5465000000004
 30
0.0
 10
566.1712856973099
 20
-431.5465000000004
 30
0.0
 10
548.9935861312551
 20
-438.6890999999996
 30
0.0
 10
534.7083864921296
 20
-452.9762000000001
 30
0.0
 10
520.4212868530522
 20
-467.2632999999996
 30
0.0
 10
513.2767870335374
 20
-484.527
 30
0.0
 10
513.2767870335374
 20
-504.7651999999998
 30
0.0
 10
513.2767870335374
 20
-524.8356000000003
 30
0.0
 10
520.4212868530522
 20
-542.0113000000001
 30
0.0
 10
534.7083864921296
 20
-556.2983999999997
 30
0.0
 10
548.9935861312551
 20
-570.5856000000003
 30
0.0
 10
566.1712856973099
 20
-577.7281000000003
 30
0.0
 10
586.2415851902915
 20
-577.7281000000003
 30
0.0
 10
606.479884679029
 20
-577.7281000000003
 30
0.0
 10
623.7005842439976
 20
-570.5856000000003
 30
0.0
 10
637.9036838851971
 20
-556.2983999999997
 30
0.0
 10
652.1009835265431
 20
-542.0113000000001
 30
0.0
 10
659.2044833470936
 20
-524.8356000000003
 30
0.0
 10
659.2044833470936
 20
-504.7651999999998
 30
0.0
  0
SPLINE
  5
EF
330
1F
100
AcDbEntity
  8
engr
 62
     7
370
    35
100
AcDbSpline
210
0.0
220
0.0
230
1.0
 70
    11
 71
     3
 72
    38
 73
    34
 74
     0
 42
0.0000000001
 43
0.0000000001
 12
1.0
 22
0.0
 32
0.0
 13
1.0
 23
0.0
 33
0.0
 40
0.0
 40
0.0
 40
0.0
 40
0.0
 40
1.0
 40
1.0
 40
1.0
 40
2.0
 40
2.0
 40
2.0
 40
3.0
 40
3.0
 40
3.0
 40
4.0
 40
4.0
 40
4.0
 40
5.0
 40
5.0
 40
5.0
 40
6.0
 40
6.0
 40
6.0
 40
7.0
 40
7.0
 40
7.0
 40
8.0
 40
8.0
 40
8.0
 40
9.0
 40
9.0
 40
9.0
 40
10.0
 40
10.0
 40
10.0
 40
11.0
 40
11.0
 40
11.0
 40
11.0
 10
800.2845797831105
 20
-546.6050999999998
 30
0.0
 10
800.2845797831105
 20
-560.2124999999996
 30
0.0
 10
795.477879904538
 20
-571.777
 30
0.0
 10
785.8704801472413
 20
-581.3004000000001
 30
0.0
 10
776.2591803900432
 20
-590.8276999999998
 30
0.0
 10
764.6517806832708
 20
-595.5874999999996
 30
0.0
 10
751.0462810269746
 20
-595.5874999999996
 30
0.0
 10
737.6087813664344
 20
-595.5874999999996
 30
0.0
 10
726.08538165754
 20
-590.8276999999998
 30
0.0
 10
716.4778819002458
 20
-581.3004000000001
 30
0.0
 10
706.8685821429972
 20
-571.777
 30
0.0
 10
702.0638822643741
 20
-560.2124999999996
 30
0.0
 10
702.0638822643741
 20
-546.6050999999998
 30
0.0
 10
702.0638822643741
 20
-539.8042999999998
 30
0.0
 10
703.5071822279133
 20
-532.9996000000001
 30
0.0
 10
706.4017821547895
 20
-526.1949000000004
 30
0.0
 10
706.4017821547895
 20
-526.1949000000004
 30
0.0
 10
753.5950809625865
 20
-417.2593999999999
 30
0.0
 10
753.5950809625865
 20
-417.2593999999999
 30
0.0
 10
753.5950809625865
 20
-417.2593999999999
 30
0.0
 10
772.776780478016
 20
-417.2593999999999
 30
0.0
 10
772.776780478016
 20
-417.2593999999999
 30
0.0
 10
772.776780478016
 20
-417.2593999999999
 30
0.0
 10
737.2025813766959
 20
-499.3746000000001
 30
0.0
 10
737.2025813766959
 20
-499.3746000000001
 30
0.0
 10
741.6282812648933
 20
-498.0366999999997
 30
0.0
 10
746.2278811486976
 20
-497.3667999999998
 30
0.0
 10
750.9954810282579
 20
-497.3667999999998
 30
0.0
 10
764.6126806842585
 20
-497.3667999999998
 30
0.0
 10
776.2318803907328
 20
-502.1733999999997
 30
0.0
 10
785.8548801476354
 20
-511.7808999999997
 30
0.0
 10
795.4739799046365
 20
-521.3922000000002
 30
0.0
 10
800.2845797831105
 20
-532.9996000000001
 30
0.0
 10
800.2845797831105
 20
-546.6050999999998
 30
0.0
  0
SPLINE
  5
F0
330
1F
100
AcDbEntity
  8
engr
 62
     7
370
    35
100
AcDbSpline
210
0.0
220
0.0
230
1.0
 70
    11
 71
     3
 72
    29
 73
    25
 74
     0
 42
0.0000000001
 43
0.0000000001
 12
1.0
 22
0.0
 32
0.0
 13
1.0
 23
0.0
 33
0.0
 40
0.0
 40
0.0
 40
0.0
 40
0.0
 40
1.0
 40
1.0
 40
1.0
 40
2.0
 40
2.0
 40
2.0
 40
3.0
 40
3.0
 40
3.0
 40
4.0
 40
4.0
 40
4.0
 40
5.0
 40
5.0
 40
5.0
 40
6.0
 40
6.0
 40
6.0
 40
7.0
 40
7.0
 40
7.0
 40
8.0
 40
8.0
 40
8.0
 40
8.0
 10
782.4271802342264
 20
-546.732
 30
0.0
 10
782.4271802342264
 20
-538.0249999999996
 30
0.0
 10
779.3646803115917
 20
-530.5953
 30
0.0
 10
773.2415804662742
 20
-524.4488000000001
 30
0.0
 10
767.1185806209542
 20
-518.3024000000005
 30
0.0
 10
759.720080807856
 20
-515.2241999999997
 30
0.0
 10
751.0462810269746
 20
-515.2241999999997
 30
0.0
 10
742.5403812418517
 20
-515.2241999999997
 30
0.0
 10
735.2298814265305
 20
-518.3024000000005
 30
0.0
 10
729.1068815812105
 20
-524.4488000000001
 30
0.0
 10
722.983781735893
 20
-530.5953
 30
0.0
 10
719.9232818132077
 20
-538.0249999999996
 30
0.0
 10
719.9232818132077
 20
-546.732
 30
0.0
 10
719.9232818132077
 20
-555.4409999999998
 30
0.0
 10
722.983781735893
 20
-562.8726999999999
 30
0.0
 10
729.1068815812105
 20
-569.0190999999995
 30
0.0
 10
735.2298814265305
 20
-575.1656000000003
 30
0.0
 10
742.5403812418517
 20
-578.2379000000001
 30
0.0
 10
751.0462810269746
 20
-578.2379000000001
 30
0.0
 10
759.720080807856
 20
-578.2379000000001
 30
0.0
 10
767.1185806209542
 20
-575.1656000000003
 30
0.0
 10
773.2415804662742
 20
-569.0190999999995
 30
0.0
 10
779.3646803115917
 20
-562.8726999999999
 30
0.0
 10
782.4271802342264
 20
-555.4409999999998
 30
0.0
 10
782.4271802342264
 20
-546.732
 30
0.0
  0
ENDSEC
  0
SECTION
  2
OBJECTS
  0
DICTIONARY
  5
C
330
0
100
AcDbDictionary
281
     1
  3
ACAD_GROUP
350
D
  3
ACAD_LAYOUT
350
1A
  3
ACAD_MATERIAL
350
3B
  3
ACAD_MLEADERSTYLE
350
118
  3
ACAD_MLINESTYLE
350
17
  3
ACAD_PLOTSETTINGS
350
19
  3
ACAD_PLOTSTYLENAME
350
E
  3
ACAD_TABLESTYLE
350
117
  3
ACAD_VISUALSTYLE
350
2A
  0
DICTIONARY
  5
D
102
{ACAD_REACTORS
330
C
102
}
330
C
100
AcDbDictionary
281
     1
  0
DICTIONARY
  5
1A
102
{ACAD_REACTORS
330
C
102
}
330
C
100
AcDbDictionary
281
     1
  3
Layout1
350
1E
  3
Layout2
350
26
  3
Model
350
22
  0
DICTIONARY
  5
3B
102
{ACAD_REACTORS
330
C
102
}
330
C
100
AcDbDictionary
281
     1
  3
ByBlock
350
3D
  3
ByLayer
350
3C
  3
Global
350
3E
  0
DICTIONARY
  5
118
102
{ACAD_REACTORS
330
C
102
}
330
C
100
AcDbDictionary
281
     1
  0
DICTIONARY
  5
17
102
{ACAD_REACTORS
330
C
102
}
330
C
100
AcDbDictionary
281
     1
  3
Standard
350
18
  0
DICTIONARY
  5
19
102
{ACAD_REACTORS
330
C
102
}
330
C
100
AcDbDictionary
281
     1
  0
ACDBDICTIONARYWDFLT
  5
E
102
{ACAD_REACTORS
330
C
102
}
330
C
100
AcDbDictionary
281
     1
  3
Normal
350
F
100
AcDbDictionaryWithDefault
340
F
  0
DICTIONARY
  5
117
102
{ACAD_REACTORS
330
C
102
}
330
C
100
AcDbDictionary
281
     1
  0
DICTIONARY
  5
2A
102
{ACAD_REACTORS
330
C
102
}
330
C
100
AcDbDictionary
281
     1
  3
2dWireframe
350
2F
  3
3D Hidden
350
31
  3
3dWireframe
350
30
  3
Basic
350
32
  3
Brighten
350
36
  3
ColorChange
350
3A
  3
Conceptual
350
34
  3
Dim
350
35
  3
Facepattern
350
39
  3
Flat
350
2B
  3
FlatWithEdges
350
2C
  3
Gouraud
350
2D
  3
GouraudWithEdges
350
2E
  3
Linepattern
350
38
  3
Realistic
350
33
  3
Thicken
350
37
  0
LAYOUT
  5
1E
102
{ACAD_REACTORS
330
1A
102
}
330
1A
100
AcDbPlotSettings
  1

  2
none_device
  4

  6

 40
0.0
 41
0.0
 42
0.0
 43
0.0
 44
0.0
 45
0.0
 46
0.0
 47
0.0
 48
0.0
 49
0.0
140
0.0
141
0.0
142
1.0
143
1.0
 70
   688
 72
     0
 73
     0
 74
     5
  7

 75
    16
 76
     0
 77
     2
 78
   300
147
1.0
148
0.0
149
0.0
100
AcDbLayout
  1
Layout1
 70
     1
 71
     1
 10
0.0
 20
0.0
 11
12.0
 21
9.0
 12
0.0
 22
0.0
 32
0.0
 14
1.000000000000000E+20
 24
1.000000000000000E+20
 34
1.000000000000000E+20
 15
-1.000000000000000E+20
 25
-1.000000000000000E+20
 35
-1.000000000000000E+20
146
0.0
 13
0.0
 23
0.0
 33
0.0
 16
1.0
 26
0.0
 36
0.0
 17
0.0
 27
1.0
 37
0.0
 76
     0
330
1B
  0
LAYOUT
  5
26
102
{ACAD_REACTORS
330
1A
102
}
330
1A
100
AcDbPlotSettings
  1

  2
none_device
  4

  6

 40
0.0
 41
0.0
 42
0.0
 43
0.0
 44
0.0
 45
0.0
 46
0.0
 47
0.0
 48
0.0
 49
0.0
140
0.0
141
0.0
142
1.0
143
1.0
 70
   688
 72
     0
 73
     0
 74
     5
  7

 75
    16
 76
     0
 77
     2
 78
   300
147
1.0
148
0.0
149
0.0
100
AcDbLayout
  1
Layout2
 70
     1
 71
     2
 10
0.0
 20
0.0
 11
0.0
 21
0.0
 12
0.0
 22
0.0
 32
0.0
 14
0.0
 24
0.0
 34
0.0
 15
0.0
 25
0.0
 35
0.0
146
0.0
 13
0.0
 23
0.0
 33
0.0
 16
1.0
 26
0.0
 36
0.0
 17
0.0
 27
1.0
 37
0.0
 76
     0
330
23
  0
LAYOUT
  5
22
102
{ACAD_REACTORS
330
1A
102
}
330
1A
100
AcDbPlotSettings
  1

  2
none_device
  4

  6

 40
0.0
 41
0.0
 42
0.0
 43
0.0
 44
0.0
 45
0.0
 46
0.0
 47
0.0
 48
0.0
 49
0.0
140
0.0
141
0.0
142
1.0
143
1.0
 70
  1712
 72
     0
 73
     0
 74
     0
  7

 75
     0
 76
     0
 77
     2
 78
   300
147
1.0
148
0.0
149
0.0
100
AcDbLayout
  1
Model
 70
     1
 71
     0
 10
0.0
 20
0.0
 11
12.0
 21
9.0
 12
0.0
 22
0.0
 32
0.0
 14
1.000000000000000E+20
 24
1.000000000000000E+20
 34
1.000000000000000E+20
 15
-1.000000000000000E+20
 25
-1.000000000000000E+20
 35
-1.000000000000000E+20
146
0.0
 13
0.0
 23
0.0
 33
0.0
 16
1.0
 26
0.0
 36
0.0
 17
0.0
 27
1.0
 37
0.0
 76
     0
330
1F
331
29
  0
MATERIAL
  5
3D
102
{ACAD_REACTORS
330
3B
102
}
102
{ACAD_XDICTIONARY
360
113
102
}
330
3B
100
AcDbMaterial
  1
ByBlock
  0
MATERIAL
  5
3C
102
{ACAD_REACTORS
330
3B
102
}
102
{ACAD_XDICTIONARY
360
111
102
}
330
3B
100
AcDbMaterial
  1
ByLayer
  0
MATERIAL
  5
3E
102
{ACAD_REACTORS
330
3B
102
}
102
{ACAD_XDICTIONARY
360
115
102
}
330
3B
100
AcDbMaterial
  1
Global
  0
MLINESTYLE
  5
18
102
{ACAD_REACTORS
330
17
102
}
330
17
100
AcDbMlineStyle
  2
Standard
 70
     0
  3

 62
   256
 51
90.0
 52
90.0
 71
     2
 49
0.5
 62
   256
  6
BYLAYER
 49
-0.5
 62
   256
  6
BYLAYER
  0
ACDBPLACEHOLDER
  5
F
102
{ACAD_REACTORS
330
E
102
}
330
E
  0
VISUALSTYLE
  5
2F
102
{ACAD_REACTORS
330
2A
102
}
102
{ACAD_XDICTIONARY
360
F9
102
}
330
2A
100
AcDbVisualStyle
  2
2dWireframe
 70
     4
 71
     0
 72
     2
 73
     0
 90
        0
 40
-0.6
 41
-30.0
 62
     5
 63
     7
421
 16777215
 74
     1
 91
        4
 64
     7
 65
   257
 75
     1
175
     1
 42
1.0
 92
        0
 66
   257
 43
1.0
 76
     1
 77
     6
 78
     2
 67
     7
 79
     5
170
     0
171
     0
290
     0
174
     0
 93
        1
 44
0.0
173
     0
291
     0
 45
0.0
1001
ACAD
1000
AcDbSavedByObjectVersion
1070
     0
  0
VISUALSTYLE
  5
31
102
{ACAD_REACTORS
330
2A
102
}
102
{ACAD_XDICTIONARY
360
FD
102
}
330
2A
100
AcDbVisualStyle
  2
3D Hidden
 70
     6
 71
     1
 72
     2
 73
     2
 90
        0
 40
-0.6
 41
-30.0
 62
     5
 63
     7
421
 16777215
 74
     2
 91
        2
 64
     7
 65
   257
 75
     2
175
     1
 42
40.0
 92
        0
 66
   257
 43
1.0
 76
     1
 77
     6
 78
     2
 67
     7
 79
     3
170
     0
171
     0
290
     0
174
     0
 93
        1
 44
0.0
173
     0
291
     0
 45
0.0
1001
ACAD
1000
AcDbSavedByObjectVersion
1070
     0
  0
VISUALSTYLE
  5
30
102
{ACAD_REACTORS
330
2A
102
}
102
{ACAD_XDICTIONARY
360
FB
102
}
330
2A
100
AcDbVisualStyle
  2
3dWireframe
 70
     5
 71
     0
 72
     2
 73
     0
 90
        0
 40
-0.6
 41
-30.0
 62
     5
 63
     7
421
 16777215
 74
     1
 91
        4
 64
     7
 65
   257
 75
     1
175
     1
 42
1.0
 92
        0
 66
   257
 43
1.0
 76
     1
 77
     6
 78
     2
 67
     7
 79
     5
170
     0
171
     0
290
     0
174
     0
 93
        1
 44
0.0
173
     0
291
     0
 45
0.0
1001
ACAD
1000
AcDbSavedByObjectVersion
1070
     0
  0
VISUALSTYLE
  5
32
102
{ACAD_REACTORS
330
2A
102
}
102
{ACAD_XDICTIONARY
360
FF
102
}
330
2A
100
AcDbVisualStyle
  2
Basic
 70
     7
 71
     1
 72
     0
 73
     1
 90
        0
 40
-0.6
 41
-30.0
 62
     5
 63
     7
421
 16777215
 74
     0
 91
        4
 64
     7
 65
   257
 75
     1
175
     1
 42
1.0
 92
        8
 66
     7
 43
1.0
 76
     1
 77
     6
 78
     2
 67
     7
 79
     5
170
     0
171
     0
290
     0
174
     0
 93
        1
 44
0.0
173
     0
291
     1
 45
0.0
1001
ACAD
1000
AcDbSavedByObjectVersion
1070
     0
  0
VISUALSTYLE
  5
36
102
{ACAD_REACTORS
330
2A
102
}
102
{ACAD_XDICTIONARY
360
107
102
}
330
2A
100
AcDbVisualStyle
  2
Brighten
 70
    12
 71
     2
 72
     2
 73
     0
 90
        0
 40
-0.6
 41
-30.0
 62
     5
 63
     7
421
 16777215
 74
     1
 91
        4
 64
     7
 65
   257
 75
     1
175
     1
 42
1.0
 92
        8
 66
     7
 43
1.0
 76
     1
 77
     6
 78
     2
 67
     7
 79
     5
170
     0
171
     0
290
     0
174
     0
 93
        1
 44
50.0
173
     0
291
     1
 45
0.0
1001
ACAD
1000
AcDbSavedByObjectVersion
1070
     0
  0
VISUALSTYLE
  5
3A
102
{ACAD_REACTORS
330
2A
102
}
102
{ACAD_XDICTIONARY
360
10F
102
}
330
2A
100
AcDbVisualStyle
  2
ColorChange
 70
    16
 71
     2
 72
     2
 73
     3
 90
        0
 40
-0.6
 41
-30.0
 62
     5
 63
     8
421
  8421504
 74
     1
 91
        4
 64
     7
 65
   257
 75
     1
175
     1
 42
1.0
 92
        8
 66
     8
424
  8421504
 43
1.0
 76
     1
 77
     6
 78
     2
 67
     7
 79
     5
170
     0
171
     0
290
     0
174
     0
 93
        1
 44
0.0
173
     0
291
     1
 45
0.0
1001
ACAD
1000
AcDbSavedByObjectVersion
1070
     0
  0
VISUALSTYLE
  5
34
102
{ACAD_REACTORS
330
2A
102
}
102
{ACAD_XDICTIONARY
360
103
102
}
330
2A
100
AcDbVisualStyle
  2
Conceptual
 70
     9
 71
     3
 72
     2
 73
     0
 90
        0
 40
-0.6
 41
-30.0
 62
     5
 63
     7
421
 16777215
 74
     2
 91
        2
 64
     7
 65
   257
 75
     1
175
     1
 42
40.0
 92
        8
 66
     7
 43
1.0
 76
     1
 77
     6
 78
     2
 67
     7
 79
     3
170
     0
171
     0
290
     0
174
     0
 93
        1
 44
0.0
173
     0
291
     0
 45
0.0
1001
ACAD
1000
AcDbSavedByObjectVersion
1070
     0
  0
VISUALSTYLE
  5
35
102
{ACAD_REACTORS
330
2A
102
}
102
{ACAD_XDICTIONARY
360
105
102
}
330
2A
100
AcDbVisualStyle
  2
Dim
 70
    11
 71
     2
 72
     2
 73
     0
 90
        0
 40
-0.6
 41
-30.0
 62
     5
 63
     7
421
 16777215
 74
     1
 91
        4
 64
     7
 65
   257
 75
     1
175
     1
 42
1.0
 92
        8
 66
     7
 43
1.0
 76
     1
 77
     6
 78
     2
 67
     7
 79
     5
170
     0
171
     0
290
     0
174
     0
 93
        1
 44
-50.0
173
     0
291
     1
 45
0.0
1001
ACAD
1000
AcDbSavedByObjectVersion
1070
     0
  0
VISUALSTYLE
  5
39
102
{ACAD_REACTORS
330
2A
102
}
102
{ACAD_XDICTIONARY
360
10D
102
}
330
2A
100
AcDbVisualStyle
  2
Facepattern
 70
    15
 71
     2
 72
     2
 73
     0
 90
        0
 40
-0.6
 41
-30.0
 62
     5
 63
     7
421
 16777215
 74
     1
 91
        4
 64
     7
 65
   257
 75
     1
175
     1
 42
1.0
 92
        8
 66
     7
 43
1.0
 76
     1
 77
     6
 78
     2
 67
     7
 79
     5
170
     0
171
     0
290
     0
174
     0
 93
        1
 44
0.0
173
     0
291
     1
 45
0.0
1001
ACAD
1000
AcDbSavedByObjectVersion
1070
     0
  0
VISUALSTYLE
  5
2B
102
{ACAD_REACTORS
330
2A
102
}
102
{ACAD_XDICTIONARY
360
F1
102
}
330
2A
100
AcDbVisualStyle
  2
Flat
 70
     0
 71
     2
 72
     1
 73
     1
 90
        2
 40
-0.6
 41
30.0
 62
     5
 63
     7
421
 16777215
 74
     0
 91
        4
 64
     7
 65
   257
 75
     1
175
     1
 42
1.0
 92
        8
 66
     7
 43
1.0
 76
     1
 77
     6
 78
     2
 67
     7
 79
     5
170
     0
171
     0
290
     0
174
     0
 93
       13
 44
0.0
173
     0
291
     1
 45
0.0
1001
ACAD
1000
AcDbSavedByObjectVersion
1070
     0
  0
VISUALSTYLE
  5
2C
102
{ACAD_REACTORS
330
2A
102
}
102
{ACAD_XDICTIONARY
360
F3
102
}
330
2A
100
AcDbVisualStyle
  2
FlatWithEdges
 70
     1
 71
     2
 72
     1
 73
     1
 90
        2
 40
-0.6
 41
30.0
 62
     5
 63
     7
421
 16777215
 74
     1
 91
        4
 64
     7
 65
   257
 75
     1
175
     1
 42
1.0
 92
        0
 66
   257
 43
1.0
 76
     1
 77
     6
 78
     2
 67
     7
 79
     5
170
     0
171
     0
290
     0
174
     0
 93
       13
 44
0.0
173
     0
291
     1
 45
0.0
1001
ACAD
1000
AcDbSavedByObjectVersion
1070
     0
  0
VISUALSTYLE
  5
2D
102
{ACAD_REACTORS
330
2A
102
}
102
{ACAD_XDICTIONARY
360
F5
102
}
330
2A
100
AcDbVisualStyle
  2
Gouraud
 70
     2
 71
     2
 72
     2
 73
     1
 90
        2
 40
-0.6
 41
30.0
 62
     5
 63
     7
421
 16777215
 74
     0
 91
        4
 64
     7
 65
   257
 75
     1
175
     1
 42
1.0
 92
        0
 66
     7
 43
1.0
 76
     1
 77
     6
 78
     2
 67
     7
 79
     5
170
     0
171
     0
290
     0
174
     0
 93
       13
 44
0.0
173
     0
291
     1
 45
0.0
1001
ACAD
1000
AcDbSavedByObjectVersion
1070
     0
  0
VISUALSTYLE
  5
2E
102
{ACAD_REACTORS
330
2A
102
}
102
{ACAD_XDICTIONARY
360
F7
102
}
330
2A
100
AcDbVisualStyle
  2
GouraudWithEdges
 70
     3
 71
     2
 72
     2
 73
     1
 90
        2
 40
-0.6
 41
30.0
 62
     5
 63
     7
421
 16777215
 74
     1
 91
        4
 64
     7
 65
   257
 75
     1
175
     1
 42
1.0
 92
        0
 66
   257
 43
1.0
 76
     1
 77
     6
 78
     2
 67
     7
 79
     5
170
     0
171
     0
290
     0
174
     0
 93
       13
 44
0.0
173
     0
291
     1
 45
0.0
1001
ACAD
1000
AcDbSavedByObjectVersion
1070
     0
  0
VISUALSTYLE
  5
38
102
{ACAD_REACTORS
330
2A
102
}
102
{ACAD_XDICTIONARY
360
10B
102
}
330
2A
100
AcDbVisualStyle
  2
Linepattern
 70
    14
 71
     2
 72
     2
 73
     0
 90
        0
 40
-0.6
 41
-30.0
 62
     5
 63
     7
421
 16777215
 74
     1
 91
        4
 64
     7
 65
   257
 75
     7
175
     7
 42
1.0
 92
        8
 66
     7
 43
1.0
 76
     1
 77
     6
 78
     2
 67
     7
 79
     5
170
     0
171
     0
290
     0
174
     0
 93
        1
 44
0.0
173
     0
291
     1
 45
0.0
1001
ACAD
1000
AcDbSavedByObjectVersion
1070
     0
  0
VISUALSTYLE
  5
33
102
{ACAD_REACTORS
330
2A
102
}
102
{ACAD_XDICTIONARY
360
101
102
}
330
2A
100
AcDbVisualStyle
  2
Realistic
 70
     8
 71
     2
 72
     2
 73
     0
 90
        0
 40
-0.6
 41
-30.0
 62
     5
 63
     7
421
 16777215
 74
     1
 91
        0
 64
     7
 65
   257
 75
     1
175
     1
 42
1.0
 92
        8
 66
     8
424
  7895160
 43
1.0
 76
     1
 77
     6
 78
     2
 67
     7
 79
     5
170
     0
171
     0
290
     0
174
     0
 93
       13
 44
0.0
173
     0
291
     0
 45
0.0
1001
ACAD
1000
AcDbSavedByObjectVersion
1070
     0
  0
VISUALSTYLE
  5
37
102
{ACAD_REACTORS
330
2A
102
}
102
{ACAD_XDICTIONARY
360
109
102
}
330
2A
100
AcDbVisualStyle
  2
Thicken
 70
    13
 71
     2
 72
     2
 73
     0
 90
        0
 40
-0.6
 41
-30.0
 62
     5
 63
     7
421
 16777215
 74
     1
 91
        4
 64
     7
 65
   257
 75
     1
175
     1
 42
1.0
 92
       12
 66
     7
 43
1.0
 76
     1
 77
     6
 78
     2
 67
     7
 79
     5
170
     0
171
     0
290
     0
174
     0
 93
        1
 44
0.0
173
     0
291
     1
 45
0.0
1001
ACAD
1000
AcDbSavedByObjectVersion
1070
     0
  0
DICTIONARY
  5
113
330
3D
100
AcDbDictionary
280
     1
281
     1
  3
ACAD_XREC_ROUNDTRIP
360
114
  0
DICTIONARY
  5
111
330
3C
100
AcDbDictionary
280
     1
281
     1
  3
ACAD_XREC_ROUNDTRIP
360
112
  0
DICTIONARY
  5
115
330
3E
100
AcDbDictionary
280
     1
281
     1
  3
ACAD_XREC_ROUNDTRIP
360
116
  0
DICTIONARY
  5
F9
330
2F
100
AcDbDictionary
280
     1
281
     1
  3
ACAD_XREC_ROUNDTRIP
360
FA
  0
DICTIONARY
  5
FD
330
31
100
AcDbDictionary
280
     1
281
     1
  3
ACAD_XREC_ROUNDTRIP
360
FE
  0
DICTIONARY
  5
FB
330
30
100
AcDbDictionary
280
     1
281
     1
  3
ACAD_XREC_ROUNDTRIP
360
FC
  0
DICTIONARY
  5
FF
330
32
100
AcDbDictionary
280
     1
281
     1
  3
ACAD_XREC_ROUNDTRIP
360
100
  0
DICTIONARY
  5
107
330
36
100
AcDbDictionary
280
     1
281
     1
  3
ACAD_XREC_ROUNDTRIP
360
108
  0
DICTIONARY
  5
10F
330
3A
100
AcDbDictionary
280
     1
281
     1
  3
ACAD_XREC_ROUNDTRIP
360
110
  0
DICTIONARY
  5
103
330
34
100
AcDbDictionary
280
     1
281
     1
  3
ACAD_XREC_ROUNDTRIP
360
104
  0
DICTIONARY
  5
105
330
35
100
AcDbDictionary
280
     1
281
     1
  3
ACAD_XREC_ROUNDTRIP
360
106
  0
DICTIONARY
  5
10D
330
39
100
AcDbDictionary
280
     1
281
     1
  3
ACAD_XREC_ROUNDTRIP
360
10E
  0
DICTIONARY
  5
F1
330
2B
100
AcDbDictionary
280
     1
281
     1
  3
ACAD_XREC_ROUNDTRIP
360
F2
  0
DICTIONARY
  5
F3
330
2C
100
AcDbDictionary
280
     1
281
     1
  3
ACAD_XREC_ROUNDTRIP
360
F4
  0
DICTIONARY
  5
F5
330
2D
100
AcDbDictionary
280
     1
281
     1
  3
ACAD_XREC_ROUNDTRIP
360
F6
  0
DICTIONARY
  5
F7
330
2E
100
AcDbDictionary
280
     1
281
     1
  3
ACAD_XREC_ROUNDTRIP
360
F8
  0
DICTIONARY
  5
10B
330
38
100
AcDbDictionary
280
     1
281
     1
  3
ACAD_XREC_ROUNDTRIP
360
10C
  0
DICTIONARY
  5
101
330
33
100
AcDbDictionary
280
     1
281
     1
  3
ACAD_XREC_ROUNDTRIP
360
102
  0
DICTIONARY
  5
109
330
37
100
AcDbDictionary
280
     1
281
     1
  3
ACAD_XREC_ROUNDTRIP
360
10A
  0
XRECORD
  5
114
102
{ACAD_REACTORS
330
113
102
}
330
113
100
AcDbXrecord
280
     1
102
MATERIAL
148
0.0
149
0.0
149
0.0
 93
        0
 94
      127
282
     0
 72
     1
 77
     1
171
     1
175
     1
179
     1
273
     0
  0
XRECORD
  5
112
102
{ACAD_REACTORS
330
111
102
}
330
111
100
AcDbXrecord
280
     1
102
MATERIAL
148
0.0
149
0.0
149
0.0
 93
        0
 94
      127
282
     0
 72
     1
 77
     1
171
     1
175
     1
179
     1
273
     0
  0
XRECORD
  5
116
102
{ACAD_REACTORS
330
115
102
}
330
115
100
AcDbXrecord
280
     1
102
MATERIAL
148
0.0
149
0.0
149
0.0
 93
        0
 94
      127
282
     0
 72
     1
 77
     1
171
     1
175
     1
179
     1
273
     0
  0
XRECORD
  5
FA
102
{ACAD_REACTORS
330
F9
102
}
330
F9
100
AcDbXrecord
280
     1
102
RTVSPropertyOp0
 70
     1
102
RTVSPropertyOp1
 70
     1
102
RTVSPropertyOp2
 70
     1
102
RTVSPropertyOp3
 70
     1
102
RTVSPropertyOp4
 70
     1
102
RTVSPropertyOp5
 70
     1
102
RTVSPropertyOp6
 70
     1
102
RTVSPropertyOp7
 70
     1
102
RTVSPropertyOp8
 70
     1
102
RTVSPropertyOp9
 70
     1
102
RTVSPropertyOp10
 70
     1
102
RTVSPropertyOp11
 70
     1
102
RTVSPropertyOp12
 70
     1
102
RTVSPropertyOp13
 70
     1
102
RTVSPropertyOp14
 70
     1
102
RTVSPropertyOp15
 70
     1
102
RTVSPropertyOp16
 70
     1
102
RTVSPropertyOp17
 70
     1
102
RTVSPropertyOp18
 70
     1
102
RTVSPropertyOp19
 70
     1
102
RTVSPropertyOp20
 70
     1
102
RTVSPropertyOp21
 70
     1
102
RTVSPropertyOp22
 70
     1
102
RTVSPropertyOp23
 70
     1
102
RTVSPropertyOp24
 70
     1
102
RTVSPropertyOp25
 70
     1
102
RTVSPropertyOp26
 70
     1
102
RTVSPropertyOp27
 70
     1
102
RTVSPropertyOp28
 70
     1
102
RTVSPropertyOp29
 70
     1
102
RTVSPropertyOp30
 70
     1
102
RTVSPropertyOp31
 70
     1
102
RTVSPropertyOp32
 70
     1
  0
XRECORD
  5
FE
102
{ACAD_REACTORS
330
FD
102
}
330
FD
100
AcDbXrecord
280
     1
102
RTVSPropertyOp0
 70
     1
102
RTVSPropertyOp1
 70
     1
102
RTVSPropertyOp2
 70
     1
102
RTVSPropertyOp3
 70
     1
102
RTVSPropertyOp4
 70
     1
102
RTVSPropertyOp5
 70
     1
102
RTVSPropertyOp6
 70
     1
102
RTVSPropertyOp7
 70
     1
102
RTVSPropertyOp8
 70
     1
102
RTVSPropertyOp9
 70
     1
102
RTVSPropertyOp10
 70
     1
102
RTVSPropertyOp11
 70
     1
102
RTVSPropertyOp12
 70
     1
102
RTVSPropertyOp13
 70
     1
102
RTVSPropertyOp14
 70
     1
102
RTVSPropertyOp15
 70
     1
102
RTVSPropertyOp16
 70
     1
102
RTVSPropertyOp17
 70
     1
102
RTVSPropertyOp18
 70
     1
102
RTVSPropertyOp19
 70
     1
102
RTVSPropertyOp20
 70
     1
102
RTVSPropertyOp21
 70
     1
102
RTVSPropertyOp22
 70
     1
102
RTVSPropertyOp23
 70
     1
102
RTVSPropertyOp24
 70
     1
102
RTVSPropertyOp25
 70
     1
102
RTVSPropertyOp26
 70
     1
102
RTVSPropertyOp27
 70
     1
102
RTVSPropertyOp28
 70
     1
102
RTVSPropertyOp29
 70
     1
102
RTVSPropertyOp30
 70
     1
102
RTVSPropertyOp31
 70
     1
102
RTVSPropertyOp32
 70
     1
  0
XRECORD
  5
FC
102
{ACAD_REACTORS
330
FB
102
}
330
FB
100
AcDbXrecord
280
     1
102
RTVSPropertyOp0
 70
     1
102
RTVSPropertyOp1
 70
     1
102
RTVSPropertyOp2
 70
     1
102
RTVSPropertyOp3
 70
     1
102
RTVSPropertyOp4
 70
     1
102
RTVSPropertyOp5
 70
     1
102
RTVSPropertyOp6
 70
     1
102
RTVSPropertyOp7
 70
     1
102
RTVSPropertyOp8
 70
     1
102
RTVSPropertyOp9
 70
     1
102
RTVSPropertyOp10
 70
     1
102
RTVSPropertyOp11
 70
     1
102
RTVSPropertyOp12
 70
     1
102
RTVSPropertyOp13
 70
     1
102
RTVSPropertyOp14
 70
     1
102
RTVSPropertyOp15
 70
     1
102
RTVSPropertyOp16
 70
     1
102
RTVSPropertyOp17
 70
     1
102
RTVSPropertyOp18
 70
     1
102
RTVSPropertyOp19
 70
     1
102
RTVSPropertyOp20
 70
     1
102
RTVSPropertyOp21
 70
     1
102
RTVSPropertyOp22
 70
     1
102
RTVSPropertyOp23
 70
     1
102
RTVSPropertyOp24
 70
     1
102
RTVSPropertyOp25
 70
     1
102
RTVSPropertyOp26
 70
     1
102
RTVSPropertyOp27
 70
     1
102
RTVSPropertyOp28
 70
     1
102
RTVSPropertyOp29
 70
     1
102
RTVSPropertyOp30
 70
     1
102
RTVSPropertyOp31
 70
     1
102
RTVSPropertyOp32
 70
     1
  0
XRECORD
  5
100
102
{ACAD_REACTORS
330
FF
102
}
330
FF
100
AcDbXrecord
280
     1
102
RTVSPropertyOp0
 70
     1
102
RTVSPropertyOp1
 70
     1
102
RTVSPropertyOp2
 70
     1
102
RTVSPropertyOp3
 70
     1
102
RTVSPropertyOp4
 70
     1
102
RTVSPropertyOp5
 70
     1
102
RTVSPropertyOp6
 70
     1
102
RTVSPropertyOp7
 70
     1
102
RTVSPropertyOp8
 70
     1
102
RTVSPropertyOp9
 70
     1
102
RTVSPropertyOp10
 70
     1
102
RTVSPropertyOp11
 70
     1
102
RTVSPropertyOp12
 70
     1
102
RTVSPropertyOp13
 70
     1
102
RTVSPropertyOp14
 70
     1
102
RTVSPropertyOp15
 70
     1
102
RTVSPropertyOp16
 70
     1
102
RTVSPropertyOp17
 70
     1
102
RTVSPropertyOp18
 70
     1
102
RTVSPropertyOp19
 70
     1
102
RTVSPropertyOp20
 70
     1
102
RTVSPropertyOp21
 70
     1
102
RTVSPropertyOp22
 70
     1
102
RTVSPropertyOp23
 70
     1
102
RTVSPropertyOp24
 70
     1
102
RTVSPropertyOp25
 70
     1
102
RTVSPropertyOp26
 70
     1
102
RTVSPropertyOp27
 70
     1
102
RTVSPropertyOp28
 70
     1
102
RTVSPropertyOp29
 70
     1
102
RTVSPropertyOp30
 70
     1
102
RTVSPropertyOp31
 70
     1
102
RTVSPropertyOp32
 70
     1
  0
XRECORD
  5
108
102
{ACAD_REACTORS
330
107
102
}
330
107
100
AcDbXrecord
280
     1
102
RTVSPropertyOp0
 70
     1
102
RTVSPropertyOp1
 70
     1
102
RTVSPropertyOp2
 70
     1
102
RTVSPropertyOp3
 70
     1
102
RTVSPropertyOp4
 70
     1
102
RTVSPropertyOp5
 70
     1
102
RTVSPropertyOp6
 70
     1
102
RTVSPropertyOp7
 70
     1
102
RTVSPropertyOp8
 70
     1
102
RTVSPropertyOp9
 70
     1
102
RTVSPropertyOp10
 70
     1
102
RTVSPropertyOp11
 70
     1
102
RTVSPropertyOp12
 70
     1
102
RTVSPropertyOp13
 70
     1
102
RTVSPropertyOp14
 70
     1
102
RTVSPropertyOp15
 70
     1
102
RTVSPropertyOp16
 70
     1
102
RTVSPropertyOp17
 70
     1
102
RTVSPropertyOp18
 70
     1
102
RTVSPropertyOp19
 70
     1
102
RTVSPropertyOp20
 70
     1
102
RTVSPropertyOp21
 70
     1
102
RTVSPropertyOp22
 70
     1
102
RTVSPropertyOp23
 70
     1
102
RTVSPropertyOp24
 70
     1
102
RTVSPropertyOp25
 70
     1
102
RTVSPropertyOp26
 70
     1
102
RTVSPropertyOp27
 70
     1
102
RTVSPropertyOp28
 70
     1
102
RTVSPropertyOp29
 70
     1
102
RTVSPropertyOp30
 70
     1
102
RTVSPropertyOp31
 70
     1
102
RTVSPropertyOp32
 70
     1
  0
XRECORD
  5
110
102
{ACAD_REACTORS
330
10F
102
}
330
10F
100
AcDbXrecord
280
     1
102
RTVSPropertyOp0
 70
     1
102
RTVSPropertyOp1
 70
     1
102
RTVSPropertyOp2
 70
     1
102
RTVSPropertyOp3
 70
     1
102
RTVSPropertyOp4
 70
     1
102
RTVSPropertyOp5
 70
     1
102
RTVSPropertyOp6
 70
     1
102
RTVSPropertyOp7
 70
     1
102
RTVSPropertyOp8
 70
     1
102
RTVSPropertyOp9
 70
     1
102
RTVSPropertyOp10
 70
     1
102
RTVSPropertyOp11
 70
     1
102
RTVSPropertyOp12
 70
     1
102
RTVSPropertyOp13
 70
     1
102
RTVSPropertyOp14
 70
     1
102
RTVSPropertyOp15
 70
     1
102
RTVSPropertyOp16
 70
     1
102
RTVSPropertyOp17
 70
     1
102
RTVSPropertyOp18
 70
     1
102
RTVSPropertyOp19
 70
     1
102
RTVSPropertyOp20
 70
     1
102
RTVSPropertyOp21
 70
     1
102
RTVSPropertyOp22
 70
     1
102
RTVSPropertyOp23
 70
     1
102
RTVSPropertyOp24
 70
     1
102
RTVSPropertyOp25
 70
     1
102
RTVSPropertyOp26
 70
     1
102
RTVSPropertyOp27
 70
     1
102
RTVSPropertyOp28
 70
     1
102
RTVSPropertyOp29
 70
     1
102
RTVSPropertyOp30
 70
     1
102
RTVSPropertyOp31
 70
     1
102
RTVSPropertyOp32
 70
     1
  0
XRECORD
  5
104
102
{ACAD_REACTORS
330
103
102
}
330
103
100
AcDbXrecord
280
     1
102
RTVSPropertyOp0
 70
     1
102
RTVSPropertyOp1
 70
     1
102
RTVSPropertyOp2
 70
     1
102
RTVSPropertyOp3
 70
     1
102
RTVSPropertyOp4
 70
     1
102
RTVSPropertyOp5
 70
     1
102
RTVSPropertyOp6
 70
     1
102
RTVSPropertyOp7
 70
     1
102
RTVSPropertyOp8
 70
     1
102
RTVSPropertyOp9
 70
     1
102
RTVSPropertyOp10
 70
     1
102
RTVSPropertyOp11
 70
     1
102
RTVSPropertyOp12
 70
     1
102
RTVSPropertyOp13
 70
     1
102
RTVSPropertyOp14
 70
     1
102
RTVSPropertyOp15
 70
     1
102
RTVSPropertyOp16
 70
     1
102
RTVSPropertyOp17
 70
     1
102
RTVSPropertyOp18
 70
     1
102
RTVSPropertyOp19
 70
     1
102
RTVSPropertyOp20
 70
     1
102
RTVSPropertyOp21
 70
     1
102
RTVSPropertyOp22
 70
     1
102
RTVSPropertyOp23
 70
     1
102
RTVSPropertyOp24
 70
     1
102
RTVSPropertyOp25
 70
     1
102
RTVSPropertyOp26
 70
     1
102
RTVSPropertyOp27
 70
     1
102
RTVSPropertyOp28
 70
     1
102
RTVSPropertyOp29
 70
     1
102
RTVSPropertyOp30
 70
     1
102
RTVSPropertyOp31
 70
     1
102
RTVSPropertyOp32
 70
     1
  0
XRECORD
  5
106
102
{ACAD_REACTORS
330
105
102
}
330
105
100
AcDbXrecord
280
     1
102
RTVSPropertyOp0
 70
     1
102
RTVSPropertyOp1
 70
     1
102
RTVSPropertyOp2
 70
     1
102
RTVSPropertyOp3
 70
     1
102
RTVSPropertyOp4
 70
     1
102
RTVSPropertyOp5
 70
     1
102
RTVSPropertyOp6
 70
     1
102
RTVSPropertyOp7
 70
     1
102
RTVSPropertyOp8
 70
     1
102
RTVSPropertyOp9
 70
     1
102
RTVSPropertyOp10
 70
     1
102
RTVSPropertyOp11
 70
     1
102
RTVSPropertyOp12
 70
     1
102
RTVSPropertyOp13
 70
     1
102
RTVSPropertyOp14
 70
     1
102
RTVSPropertyOp15
 70
     1
102
RTVSPropertyOp16
 70
     1
102
RTVSPropertyOp17
 70
     1
102
RTVSPropertyOp18
 70
     1
102
RTVSPropertyOp19
 70
     1
102
RTVSPropertyOp20
 70
     1
102
RTVSPropertyOp21
 70
     1
102
RTVSPropertyOp22
 70
     1
102
RTVSPropertyOp23
 70
     1
102
RTVSPropertyOp24
 70
     1
102
RTVSPropertyOp25
 70
     1
102
RTVSPropertyOp26
 70
     1
102
RTVSPropertyOp27
 70
     1
102
RTVSPropertyOp28
 70
     1
102
RTVSPropertyOp29
 70
     1
102
RTVSPropertyOp30
 70
     1
102
RTVSPropertyOp31
 70
     1
102
RTVSPropertyOp32
 70
     1
  0
XRECORD
  5
10E
102
{ACAD_REACTORS
330
10D
102
}
330
10D
100
AcDbXrecord
280
     1
102
RTVSPropertyOp0
 70
     1
102
RTVSPropertyOp1
 70
     1
102
RTVSPropertyOp2
 70
     1
102
RTVSPropertyOp3
 70
     1
102
RTVSPropertyOp4
 70
     1
102
RTVSPropertyOp5
 70
     1
102
RTVSPropertyOp6
 70
     1
102
RTVSPropertyOp7
 70
     1
102
RTVSPropertyOp8
 70
     1
102
RTVSPropertyOp9
 70
     1
102
RTVSPropertyOp10
 70
     1
102
RTVSPropertyOp11
 70
     1
102
RTVSPropertyOp12
 70
     1
102
RTVSPropertyOp13
 70
     1
102
RTVSPropertyOp14
 70
     1
102
RTVSPropertyOp15
 70
     1
102
RTVSPropertyOp16
 70
     1
102
RTVSPropertyOp17
 70
     1
102
RTVSPropertyOp18
 70
     1
102
RTVSPropertyOp19
 70
     1
102
RTVSPropertyOp20
 70
     1
102
RTVSPropertyOp21
 70
     1
102
RTVSPropertyOp22
 70
     1
102
RTVSPropertyOp23
 70
     1
102
RTVSPropertyOp24
 70
     1
102
RTVSPropertyOp25
 70
     1
102
RTVSPropertyOp26
 70
     1
102
RTVSPropertyOp27
 70
     1
102
RTVSPropertyOp28
 70
     1
102
RTVSPropertyOp29
 70
     1
102
RTVSPropertyOp30
 70
     1
102
RTVSPropertyOp31
 70
     1
102
RTVSPropertyOp32
 70
     1
  0
XRECORD
  5
F2
102
{ACAD_REACTORS
330
F1
102
}
330
F1
100
AcDbXrecord
280
     1
102
RTVSPropertyOp0
 70
     1
102
RTVSPropertyOp1
 70
     1
102
RTVSPropertyOp2
 70
     1
102
RTVSPropertyOp3
 70
     1
102
RTVSPropertyOp4
 70
     1
102
RTVSPropertyOp5
 70
     1
102
RTVSPropertyOp6
 70
     1
102
RTVSPropertyOp7
 70
     1
102
RTVSPropertyOp8
 70
     1
102
RTVSPropertyOp9
 70
     1
102
RTVSPropertyOp10
 70
     1
102
RTVSPropertyOp11
 70
     1
102
RTVSPropertyOp12
 70
     1
102
RTVSPropertyOp13
 70
     1
102
RTVSPropertyOp14
 70
     1
102
RTVSPropertyOp15
 70
     1
102
RTVSPropertyOp16
 70
     1
102
RTVSPropertyOp17
 70
     1
102
RTVSPropertyOp18
 70
     1
102
RTVSPropertyOp19
 70
     1
102
RTVSPropertyOp20
 70
     1
102
RTVSPropertyOp21
 70
     1
102
RTVSPropertyOp22
 70
     1
102
RTVSPropertyOp23
 70
     1
102
RTVSPropertyOp24
 70
     1
102
RTVSPropertyOp25
 70
     1
102
RTVSPropertyOp26
 70
     1
102
RTVSPropertyOp27
 70
     1
102
RTVSPropertyOp28
 70
     1
102
RTVSPropertyOp29
 70
     1
102
RTVSPropertyOp30
 70
     1
102
RTVSPropertyOp31
 70
     1
102
RTVSPropertyOp32
 70
     1
  0
XRECORD
  5
F4
102
{ACAD_REACTORS
330
F3
102
}
330
F3
100
AcDbXrecord
280
     1
102
RTVSPropertyOp0
 70
     1
102
RTVSPropertyOp1
 70
     1
102
RTVSPropertyOp2
 70
     1
102
RTVSPropertyOp3
 70
     1
102
RTVSPropertyOp4
 70
     1
102
RTVSPropertyOp5
 70
     1
102
RTVSPropertyOp6
 70
     1
102
RTVSPropertyOp7
 70
     1
102
RTVSPropertyOp8
 70
     1
102
RTVSPropertyOp9
 70
     1
102
RTVSPropertyOp10
 70
     1
102
RTVSPropertyOp11
 70
     1
102
RTVSPropertyOp12
 70
     1
102
RTVSPropertyOp13
 70
     1
102
RTVSPropertyOp14
 70
     1
102
RTVSPropertyOp15
 70
     1
102
RTVSPropertyOp16
 70
     1
102
RTVSPropertyOp17
 70
     1
102
RTVSPropertyOp18
 70
     1
102
RTVSPropertyOp19
 70
     1
102
RTVSPropertyOp20
 70
     1
102
RTVSPropertyOp21
 70
     1
102
RTVSPropertyOp22
 70
     1
102
RTVSPropertyOp23
 70
     1
102
RTVSPropertyOp24
 70
     1
102
RTVSPropertyOp25
 70
     1
102
RTVSPropertyOp26
 70
     1
102
RTVSPropertyOp27
 70
     1
102
RTVSPropertyOp28
 70
     1
102
RTVSPropertyOp29
 70
     1
102
RTVSPropertyOp30
 70
     1
102
RTVSPropertyOp31
 70
     1
102
RTVSPropertyOp32
 70
     1
  0
XRECORD
  5
F6
102
{ACAD_REACTORS
330
F5
102
}
330
F5
100
AcDbXrecord
280
     1
102
RTVSPropertyOp0
 70
     1
102
RTVSPropertyOp1
 70
     1
102
RTVSPropertyOp2
 70
     1
102
RTVSPropertyOp3
 70
     1
102
RTVSPropertyOp4
 70
     1
102
RTVSPropertyOp5
 70
     1
102
RTVSPropertyOp6
 70
     1
102
RTVSPropertyOp7
 70
     1
102
RTVSPropertyOp8
 70
     1
102
RTVSPropertyOp9
 70
     1
102
RTVSPropertyOp10
 70
     1
102
RTVSPropertyOp11
 70
     1
102
RTVSPropertyOp12
 70
     1
102
RTVSPropertyOp13
 70
     1
102
RTVSPropertyOp14
 70
     1
102
RTVSPropertyOp15
 70
     1
102
RTVSPropertyOp16
 70
     1
102
RTVSPropertyOp17
 70
     1
102
RTVSPropertyOp18
 70
     1
102
RTVSPropertyOp19
 70
     1
102
RTVSPropertyOp20
 70
     1
102
RTVSPropertyOp21
 70
     1
102
RTVSPropertyOp22
 70
     1
102
RTVSPropertyOp23
 70
     1
102
RTVSPropertyOp24
 70
     1
102
RTVSPropertyOp25
 70
     1
102
RTVSPropertyOp26
 70
     1
102
RTVSPropertyOp27
 70
     1
102
RTVSPropertyOp28
 70
     1
102
RTVSPropertyOp29
 70
     1
102
RTVSPropertyOp30
 70
     1
102
RTVSPropertyOp31
 70
     1
102
RTVSPropertyOp32
 70
     1
  0
XRECORD
  5
F8
102
{ACAD_REACTORS
330
F7
102
}
330
F7
100
AcDbXrecord
280
     1
102
RTVSPropertyOp0
 70
     1
102
RTVSPropertyOp1
 70
     1
102
RTVSPropertyOp2
 70
     1
102
RTVSPropertyOp3
 70
     1
102
RTVSPropertyOp4
 70
     1
102
RTVSPropertyOp5
 70
     1
102
RTVSPropertyOp6
 70
     1
102
RTVSPropertyOp7
 70
     1
102
RTVSPropertyOp8
 70
     1
102
RTVSPropertyOp9
 70
     1
102
RTVSPropertyOp10
 70
     1
102
RTVSPropertyOp11
 70
     1
102
RTVSPropertyOp12
 70
     1
102
RTVSPropertyOp13
 70
     1
102
RTVSPropertyOp14
 70
     1
102
RTVSPropertyOp15
 70
     1
102
RTVSPropertyOp16
 70
     1
102
RTVSPropertyOp17
 70
     1
102
RTVSPropertyOp18
 70
     1
102
RTVSPropertyOp19
 70
     1
102
RTVSPropertyOp20
 70
     1
102
RTVSPropertyOp21
 70
     1
102
RTVSPropertyOp22
 70
     1
102
RTVSPropertyOp23
 70
     1
102
RTVSPropertyOp24
 70
     1
102
RTVSPropertyOp25
 70
     1
102
RTVSPropertyOp26
 70
     1
102
RTVSPropertyOp27
 70
     1
102
RTVSPropertyOp28
 70
     1
102
RTVSPropertyOp29
 70
     1
102
RTVSPropertyOp30
 70
     1
102
RTVSPropertyOp31
 70
     1
102
RTVSPropertyOp32
 70
     1
  0
XRECORD
  5
10C
102
{ACAD_REACTORS
330
10B
102
}
330
10B
100
AcDbXrecord
280
     1
102
RTVSPropertyOp0
 70
     1
102
RTVSPropertyOp1
 70
     1
102
RTVSPropertyOp2
 70
     1
102
RTVSPropertyOp3
 70
     1
102
RTVSPropertyOp4
 70
     1
102
RTVSPropertyOp5
 70
     1
102
RTVSPropertyOp6
 70
     1
102
RTVSPropertyOp7
 70
     1
102
RTVSPropertyOp8
 70
     1
102
RTVSPropertyOp9
 70
     1
102
RTVSPropertyOp10
 70
     1
102
RTVSPropertyOp11
 70
     1
102
RTVSPropertyOp12
 70
     1
102
RTVSPropertyOp13
 70
     1
102
RTVSPropertyOp14
 70
     1
102
RTVSPropertyOp15
 70
     1
102
RTVSPropertyOp16
 70
     1
102
RTVSPropertyOp17
 70
     1
102
RTVSPropertyOp18
 70
     1
102
RTVSPropertyOp19
 70
     1
102
RTVSPropertyOp20
 70
     1
102
RTVSPropertyOp21
 70
     1
102
RTVSPropertyOp22
 70
     1
102
RTVSPropertyOp23
 70
     1
102
RTVSPropertyOp24
 70
     1
102
RTVSPropertyOp25
 70
     1
102
RTVSPropertyOp26
 70
     1
102
RTVSPropertyOp27
 70
     1
102
RTVSPropertyOp28
 70
     1
102
RTVSPropertyOp29
 70
     1
102
RTVSPropertyOp30
 70
     1
102
RTVSPropertyOp31
 70
     1
102
RTVSPropertyOp32
 70
     1
  0
XRECORD
  5
102
102
{ACAD_REACTORS
330
101
102
}
330
101
100
AcDbXrecord
280
     1
102
RTVSPropertyOp0
 70
     1
102
RTVSPropertyOp1
 70
     1
102
RTVSPropertyOp2
 70
     1
102
RTVSPropertyOp3
 70
     1
102
RTVSPropertyOp4
 70
     1
102
RTVSPropertyOp5
 70
     1
102
RTVSPropertyOp6
 70
     1
102
RTVSPropertyOp7
 70
     1
102
RTVSPropertyOp8
 70
     1
102
RTVSPropertyOp9
 70
     1
102
RTVSPropertyOp10
 70
     1
102
RTVSPropertyOp11
 70
     1
102
RTVSPropertyOp12
 70
     1
102
RTVSPropertyOp13
 70
     1
102
RTVSPropertyOp14
 70
     1
102
RTVSPropertyOp15
 70
     1
102
RTVSPropertyOp16
 70
     1
102
RTVSPropertyOp17
 70
     1
102
RTVSPropertyOp18
 70
     1
102
RTVSPropertyOp19
 70
     1
102
RTVSPropertyOp20
 70
     1
102
RTVSPropertyOp21
 70
     1
102
RTVSPropertyOp22
 70
     1
102
RTVSPropertyOp23
 70
     1
102
RTVSPropertyOp24
 70
     1
102
RTVSPropertyOp25
 70
     1
102
RTVSPropertyOp26
 70
     1
102
RTVSPropertyOp27
 70
     1
102
RTVSPropertyOp28
 70
     1
102
RTVSPropertyOp29
 70
     1
102
RTVSPropertyOp30
 70
     1
102
RTVSPropertyOp31
 70
     1
102
RTVSPropertyOp32
 70
     1
  0
XRECORD
  5
10A
102
{ACAD_REACTORS
330
109
102
}
330
109
100
AcDbXrecord
280
     1
102
RTVSPropertyOp0
 70
     1
102
RTVSPropertyOp1
 70
     1
102
RTVSPropertyOp2
 70
     1
102
RTVSPropertyOp3
 70
     1
102
RTVSPropertyOp4
 70
     1
102
RTVSPropertyOp5
 70
     1
102
RTVSPropertyOp6
 70
     1
102
RTVSPropertyOp7
 70
     1
102
RTVSPropertyOp8
 70
     1
102
RTVSPropertyOp9
 70
     1
102
RTVSPropertyOp10
 70
     1
102
RTVSPropertyOp11
 70
     1
102
RTVSPropertyOp12
 70
     1
102
RTVSPropertyOp13
 70
     1
102
RTVSPropertyOp14
 70
     1
102
RTVSPropertyOp15
 70
     1
102
RTVSPropertyOp16
 70
     1
102
RTVSPropertyOp17
 70
     1
102
RTVSPropertyOp18
 70
     1
102
RTVSPropertyOp19
 70
     1
102
RTVSPropertyOp20
 70
     1
102
RTVSPropertyOp21
 70
     1
102
RTVSPropertyOp22
 70
     1
102
RTVSPropertyOp23
 70
     1
102
RTVSPropertyOp24
 70
     1
102
RTVSPropertyOp25
 70
     1
102
RTVSPropertyOp26
 70
     1
102
RTVSPropertyOp27
 70
     1
102
RTVSPropertyOp28
 70
     1
102
RTVSPropertyOp29
 70
     1
102
RTVSPropertyOp30
 70
     1
102
RTVSPropertyOp31
 70
     1
102
RTVSPropertyOp32
 70
     1
  0
ENDSEC
  0
EOF
